ply
format ascii 1.0
comment openVA ply exporter, (c) Peter Felfer, The University of Sydney 2013, Rhett MPIE modified 2019
comment -83.4 to 172 atoms/nm2
element vertex 78
property float x
property float y
property float z
property uchar red
property uchar green
property uchar blue
property float value
element face 119
property list uchar uint vertex_indices
end_header
18.086031 14.705873 -29.197260 0 0 0 0.000000
18.241680 12.708618 -28.546373 0 0 0 0.000000
18.461481 10.784305 -28.423458 80 80 80 0.314027
18.747356 8.823521 -28.411005 132 132 132 0.517510
18.796019 6.862737 -28.408886 135 135 135 0.528890
18.786688 4.901953 -28.409292 122 122 122 0.478362
18.737633 2.941169 -28.411428 83 83 83 0.326904
18.588449 0.980384 -28.417927 83 83 83 0.326904
18.524860 -0.980400 -28.420698 120 120 120 0.472101
18.611929 -2.941184 -28.416904 140 140 140 0.547947
18.797926 -4.901968 -28.408802 162 162 162 0.635383
18.897211 -6.862751 -28.404478 148 148 148 0.579063
18.709293 -8.823536 -28.412663 115 115 115 0.452917
19.079376 -10.784320 -28.609032 117 117 117 0.459067
18.928261 -12.745104 -29.012779 117 117 117 0.459067
21.251270 4.901953 -17.655058 37 37 37 0.143640
21.397066 2.941169 -17.693567 40 40 40 0.156899
21.392591 0.980384 -17.692387 85 85 85 0.331750
21.347490 -0.980400 -17.680473 40 40 40 0.155822
21.230259 -2.941184 -17.649508 40 40 40 0.155822
21.073456 -4.901968 -17.608089 40 40 40 0.155822
20.072115 12.745089 -29.758999 0 0 0 0.000000
18.814289 12.745089 -26.461014 105 105 105 0.410525
19.141431 10.364225 -26.611111 188 188 188 0.738597
19.588486 10.784305 -24.775578 255 255 255 1.000000
19.806637 10.784305 -22.943268 154 154 154 0.605501
19.334426 8.270488 -26.636626 112 112 112 0.438102
19.699917 8.727236 -24.837852 117 117 117 0.460627
19.989173 8.820161 -23.009209 119 119 119 0.467953
20.246936 8.823565 -21.169679 54 54 54 0.211002
19.409641 6.678523 -26.646900 148 148 148 0.580657
19.788544 6.572443 -24.974658 42 42 42 0.165786
20.106073 6.828540 -23.088568 18 18 18 0.071698
20.425425 6.866112 -21.238579 117 117 117 0.458887
20.704165 6.862292 -19.400048 69 69 69 0.271176
19.331495 5.004005 -26.482578 148 148 148 0.579293
19.821957 4.820817 -24.820233 119 119 119 0.467338
20.114059 4.855386 -23.465544 91 91 91 0.356877
20.426551 4.726232 -21.520908 122 122 122 0.479005
20.735395 5.131210 -19.769291 86 86 86 0.338177
19.126950 3.246870 -26.808606 121 121 121 0.474501
19.775695 2.910339 -24.946536 106 106 106 0.414211
20.220368 2.907744 -22.757975 139 139 139 0.543222
20.544756 2.603866 -20.933710 143 143 143 0.562301
20.860452 3.442484 -19.448616 100 100 100 0.393758
19.240828 1.231848 -26.468772 146 146 146 0.573734
19.866708 0.733384 -24.578407 108 108 108 0.421706
20.238068 1.002503 -23.006680 167 167 167 0.654556
20.493532 0.888857 -21.161458 139 139 139 0.544448
20.977843 1.225118 -19.210469 174 174 174 0.682529
18.956324 -0.897629 -26.952272 138 138 138 0.541451
19.555904 -0.970184 -25.312625 134 134 134 0.523710
20.195639 -1.212458 -23.307255 149 149 149 0.585721
20.569154 -1.013693 -21.343672 138 138 138 0.539380
20.914669 -0.657065 -19.671489 167 167 167 0.656403
19.126156 -2.939673 -26.697776 101 101 101 0.396743
19.756951 -2.950181 -24.971008 166 166 166 0.652664
20.156660 -3.270142 -23.372937 172 172 172 0.675037
20.509903 -2.976116 -21.776094 153 153 153 0.600533
20.912323 -2.690781 -19.770195 115 115 115 0.451730
19.363786 -5.088240 -26.478645 148 148 148 0.578518
19.792720 -4.740624 -24.643700 170 170 170 0.666535
20.158449 -5.004797 -23.100326 184 184 184 0.722254
20.503665 -4.839446 -21.303773 154 154 154 0.602419
20.816376 -4.901968 -19.430117 99 99 99 0.388975
19.376408 -6.925195 -26.598168 146 146 146 0.572879
19.700630 -6.689564 -24.965813 180 180 180 0.704204
20.164004 -6.875923 -23.099516 185 185 185 0.727155
20.431740 -6.862751 -21.218452 115 115 115 0.451157
20.731342 -6.862751 -19.407656 132 132 132 0.516898
19.302792 -8.368464 -26.628580 108 108 108 0.424757
19.643177 -8.748695 -24.861606 106 106 106 0.417247
19.945122 -8.823536 -22.979847 15 15 15 0.057049
20.219606 -8.823536 -21.162418 25 25 25 0.099284
19.080793 -10.784320 -26.531408 89 89 89 0.348781
19.366722 -10.784320 -24.717001 73 73 73 0.287495
19.673193 -10.784320 -22.908020 83 83 83 0.326904
18.798937 -12.745104 -26.456959 108 108 108 0.422305
3 1 2 22
3 2 3 23
3 3 4 26
3 4 35 30
3 5 40 35
3 6 45 40
3 7 50 45
3 8 9 50
3 9 10 55
3 10 11 60
3 11 70 65
3 12 74 70
3 13 77 74
3 0 21 1
3 1 21 2
3 71 75 72
3 70 74 71
3 67 72 68
3 66 71 67
3 65 70 66
3 63 68 64
3 62 67 63
3 61 66 62
3 60 66 61
3 59 64 19
3 58 63 59
3 57 62 58
3 56 61 57
3 55 60 56
3 54 59 18
3 53 59 54
3 52 58 53
3 51 56 52
3 50 55 51
3 49 18 17
3 48 54 49
3 47 53 48
3 46 52 47
3 45 51 46
3 44 49 16
3 43 49 44
3 42 48 43
3 41 47 42
3 40 45 41
3 39 44 15
3 38 44 39
3 37 42 38
3 36 41 37
3 35 41 36
3 33 39 34
3 32 38 33
3 31 37 32
3 30 35 31
3 28 33 29
3 27 32 28
3 26 31 27
3 24 28 25
3 23 27 24
3 68 69 64
3 9 55 50
3 10 60 55
3 74 75 71
3 0 1 22
3 4 5 35
3 5 6 40
3 6 7 45
3 7 8 50
3 11 65 60
3 11 12 70
3 12 13 74
3 13 14 77
3 61 62 57
3 60 61 56
3 59 19 18
3 70 71 66
3 4 30 26
3 55 56 51
3 60 65 66
3 53 58 59
3 52 57 58
3 49 54 18
3 48 53 54
3 47 52 53
3 46 51 52
3 45 50 51
3 43 48 49
3 42 47 48
3 41 46 47
3 38 43 44
3 35 40 41
3 34 39 15
3 33 38 39
3 32 37 38
3 31 36 37
3 29 33 34
3 28 32 33
3 27 31 32
3 26 30 31
3 25 28 29
3 24 27 28
3 23 26 27
3 22 23 24
3 64 20 19
3 72 73 68
3 62 63 58
3 63 64 59
3 67 68 63
3 44 16 15
3 66 67 62
3 2 23 22
3 71 72 67
3 42 43 38
3 56 57 52
3 49 17 16
3 45 46 41
3 75 76 72
3 35 36 31
3 41 42 37
3 3 26 23
