ply
format ascii 1.0
comment openVA ply exporter, (c) Peter Felfer, The University of Sydney 2013, Rhett MPIE modified 2019
comment -30.2 to 179 atoms/nm2
element vertex 195
property float x
property float y
property float z
property uchar red
property uchar green
property uchar blue
property float value
element face 333
property list uchar uint vertex_indices
end_header
3.073044 16.666656 9.251796 211 211 211 0.827504
3.045675 14.705873 9.382265 169 169 169 0.661197
3.018653 12.745089 9.511081 174 174 174 0.683125
3.015320 10.784305 9.526971 151 151 151 0.591563
3.006387 8.823521 9.569551 246 246 246 0.964982
2.987174 6.862737 9.661143 179 179 179 0.701278
2.954237 4.901953 9.818158 114 114 114 0.447854
2.949502 2.941169 9.840726 146 146 146 0.574248
2.969954 0.980384 9.743232 138 138 138 0.540297
2.987711 -0.980400 9.658584 126 126 126 0.494824
3.018784 -2.941184 9.510458 145 145 145 0.569367
3.046168 -4.901968 9.379913 174 174 174 0.682726
3.047304 -6.862751 9.374500 111 111 111 0.436227
3.053491 -8.823536 9.345005 130 130 130 0.509897
3.055218 -10.784320 9.336775 146 146 146 0.573914
3.035725 -12.745104 9.429696 255 255 255 1.000000
3.030137 -14.705888 9.456338 180 180 180 0.707195
3.024617 -16.666672 9.482648 167 167 167 0.655186
14.412584 0.980384 33.089252 191 191 191 0.749130
14.439273 -0.980400 33.075768 199 199 199 0.780771
3.908847 16.666656 11.230482 114 114 114 0.448720
4.633296 16.666656 12.954130 60 60 60 0.237022
5.337802 16.666656 14.687855 86 86 86 0.339144
3.805334 14.446839 10.941709 73 73 73 0.286373
4.569672 14.702681 12.897091 53 53 53 0.208080
5.448013 14.448370 14.881064 77 77 77 0.300182
6.225113 14.705873 16.329216 163 163 163 0.640272
7.029236 14.705873 18.012609 135 135 135 0.528059
7.835334 14.705873 19.695005 144 144 144 0.563726
3.937719 12.513948 11.361907 39 39 39 0.151276
4.773621 12.447169 13.198067 88 88 88 0.346372
5.385233 12.692825 14.709783 95 95 95 0.374302
6.121963 12.935249 16.181887 74 74 74 0.288326
6.850125 12.747005 17.586630 131 131 131 0.512241
7.784570 12.571439 19.386574 156 156 156 0.612358
8.708624 12.745089 21.343452 140 140 140 0.550760
9.377743 12.745089 23.095055 155 155 155 0.607330
3.806036 10.450800 10.986505 75 75 75 0.295283
4.487568 10.673267 12.529404 134 134 134 0.526098
5.296401 10.518116 14.447683 164 164 164 0.644774
6.156024 11.172437 16.192734 117 117 117 0.458079
6.993256 10.792529 17.840159 0 0 0 0.000000
7.959570 10.312019 19.542726 145 145 145 0.569783
8.724028 10.759106 21.214485 107 107 107 0.419858
9.461901 10.782500 23.015799 168 168 168 0.658612
10.166820 10.784487 24.785856 140 140 140 0.549772
3.901054 8.703263 11.137688 123 123 123 0.480615
4.634975 8.581691 13.049844 155 155 155 0.608842
5.282316 8.700588 14.702004 158 158 158 0.621248
6.185419 8.896614 16.276853 160 160 160 0.628966
7.275017 8.765374 18.261184 137 137 137 0.536366
8.049160 8.657378 19.697822 166 166 166 0.649710
8.738208 8.559740 21.141003 151 151 151 0.591437
9.545147 8.811409 22.909614 94 94 94 0.370130
10.289317 8.828483 24.691465 156 156 156 0.610756
10.984891 8.823521 26.462395 129 129 129 0.507641
11.645442 8.823521 28.218325 166 166 166 0.649740
3.916154 6.825790 11.255405 37 37 37 0.144231
4.644685 6.351621 12.973470 115 115 115 0.451365
5.312641 7.188832 14.687399 147 147 147 0.576085
6.085998 6.657284 16.076829 162 162 162 0.634660
6.874408 6.901543 17.556752 155 155 155 0.607370
7.904797 6.748798 19.521318 142 142 142 0.556400
8.785562 6.755998 21.229066 155 155 155 0.608964
9.399047 6.825299 22.582043 131 131 131 0.513131
10.222938 6.694226 24.414841 77 77 77 0.303153
11.006712 6.853321 26.330710 89 89 89 0.349636
11.693731 6.857161 28.155658 129 129 129 0.507195
12.384120 6.861861 29.935716 130 130 130 0.510069
3.847042 4.828875 11.294500 95 95 95 0.371661
4.490915 4.468744 12.735861 118 118 118 0.462701
5.376819 4.858481 14.592150 151 151 151 0.592814
6.279819 5.088087 16.458497 151 151 151 0.591307
7.179988 4.747552 18.091802 144 144 144 0.564709
7.993955 4.840227 19.643218 121 121 121 0.474112
8.766886 4.837008 21.228960 86 86 86 0.336170
9.588640 5.124157 23.111251 98 98 98 0.386258
10.225862 4.598181 24.435730 114 114 114 0.447843
11.036808 4.715473 26.112911 131 131 131 0.514493
11.856321 4.896794 27.982263 126 126 126 0.492934
12.562521 4.903215 29.798355 95 95 95 0.373273
13.369803 4.901953 31.526442 113 113 113 0.441671
3.930680 2.814890 11.687632 166 166 166 0.650492
4.803976 2.832530 13.462554 161 161 161 0.631389
5.486575 2.911967 14.797992 171 171 171 0.669972
6.237415 2.983153 16.335558 164 164 164 0.642043
7.226780 2.635702 18.224100 161 161 161 0.629687
8.099144 3.055507 19.835112 102 102 102 0.398870
8.889777 2.936009 21.333637 127 127 127 0.498805
9.510194 2.934760 22.946307 144 144 144 0.566227
10.385653 3.081852 24.843276 146 146 146 0.572464
11.177984 2.449645 26.362292 96 96 96 0.377565
11.986010 2.902475 27.940388 106 106 106 0.417436
12.741144 2.950572 29.696386 83 83 83 0.325440
13.533664 2.941169 31.443653 133 133 133 0.521400
3.867316 0.974712 11.349213 161 161 161 0.633020
4.666633 0.940963 13.089650 132 132 132 0.517913
5.549819 1.105283 14.925834 116 116 116 0.453600
6.264006 1.013377 16.426603 163 163 163 0.638884
7.018740 0.751938 17.826002 147 147 147 0.577216
7.864713 1.177948 19.450830 65 65 65 0.254653
8.749627 0.982739 21.273201 147 147 147 0.576784
9.619479 0.979413 22.944836 140 140 140 0.547940
10.262527 1.154799 24.467620 154 154 154 0.604085
11.068971 0.595333 26.014825 171 171 171 0.672073
11.828925 0.871820 27.588394 144 144 144 0.563897
12.673688 0.805133 29.434836 174 174 174 0.682913
13.528121 0.974828 31.315687 183 183 183 0.717488
3.893181 -0.984321 11.280705 105 105 105 0.413623
4.629216 -0.987028 12.991854 102 102 102 0.401430
5.341125 -0.672138 14.490875 82 82 82 0.319772
6.205252 -1.018485 16.270464 122 122 122 0.480288
7.108972 -1.063028 17.918738 147 147 147 0.575107
7.919747 -0.944562 19.614782 147 147 147 0.577143
8.691392 -0.973132 21.330610 107 107 107 0.418862
9.485800 -0.764920 22.808544 61 61 61 0.239144
10.383956 -1.175562 24.681596 90 90 90 0.354260
11.332503 -1.129005 26.675842 108 108 108 0.423898
12.112034 -0.759780 28.250985 127 127 127 0.497020
12.693436 -1.295723 29.496141 107 107 107 0.419319
13.617994 -0.980400 31.401045 151 151 151 0.592750
3.946061 -2.941960 11.203100 135 135 135 0.530551
4.651805 -2.945232 12.950358 106 106 106 0.417621
5.459284 -2.689590 14.807296 51 51 51 0.201914
6.231089 -2.914696 16.375933 95 95 95 0.373222
7.064808 -2.939051 17.979435 157 157 157 0.615669
8.042555 -3.190085 19.857014 160 160 160 0.628451
8.748975 -2.455934 21.340158 72 72 72 0.283122
9.642949 -3.049110 23.077628 53 53 53 0.208076
10.487046 -3.284727 24.950829 71 71 71 0.279059
11.140105 -2.732597 26.206863 137 137 137 0.535353
11.915171 -2.813792 27.826932 136 136 136 0.534825
12.733014 -2.993934 29.660862 73 73 73 0.285128
13.581701 -2.941184 31.419382 199 199 199 0.781605
3.886051 -4.642809 10.897180 130 130 130 0.509861
4.534158 -4.896526 12.449753 119 119 119 0.467440
5.328972 -4.997844 14.371877 56 56 56 0.220451
6.279486 -4.678611 16.397955 91 91 91 0.355432
7.078871 -4.865191 18.017259 140 140 140 0.550809
7.742652 -4.940627 19.276657 102 102 102 0.398257
8.686257 -4.663520 21.121639 161 161 161 0.631898
9.605673 -5.327351 22.899674 91 91 91 0.357749
10.298602 -4.781120 24.410684 122 122 122 0.476651
11.117737 -4.741169 26.166710 118 118 118 0.462742
11.920422 -4.853394 27.964155 100 100 100 0.391797
12.619387 -4.901968 29.815916 62 62 62 0.243135
13.414585 -4.901968 31.503817 200 200 200 0.783835
3.946073 -6.401919 11.030547 76 76 76 0.299221
4.740540 -7.011660 12.927378 69 69 69 0.270437
5.466909 -7.171515 14.865442 145 145 145 0.568176
6.159885 -6.524430 16.079314 94 94 94 0.366888
7.038825 -6.857558 17.865988 120 120 120 0.468869
8.101474 -6.803462 19.930154 70 70 70 0.273840
8.913321 -6.570887 21.535434 138 138 138 0.541577
9.529633 -7.247488 22.749933 163 163 163 0.639495
10.378201 -6.694601 24.430917 139 139 139 0.544293
11.069572 -6.788316 26.299991 103 103 103 0.404601
11.835168 -6.862751 28.122465 116 116 116 0.455376
12.495989 -6.862751 29.878262 89 89 89 0.349255
4.030456 -8.523725 11.256762 65 65 65 0.253066
4.832153 -9.098065 13.173277 49 49 49 0.192012
5.327180 -8.662245 14.492727 161 161 161 0.633016
6.138786 -8.619566 16.161860 139 139 139 0.543745
7.000665 -9.224153 17.930283 95 95 95 0.373633
7.897554 -8.784290 19.589813 91 91 91 0.355375
8.781424 -8.396098 21.263576 133 133 133 0.520793
9.567912 -8.865728 22.914384 138 138 138 0.543015
10.352181 -8.756079 24.649281 77 77 77 0.303302
11.043563 -8.823536 26.432751 147 147 147 0.576325
11.688528 -8.823536 28.196556 129 129 129 0.506346
3.769268 -10.685774 10.760703 157 157 157 0.615480
4.614627 -10.939213 12.609347 94 94 94 0.368620
5.497278 -10.625721 14.763494 159 159 159 0.624642
6.263951 -10.497664 16.540190 164 164 164 0.644394
6.844325 -11.156451 17.821200 185 185 185 0.725995
7.711794 -11.018643 19.507684 150 150 150 0.589882
8.693385 -10.288093 21.222217 136 136 136 0.535174
9.518980 -10.784320 23.023695 118 118 118 0.462303
10.212968 -10.784320 24.762733 87 87 87 0.340135
10.923907 -10.784320 26.493206 117 117 117 0.458230
3.867120 -12.742444 11.074954 157 157 157 0.615589
4.614368 -13.048087 12.582896 80 80 80 0.315419
5.375480 -12.860783 14.351702 153 153 153 0.601860
6.205997 -12.554648 16.376146 151 151 151 0.591519
6.894549 -12.745104 18.080660 93 93 93 0.362974
7.645206 -12.745104 19.791067 124 124 124 0.485143
8.513609 -12.745104 21.441982 128 128 128 0.502574
9.372394 -12.745104 23.097757 87 87 87 0.340783
4.013476 -14.964310 11.241719 154 154 154 0.603177
4.691884 -14.705888 12.924529 30 30 30 0.118411
5.458294 -14.705888 14.626976 92 92 92 0.361600
6.257969 -14.705888 16.312616 118 118 118 0.463220
6.953228 -14.705888 18.051012 76 76 76 0.297902
3.994285 -16.666672 11.187314 156 156 156 0.613422
4.745852 -16.666672 12.897262 148 148 148 0.581904
3 0 1 20
3 1 2 23
3 2 3 29
3 3 4 37
3 4 5 46
3 5 6 57
3 6 7 69
3 7 95 82
3 8 108 95
3 9 121 108
3 10 134 121
3 11 147 134
3 12 159 147
3 13 170 159
3 14 15 170
3 15 16 180
3 16 17 188
3 188 194 189
3 183 192 184
3 182 191 183
3 181 189 182
3 180 188 181
3 176 186 177
3 175 186 176
3 174 184 175
3 173 183 174
3 172 183 173
3 171 182 172
3 170 180 171
3 167 178 168
3 166 177 167
3 165 176 166
3 164 176 165
3 163 175 164
3 162 173 163
3 161 172 162
3 160 172 161
3 159 171 160
3 156 168 157
3 155 167 156
3 154 166 155
3 153 165 154
3 152 165 153
3 151 164 152
3 150 162 151
3 149 162 150
3 148 161 149
3 147 159 148
3 144 157 145
3 143 156 144
3 142 155 143
3 141 155 142
3 140 153 141
3 139 152 140
3 138 151 139
3 137 151 138
3 136 150 137
3 135 148 136
3 134 147 135
3 132 145 133
3 131 144 132
3 130 143 131
3 129 143 130
3 128 142 129
3 127 140 128
3 126 140 127
3 125 139 126
3 124 137 125
3 123 137 124
3 122 136 123
3 121 135 122
3 119 132 120
3 118 131 119
3 117 131 118
3 116 130 117
3 115 128 116
3 114 127 115
3 113 127 114
3 112 125 113
3 111 125 112
3 110 123 111
3 109 123 110
3 108 122 109
3 107 19 18
3 106 120 107
3 105 118 106
3 104 117 105
3 103 116 104
3 102 115 103
3 101 115 102
3 100 113 101
3 99 113 100
3 98 111 99
3 97 111 98
3 96 110 97
3 95 109 96
3 93 107 94
3 92 106 93
3 91 105 92
3 90 103 91
3 89 103 90
3 88 101 89
3 87 101 88
3 86 100 87
3 85 99 86
3 84 97 85
3 83 97 84
3 82 96 83
3 80 94 81
3 79 93 80
3 78 92 79
3 77 90 78
3 76 89 77
3 75 89 76
3 74 87 75
3 73 87 74
3 72 85 73
3 71 85 72
3 70 83 71
3 69 82 70
3 67 80 68
3 66 79 67
3 65 78 66
3 64 76 65
3 63 75 64
3 62 75 63
3 61 73 62
3 60 72 61
3 59 71 60
3 58 71 59
3 57 69 58
3 55 67 56
3 54 66 55
3 53 65 54
3 52 64 53
3 51 62 52
3 50 62 51
3 49 61 50
3 48 59 49
3 47 59 48
3 46 57 47
3 44 54 45
3 43 53 44
3 42 52 43
3 41 50 42
3 40 49 41
3 39 49 40
3 38 47 39
3 37 46 38
3 35 44 36
3 34 43 35
3 33 41 34
3 32 40 33
3 31 40 32
3 30 39 31
3 29 38 30
3 27 34 28
3 26 33 27
3 25 32 26
3 24 31 25
3 23 29 24
3 21 24 22
3 20 24 21
3 1 23 20
3 144 145 132
3 2 29 23
3 7 8 95
3 8 9 108
3 9 10 121
3 10 11 134
3 11 12 147
3 12 13 159
3 13 14 170
3 5 57 46
3 157 158 145
3 4 46 37
3 167 168 156
3 57 58 47
3 156 157 144
3 69 70 58
3 177 178 167
3 47 48 39
3 168 169 157
3 73 74 62
3 184 185 175
3 115 116 103
3 162 163 151
3 40 41 33
3 183 184 174
3 113 114 101
3 128 129 116
3 152 153 140
3 155 156 143
3 117 118 105
3 173 174 163
3 97 98 85
3 82 83 70
3 90 91 78
3 166 167 155
3 147 148 135
3 159 160 148
3 50 51 42
3 145 146 133
3 85 86 73
3 24 25 22
3 143 144 131
3 75 76 64
3 71 72 60
3 3 37 29
3 148 149 136
3 189 190 182
3 89 90 77
3 49 50 41
3 125 126 113
3 188 189 181
3 137 138 125
3 72 73 61
3 186 187 177
3 132 133 120
3 131 132 119
3 16 188 180
3 151 152 139
3 101 102 89
3 15 180 170
3 188 193 194
3 183 191 192
3 182 190 191
3 175 185 186
3 172 182 183
3 171 181 182
3 164 175 176
3 163 174 175
3 160 171 172
3 159 170 171
3 17 193 188
3 152 164 165
3 151 163 164
3 149 161 162
3 148 160 161
3 141 154 155
3 137 150 151
3 136 149 150
3 129 142 143
3 128 141 142
3 126 139 140
3 125 138 139
3 123 136 137
3 122 135 136
3 121 134 135
3 117 130 131
3 116 129 130
3 103 104 91
3 113 126 127
3 111 124 125
3 109 122 123
3 108 121 122
3 107 120 19
3 106 119 120
3 101 114 115
3 99 112 113
3 97 110 111
3 96 109 110
3 95 108 109
3 94 107 18
3 93 106 107
3 92 105 106
3 91 104 105
3 89 102 103
3 87 100 101
3 86 99 100
3 85 98 99
3 165 166 154
3 83 96 97
3 82 95 96
3 80 93 94
3 79 92 93
3 78 91 92
3 75 88 89
3 73 86 87
3 71 84 85
3 68 80 81
3 67 79 80
3 66 78 79
3 65 77 78
3 62 74 75
3 58 70 71
3 56 67 68
3 55 66 67
3 54 65 66
3 53 64 65
3 52 63 64
3 116 117 104
3 50 61 62
3 49 60 61
3 123 124 111
3 47 58 59
3 45 54 55
3 44 53 54
3 43 52 53
3 42 51 52
3 83 84 71
3 39 48 49
3 36 44 45
3 35 43 44
3 34 42 43
3 31 39 40
3 30 38 39
3 29 37 38
3 28 34 35
3 27 33 34
3 26 32 33
3 25 31 32
3 24 30 31
3 22 25 26
3 20 23 24
3 7 82 69
3 180 181 171
3 6 69 57
3 153 154 141
3 29 30 24
3 176 177 166
3 140 141 128
3 59 60 49
3 76 77 65
3 46 47 38
3 118 119 106
3 41 42 34
3 87 88 75
3 62 63 52
3 127 128 115
3 111 112 99
3 178 179 168
3 172 173 162
