ply
format ascii 1.0
comment openVA ply exporter, (c) Peter Felfer, The University of Sydney 2013, Rhett MPIE modified 2019
comment 0 to 154 atoms/nm2
element vertex 234
property float x
property float y
property float z
property uchar red
property uchar green
property uchar blue
property float value
element face 404
property list uchar uint vertex_indices
end_header
-0.822672 22.549011 -25.569107 108 108 108 0.424770
-0.818621 20.588226 -25.538895 188 188 188 0.735522
-0.801834 18.627441 -25.413681 187 187 187 0.732801
-0.802429 16.666656 -25.418121 198 198 198 0.776375
-0.785387 14.705873 -25.291004 156 156 156 0.611585
-0.759460 12.745089 -25.097620 101 101 101 0.395914
-0.753506 10.784305 -25.053207 161 161 161 0.629964
-0.769472 8.823521 -25.172293 232 232 232 0.908558
-0.773054 6.862737 -25.199015 196 196 196 0.768879
-0.760358 4.901953 -25.104317 204 204 204 0.800034
-0.780934 2.941169 -25.257790 120 120 120 0.471342
-0.802330 0.980384 -25.417381 124 124 124 0.486780
-0.820594 -0.980400 -25.553604 196 196 196 0.768413
-0.837982 -2.941184 -25.683300 244 244 244 0.955539
-0.833460 -4.901968 -25.649572 146 146 146 0.573426
-0.797756 -6.857434 -25.383260 129 129 129 0.504085
-0.774564 -8.823536 -25.210278 58 58 58 0.229274
-0.779463 -10.784320 -25.246815 196 196 196 0.766969
-0.787591 -12.745104 -25.307440 232 232 232 0.910551
-0.803039 -14.705888 -25.422668 184 184 184 0.720151
-0.810327 -16.666672 -25.477026 222 222 222 0.872197
-0.824589 -18.627457 -25.583408 255 255 255 1.000000
-0.833715 -20.588242 -25.651478 153 153 153 0.601154
-0.862365 -22.549026 -25.865177 240 240 240 0.939823
0.968820 22.549011 -25.878542 44 44 44 0.170779
2.780548 22.549011 -26.073858 120 120 120 0.469222
4.598582 22.549011 -26.227545 83 83 83 0.327042
0.976754 21.021904 -25.845419 129 129 129 0.507820
2.750095 20.617127 -25.986403 54 54 54 0.212324
4.588541 20.158827 -26.192710 58 58 58 0.229346
6.411211 20.588226 -26.416901 100 100 100 0.393817
8.222173 20.588226 -26.617275 62 62 62 0.241637
0.824578 18.926569 -25.720216 104 104 104 0.409728
2.861627 18.416327 -25.938495 92 92 92 0.361054
4.883593 18.199068 -26.237852 126 126 126 0.492657
6.477236 18.543215 -26.431405 137 137 137 0.536574
7.982546 18.885322 -26.648971 126 126 126 0.493009
10.013250 18.627441 -26.948904 131 131 131 0.514039
11.803825 18.627441 -27.283840 121 121 121 0.474294
1.155684 16.553610 -25.657750 163 163 163 0.638171
2.870909 16.578104 -25.883592 117 117 117 0.458215
4.464007 16.357554 -26.197915 128 128 128 0.503139
6.435514 16.524899 -26.457239 75 75 75 0.294634
8.220909 17.143604 -26.697633 74 74 74 0.289806
9.958705 16.698347 -27.012096 64 64 64 0.249647
11.553572 16.411029 -27.212894 89 89 89 0.348992
13.600274 16.666656 -27.580008 155 155 155 0.609507
15.321787 16.666656 -28.370821 133 133 133 0.519680
1.281525 14.408849 -25.604078 135 135 135 0.528202
3.011912 14.780045 -25.962093 39 39 39 0.153268
4.649130 14.613768 -26.228829 143 143 143 0.559890
6.216266 14.453243 -26.457893 170 170 170 0.665845
8.309524 14.968875 -26.765928 31 31 31 0.122743
10.209124 14.947667 -27.009512 28 28 28 0.111445
11.825331 14.677978 -27.269444 47 47 47 0.183769
13.623499 14.268512 -27.605513 128 128 128 0.500974
15.269960 14.678421 -28.294870 151 151 151 0.593409
17.102732 14.705873 -28.769331 142 142 142 0.556545
0.796754 12.955667 -25.446838 138 138 138 0.540030
2.427090 12.708167 -25.810683 120 120 120 0.471219
4.482007 12.671342 -26.169174 142 142 142 0.558673
6.597515 12.400759 -26.476626 143 143 143 0.559940
8.206437 12.799483 -26.787115 78 78 78 0.306484
10.174083 13.023876 -27.029223 67 67 67 0.261946
12.060004 12.971659 -27.332653 79 79 79 0.311613
13.384747 12.351562 -27.589222 96 96 96 0.374937
15.166331 12.479493 -28.090144 118 118 118 0.461240
17.134302 12.745089 -28.560942 125 125 125 0.490492
0.797404 10.981996 -25.432688 149 149 149 0.585419
2.669373 10.801698 -25.890966 113 113 113 0.444884
4.546980 10.338944 -26.212459 103 103 103 0.404055
6.090762 10.921693 -26.397095 66 66 66 0.257456
7.767791 10.722135 -26.712315 47 47 47 0.184659
9.521045 10.882482 -26.975982 51 51 51 0.200667
11.443460 10.989712 -27.249882 131 131 131 0.515217
13.404879 10.651752 -27.633444 155 155 155 0.606098
15.048552 10.435136 -28.033271 175 175 175 0.685928
17.145559 10.784305 -28.486628 89 89 89 0.350773
0.986948 8.891199 -25.511113 100 100 100 0.391486
2.903089 8.586673 -25.954650 92 92 92 0.360170
4.882896 8.385664 -26.303801 71 71 71 0.277824
6.369029 9.192346 -26.531589 127 127 127 0.496403
8.069830 8.839674 -26.771623 163 163 163 0.641067
10.069070 8.716547 -27.053724 153 153 153 0.601246
11.962774 9.126138 -27.361593 128 128 128 0.502208
13.507243 8.726204 -27.670354 126 126 126 0.492925
15.325386 8.760393 -28.143546 64 64 64 0.252703
17.142408 8.823521 -28.507433 60 60 60 0.234136
1.411872 6.858556 -25.651889 60 60 60 0.234965
3.197713 6.500508 -25.961630 106 106 106 0.415920
4.726392 6.704475 -26.237086 104 104 104 0.407807
6.647131 7.048908 -26.558173 150 150 150 0.589758
8.507907 7.168945 -26.821911 156 156 156 0.612831
9.819709 6.576319 -26.991833 154 154 154 0.603765
11.758829 6.894566 -27.321206 144 144 144 0.566473
13.949517 6.834323 -27.846264 151 151 151 0.592816
15.842964 6.848137 -28.346037 34 34 34 0.131437
17.130781 6.862737 -28.584183 172 172 172 0.674610
0.669990 4.948229 -25.420398 65 65 65 0.256852
2.368780 4.817883 -25.780773 99 99 99 0.386276
4.403204 4.596518 -26.112630 176 176 176 0.690382
6.159496 5.152444 -26.397203 126 126 126 0.492969
7.940635 5.121779 -26.699045 130 130 130 0.507908
10.072113 4.684148 -27.080494 120 120 120 0.471367
11.820250 4.876825 -27.315843 136 136 136 0.532329
13.424488 4.763716 -27.686579 83 83 83 0.325558
15.382816 4.891665 -28.209184 145 145 145 0.568306
17.138693 4.901953 -28.531960 111 111 111 0.437036
1.101465 2.739259 -25.567197 36 36 36 0.141636
2.965509 3.127160 -25.888877 172 172 172 0.674418
4.358402 2.589170 -26.082757 162 162 162 0.635473
6.152734 3.169915 -26.367185 65 65 65 0.253001
8.077804 3.019152 -26.749025 104 104 104 0.407333
9.704576 2.625903 -27.069744 162 162 162 0.636964
11.535698 3.041675 -27.334507 161 161 161 0.629681
13.237412 2.659581 -27.627577 96 96 96 0.377266
15.107790 2.757995 -27.964814 132 132 132 0.519130
17.166790 2.941169 -28.346498 95 95 95 0.373790
1.259622 0.656648 -25.726072 72 72 72 0.280405
2.991840 1.103530 -25.884432 116 116 116 0.453173
5.053336 0.947121 -26.195887 138 138 138 0.542244
6.880184 1.071405 -26.526365 128 128 128 0.500389
8.661286 0.928481 -26.875699 110 110 110 0.432845
10.331111 1.212202 -27.169165 106 106 106 0.414382
11.948002 0.756118 -27.391847 152 152 152 0.597380
13.787282 1.123049 -27.731259 215 215 215 0.841713
15.153292 0.659664 -27.874081 108 108 108 0.423867
17.179344 0.980384 -28.263628 120 120 120 0.469415
1.002229 -1.036909 -25.753685 143 143 143 0.560163
2.890929 -1.015966 -25.928753 132 132 132 0.519294
4.672510 -0.935890 -26.178490 156 156 156 0.610737
6.326929 -0.690278 -26.390272 142 142 142 0.555527
7.867656 -0.968885 -26.682264 94 94 94 0.370499
9.813400 -0.806161 -27.045133 117 117 117 0.458762
11.746623 -1.448755 -27.307024 164 164 164 0.641750
13.517227 -0.663960 -27.625180 220 220 220 0.860895
15.315223 -1.022898 -27.998845 148 148 148 0.579191
17.158516 -0.980400 -28.401114 141 141 141 0.554201
0.981907 -2.955524 -25.807955 142 142 142 0.557722
2.810598 -2.954992 -25.939467 134 134 134 0.524335
4.627252 -2.939250 -26.194130 109 109 109 0.429377
6.538304 -2.712301 -26.476071 61 61 61 0.238860
8.595465 -2.864128 -26.829481 43 43 43 0.168144
10.281043 -2.669303 -27.096481 94 94 94 0.367164
11.851244 -3.510281 -27.248283 67 67 67 0.263808
13.583594 -2.539358 -27.563357 133 133 133 0.523204
15.467935 -3.101089 -28.169738 157 157 157 0.613996
17.164312 -2.941184 -28.362846 120 120 120 0.471240
0.731196 -4.645002 -25.843789 81 81 81 0.317415
2.550585 -5.082172 -26.030441 124 124 124 0.488094
4.512038 -4.914264 -26.274009 168 168 168 0.657701
6.163606 -4.570107 -26.476717 112 112 112 0.440416
7.784906 -4.801053 -26.688893 105 105 105 0.413571
9.908536 -4.912059 -27.030531 65 65 65 0.255021
11.790990 -5.094769 -27.206333 43 43 43 0.168312
13.492868 -4.687771 -27.578485 65 65 65 0.254202
15.297019 -5.352115 -28.180266 157 157 157 0.616030
17.151320 -4.901968 -28.448610 63 63 63 0.245523
1.101840 -6.660654 -25.792124 132 132 132 0.516664
2.783161 -6.893784 -26.086745 104 104 104 0.409366
4.128993 -6.877853 -26.258114 162 162 162 0.633407
6.226745 -6.806627 -26.493463 75 75 75 0.294634
8.324657 -6.542837 -26.764732 128 128 128 0.500622
9.746249 -7.105648 -27.032129 83 83 83 0.326130
11.725664 -6.815884 -27.319457 36 36 36 0.142127
13.907912 -6.863293 -27.721351 36 36 36 0.142403
15.435882 -7.013450 -28.224858 173 173 173 0.678762
17.151205 -6.862751 -28.449368 137 137 137 0.537130
0.861889 -8.937215 -25.533689 42 42 42 0.163091
2.849937 -8.656587 -25.999571 73 73 73 0.287066
4.948521 -8.767231 -26.331604 147 147 147 0.576756
6.484053 -8.796922 -26.551427 139 139 139 0.545527
8.100655 -8.768869 -26.777023 104 104 104 0.406483
10.185731 -8.598197 -27.125306 83 83 83 0.326395
11.826078 -9.242071 -27.295187 58 58 58 0.226824
13.565170 -8.796946 -27.630612 68 68 68 0.265367
15.564935 -8.666855 -28.179705 44 44 44 0.171456
17.138186 -8.823536 -28.535305 135 135 135 0.529416
1.258060 -11.079998 -25.503006 63 63 63 0.248367
2.813700 -10.742963 -25.924804 73 73 73 0.286850
4.618446 -10.699923 -26.245252 0 0 0 0.000000
6.618197 -10.605334 -26.560829 31 31 31 0.121855
8.260313 -10.738968 -26.763540 47 47 47 0.182372
9.773420 -10.564710 -26.994792 107 107 107 0.419642
11.723769 -11.301826 -27.249932 169 169 169 0.662329
13.572973 -10.885744 -27.599562 126 126 126 0.493233
15.132248 -10.458962 -28.027414 106 106 106 0.416160
17.144361 -10.784320 -28.494539 102 102 102 0.401171
1.029399 -12.797690 -25.543899 117 117 117 0.460294
2.887185 -12.810370 -25.822169 125 125 125 0.491863
4.620428 -12.716131 -26.161604 60 60 60 0.233477
6.187629 -12.392868 -26.495450 48 48 48 0.190030
7.974596 -12.500435 -26.735391 83 83 83 0.325192
10.021788 -12.912722 -26.996804 130 130 130 0.511537
11.805469 -12.944464 -27.228004 176 176 176 0.688815
13.209793 -12.849593 -27.516925 159 159 159 0.625221
15.120633 -12.503336 -27.979388 83 83 83 0.324517
17.126844 -12.745104 -28.610168 139 139 139 0.545685
1.014723 -14.719415 -25.568755 153 153 153 0.598474
2.828510 -14.726781 -25.818223 99 99 99 0.389798
4.635090 -14.716554 -26.119365 97 97 97 0.381520
6.385342 -14.161619 -26.481719 164 164 164 0.644589
8.119108 -14.607126 -26.750689 145 145 145 0.569955
9.730871 -15.005929 -26.927239 71 71 71 0.277164
11.508353 -14.635074 -27.208745 120 120 120 0.469968
13.485402 -14.671863 -27.561642 115 115 115 0.452245
15.355118 -14.705888 -28.150812 62 62 62 0.243038
17.122719 -14.705888 -28.637398 93 93 93 0.365384
1.007450 -16.671008 -25.613153 147 147 147 0.577137
2.817824 -16.673862 -25.831659 68 68 68 0.267997
4.625387 -16.672045 -26.082924 41 41 41 0.159160
6.562441 -16.337582 -26.482368 68 68 68 0.266418
8.412101 -16.402280 -26.724838 103 103 103 0.404976
9.989162 -16.720268 -26.961658 105 105 105 0.412944
11.771864 -16.625267 -27.273097 77 77 77 0.303298
13.577693 -16.666672 -27.729063 191 191 191 0.747429
15.326446 -16.666672 -28.340073 106 106 106 0.417016
0.997220 -18.629480 -25.685274 151 151 151 0.592468
2.812106 -18.630248 -25.856886 163 163 163 0.637882
4.613713 -18.629459 -26.132385 110 110 110 0.431822
6.213539 -18.257018 -26.333186 29 29 29 0.113369
7.980904 -18.351234 -26.652925 42 42 42 0.165706
9.912981 -18.618927 -26.998068 126 126 126 0.495910
11.780360 -18.627457 -27.438732 98 98 98 0.382442
13.576283 -18.627457 -27.738379 170 170 170 0.665090
0.986664 -20.588860 -25.773577 88 88 88 0.345674
2.807129 -20.588242 -25.898399 115 115 115 0.450347
4.615233 -20.588242 -26.117628 85 85 85 0.334707
6.413844 -20.588242 -26.399527 24 24 24 0.093871
8.185577 -20.588242 -26.858837 137 137 137 0.535881
9.986881 -20.588242 -27.122963 176 176 176 0.691496
11.780324 -20.588242 -27.438971 67 67 67 0.263909
0.975162 -22.549026 -25.836678 43 43 43 0.168069
2.800067 -22.549026 -25.945015 24 24 24 0.093694
3 0 27 24
3 1 32 27
3 2 3 32
3 3 4 39
3 4 58 48
3 5 68 58
3 6 7 68
3 7 8 78
3 8 98 88
3 9 10 98
3 10 11 108
3 11 128 118
3 12 138 128
3 13 148 138
3 14 158 148
3 15 168 158
3 16 17 168
3 17 188 178
3 18 198 188
3 19 208 198
3 20 217 208
3 21 225 217
3 22 232 225
3 225 233 226
3 222 230 223
3 221 229 222
3 220 228 221
3 219 228 220
3 218 227 219
3 217 226 218
3 214 223 215
3 213 222 214
3 212 221 213
3 211 221 212
3 210 220 211
3 209 219 210
3 208 218 209
3 205 215 206
3 204 214 205
3 203 213 204
3 202 212 203
3 201 211 202
3 200 211 201
3 199 210 200
3 198 209 199
3 196 206 197
3 195 205 196
3 194 204 195
3 193 204 194
3 192 202 193
3 191 201 192
3 190 201 191
3 189 200 190
3 188 199 189
3 186 196 187
3 185 196 186
3 184 195 185
3 183 193 184
3 182 192 183
3 181 192 182
3 180 191 181
3 179 190 180
3 178 189 179
3 176 187 177
3 175 186 176
3 174 185 175
3 173 183 174
3 172 183 173
3 171 181 172
3 170 181 171
3 169 180 170
3 168 179 169
3 166 176 167
3 165 176 166
3 164 175 165
3 163 173 164
3 162 172 163
3 161 172 162
3 160 170 161
3 159 169 160
3 158 169 159
3 156 167 157
3 155 165 156
3 154 164 155
3 153 164 154
3 152 162 153
3 151 161 152
3 150 161 151
3 149 160 150
3 148 158 149
3 146 157 147
3 145 155 146
3 144 155 145
3 143 153 144
3 142 153 143
3 141 152 142
3 140 151 141
3 139 150 140
3 138 149 139
3 136 146 137
3 135 145 136
3 134 145 135
3 133 143 134
3 132 142 133
3 131 141 132
3 130 141 131
3 129 140 130
3 128 139 129
3 126 136 127
3 125 135 126
3 124 135 125
3 123 133 124
3 122 133 123
3 121 132 122
3 120 131 121
3 119 130 120
3 118 129 119
3 116 127 117
3 115 125 116
3 114 124 115
3 113 123 114
3 112 122 113
3 111 121 112
3 110 120 111
3 109 119 110
3 108 119 109
3 106 117 107
3 105 116 106
3 104 114 105
3 103 114 104
3 102 112 103
3 101 111 102
3 100 111 101
3 99 109 100
3 98 108 99
3 96 107 97
3 95 106 96
3 94 105 95
3 93 103 94
3 92 102 93
3 91 102 92
3 90 101 91
3 89 100 90
3 88 99 89
3 86 96 87
3 85 95 86
3 84 94 85
3 83 94 84
3 82 92 83
3 81 91 82
3 80 91 81
3 79 90 80
3 78 88 79
3 76 86 77
3 75 85 76
3 74 84 75
3 73 83 74
3 72 82 73
3 71 81 72
3 70 81 71
3 69 79 70
3 68 78 69
3 66 77 67
3 65 75 66
3 64 74 65
3 63 74 64
3 62 73 63
3 61 72 62
3 60 71 61
3 59 69 60
3 58 68 59
3 56 67 57
3 55 66 56
3 54 64 55
3 53 63 54
3 52 63 53
3 51 62 52
3 50 60 51
3 49 60 50
3 48 59 49
3 46 56 47
3 45 54 46
3 44 53 45
3 43 52 44
3 42 52 43
3 41 51 42
3 40 49 41
3 39 49 40
3 37 44 38
3 36 43 37
3 35 43 36
3 34 42 35
3 33 41 34
3 32 39 33
3 30 36 31
3 29 35 30
3 28 33 29
3 27 32 28
3 25 28 26
3 24 27 25
3 135 136 126
3 10 108 98
3 205 206 196
3 43 44 37
3 112 113 103
3 214 215 205
3 223 224 215
3 95 96 86
3 0 1 27
3 1 2 32
3 4 5 58
3 5 6 68
3 8 9 98
3 11 12 128
3 12 13 138
3 13 14 148
3 14 15 158
3 15 16 168
3 17 18 188
3 18 19 198
3 19 20 208
3 20 21 217
3 21 22 225
3 22 23 232
3 215 216 206
3 52 53 44
3 202 203 193
3 79 80 70
3 88 89 79
3 155 156 146
3 28 29 26
3 141 142 132
3 143 144 134
3 164 165 155
3 169 170 160
3 222 223 214
3 86 87 77
3 121 122 112
3 221 222 213
3 32 33 28
3 33 34 29
3 196 197 187
3 204 205 195
3 172 173 163
3 230 231 223
3 145 146 136
3 64 65 55
3 11 118 108
3 60 61 51
3 228 229 221
3 206 207 197
3 63 64 54
3 165 166 156
3 133 134 124
3 114 115 105
3 229 230 222
3 142 143 133
3 74 75 65
3 91 92 82
3 136 137 127
3 123 124 114
3 153 154 144
3 225 232 233
3 219 227 228
3 218 226 227
3 217 225 226
3 158 159 149
3 211 220 221
3 210 219 220
3 209 218 219
3 208 217 218
3 200 210 211
3 199 209 210
3 198 208 209
3 181 182 172
3 193 203 204
3 190 200 201
3 189 199 200
3 188 198 199
3 185 195 196
3 184 194 195
3 212 213 203
3 181 191 192
3 180 190 191
3 179 189 190
3 178 188 189
3 176 186 187
3 175 185 186
3 174 184 185
3 172 182 183
3 170 171 161
3 170 180 181
3 169 179 180
3 168 178 179
3 165 175 176
3 164 174 175
3 161 171 172
3 158 168 169
3 156 166 167
3 153 163 164
3 150 160 161
3 149 159 160
3 122 123 113
3 146 156 157
3 144 154 155
3 142 152 153
3 141 151 152
3 140 150 151
3 139 149 150
3 138 148 149
3 134 144 145
3 102 103 93
3 130 140 141
3 129 139 140
3 128 138 139
3 124 134 135
3 122 132 133
3 121 131 132
3 120 130 131
3 119 129 130
3 118 128 129
3 116 126 127
3 108 118 119
3 106 116 117
3 105 115 116
3 103 113 114
3 100 110 111
3 173 174 164
3 49 50 41
3 94 95 85
3 96 106 107
3 95 105 106
3 94 104 105
3 91 101 102
3 90 100 101
3 89 99 100
3 88 98 99
3 83 93 94
3 80 90 91
3 79 89 90
3 146 147 137
3 68 69 59
3 70 80 81
3 66 76 77
3 63 73 74
3 62 72 73
3 61 71 72
3 60 70 71
3 56 66 67
3 55 65 66
3 4 48 39
3 52 62 63
3 51 61 62
3 111 112 102
3 49 59 60
3 48 58 59
3 47 56 57
3 46 55 56
3 83 84 74
3 42 51 52
3 41 50 51
3 39 48 49
3 38 45 46
3 53 54 45
3 35 42 43
3 34 41 42
3 33 40 41
3 31 36 37
3 30 35 36
3 29 34 35
3 26 29 30
3 8 88 78
3 125 126 116
3 78 79 69
3 183 184 174
3 162 163 153
3 69 70 60
3 96 97 87
3 108 109 99
3 193 194 184
3 211 212 202
3 27 28 25
3 81 82 72
3 17 178 168
3 176 177 167
3 201 202 192
3 103 104 94
3 213 214 204
3 3 39 32
3 192 193 183
3 75 76 66
3 84 85 75
3 54 55 46
3 119 120 110
3 44 45 38
3 161 162 152
3 7 78 68
3 120 121 111
3 85 86 76
3 92 93 83
3 82 83 73
3 39 40 33
3 109 110 100
3 124 125 115
