ply
format ascii 1.0
comment openVA ply exporter, (c) Peter Felfer, The University of Sydney 2013, Rhett MPIE modified 2019
comment 3.19 to 97.3 atom percentage
element vertex 145
property float x
property float y
property float z
property uchar red
property uchar green
property uchar blue
property float value
element face 241
property list uchar uint vertex_indices
end_header
18.382530 4.901953 0.031249 12 12 12 0.046436
18.418415 2.941169 0.092095 29 29 29 0.112854
18.414824 0.980384 0.086006 25 25 25 0.096652
18.428848 -0.980400 0.109787 82 82 82 0.322153
18.418180 -2.941184 0.091697 96 96 96 0.377034
18.427530 -4.901968 0.107553 82 82 82 0.322965
18.439144 -6.862751 0.127244 0 0 0 0.000000
4.391768 16.666656 8.394739 221 221 221 0.864907
5.958877 16.666656 7.486793 231 231 231 0.907790
7.490001 16.666656 6.517829 38 38 38 0.148941
4.456612 14.705873 8.504691 141 141 141 0.553588
6.235713 14.446052 7.481854 82 82 82 0.320175
7.601159 14.695616 6.628126 95 95 95 0.371677
9.098845 14.705873 5.680654 159 159 159 0.622404
10.645857 14.705873 4.738627 154 154 154 0.605449
12.178408 14.705873 3.772083 185 185 185 0.724833
4.573727 12.745089 8.703277 239 239 239 0.936225
5.942854 12.520476 7.782140 172 172 172 0.672648
7.371515 12.900845 6.785141 117 117 117 0.457503
8.949087 12.561348 5.877326 252 252 252 0.987471
10.619791 12.732307 4.855887 235 235 235 0.920376
12.000196 13.000751 3.993128 243 243 243 0.954109
13.802187 12.746067 2.962008 185 185 185 0.724213
4.554409 10.784305 8.670519 242 242 242 0.949224
6.037002 10.709766 7.672132 92 92 92 0.358902
7.394246 10.951141 6.854340 50 50 50 0.195908
8.851175 10.494409 5.980466 177 177 177 0.694198
10.482485 10.586780 5.033165 26 26 26 0.100316
12.314579 11.016801 3.891275 232 232 232 0.908280
14.062932 10.551363 2.889105 185 185 185 0.727362
15.342958 10.781259 2.002086 78 78 78 0.306481
4.583817 8.823521 8.720385 245 245 245 0.960635
6.182811 9.030379 7.576817 180 180 180 0.707490
7.729168 9.096546 6.597511 125 125 125 0.489364
9.140806 8.732444 5.881488 89 89 89 0.350422
10.535669 8.497112 5.139305 223 223 223 0.875828
12.117055 8.713034 4.188699 244 244 244 0.958289
13.782678 8.824820 3.104342 251 251 251 0.985494
15.386309 8.752825 1.993700 197 197 197 0.771621
16.783144 8.823521 0.884463 46 46 46 0.178545
4.621449 6.862737 8.784196 240 240 240 0.940780
6.081185 6.938181 7.681744 239 239 239 0.937648
7.749868 7.123266 6.634133 113 113 113 0.444313
9.554094 6.781178 5.677780 116 116 116 0.456006
11.049284 7.037556 4.833224 210 210 210 0.823429
12.416889 6.383088 4.100785 247 247 247 0.968805
13.811300 6.836137 3.142829 152 152 152 0.596664
15.351785 6.855910 2.099513 16 16 16 0.063470
16.876886 6.862737 1.043415 25 25 25 0.097815
4.627131 4.901953 8.793830 76 76 76 0.297331
6.075441 4.922203 7.695903 55 55 55 0.213952
7.425125 5.268304 6.835304 115 115 115 0.450277
8.826752 4.966116 6.063307 143 143 143 0.561143
10.551883 5.026787 5.088688 234 234 234 0.916748
12.100945 4.516697 4.329011 220 220 220 0.862979
13.769537 4.625153 3.337169 88 88 88 0.346306
15.378377 4.882649 2.261539 81 81 81 0.316058
16.885133 4.901928 1.127884 10 10 10 0.040848
4.664709 2.941169 8.857550 25 25 25 0.096835
6.144414 2.946818 7.802670 92 92 92 0.360513
7.731433 3.190431 6.718247 63 63 63 0.247750
9.416691 3.300073 5.828398 47 47 47 0.182479
10.733479 2.910464 5.066645 96 96 96 0.376827
12.329425 2.802074 4.233350 179 179 179 0.702204
13.972545 2.420866 3.321865 251 251 251 0.983037
15.462483 2.875147 2.364868 138 138 138 0.540393
16.957993 2.942983 1.256329 136 136 136 0.532073
4.691449 0.980384 8.902890 13 13 13 0.049086
5.861525 0.981763 8.101626 200 200 200 0.785973
7.256056 1.057985 7.060513 237 237 237 0.929130
8.978677 1.259823 6.082220 194 194 194 0.761760
10.723440 0.969414 5.165261 180 180 180 0.706573
12.331253 0.862502 4.247131 149 149 149 0.585355
14.018789 0.389884 3.367943 209 209 209 0.821062
15.537668 0.837612 2.375973 239 239 239 0.937537
16.986871 0.965602 1.275586 203 203 203 0.797596
4.643770 -0.980400 8.822044 59 59 59 0.231656
6.063602 -0.978487 7.843627 176 176 176 0.691954
7.725235 -1.074018 6.729774 238 238 238 0.935148
9.442388 -0.633362 5.879971 255 255 255 1.000000
10.880744 -0.981511 5.179433 151 151 151 0.592054
12.404021 -1.100228 4.315989 208 208 208 0.814017
14.037689 -1.594622 3.379021 235 235 235 0.920223
15.562297 -1.153984 2.388446 244 244 244 0.957195
16.811428 -0.765358 1.423265 176 176 176 0.689512
4.574604 -2.941184 8.704763 237 237 237 0.930650
6.027340 -2.929195 7.612165 243 243 243 0.954503
7.595889 -3.400398 6.668550 204 204 204 0.799598
9.406652 -2.724065 5.910830 151 151 151 0.592054
11.283947 -2.947153 4.988530 213 213 213 0.833961
12.756678 -2.791882 4.145961 157 157 157 0.613798
14.110940 -3.565258 3.356295 197 197 197 0.770982
15.593720 -3.124887 2.396798 228 228 228 0.893440
17.145380 -2.730522 1.166145 106 106 106 0.416343
4.486575 -4.901968 8.555498 246 246 246 0.963771
5.967107 -4.970124 7.593249 198 198 198 0.774992
7.531802 -5.471314 6.584493 49 49 49 0.192948
9.219146 -4.940279 5.878341 234 234 234 0.918731
10.899581 -4.832929 5.125962 240 240 240 0.942663
12.675410 -4.775360 4.180245 241 241 241 0.946964
14.128224 -5.090272 3.352360 158 158 158 0.618709
15.320700 -5.058716 2.643651 130 130 130 0.508277
16.720283 -4.864286 1.615177 133 133 133 0.520123
4.462387 -6.862751 8.514483 253 253 253 0.992405
6.279784 -6.968152 7.322626 53 53 53 0.206603
7.639961 -7.068181 6.531856 73 73 73 0.287102
9.052043 -7.142858 5.849767 250 250 250 0.981020
10.767341 -6.867240 5.060796 248 248 248 0.971732
12.422308 -6.792917 4.197228 200 200 200 0.784997
13.984861 -6.477020 3.355291 116 116 116 0.453856
15.453810 -6.886376 2.433525 186 186 186 0.731263
17.029093 -6.862751 1.301504 77 77 77 0.301327
4.466737 -8.823536 8.521860 211 211 211 0.828020
6.016837 -8.811382 7.543514 180 180 180 0.707258
7.567273 -8.524502 6.595232 195 195 195 0.762769
9.155284 -9.314411 5.851734 248 248 248 0.972686
10.722007 -8.892627 4.984551 226 226 226 0.884903
12.145063 -8.547532 4.251749 86 86 86 0.337617
13.735171 -8.550327 3.356347 85 85 85 0.334708
15.472007 -8.823536 2.226445 153 153 153 0.599270
16.929655 -8.823536 1.132892 115 115 115 0.450298
4.501389 -10.784320 8.580617 183 183 183 0.716259
6.054267 -10.777778 7.645238 180 180 180 0.706980
7.695015 -10.580015 6.614980 190 190 190 0.746772
9.219746 -10.916184 5.813958 99 99 99 0.388876
10.606379 -11.064194 4.964419 185 185 185 0.726762
12.267749 -10.309218 4.100783 76 76 76 0.299826
13.868367 -10.784320 3.072449 48 48 48 0.189291
15.392588 -10.784320 2.091779 86 86 86 0.336517
4.553267 -12.745104 8.668583 235 235 235 0.921390
5.757140 -12.742971 7.931983 254 254 254 0.996775
7.203669 -12.677489 6.975531 172 172 172 0.672823
9.011239 -12.778973 5.861529 145 145 145 0.569444
10.635874 -12.844015 4.876699 249 249 249 0.977078
12.236930 -12.745104 3.871316 248 248 248 0.970908
13.791691 -12.745104 2.942433 106 106 106 0.415983
4.580165 -14.705888 8.714194 8 8 8 0.030477
6.172700 -14.439708 7.597953 156 156 156 0.611677
7.562933 -14.705888 6.641497 15 15 15 0.059951
9.094985 -14.705888 5.674107 24 24 24 0.092986
10.682361 -14.705888 4.800525 220 220 220 0.863213
12.199896 -14.705888 3.808519 243 243 243 0.954706
4.588970 -16.666672 8.729123 210 210 210 0.822222
6.064935 -16.666672 7.666629 237 237 237 0.930390
7.539349 -16.666672 6.601506 201 201 201 0.788170
3 137 143 138
3 136 143 137
3 133 140 134
3 132 140 133
3 131 138 132
3 130 137 131
3 129 136 130
3 126 134 127
3 125 134 126
3 124 132 125
3 123 132 124
3 122 131 123
3 121 130 122
3 118 127 119
3 117 126 118
3 116 126 117
3 115 125 116
3 114 123 115
3 113 123 114
3 112 122 113
3 110 119 111
3 109 118 110
3 108 118 109
3 107 117 108
3 106 116 107
3 105 114 106
3 104 114 105
3 103 113 104
3 102 111 5
3 101 110 102
3 100 109 101
3 99 109 100
3 98 108 99
3 97 107 98
3 96 106 97
3 95 104 96
3 94 103 95
3 93 5 4
3 92 102 93
3 91 101 92
3 90 99 91
3 89 99 90
3 88 98 89
3 87 97 88
3 86 95 87
3 85 94 86
3 84 93 3
3 83 93 84
3 82 92 83
3 81 90 82
3 80 89 81
3 79 88 80
3 78 88 79
3 77 86 78
3 76 85 77
3 75 3 2
3 74 84 75
3 73 83 74
3 72 81 73
3 71 80 72
3 70 79 71
3 69 78 70
3 68 77 69
3 67 76 68
3 66 2 1
3 65 75 66
3 64 74 65
3 63 72 64
3 62 71 63
3 61 70 62
3 60 70 61
3 59 69 60
3 58 68 59
3 57 1 0
3 56 66 57
3 55 65 56
3 54 63 55
3 53 62 54
3 52 61 53
3 51 60 52
3 50 60 51
3 49 59 50
3 47 57 48
3 46 56 47
3 45 55 46
3 44 53 45
3 43 53 44
3 42 52 43
3 41 51 42
3 40 50 41
3 38 48 39
3 37 47 38
3 36 46 37
3 35 44 36
3 34 43 35
3 33 42 34
3 32 42 33
3 31 41 32
3 29 38 30
3 28 37 29
3 27 36 28
3 26 34 27
3 25 33 26
3 24 32 25
3 23 32 24
3 21 28 22
3 20 28 21
3 19 27 20
3 18 25 19
3 17 25 18
3 16 23 17
3 14 21 15
3 13 20 14
3 12 19 13
3 11 18 12
3 10 17 11
3 8 12 9
3 7 10 8
3 86 87 78
3 10 11 8
3 123 124 115
3 132 133 125
3 85 86 77
3 94 95 86
3 77 78 69
3 127 128 119
3 44 45 36
3 95 96 87
3 134 135 127
3 119 120 111
3 88 89 80
3 61 62 53
3 25 26 19
3 53 54 45
3 103 104 95
3 138 139 132
3 110 111 102
3 136 142 143
3 132 139 140
3 125 133 134
3 104 105 96
3 123 131 132
3 122 130 131
3 121 129 130
3 116 125 126
3 115 124 125
3 113 122 123
3 112 121 122
3 108 117 118
3 107 116 117
3 106 115 116
3 104 113 114
3 103 112 113
3 99 108 109
3 98 107 108
3 97 106 107
3 96 105 106
3 93 102 5
3 92 101 102
3 91 100 101
3 89 98 99
3 88 97 98
3 87 96 97
3 83 92 93
3 82 91 92
3 78 87 88
3 75 84 3
3 74 83 84
3 73 82 83
3 137 138 131
3 66 75 2
3 65 74 75
3 64 73 74
3 60 69 70
3 59 68 69
3 58 67 68
3 57 66 1
3 56 65 66
3 55 64 65
3 50 59 60
3 49 58 59
3 48 57 0
3 47 56 57
3 46 55 56
3 45 54 55
3 43 52 53
3 42 51 52
3 41 50 51
3 40 49 50
3 38 47 48
3 37 46 47
3 36 45 46
3 32 41 42
3 31 40 41
3 30 38 39
3 29 37 38
3 28 36 37
3 27 35 36
3 23 31 32
3 22 29 30
3 20 27 28
3 19 26 27
3 17 24 25
3 15 21 22
3 14 20 21
3 13 19 20
3 12 18 19
3 11 17 18
3 10 16 17
3 9 12 13
3 8 11 12
3 114 115 106
3 70 71 62
3 34 35 27
3 76 77 68
3 72 73 64
3 111 6 5
3 143 144 138
3 89 90 81
3 109 110 101
3 126 127 118
3 118 119 110
3 78 79 70
3 62 63 54
3 23 24 17
3 79 80 71
3 42 43 34
3 71 72 63
3 60 61 52
3 140 141 134
3 43 44 35
3 136 137 130
3 90 91 82
3 33 34 26
3 99 100 91
3 93 4 3
3 28 29 22
3 63 64 55
3 80 81 72
3 81 82 73
3 32 33 25
