ply
format ascii 1.0
comment openVA ply exporter, (c) Peter Felfer, The University of Sydney 2013, Rhett MPIE modified 2019
comment -38.9 to 123 atoms/nm2
element vertex 145
property float x
property float y
property float z
property uchar red
property uchar green
property uchar blue
property float value
element face 241
property list uchar uint vertex_indices
end_header
18.382530 4.901953 0.031249 62 62 62 0.243120
18.418415 2.941169 0.092095 76 76 76 0.297509
18.414824 0.980384 0.086006 0 0 0 0.000000
18.428848 -0.980400 0.109787 118 118 118 0.461318
18.418180 -2.941184 0.091697 92 92 92 0.358827
18.427530 -4.901968 0.107553 92 92 92 0.362342
18.439144 -6.862751 0.127244 1 1 1 0.002082
4.391768 16.666656 8.394739 196 196 196 0.769930
5.958877 16.666656 7.486793 220 220 220 0.863266
7.490001 16.666656 6.517829 106 106 106 0.414095
4.456612 14.705873 8.504691 138 138 138 0.542035
6.235713 14.446052 7.481854 107 107 107 0.419049
7.601159 14.695616 6.628126 111 111 111 0.433918
9.098845 14.705873 5.680654 149 149 149 0.583076
10.645857 14.705873 4.738627 174 174 174 0.684309
12.178408 14.705873 3.772083 202 202 202 0.790765
4.573727 12.745089 8.703277 201 201 201 0.787449
5.942854 12.520476 7.782140 168 168 168 0.657589
7.371515 12.900845 6.785141 141 141 141 0.551594
8.949087 12.561348 5.877326 245 245 245 0.959701
10.619791 12.732307 4.855887 219 219 219 0.860573
12.000196 13.000751 3.993128 229 229 229 0.897221
13.802187 12.746067 2.962008 198 198 198 0.778225
4.554409 10.784305 8.670519 224 224 224 0.877440
6.037002 10.709766 7.672132 119 119 119 0.467798
7.394246 10.951141 6.854340 114 114 114 0.448793
8.851175 10.494409 5.980466 149 149 149 0.583935
10.482485 10.586780 5.033165 192 192 192 0.754679
12.314579 11.016801 3.891275 201 201 201 0.787900
14.062932 10.551363 2.889105 219 219 219 0.858614
15.342958 10.781259 2.002086 142 142 142 0.556626
4.583817 8.823521 8.720385 210 210 210 0.821718
6.182811 9.030379 7.576817 171 171 171 0.668846
7.729168 9.096546 6.597511 120 120 120 0.469245
9.140806 8.732444 5.881488 100 100 100 0.390495
10.535669 8.497112 5.139305 186 186 186 0.731091
12.117055 8.713034 4.188699 242 242 242 0.947527
13.782678 8.824820 3.104342 255 255 255 1.000000
15.386309 8.752825 1.993700 200 200 200 0.785461
16.783144 8.823521 0.884463 61 61 61 0.239887
4.621449 6.862737 8.784196 216 216 216 0.846912
6.081185 6.938181 7.681744 209 209 209 0.819467
7.749868 7.123266 6.634133 110 110 110 0.429693
9.554094 6.781178 5.677780 127 127 127 0.499687
11.049284 7.037556 4.833224 182 182 182 0.713009
12.416889 6.383088 4.100785 236 236 236 0.924240
13.811300 6.836137 3.142829 149 149 149 0.583286
15.351785 6.855910 2.099513 189 189 189 0.740777
16.876886 6.862737 1.043415 122 122 122 0.480274
4.627131 4.901953 8.793830 94 94 94 0.367410
6.075441 4.922203 7.695903 82 82 82 0.321322
7.425125 5.268304 6.835304 125 125 125 0.490950
8.826752 4.966116 6.063307 134 134 134 0.525555
10.551883 5.026787 5.088688 205 205 205 0.802148
12.100945 4.516697 4.329011 195 195 195 0.763497
13.769537 4.625153 3.337169 103 103 103 0.405517
15.378377 4.882649 2.261539 103 103 103 0.402338
16.885133 4.901928 1.127884 100 100 100 0.392124
4.664709 2.941169 8.857550 82 82 82 0.323090
6.144414 2.946818 7.802670 111 111 111 0.436462
7.731433 3.190431 6.718247 132 132 132 0.517480
9.416691 3.300073 5.828398 154 154 154 0.605078
10.733479 2.910464 5.066645 112 112 112 0.440984
12.329425 2.802074 4.233350 164 164 164 0.641778
13.972545 2.420866 3.321865 250 250 250 0.978619
15.462483 2.875147 2.364868 149 149 149 0.583524
16.957993 2.942983 1.256329 141 141 141 0.554793
4.691449 0.980384 8.902890 55 55 55 0.215679
5.861525 0.981763 8.101626 172 172 172 0.675935
7.256056 1.057985 7.060513 234 234 234 0.919024
8.978677 1.259823 6.082220 189 189 189 0.739225
10.723440 0.969414 5.165261 155 155 155 0.606511
12.331253 0.862502 4.247131 147 147 147 0.576058
14.018789 0.389884 3.367943 208 208 208 0.817564
15.537668 0.837612 2.375973 245 245 245 0.959268
16.986871 0.965602 1.275586 218 218 218 0.854753
4.643770 -0.980400 8.822044 148 148 148 0.579134
6.063602 -0.978487 7.843627 171 171 171 0.670643
7.725235 -1.074018 6.729774 216 216 216 0.847155
9.442388 -0.633362 5.879971 223 223 223 0.874874
10.880744 -0.981511 5.179433 131 131 131 0.512890
12.404021 -1.100228 4.315989 187 187 187 0.732425
14.037689 -1.594622 3.379021 204 204 204 0.801001
15.562297 -1.153984 2.388446 243 243 243 0.952947
16.811428 -0.765358 1.423265 167 167 167 0.653552
4.574604 -2.941184 8.704763 192 192 192 0.754279
6.027340 -2.929195 7.612165 202 202 202 0.793801
7.595889 -3.400398 6.668550 171 171 171 0.670209
9.406652 -2.724065 5.910830 149 149 149 0.582656
11.283947 -2.947153 4.988530 169 169 169 0.664517
12.756678 -2.791882 4.145961 150 150 150 0.588094
14.110940 -3.565258 3.356295 164 164 164 0.641340
15.593720 -3.124887 2.396798 226 226 226 0.884429
17.145380 -2.730522 1.166145 112 112 112 0.439460
4.486575 -4.901968 8.555498 216 216 216 0.848088
5.967107 -4.970124 7.593249 193 193 193 0.758459
7.531802 -5.471314 6.584493 174 174 174 0.683964
9.219146 -4.940279 5.878341 196 196 196 0.769062
10.899581 -4.832929 5.125962 209 209 209 0.820179
12.675410 -4.775360 4.180245 187 187 187 0.735281
14.128224 -5.090272 3.352360 133 133 133 0.522157
15.320700 -5.058716 2.643651 161 161 161 0.631333
16.720283 -4.864286 1.615177 149 149 149 0.583334
4.462387 -6.862751 8.514483 218 218 218 0.856734
6.279784 -6.968152 7.322626 237 237 237 0.930083
7.639961 -7.068181 6.531856 209 209 209 0.817703
9.052043 -7.142858 5.849767 227 227 227 0.889429
10.767341 -6.867240 5.060796 224 224 224 0.877190
12.422308 -6.792917 4.197228 175 175 175 0.685340
13.984861 -6.477020 3.355291 137 137 137 0.537890
15.453810 -6.886376 2.433525 172 172 172 0.676191
17.029093 -6.862751 1.301504 109 109 109 0.428006
4.466737 -8.823536 8.521860 190 190 190 0.744823
6.016837 -8.811382 7.543514 195 195 195 0.764010
7.567273 -8.524502 6.595232 191 191 191 0.747296
9.155284 -9.314411 5.851734 213 213 213 0.835748
10.722007 -8.892627 4.984551 217 217 217 0.852546
12.145063 -8.547532 4.251749 103 103 103 0.404492
13.735171 -8.550327 3.356347 112 112 112 0.440834
15.472007 -8.823536 2.226445 189 189 189 0.740770
16.929655 -8.823536 1.132892 149 149 149 0.584388
4.501389 -10.784320 8.580617 164 164 164 0.644710
6.054267 -10.777778 7.645238 164 164 164 0.643103
7.695015 -10.580015 6.614980 169 169 169 0.662023
9.219746 -10.916184 5.813958 113 113 113 0.443066
10.606379 -11.064194 4.964419 178 178 178 0.699801
12.267749 -10.309218 4.100783 115 115 115 0.451957
13.868367 -10.784320 3.072449 88 88 88 0.344788
15.392588 -10.784320 2.091779 138 138 138 0.542779
4.553267 -12.745104 8.668583 212 212 212 0.829746
5.757140 -12.742971 7.931983 216 216 216 0.845379
7.203669 -12.677489 6.975531 132 132 132 0.515941
9.011239 -12.778973 5.861529 135 135 135 0.530829
10.635874 -12.844015 4.876699 225 225 225 0.882971
12.236930 -12.745104 3.871316 206 206 206 0.809289
13.791691 -12.745104 2.942433 134 134 134 0.525395
4.580165 -14.705888 8.714194 24 24 24 0.094118
6.172700 -14.439708 7.597953 130 130 130 0.510712
7.562933 -14.705888 6.641497 122 122 122 0.477080
9.094985 -14.705888 5.674107 156 156 156 0.612867
10.682361 -14.705888 4.800525 251 251 251 0.985218
12.199896 -14.705888 3.808519 202 202 202 0.792365
4.588970 -16.666672 8.729123 104 104 104 0.407921
6.064935 -16.666672 7.666629 184 184 184 0.721723
7.539349 -16.666672 6.601506 164 164 164 0.644367
3 137 143 138
3 136 143 137
3 133 140 134
3 132 140 133
3 131 138 132
3 130 137 131
3 129 136 130
3 126 134 127
3 125 134 126
3 124 132 125
3 123 132 124
3 122 131 123
3 121 130 122
3 118 127 119
3 117 126 118
3 116 126 117
3 115 125 116
3 114 123 115
3 113 123 114
3 112 122 113
3 110 119 111
3 109 118 110
3 108 118 109
3 107 117 108
3 106 116 107
3 105 114 106
3 104 114 105
3 103 113 104
3 102 111 5
3 101 110 102
3 100 109 101
3 99 109 100
3 98 108 99
3 97 107 98
3 96 106 97
3 95 104 96
3 94 103 95
3 93 5 4
3 92 102 93
3 91 101 92
3 90 99 91
3 89 99 90
3 88 98 89
3 87 97 88
3 86 95 87
3 85 94 86
3 84 93 3
3 83 93 84
3 82 92 83
3 81 90 82
3 80 89 81
3 79 88 80
3 78 88 79
3 77 86 78
3 76 85 77
3 75 3 2
3 74 84 75
3 73 83 74
3 72 81 73
3 71 80 72
3 70 79 71
3 69 78 70
3 68 77 69
3 67 76 68
3 66 2 1
3 65 75 66
3 64 74 65
3 63 72 64
3 62 71 63
3 61 70 62
3 60 70 61
3 59 69 60
3 58 68 59
3 57 1 0
3 56 66 57
3 55 65 56
3 54 63 55
3 53 62 54
3 52 61 53
3 51 60 52
3 50 60 51
3 49 59 50
3 47 57 48
3 46 56 47
3 45 55 46
3 44 53 45
3 43 53 44
3 42 52 43
3 41 51 42
3 40 50 41
3 38 48 39
3 37 47 38
3 36 46 37
3 35 44 36
3 34 43 35
3 33 42 34
3 32 42 33
3 31 41 32
3 29 38 30
3 28 37 29
3 27 36 28
3 26 34 27
3 25 33 26
3 24 32 25
3 23 32 24
3 21 28 22
3 20 28 21
3 19 27 20
3 18 25 19
3 17 25 18
3 16 23 17
3 14 21 15
3 13 20 14
3 12 19 13
3 11 18 12
3 10 17 11
3 8 12 9
3 7 10 8
3 86 87 78
3 10 11 8
3 123 124 115
3 132 133 125
3 85 86 77
3 94 95 86
3 77 78 69
3 127 128 119
3 44 45 36
3 95 96 87
3 134 135 127
3 119 120 111
3 88 89 80
3 61 62 53
3 25 26 19
3 53 54 45
3 103 104 95
3 138 139 132
3 110 111 102
3 136 142 143
3 132 139 140
3 125 133 134
3 104 105 96
3 123 131 132
3 122 130 131
3 121 129 130
3 116 125 126
3 115 124 125
3 113 122 123
3 112 121 122
3 108 117 118
3 107 116 117
3 106 115 116
3 104 113 114
3 103 112 113
3 99 108 109
3 98 107 108
3 97 106 107
3 96 105 106
3 93 102 5
3 92 101 102
3 91 100 101
3 89 98 99
3 88 97 98
3 87 96 97
3 83 92 93
3 82 91 92
3 78 87 88
3 75 84 3
3 74 83 84
3 73 82 83
3 137 138 131
3 66 75 2
3 65 74 75
3 64 73 74
3 60 69 70
3 59 68 69
3 58 67 68
3 57 66 1
3 56 65 66
3 55 64 65
3 50 59 60
3 49 58 59
3 48 57 0
3 47 56 57
3 46 55 56
3 45 54 55
3 43 52 53
3 42 51 52
3 41 50 51
3 40 49 50
3 38 47 48
3 37 46 47
3 36 45 46
3 32 41 42
3 31 40 41
3 30 38 39
3 29 37 38
3 28 36 37
3 27 35 36
3 23 31 32
3 22 29 30
3 20 27 28
3 19 26 27
3 17 24 25
3 15 21 22
3 14 20 21
3 13 19 20
3 12 18 19
3 11 17 18
3 10 16 17
3 9 12 13
3 8 11 12
3 114 115 106
3 70 71 62
3 34 35 27
3 76 77 68
3 72 73 64
3 111 6 5
3 143 144 138
3 89 90 81
3 109 110 101
3 126 127 118
3 118 119 110
3 78 79 70
3 62 63 54
3 23 24 17
3 79 80 71
3 42 43 34
3 71 72 63
3 60 61 52
3 140 141 134
3 43 44 35
3 136 137 130
3 90 91 82
3 33 34 26
3 99 100 91
3 93 4 3
3 28 29 22
3 63 64 55
3 80 81 72
3 81 82 73
3 32 33 25
