ply
format ascii 1.0
comment openVA ply exporter, (c) Peter Felfer, The University of Sydney 2013, Rhett MPIE modified 2019
comment 6.59 to 96.1 atom percentage
element vertex 90
property float x
property float y
property float z
property uchar red
property uchar green
property uchar blue
property float value
element face 136
property list uchar uint vertex_indices
end_header
-5.013485 16.666656 8.604342 249 249 249 0.978372
-5.011189 14.705873 8.637652 129 129 129 0.505067
-5.011209 12.745089 8.637373 238 238 238 0.933271
-5.010171 10.784305 8.652430 210 210 210 0.823172
-5.013418 8.823521 8.605315 164 164 164 0.641721
-5.006847 6.862737 8.700651 53 53 53 0.207245
-5.002038 4.901953 8.770434 35 35 35 0.135953
-5.006749 2.941169 8.702079 47 47 47 0.183329
-5.000230 0.980384 8.796668 88 88 88 0.346303
-4.986497 -0.980400 8.995914 51 51 51 0.200333
-4.980085 -2.941184 9.088941 176 176 176 0.691789
-4.971642 -4.901968 9.211446 184 184 184 0.722826
-4.986315 -6.861062 8.998548 140 140 140 0.547346
-4.998670 -8.823536 8.819300 77 77 77 0.301075
-4.998967 -10.784320 8.814985 236 236 236 0.924895
-4.990463 -12.745104 8.938367 236 236 236 0.925212
-4.983758 -14.705888 9.035651 235 235 235 0.919928
-4.989449 -16.666672 8.953091 96 96 96 0.377396
-3.394090 16.666656 8.900893 91 91 91 0.357067
-1.793403 16.666656 9.054021 51 51 51 0.198768
-0.188382 16.666656 9.163805 139 139 139 0.544317
1.430764 16.666656 9.132321 240 240 240 0.942508
-3.055055 14.705739 8.987997 149 149 149 0.585047
-1.685705 14.706381 9.152438 96 96 96 0.377640
-0.544137 14.704565 9.158918 178 178 178 0.697235
1.421644 14.705873 9.223534 216 216 216 0.848669
-3.726709 12.790271 8.844217 203 203 203 0.796928
-1.882293 12.674478 9.072767 172 172 172 0.673012
0.109435 12.784439 9.121604 218 218 218 0.853538
1.421350 12.745089 9.226469 190 190 190 0.743441
-3.103236 10.815398 8.958549 243 243 243 0.951786
-1.493631 10.482909 9.090218 99 99 99 0.387367
-0.123792 10.822473 9.110481 228 228 228 0.894376
1.418496 10.784305 9.255020 132 132 132 0.516297
-3.532818 8.686549 8.836453 228 228 228 0.894745
-2.006479 8.992518 9.086749 239 239 239 0.937670
-0.538483 8.753223 9.127275 84 84 84 0.331356
1.418813 8.823521 9.251852 133 133 133 0.520453
-3.413519 6.387691 8.885502 183 183 183 0.718112
-1.758210 7.011183 9.078216 124 124 124 0.487711
0.010465 7.166731 9.125549 223 223 223 0.875859
1.412344 6.862737 9.316546 164 164 164 0.641920
-3.161982 4.488814 8.922715 121 121 121 0.473843
-1.936676 5.118339 9.021663 122 122 122 0.476562
-0.379873 5.181368 9.208336 202 202 202 0.792034
1.404058 4.901953 9.399415 206 206 206 0.808564
-3.558151 2.680351 8.972589 238 238 238 0.932347
-1.642893 3.106352 9.096118 184 184 184 0.720069
0.160550 3.059435 9.367831 253 253 253 0.990896
1.384573 2.941169 9.594285 166 166 166 0.652627
-3.423317 0.471931 9.088548 106 106 106 0.417094
-1.845753 0.988445 9.125209 68 68 68 0.266780
-0.171613 1.071895 9.270715 218 218 218 0.856182
1.384821 0.980384 9.591812 221 221 221 0.865486
-3.407987 -1.561136 9.226916 207 207 207 0.810307
-1.816124 -1.098684 9.248361 78 78 78 0.305523
-0.214893 -0.950389 9.245599 131 131 131 0.515652
1.389203 -0.980400 9.547981 181 181 181 0.711524
-3.647142 -3.379127 9.303712 149 149 149 0.585559
-2.188832 -3.079779 9.314939 169 169 169 0.661887
-0.440873 -3.131878 9.209050 0 0 0 0.000000
1.401460 -2.941184 9.425402 243 243 243 0.953900
-3.257319 -4.795979 9.301471 201 201 201 0.787823
-1.852130 -4.953284 9.220140 131 131 131 0.513349
-0.456486 -5.226967 9.188072 90 90 90 0.353152
1.414287 -4.901968 9.297117 14 14 14 0.054798
-3.412014 -6.424034 9.235962 1 1 1 0.004814
-1.909238 -6.926658 9.174603 5 5 5 0.020392
-0.065149 -7.098893 9.112804 178 178 178 0.699396
1.424310 -6.862751 9.196870 254 254 254 0.995258
-3.268947 -8.540246 8.958854 216 216 216 0.848960
-1.547747 -8.551583 9.114515 235 235 235 0.921170
-0.134002 -9.323906 9.145227 245 245 245 0.960885
1.425386 -8.823536 9.186105 243 243 243 0.951527
-3.534559 -10.877224 8.974611 187 187 187 0.731532
-1.707404 -10.554802 9.068113 255 255 255 1.000000
-0.148962 -10.913101 9.114351 251 251 251 0.986057
1.416599 -10.784320 9.273993 245 245 245 0.960811
-3.408585 -13.205927 9.064580 176 176 176 0.692032
-1.846510 -12.697519 9.051743 192 192 192 0.752536
-0.203521 -12.257140 9.140891 212 212 212 0.833119
1.413317 -12.745104 9.306812 227 227 227 0.891885
-3.396847 -14.859592 9.074813 220 220 220 0.863408
-2.128037 -14.770804 9.089012 0 0 0 0.000892
-0.277748 -14.576069 9.133007 203 203 203 0.797230
1.416972 -14.705888 9.270259 249 249 249 0.976379
-3.407632 -16.666672 9.036328 212 212 212 0.831750
-1.796359 -16.666672 9.083589 186 186 186 0.727592
-0.178231 -16.666672 9.062283 155 155 155 0.608390
1.416009 -16.666672 9.279894 219 219 219 0.857831
3 0 1 18
3 1 26 22
3 2 3 26
3 3 34 30
3 4 5 34
3 5 6 38
3 6 46 42
3 7 8 46
3 8 9 50
3 9 10 54
3 10 11 58
3 11 66 62
3 12 70 66
3 13 74 70
3 14 15 74
3 15 16 78
3 16 86 82
3 84 89 85
3 83 87 84
3 82 86 83
3 80 84 81
3 79 84 80
3 78 83 79
3 76 80 77
3 75 80 76
3 74 79 75
3 72 77 73
3 71 75 72
3 70 75 71
3 68 73 69
3 67 71 68
3 66 70 67
3 64 68 65
3 63 67 64
3 62 66 63
3 60 65 61
3 59 63 60
3 58 62 59
3 56 61 57
3 55 60 56
3 54 59 55
3 52 57 53
3 51 56 52
3 50 55 51
3 48 53 49
3 47 52 48
3 46 51 47
3 44 48 45
3 43 47 44
3 42 47 43
3 40 44 41
3 39 44 40
3 38 43 39
3 36 40 37
3 35 39 36
3 34 39 35
3 32 37 33
3 31 36 32
3 30 35 31
3 28 33 29
3 27 32 28
3 26 30 27
3 24 28 25
3 23 27 24
3 22 27 23
3 20 25 21
3 19 24 20
3 18 22 19
3 15 78 74
3 1 2 26
3 3 4 34
3 6 7 46
3 11 12 66
3 12 13 70
3 13 14 74
3 16 17 86
3 10 58 54
3 67 68 64
3 86 87 83
3 84 88 89
3 79 83 84
3 78 82 83
3 75 79 80
3 74 78 79
3 72 76 77
3 70 74 75
3 68 72 73
3 60 64 65
3 56 60 61
3 55 59 60
3 54 58 59
3 52 56 57
3 51 55 56
3 50 54 55
3 48 52 53
3 47 51 52
3 46 50 51
3 42 46 47
3 39 43 44
3 38 42 43
3 34 38 39
3 32 36 37
3 31 35 36
3 30 34 35
3 28 32 33
3 27 31 32
3 44 45 41
3 22 26 27
3 20 24 25
3 19 23 24
3 6 42 38
3 8 50 46
3 28 29 25
3 27 28 24
3 47 48 44
3 87 88 84
3 62 63 59
3 1 22 18
3 80 81 77
3 11 62 58
3 75 76 72
3 40 41 37
3 30 31 27
3 48 49 45
3 9 54 50
3 16 82 78
3 5 38 34
3 3 30 26
3 66 67 63
3 22 23 19
3 63 64 60
3 84 85 81
3 71 72 68
3 68 69 65
3 70 71 67
3 39 40 36
