ply
format ascii 1.0
comment openVA ply exporter, (c) Peter Felfer, The University of Sydney 2013, Rhett MPIE modified 2019
comment 24.9 to 283 atoms/nm2
element vertex 90
property float x
property float y
property float z
property uchar red
property uchar green
property uchar blue
property float value
element face 136
property list uchar uint vertex_indices
end_header
-5.013485 16.666656 8.604342 251 251 251 0.983878
-5.011189 14.705873 8.637652 170 170 170 0.666402
-5.011209 12.745089 8.637373 222 222 222 0.871399
-5.010171 10.784305 8.652430 178 178 178 0.699687
-5.013418 8.823521 8.605315 162 162 162 0.636638
-5.006847 6.862737 8.700651 195 195 195 0.765589
-5.002038 4.901953 8.770434 73 73 73 0.285130
-5.006749 2.941169 8.702079 79 79 79 0.311516
-5.000230 0.980384 8.796668 92 92 92 0.362515
-4.986497 -0.980400 8.995914 167 167 167 0.656598
-4.980085 -2.941184 9.088941 96 96 96 0.377030
-4.971642 -4.901968 9.211446 255 255 255 1.000000
-4.986315 -6.861062 8.998548 244 244 244 0.958083
-4.998670 -8.823536 8.819300 113 113 113 0.442564
-4.998967 -10.784320 8.814985 135 135 135 0.529993
-4.990463 -12.745104 8.938367 204 204 204 0.798198
-4.983758 -14.705888 9.035651 226 226 226 0.887373
-4.989449 -16.666672 8.953091 58 58 58 0.227002
-3.394090 16.666656 8.900893 34 34 34 0.132765
-1.793403 16.666656 9.054021 1 1 1 0.002533
-0.188382 16.666656 9.163805 33 33 33 0.128844
1.430764 16.666656 9.132321 95 95 95 0.372305
-3.055055 14.705739 8.987997 35 35 35 0.136335
-1.685705 14.706381 9.152438 0 0 0 0.000000
-0.544137 14.704565 9.158918 38 38 38 0.149083
1.421644 14.705873 9.223534 68 68 68 0.267211
-3.726709 12.790271 8.844217 57 57 57 0.224763
-1.882293 12.674478 9.072767 41 41 41 0.161995
0.109435 12.784439 9.121604 58 58 58 0.225491
1.421350 12.745089 9.226469 47 47 47 0.183718
-3.103236 10.815398 8.958549 56 56 56 0.220950
-1.493631 10.482909 9.090218 24 24 24 0.095296
-0.123792 10.822473 9.110481 62 62 62 0.244041
1.418496 10.784305 9.255020 29 29 29 0.112247
-3.532818 8.686549 8.836453 113 113 113 0.444637
-2.006479 8.992518 9.086749 66 66 66 0.257137
-0.538483 8.753223 9.127275 30 30 30 0.116495
1.418813 8.823521 9.251852 26 26 26 0.100086
-3.413519 6.387691 8.885502 41 41 41 0.160378
-1.758210 7.011183 9.078216 18 18 18 0.072016
0.010465 7.166731 9.125549 51 51 51 0.200115
1.412344 6.862737 9.316546 43 43 43 0.169048
-3.161982 4.488814 8.922715 19 19 19 0.074769
-1.936676 5.118339 9.021663 16 16 16 0.064335
-0.379873 5.181368 9.208336 41 41 41 0.162051
1.404058 4.901953 9.399415 54 54 54 0.210633
-3.558151 2.680351 8.972589 73 73 73 0.286903
-1.642893 3.106352 9.096118 53 53 53 0.208184
0.160550 3.059435 9.367831 74 74 74 0.290364
1.384573 2.941169 9.594285 34 34 34 0.132790
-3.423317 0.471931 9.088548 24 24 24 0.094763
-1.845753 0.988445 9.125209 53 53 53 0.208393
-0.171613 1.071895 9.270715 62 62 62 0.243722
1.384821 0.980384 9.591812 62 62 62 0.241680
-3.407987 -1.561136 9.226916 57 57 57 0.225120
-1.816124 -1.098684 9.248361 37 37 37 0.145459
-0.214893 -0.950389 9.245599 45 45 45 0.175611
1.389203 -0.980400 9.547981 31 31 31 0.122692
-3.647142 -3.379127 9.303712 67 67 67 0.263465
-2.188832 -3.079779 9.314939 36 36 36 0.139961
-0.440873 -3.131878 9.209050 15 15 15 0.059057
1.401460 -2.941184 9.425402 70 70 70 0.274345
-3.257319 -4.795979 9.301471 49 49 49 0.190975
-1.852130 -4.953284 9.220140 25 25 25 0.096651
-0.456486 -5.226967 9.188072 7 7 7 0.026588
1.414287 -4.901968 9.297117 36 36 36 0.142923
-3.412014 -6.424034 9.235962 8 8 8 0.032407
-1.909238 -6.926658 9.174603 48 48 48 0.187730
-0.065149 -7.098893 9.112804 40 40 40 0.157523
1.424310 -6.862751 9.196870 74 74 74 0.289292
-3.268947 -8.540246 8.958854 56 56 56 0.220480
-1.547747 -8.551583 9.114515 60 60 60 0.235550
-0.134002 -9.323906 9.145227 77 77 77 0.300730
1.425386 -8.823536 9.186105 67 67 67 0.264417
-3.534559 -10.877224 8.974611 56 56 56 0.219600
-1.707404 -10.554802 9.068113 81 81 81 0.316464
-0.148962 -10.913101 9.114351 71 71 71 0.277755
1.416599 -10.784320 9.273993 70 70 70 0.273392
-3.408585 -13.205927 9.064580 53 53 53 0.209602
-1.846510 -12.697519 9.051743 46 46 46 0.179489
-0.203521 -12.257140 9.140891 60 60 60 0.235194
1.413317 -12.745104 9.306812 60 60 60 0.233781
-3.396847 -14.859592 9.074813 97 97 97 0.378823
-2.128037 -14.770804 9.089012 10 10 10 0.039496
-0.277748 -14.576069 9.133007 40 40 40 0.155376
1.416972 -14.705888 9.270259 69 69 69 0.271160
-3.407632 -16.666672 9.036328 85 85 85 0.334084
-1.796359 -16.666672 9.083589 35 35 35 0.137724
-0.178231 -16.666672 9.062283 25 25 25 0.098072
1.416009 -16.666672 9.279894 52 52 52 0.205388
3 0 1 18
3 1 26 22
3 2 3 26
3 3 34 30
3 4 5 34
3 5 6 38
3 6 46 42
3 7 8 46
3 8 9 50
3 9 10 54
3 10 11 58
3 11 66 62
3 12 70 66
3 13 74 70
3 14 15 74
3 15 16 78
3 16 86 82
3 84 89 85
3 83 87 84
3 82 86 83
3 80 84 81
3 79 84 80
3 78 83 79
3 76 80 77
3 75 80 76
3 74 79 75
3 72 77 73
3 71 75 72
3 70 75 71
3 68 73 69
3 67 71 68
3 66 70 67
3 64 68 65
3 63 67 64
3 62 66 63
3 60 65 61
3 59 63 60
3 58 62 59
3 56 61 57
3 55 60 56
3 54 59 55
3 52 57 53
3 51 56 52
3 50 55 51
3 48 53 49
3 47 52 48
3 46 51 47
3 44 48 45
3 43 47 44
3 42 47 43
3 40 44 41
3 39 44 40
3 38 43 39
3 36 40 37
3 35 39 36
3 34 39 35
3 32 37 33
3 31 36 32
3 30 35 31
3 28 33 29
3 27 32 28
3 26 30 27
3 24 28 25
3 23 27 24
3 22 27 23
3 20 25 21
3 19 24 20
3 18 22 19
3 15 78 74
3 1 2 26
3 3 4 34
3 6 7 46
3 11 12 66
3 12 13 70
3 13 14 74
3 16 17 86
3 10 58 54
3 67 68 64
3 86 87 83
3 84 88 89
3 79 83 84
3 78 82 83
3 75 79 80
3 74 78 79
3 72 76 77
3 70 74 75
3 68 72 73
3 60 64 65
3 56 60 61
3 55 59 60
3 54 58 59
3 52 56 57
3 51 55 56
3 50 54 55
3 48 52 53
3 47 51 52
3 46 50 51
3 42 46 47
3 39 43 44
3 38 42 43
3 34 38 39
3 32 36 37
3 31 35 36
3 30 34 35
3 28 32 33
3 27 31 32
3 44 45 41
3 22 26 27
3 20 24 25
3 19 23 24
3 6 42 38
3 8 50 46
3 28 29 25
3 27 28 24
3 47 48 44
3 87 88 84
3 62 63 59
3 1 22 18
3 80 81 77
3 11 62 58
3 75 76 72
3 40 41 37
3 30 31 27
3 48 49 45
3 9 54 50
3 16 82 78
3 5 38 34
3 3 30 26
3 66 67 63
3 22 23 19
3 63 64 60
3 84 85 81
3 71 72 68
3 68 69 65
3 70 71 67
3 39 40 36
