ply
format ascii 1.0
comment openVA ply exporter, (c) Peter Felfer, The University of Sydney 2013, Rhett MPIE modified 2019
comment 5.22 to 95.8 atom percentage
element vertex 157
property float x
property float y
property float z
property uchar red
property uchar green
property uchar blue
property float value
element face 256
property list uchar uint vertex_indices
end_header
-10.188074 8.823521 -34.341820 66 66 66 0.259763
-10.063646 6.862737 -34.457294 130 130 130 0.510513
-9.966142 4.901953 -34.547783 0 0 0 0.000000
-9.966961 2.941169 -34.547024 71 71 71 0.278772
-9.951629 0.980384 -34.561253 168 168 168 0.660030
-9.917093 -0.980400 -34.593304 108 108 108 0.422519
-9.942080 -2.941184 -34.570114 171 171 171 0.669552
-9.921417 -4.901968 -34.589291 125 125 125 0.490795
-10.065672 -6.862751 -34.455414 95 95 95 0.371439
-10.090530 -8.823536 -34.432343 67 67 67 0.263162
-10.107059 -10.784320 -34.417004 8 8 8 0.029500
-10.115007 -12.745104 -34.409630 61 61 61 0.237470
-10.055248 -14.705888 -34.465088 169 169 169 0.661511
-10.054656 -16.666672 -34.465637 10 10 10 0.038946
-8.537819 22.549011 -33.351276 18 18 18 0.070360
-7.187952 22.549011 -32.081959 61 61 61 0.237293
-5.670361 22.549011 -30.968300 181 181 181 0.711257
-4.423647 22.549011 -29.603252 36 36 36 0.140350
-3.224274 22.549011 -28.194271 219 219 219 0.859108
-1.986401 22.549011 -26.821020 244 244 244 0.957247
-8.576792 20.588226 -33.315109 11 11 11 0.044571
-7.244400 20.588801 -32.023866 188 188 188 0.738375
-5.846244 20.593647 -30.807421 237 237 237 0.928462
-4.496567 21.023314 -29.537946 68 68 68 0.266218
-3.281887 20.614605 -28.199592 19 19 19 0.073488
-2.078929 20.588226 -26.735149 220 220 220 0.864042
-8.621315 18.627441 -33.273788 66 66 66 0.259492
-7.375210 18.441526 -32.147875 71 71 71 0.278990
-5.917083 18.615132 -30.836595 116 116 116 0.456232
-4.592319 19.170599 -29.481362 174 174 174 0.682818
-3.270247 18.492257 -27.997202 226 226 226 0.886318
-2.087229 18.627441 -26.727448 255 255 255 0.998479
-8.596175 16.666656 -33.297119 154 154 154 0.603446
-7.051672 16.346329 -31.893101 234 234 234 0.918600
-5.919359 16.632947 -30.725711 205 205 205 0.805482
-4.519759 16.993551 -29.282100 181 181 181 0.711305
-3.336441 16.675782 -27.990041 68 68 68 0.265570
-2.103766 16.666656 -26.712099 207 207 207 0.811936
-8.618576 14.705873 -33.276329 2 2 2 0.008308
-7.416740 14.905868 -32.204348 101 101 101 0.397422
-6.218822 14.620903 -31.042704 65 65 65 0.255598
-4.830819 14.621240 -29.578415 243 243 243 0.954142
-3.448454 15.186522 -28.102383 137 137 137 0.536277
-2.176502 14.705873 -26.644596 202 202 202 0.790200
-8.692097 12.745089 -33.208099 183 183 183 0.718162
-7.143961 12.927703 -31.983069 70 70 70 0.273238
-5.723397 13.014363 -30.660208 111 111 111 0.437243
-4.581081 12.292612 -29.455453 213 213 213 0.834397
-3.377800 13.040409 -27.947895 43 43 43 0.167450
-2.168470 12.745089 -26.652050 49 49 49 0.190814
-8.697001 10.784305 -33.203548 92 92 92 0.359409
-7.263467 10.848952 -32.002279 64 64 64 0.252412
-5.867424 11.265396 -30.839649 119 119 119 0.468254
-4.834220 10.436331 -29.674283 134 134 134 0.525102
-3.656017 10.790425 -28.375772 70 70 70 0.272747
-2.222426 10.784305 -26.601976 66 66 66 0.259968
-8.733962 8.823521 -33.169247 159 159 159 0.624799
-7.586031 8.842992 -32.267937 212 212 212 0.831289
-6.013127 8.876118 -30.892167 140 140 140 0.547652
-4.434399 8.731778 -29.172264 132 132 132 0.518152
-3.223908 9.144366 -27.791744 190 190 190 0.745084
-2.219051 8.823521 -26.605110 146 146 146 0.574288
-8.695930 6.818223 -33.291948 252 252 252 0.989917
-7.310201 6.902396 -32.053845 236 236 236 0.925575
-5.904428 6.451353 -30.812501 115 115 115 0.451742
-4.658796 6.875531 -29.486222 200 200 200 0.783176
-3.364270 7.336317 -27.996172 218 218 218 0.853875
-2.253317 6.862737 -26.573309 31 31 31 0.122104
-8.616283 4.896891 -33.290884 243 243 243 0.951173
-7.275567 4.848038 -32.080700 254 254 254 0.997712
-5.882034 4.344558 -30.794838 255 255 255 1.000000
-4.806841 5.038121 -29.631299 248 248 248 0.971089
-3.425311 5.029226 -28.104911 249 249 249 0.978008
-2.299300 4.901953 -26.530634 172 172 172 0.675043
-8.594049 2.925074 -33.322905 247 247 247 0.968529
-7.137565 2.659351 -31.960244 249 249 249 0.977258
-5.653757 2.461232 -30.556448 185 185 185 0.725835
-4.452540 3.108723 -29.248474 222 222 222 0.870081
-3.198681 2.726190 -27.797753 184 184 184 0.721948
-2.224863 2.941169 -26.599716 83 83 83 0.327203
-8.579940 0.945146 -33.328528 247 247 247 0.970299
-7.403200 0.626295 -32.217044 220 220 220 0.862718
-6.209305 0.818080 -31.081802 158 158 158 0.619589
-4.737307 0.749721 -29.562995 169 169 169 0.662800
-3.415114 0.949566 -28.070494 187 187 187 0.734559
-2.162013 0.980384 -26.658043 84 84 84 0.330922
-8.275271 -1.073965 -33.112787 254 254 254 0.994414
-6.891489 -1.133442 -31.736737 232 232 232 0.910630
-5.685915 -0.766833 -30.555561 206 206 206 0.807578
-4.571958 -1.490352 -29.412328 2 2 2 0.007273
-3.577105 -0.799508 -28.285178 248 248 248 0.972507
-2.100913 -0.980400 -26.714748 220 220 220 0.863566
-8.517209 -2.926431 -33.348586 225 225 225 0.883986
-7.176305 -2.985454 -31.956877 168 168 168 0.660226
-5.714140 -2.818005 -30.577716 140 140 140 0.550639
-4.336647 -3.364671 -29.193816 145 145 145 0.567069
-3.270047 -2.513038 -28.025117 229 229 229 0.898918
-2.046273 -2.941184 -26.765455 227 227 227 0.891238
-8.572005 -4.894961 -33.319847 225 225 225 0.880908
-7.227753 -4.902225 -32.036211 182 182 182 0.713626
-5.891649 -4.858076 -30.708497 119 119 119 0.465739
-4.754327 -4.706385 -29.564176 159 159 159 0.621569
-3.302960 -4.882440 -28.079211 153 153 153 0.601704
-2.038654 -4.901968 -26.772528 241 241 241 0.943254
-8.591093 -6.862127 -33.311478 165 165 165 0.647797
-7.281693 -6.859919 -31.996889 251 251 251 0.985154
-5.937577 -6.847165 -30.716679 204 204 204 0.800894
-4.493552 -6.617952 -29.288725 75 75 75 0.293939
-3.262715 -6.817282 -28.069581 42 42 42 0.166403
-2.074305 -6.862751 -26.739441 4 4 4 0.015587
-8.638589 -8.822009 -33.263500 97 97 97 0.382056
-7.426827 -8.560740 -32.203120 198 198 198 0.776429
-6.314811 -8.814868 -31.016090 243 243 243 0.951173
-4.845664 -8.914723 -29.591082 91 91 91 0.355524
-3.389002 -8.371054 -28.150508 40 40 40 0.158600
-2.191811 -8.823536 -26.630390 26 26 26 0.101714
-8.633081 -10.783059 -33.273408 106 106 106 0.416963
-7.316506 -10.321804 -32.080175 162 162 162 0.634455
-6.032697 -10.752664 -30.833313 160 160 160 0.626611
-4.694451 -11.233591 -29.453049 16 16 16 0.062793
-3.464901 -10.270149 -28.122394 31 31 31 0.123440
-2.132166 -10.784320 -26.685743 21 21 21 0.083182
-8.966090 -12.745898 -33.518010 204 204 204 0.798542
-7.468315 -12.464592 -32.221259 195 195 195 0.764883
-5.853796 -12.951838 -30.783479 54 54 54 0.210862
-4.360836 -13.172681 -29.300808 114 114 114 0.447351
-3.311357 -12.227907 -28.056126 95 95 95 0.370914
-2.028299 -12.745104 -26.782137 113 113 113 0.442103
-8.625983 -14.637695 -33.340696 195 195 195 0.762787
-7.277805 -14.626742 -32.082810 95 95 95 0.374497
-6.062288 -15.022256 -30.989566 42 42 42 0.165229
-4.883969 -14.833572 -29.830728 178 178 178 0.698270
-3.310145 -14.665052 -28.168484 234 234 234 0.918008
-2.026495 -14.705888 -26.783812 180 180 180 0.704932
-8.272246 -16.635568 -33.063066 252 252 252 0.987842
-6.836587 -16.726498 -31.784848 79 79 79 0.310468
-5.486786 -16.798934 -30.492107 29 29 29 0.114314
-4.196681 -16.646498 -29.130599 119 119 119 0.466939
-3.131346 -16.650686 -28.062650 251 251 251 0.984496
-2.011549 -16.666672 -26.797682 77 77 77 0.302635
-8.554860 -18.627457 -33.335461 191 191 191 0.750373
-7.428131 -18.628739 -32.300478 253 253 253 0.993700
-6.131856 -18.669747 -31.089698 235 235 235 0.920055
-4.650620 -18.822923 -29.632885 111 111 111 0.434524
-3.282355 -18.260662 -28.123426 242 242 242 0.950757
-2.054036 -18.627457 -26.758251 66 66 66 0.257873
-8.508015 -20.588242 -33.378937 226 226 226 0.884375
-7.050786 -20.348150 -32.010239 236 236 236 0.924079
-5.673283 -20.787217 -30.791998 91 91 91 0.356489
-4.311980 -20.943064 -29.333631 171 171 171 0.669072
-3.149905 -20.320679 -28.014678 254 254 254 0.995429
-1.988623 -20.588242 -26.818958 234 234 234 0.919359
-7.002998 -22.549026 -32.253605 118 118 118 0.464429
-5.683404 -22.549026 -30.956196 31 31 31 0.120971
-4.437010 -22.549026 -29.590851 154 154 154 0.605001
-3.210713 -22.549026 -28.206858 254 254 254 0.995936
-1.987608 -22.549026 -26.819901 247 247 247 0.970241
3 0 1 56
3 1 2 62
3 2 3 68
3 3 4 74
3 4 5 80
3 5 92 86
3 6 98 92
3 7 104 98
3 8 110 104
3 9 116 110
3 10 122 116
3 11 12 122
3 12 13 128
3 13 140 134
3 150 156 151
3 149 155 150
3 148 154 149
3 147 152 148
3 146 152 147
3 144 150 145
3 143 150 144
3 142 148 143
3 141 147 142
3 140 146 141
3 138 144 139
3 137 144 138
3 136 143 137
3 135 142 136
3 134 141 135
3 132 139 133
3 131 137 132
3 130 136 131
3 129 135 130
3 128 134 129
3 126 132 127
3 125 132 126
3 124 131 125
3 123 129 124
3 122 128 123
3 120 126 121
3 119 126 120
3 118 124 119
3 117 123 118
3 116 123 117
3 114 120 115
3 113 120 114
3 112 118 113
3 111 117 112
3 110 117 111
3 108 114 109
3 107 114 108
3 106 113 107
3 105 112 106
3 104 111 105
3 102 109 103
3 101 107 102
3 100 107 101
3 99 106 100
3 98 105 99
3 96 102 97
3 95 102 96
3 94 101 95
3 93 100 94
3 92 99 93
3 90 96 91
3 89 96 90
3 88 94 89
3 87 94 88
3 86 93 87
3 84 91 85
3 83 90 84
3 82 88 83
3 81 87 82
3 80 86 81
3 78 85 79
3 77 84 78
3 76 83 77
3 75 82 76
3 74 80 75
3 72 79 73
3 71 77 72
3 70 77 71
3 69 75 70
3 68 74 69
3 66 72 67
3 65 72 66
3 64 71 65
3 63 69 64
3 62 68 63
3 60 66 61
3 59 66 60
3 58 65 59
3 57 63 58
3 56 62 57
3 54 60 55
3 53 59 54
3 52 58 53
3 51 58 52
3 50 57 51
3 48 55 49
3 47 54 48
3 46 52 47
3 45 52 46
3 44 51 45
3 42 48 43
3 41 48 42
3 40 46 41
3 39 45 40
3 38 45 39
3 36 42 37
3 35 42 36
3 34 41 35
3 33 40 34
3 32 39 33
3 30 37 31
3 29 35 30
3 28 35 29
3 27 34 28
3 26 32 27
3 24 30 25
3 23 29 24
3 22 29 23
3 21 28 22
3 20 27 21
3 18 24 19
3 17 23 18
3 16 23 17
3 15 22 16
3 14 21 15
3 5 6 92
3 6 7 98
3 7 8 104
3 8 9 110
3 9 10 116
3 10 11 122
3 60 61 55
3 152 153 148
3 74 75 69
3 72 73 67
3 128 129 123
3 12 128 122
3 62 63 57
3 114 115 109
3 69 70 64
3 147 148 142
3 150 155 156
3 149 154 155
3 148 153 154
3 143 149 150
3 137 143 144
3 136 142 143
3 135 141 142
3 134 140 141
3 132 138 139
3 125 131 132
3 124 130 131
3 119 125 126
3 116 122 123
3 113 119 120
3 110 116 117
3 107 113 114
3 106 112 113
3 105 111 112
3 104 110 111
3 102 108 109
3 100 106 107
3 99 105 106
3 98 104 105
3 95 101 102
3 94 100 101
3 93 99 100
3 92 98 99
3 89 95 96
3 87 93 94
3 86 92 93
3 84 90 91
3 83 89 90
3 78 84 85
3 77 83 84
3 76 82 83
3 75 81 82
3 35 36 30
3 72 78 79
3 70 76 77
3 65 71 72
3 64 70 71
3 134 135 129
3 59 65 66
3 58 64 65
3 51 57 58
3 50 56 57
3 48 54 55
3 47 53 54
3 45 51 52
3 44 50 51
3 41 47 48
3 38 44 45
3 35 41 42
3 34 40 41
3 33 39 40
3 32 38 39
3 30 36 37
3 28 34 35
3 27 33 34
3 22 28 29
3 21 27 28
3 20 26 27
3 16 22 23
3 15 21 22
3 14 20 21
3 32 33 27
3 4 80 74
3 123 124 118
3 59 60 54
3 46 47 41
3 5 86 80
3 3 74 68
3 24 25 19
3 129 130 124
3 1 62 56
3 148 149 143
3 136 137 131
3 80 81 75
3 146 147 141
3 102 103 97
3 75 76 70
3 118 119 113
3 45 46 40
3 124 125 119
3 66 67 61
3 88 89 83
3 23 24 18
3 94 95 89
3 126 127 121
3 52 53 47
3 77 78 72
3 68 69 63
3 150 151 145
3 2 68 62
3 30 31 25
3 29 30 24
3 63 64 58
3 120 121 115
3 58 59 53
3 144 145 139
3 117 118 112
3 42 43 37
3 86 87 81
3 135 136 130
3 13 134 128
3 48 49 43
3 107 108 102
3 132 133 127
3 96 97 91
3 137 138 132
3 87 88 82
