ply
format ascii 1.0
comment openVA ply exporter, (c) Peter Felfer, The University of Sydney 2013, Rhett MPIE modified 2019
comment 4.48 to 94.5 atom percentage
element vertex 59
property float x
property float y
property float z
property uchar red
property uchar green
property uchar blue
property float value
element face 79
property list uchar uint vertex_indices
end_header
15.578113 2.941169 -34.574909 9 9 9 0.035982
15.669930 0.980384 -34.615219 17 17 17 0.065191
15.794858 -0.980400 -34.670063 235 235 235 0.920053
15.770308 -2.941184 -34.659283 255 255 255 1.000000
15.691550 -4.901968 -34.624710 11 11 11 0.044145
15.782169 -6.862751 -34.664490 10 10 10 0.040217
15.769652 -8.823536 -34.658997 38 38 38 0.148373
16.023081 -10.784320 -34.770252 132 132 132 0.517293
16.054033 -12.745104 -34.783840 179 179 179 0.703411
17.489286 14.705873 -29.656046 0 0 0 0.000000
16.911585 14.705873 -31.321720 222 222 222 0.870875
16.360115 14.705873 -32.998913 250 250 250 0.979651
17.687620 12.745089 -29.743122 245 245 245 0.960948
17.035430 12.737425 -31.377682 245 245 245 0.962059
16.437601 12.745089 -33.032932 249 249 249 0.974629
17.958074 10.790393 -29.861862 219 219 219 0.859757
17.209179 10.598121 -31.632742 175 175 175 0.685080
16.470383 10.784305 -33.047325 229 229 229 0.896294
18.139441 8.829350 -29.941488 214 214 214 0.839129
17.337121 8.509558 -31.803777 207 207 207 0.811606
16.516998 8.823521 -33.067791 93 93 93 0.364887
18.260033 6.862737 -29.994432 234 234 234 0.917318
17.585101 6.810647 -31.192446 243 243 243 0.952316
16.647314 6.862737 -33.125004 117 117 117 0.456911
18.168579 4.901953 -29.954281 155 155 155 0.608195
17.369271 4.932122 -31.495086 20 20 20 0.077908
16.603447 4.901953 -33.105743 126 126 126 0.494191
18.025272 2.941169 -29.891363 157 157 157 0.614355
17.136359 2.769220 -31.597303 43 43 43 0.169834
16.503866 2.941169 -33.062023 29 29 29 0.114499
17.970896 0.980384 -29.867491 191 191 191 0.749461
17.108695 0.496182 -31.425221 32 32 32 0.126459
16.500985 0.899247 -33.067240 39 39 39 0.153557
17.868135 -0.980400 -29.822374 122 122 122 0.478701
17.086455 -1.144109 -31.403984 80 80 80 0.314414
16.652850 -1.081947 -32.735312 207 207 207 0.810960
17.968365 -2.941184 -29.866379 58 58 58 0.225997
17.239970 -2.564302 -31.392392 249 249 249 0.977175
16.583299 -2.906998 -33.019816 244 244 244 0.957183
18.173327 -4.901573 -29.956367 119 119 119 0.466737
17.240098 -4.622790 -31.626211 11 11 11 0.043139
16.378116 -4.857099 -33.472508 184 184 184 0.723188
18.371862 -6.862751 -30.043530 142 142 142 0.557478
17.520253 -6.955317 -31.423660 92 92 92 0.359850
16.772448 -6.519088 -32.923643 122 122 122 0.478022
18.216108 -8.823536 -29.975149 197 197 197 0.774211
17.552967 -8.855097 -31.580558 171 171 171 0.671396
16.702331 -8.729207 -33.115139 79 79 79 0.310120
18.101023 -10.784320 -29.924622 236 236 236 0.924474
17.351543 -10.578053 -31.698075 12 12 12 0.045774
16.682445 -10.720564 -33.196036 48 48 48 0.188758
17.870752 -12.755346 -29.823524 171 171 171 0.669196
17.273708 -12.674482 -31.491958 133 133 133 0.521293
16.685659 -12.263669 -33.158892 161 161 161 0.633263
17.523699 -14.705888 -29.671154 155 155 155 0.607517
16.976820 -14.705888 -31.350361 139 139 139 0.545839
16.576149 -14.705888 -33.093761 231 231 231 0.904263
16.783611 -16.666672 -31.265535 163 163 163 0.638648
16.331387 -16.666672 -32.986298 178 178 178 0.696250
3 32 1 29
3 35 2 32
3 38 2 35
3 41 3 38
3 44 5 41
3 47 5 44
3 50 7 47
3 53 7 50
3 56 8 53
3 57 58 55
3 54 55 51
3 55 56 52
3 51 52 48
3 52 53 49
3 48 49 45
3 49 47 46
3 45 43 42
3 46 47 43
3 42 43 39
3 43 44 40
3 39 40 36
3 40 38 37
3 36 37 33
3 37 35 34
3 33 31 30
3 34 35 31
3 30 28 27
3 31 32 28
3 27 25 24
3 28 26 25
3 24 22 21
3 25 23 22
3 21 22 18
3 22 23 19
3 18 16 15
3 19 20 16
3 15 13 12
3 16 14 13
3 12 10 9
3 13 11 10
3 38 3 2
3 41 4 3
3 47 6 5
3 53 8 7
3 37 34 33
3 2 1 32
3 32 29 28
3 56 53 52
3 49 50 47
3 45 46 43
3 40 41 38
3 37 38 35
3 33 34 31
3 30 31 28
3 27 28 25
3 28 29 26
3 24 25 22
3 25 26 23
3 18 19 16
3 15 16 13
3 16 17 14
3 12 13 10
3 13 14 11
3 1 0 29
3 44 41 40
3 58 56 55
3 23 20 19
3 52 49 48
3 40 37 36
3 7 6 47
3 22 19 18
3 53 50 49
3 35 32 31
3 5 4 41
3 55 52 51
3 43 40 39
3 20 17 16
3 49 46 45
3 47 44 43
