ply
format ascii 1.0
comment openVA ply exporter, (c) Peter Felfer, The University of Sydney 2013, Rhett MPIE modified 2019
comment -83.3 to 153 atoms/nm2
element vertex 59
property float x
property float y
property float z
property uchar red
property uchar green
property uchar blue
property float value
element face 79
property list uchar uint vertex_indices
end_header
15.578113 2.941169 -34.574909 28 28 28 0.109534
15.669930 0.980384 -34.615219 63 63 63 0.248261
15.794858 -0.980400 -34.670063 201 201 201 0.787006
15.770308 -2.941184 -34.659283 179 179 179 0.703018
15.691550 -4.901968 -34.624710 10 10 10 0.039572
15.782169 -6.862751 -34.664490 47 47 47 0.183739
15.769652 -8.823536 -34.658997 140 140 140 0.549739
16.023081 -10.784320 -34.770252 152 152 152 0.595659
16.054033 -12.745104 -34.783840 183 183 183 0.716618
17.489286 14.705873 -29.656046 80 80 80 0.314474
16.911585 14.705873 -31.321720 197 197 197 0.772771
16.360115 14.705873 -32.998913 208 208 208 0.814146
17.687620 12.745089 -29.743122 194 194 194 0.761159
17.035430 12.737425 -31.377682 183 183 183 0.718128
16.437601 12.745089 -33.032932 213 213 213 0.833513
17.958074 10.790393 -29.861862 149 149 149 0.582903
17.209179 10.598121 -31.632742 162 162 162 0.636775
16.470383 10.784305 -33.047325 197 197 197 0.771335
18.139441 8.829350 -29.941488 151 151 151 0.593498
17.337121 8.509558 -31.803777 214 214 214 0.840199
16.516998 8.823521 -33.067791 128 128 128 0.502526
18.260033 6.862737 -29.994432 80 80 80 0.314114
17.585101 6.810647 -31.192446 120 120 120 0.470106
16.647314 6.862737 -33.125004 154 154 154 0.602721
18.168579 4.901953 -29.954281 104 104 104 0.409204
17.369271 4.932122 -31.495086 0 0 0 0.000000
16.603447 4.901953 -33.105743 155 155 155 0.608068
18.025272 2.941169 -29.891363 217 217 217 0.852595
17.136359 2.769220 -31.597303 140 140 140 0.549454
16.503866 2.941169 -33.062023 106 106 106 0.413832
17.970896 0.980384 -29.867491 255 255 255 1.000000
17.108695 0.496182 -31.425221 164 164 164 0.641429
16.500985 0.899247 -33.067240 108 108 108 0.422232
17.868135 -0.980400 -29.822374 190 190 190 0.745490
17.086455 -1.144109 -31.403984 139 139 139 0.547041
16.652850 -1.081947 -32.735312 176 176 176 0.688420
17.968365 -2.941184 -29.866379 211 211 211 0.827477
17.239970 -2.564302 -31.392392 181 181 181 0.711504
16.583299 -2.906998 -33.019816 204 204 204 0.801086
18.173327 -4.901573 -29.956367 237 237 237 0.929661
17.240098 -4.622790 -31.626211 119 119 119 0.465782
16.378116 -4.857099 -33.472508 174 174 174 0.682520
18.371862 -6.862751 -30.043530 210 210 210 0.822951
17.520253 -6.955317 -31.423660 170 170 170 0.666916
16.772448 -6.519088 -32.923643 147 147 147 0.578344
18.216108 -8.823536 -29.975149 183 183 183 0.716241
17.552967 -8.855097 -31.580558 179 179 179 0.701475
16.702331 -8.729207 -33.115139 116 116 116 0.453961
18.101023 -10.784320 -29.924622 117 117 117 0.459465
17.351543 -10.578053 -31.698075 20 20 20 0.078300
16.682445 -10.720564 -33.196036 151 151 151 0.591168
17.870752 -12.755346 -29.823524 132 132 132 0.515835
17.273708 -12.674482 -31.491958 149 149 149 0.583854
16.685659 -12.263669 -33.158892 169 169 169 0.663310
17.523699 -14.705888 -29.671154 130 130 130 0.510010
16.976820 -14.705888 -31.350361 129 129 129 0.504185
16.576149 -14.705888 -33.093761 200 200 200 0.785174
16.783611 -16.666672 -31.265535 129 129 129 0.504185
16.331387 -16.666672 -32.986298 152 152 152 0.597848
3 32 1 29
3 35 2 32
3 38 2 35
3 41 3 38
3 44 5 41
3 47 5 44
3 50 7 47
3 53 7 50
3 56 8 53
3 57 58 55
3 54 55 51
3 55 56 52
3 51 52 48
3 52 53 49
3 48 49 45
3 49 47 46
3 45 43 42
3 46 47 43
3 42 43 39
3 43 44 40
3 39 40 36
3 40 38 37
3 36 37 33
3 37 35 34
3 33 31 30
3 34 35 31
3 30 28 27
3 31 32 28
3 27 25 24
3 28 26 25
3 24 22 21
3 25 23 22
3 21 22 18
3 22 23 19
3 18 16 15
3 19 20 16
3 15 13 12
3 16 14 13
3 12 10 9
3 13 11 10
3 38 3 2
3 41 4 3
3 47 6 5
3 53 8 7
3 37 34 33
3 2 1 32
3 32 29 28
3 56 53 52
3 49 50 47
3 45 46 43
3 40 41 38
3 37 38 35
3 33 34 31
3 30 31 28
3 27 28 25
3 28 29 26
3 24 25 22
3 25 26 23
3 18 19 16
3 15 16 13
3 16 17 14
3 12 13 10
3 13 14 11
3 1 0 29
3 44 41 40
3 58 56 55
3 23 20 19
3 52 49 48
3 40 37 36
3 7 6 47
3 22 19 18
3 53 50 49
3 35 32 31
3 5 4 41
3 55 52 51
3 43 40 39
3 20 17 16
3 49 46 45
3 47 44 43
