ply
format ascii 1.0
comment openVA ply exporter, (c) Peter Felfer, The University of Sydney 2013, Rhett MPIE modified 2019
comment 13.8 to 95.5 atom percentage
element vertex 30
property float x
property float y
property float z
property uchar red
property uchar green
property uchar blue
property float value
element face 35
property list uchar uint vertex_indices
end_header
20.128149 -8.823536 -29.664537 230 230 230 0.901842
21.454628 -8.823536 -30.594738 249 249 249 0.974553
20.188826 -6.862751 -29.562252 78 78 78 0.303970
21.556236 -6.862751 -30.423450 233 233 233 0.914282
22.992922 -6.862751 -31.167871 243 243 243 0.953526
20.214048 -4.901968 -29.519735 111 111 111 0.434513
21.585514 -4.902326 -30.374714 97 97 97 0.379524
22.948000 -4.901968 -31.243597 247 247 247 0.969602
20.252777 -2.941184 -29.454445 84 84 84 0.328302
21.592823 -2.939770 -30.359467 20 20 20 0.077088
22.962481 -2.941184 -31.219187 214 214 214 0.840128
20.242012 -0.980400 -29.472593 104 104 104 0.406547
21.518374 -0.793884 -30.186237 103 103 103 0.402584
23.018988 -0.980400 -31.123930 122 122 122 0.479983
20.279696 0.980384 -29.409067 0 0 0 0.000000
21.472833 1.300651 -30.092648 63 63 63 0.247242
22.999746 0.980384 -31.156366 153 153 153 0.600133
20.283920 2.941169 -29.401947 115 115 115 0.451060
21.645320 2.999196 -30.255481 225 225 225 0.882455
22.987154 2.941169 -31.177595 203 203 203 0.797991
20.207960 4.901953 -29.529997 17 17 17 0.066825
21.702486 5.100720 -30.478706 86 86 86 0.337126
22.989971 4.901953 -31.172846 253 253 253 0.991809
20.180130 6.862737 -29.576912 93 93 93 0.366538
21.375438 7.187463 -30.325748 168 168 168 0.659294
22.949764 6.862737 -31.240623 211 211 211 0.826666
20.175081 8.823521 -29.585423 243 243 243 0.954220
21.536625 8.823521 -30.456511 219 219 219 0.860045
20.134842 10.784305 -29.653257 255 255 255 1.000000
21.591305 10.784305 -30.364334 237 237 237 0.930023
3 28 27 26
3 26 24 23
3 27 25 24
3 23 21 20
3 24 25 21
3 20 18 17
3 21 19 18
3 17 15 14
3 18 16 15
3 14 12 11
3 15 16 12
3 11 12 8
3 12 13 9
3 8 9 5
3 9 10 6
3 5 6 2
3 6 7 3
3 2 3 0
3 28 29 27
3 26 27 24
3 23 24 21
3 20 21 18
3 21 22 19
3 17 18 15
3 18 19 16
3 14 15 12
3 7 4 3
3 16 13 12
3 25 22 21
3 12 9 8
3 3 1 0
3 6 3 2
3 10 7 6
3 9 6 5
3 13 10 9
