ply
format ascii 1.0
comment openVA ply exporter, (c) Peter Felfer, The University of Sydney 2013, Rhett MPIE modified 2019
comment 12.3 to 120 atoms/nm2
element vertex 30
property float x
property float y
property float z
property uchar red
property uchar green
property uchar blue
property float value
element face 35
property list uchar uint vertex_indices
end_header
20.128149 -8.823536 -29.664537 220 220 220 0.862278
21.454628 -8.823536 -30.594738 228 228 228 0.893160
20.188826 -6.862751 -29.562252 53 53 53 0.208336
21.556236 -6.862751 -30.423450 202 202 202 0.791847
22.992922 -6.862751 -31.167871 240 240 240 0.939561
20.214048 -4.901968 -29.519735 71 71 71 0.276571
21.585514 -4.902326 -30.374714 74 74 74 0.290173
22.948000 -4.901968 -31.243597 220 220 220 0.861142
20.252777 -2.941184 -29.454445 45 45 45 0.176461
21.592823 -2.939770 -30.359467 0 0 0 0.000000
22.962481 -2.941184 -31.219187 146 146 146 0.572969
20.242012 -0.980400 -29.472593 63 63 63 0.248746
21.518374 -0.793884 -30.186237 75 75 75 0.295068
23.018988 -0.980400 -31.123930 86 86 86 0.338729
20.279696 0.980384 -29.409067 34 34 34 0.133393
21.472833 1.300651 -30.092648 35 35 35 0.137673
22.999746 0.980384 -31.156366 124 124 124 0.486879
20.283920 2.941169 -29.401947 99 99 99 0.387672
21.645320 2.999196 -30.255481 222 222 222 0.870550
22.987154 2.941169 -31.177595 167 167 167 0.654405
20.207960 4.901953 -29.529997 76 76 76 0.298627
21.702486 5.100720 -30.478706 47 47 47 0.186249
22.989971 4.901953 -31.172846 255 255 255 1.000000
20.180130 6.862737 -29.576912 76 76 76 0.298109
21.375438 7.187463 -30.325748 147 147 147 0.577971
22.949764 6.862737 -31.240623 139 139 139 0.544516
20.175081 8.823521 -29.585423 226 226 226 0.884918
21.536625 8.823521 -30.456511 177 177 177 0.693221
20.134842 10.784305 -29.653257 195 195 195 0.765478
21.591305 10.784305 -30.364334 186 186 186 0.729349
3 28 27 26
3 26 24 23
3 27 25 24
3 23 21 20
3 24 25 21
3 20 18 17
3 21 19 18
3 17 15 14
3 18 16 15
3 14 12 11
3 15 16 12
3 11 12 8
3 12 13 9
3 8 9 5
3 9 10 6
3 5 6 2
3 6 7 3
3 2 3 0
3 28 29 27
3 26 27 24
3 23 24 21
3 20 21 18
3 21 22 19
3 17 18 15
3 18 19 16
3 14 15 12
3 7 4 3
3 16 13 12
3 25 22 21
3 12 9 8
3 3 1 0
3 6 3 2
3 10 7 6
3 9 6 5
3 13 10 9
