ply
format ascii 1.0
comment openVA ply exporter, (c) Peter Felfer, The University of Sydney 2013, Rhett MPIE modified 2019
comment 19.4 to 94.4 atom percentage
element vertex 21
property float x
property float y
property float z
property uchar red
property uchar green
property uchar blue
property float value
element face 22
property list uchar uint vertex_indices
end_header
-19.698456 2.941169 -1.660133 140 140 140 0.549527
-19.718855 0.980384 -1.571192 185 185 185 0.726640
-19.733740 -0.980400 -1.506292 183 183 183 0.717509
-19.708302 -2.941184 -1.617204 229 229 229 0.899070
-16.380852 -6.862751 -1.046621 159 159 159 0.625464
-18.006395 -6.862751 -1.498385 173 173 173 0.678058
-16.392941 -4.901968 -0.993918 222 222 222 0.869374
-18.033785 -4.901968 -1.378967 84 84 84 0.328961
-16.412958 -2.941184 -0.906642 246 246 246 0.964180
-18.059616 -2.941184 -1.266339 213 213 213 0.835774
-16.428400 -0.980400 -0.839311 219 219 219 0.858699
-18.231269 -0.794151 -1.236131 161 161 161 0.631914
-16.431732 0.980384 -0.824784 255 255 255 1.000000
-17.873775 1.301327 -1.122251 252 252 252 0.986894
-16.440744 2.941169 -0.785487 29 29 29 0.114879
-18.059267 3.002156 -1.224434 211 211 211 0.826125
-16.420206 4.901953 -0.875040 0 0 0 0.000000
-18.042105 4.901953 -1.342691 24 24 24 0.095815
-16.404884 6.862737 -0.941840 68 68 68 0.267096
-18.006329 6.862737 -1.498673 167 167 167 0.655401
-16.350067 8.823521 -1.180840 14 14 14 0.054691
3 11 3 9
3 13 1 11
3 15 1 13
3 17 0 15
3 20 19 18
3 18 17 16
3 16 15 14
3 14 13 12
3 12 11 10
3 10 9 8
3 8 7 6
3 6 7 4
3 11 2 3
3 15 0 1
3 18 19 17
3 16 17 15
3 14 15 13
3 12 13 11
3 10 11 9
3 8 9 7
3 7 5 4
3 1 2 11
