ply
format ascii 1.0
comment openVA ply exporter, (c) Peter Felfer, The University of Sydney 2013, Rhett MPIE modified 2019
comment 5.55 to 126 atoms/nm2
element vertex 21
property float x
property float y
property float z
property uchar red
property uchar green
property uchar blue
property float value
element face 22
property list uchar uint vertex_indices
end_header
-19.698456 2.941169 -1.660133 116 116 116 0.456637
-19.718855 0.980384 -1.571192 166 166 166 0.652807
-19.733740 -0.980400 -1.506292 155 155 155 0.607064
-19.708302 -2.941184 -1.617204 119 119 119 0.467812
-16.380852 -6.862751 -1.046621 142 142 142 0.558740
-18.006395 -6.862751 -1.498385 145 145 145 0.567207
-16.392941 -4.901968 -0.993918 173 173 173 0.679891
-18.033785 -4.901968 -1.378967 109 109 109 0.429122
-16.412958 -2.941184 -0.906642 209 209 209 0.819959
-18.059616 -2.941184 -1.266339 189 189 189 0.739681
-16.428400 -0.980400 -0.839311 178 178 178 0.696624
-18.231269 -0.794151 -1.236131 149 149 149 0.583007
-16.431732 0.980384 -0.824784 207 207 207 0.811176
-17.873775 1.301327 -1.122251 255 255 255 1.000000
-16.440744 2.941169 -0.785487 40 40 40 0.158809
-18.059267 3.002156 -1.224434 167 167 167 0.654157
-16.420206 4.901953 -0.875040 0 0 0 0.000000
-18.042105 4.901953 -1.342691 16 16 16 0.062947
-16.404884 6.862737 -0.941840 56 56 56 0.219910
-18.006329 6.862737 -1.498673 108 108 108 0.424882
-16.350067 8.823521 -1.180840 82 82 82 0.322396
3 11 3 9
3 13 1 11
3 15 1 13
3 17 0 15
3 20 19 18
3 18 17 16
3 16 15 14
3 14 13 12
3 12 11 10
3 10 9 8
3 8 7 6
3 6 7 4
3 11 2 3
3 15 0 1
3 18 19 17
3 16 17 15
3 14 15 13
3 12 13 11
3 10 11 9
3 8 9 7
3 7 5 4
3 1 2 11
