ply
format ascii 1.0
comment openVA ply exporter, (c) Peter Felfer, The University of Sydney 2013, Rhett MPIE modified 2019
comment 3.7 to 94.1 atom percentage
element vertex 17
property float x
property float y
property float z
property uchar red
property uchar green
property uchar blue
property float value
element face 15
property list uchar uint vertex_indices
end_header
-11.380418 -8.823536 32.466682 0 0 0 0.000000
-12.247073 -6.862751 31.265642 86 86 86 0.337599
-11.563379 -6.862751 32.587166 105 105 105 0.409865
-12.425364 -4.901968 31.383049 172 172 172 0.675048
-11.707632 -4.901968 32.682159 251 251 251 0.984011
-12.483675 -2.941184 31.421448 247 247 247 0.968716
-11.745387 -2.941184 32.707024 173 173 173 0.678776
-12.493357 -0.980400 31.427824 203 203 203 0.796894
-11.737193 -0.980400 32.701626 247 247 247 0.966681
-12.478192 0.980384 31.417839 124 124 124 0.486793
-11.791492 0.980384 32.737385 131 131 131 0.512331
-12.394452 2.941169 31.362694 76 76 76 0.298846
-11.689032 2.941169 32.669910 123 123 123 0.483209
-12.312658 4.901953 31.308830 255 255 255 1.000000
-11.599911 4.901953 32.611225 245 245 245 0.958867
-12.210762 6.862737 31.241730 255 255 255 1.000000
-11.515253 6.862737 32.555473 252 252 252 0.986289
3 15 16 13
3 13 14 11
3 11 12 9
3 9 8 7
3 7 6 5
3 5 4 3
3 3 2 1
3 12 10 9
3 9 10 8
3 7 8 6
3 5 6 4
3 3 4 2
3 1 2 0
3 16 14 13
3 14 12 11
