ply
format ascii 1.0
comment openVA ply exporter, (c) Peter Felfer, The University of Sydney 2013, Rhett MPIE modified 2019
comment -60.9 to 120 atoms/nm2
element vertex 17
property float x
property float y
property float z
property uchar red
property uchar green
property uchar blue
property float value
element face 15
property list uchar uint vertex_indices
end_header
-11.380418 -8.823536 32.466682 0 0 0 0.000000
-12.247073 -6.862751 31.265642 0 0 0 0.000000
-11.563379 -6.862751 32.587166 83 83 83 0.324706
-12.425364 -4.901968 31.383049 147 147 147 0.574706
-11.707632 -4.901968 32.682159 248 248 248 0.974119
-12.483675 -2.941184 31.421448 255 255 255 1.000000
-11.745387 -2.941184 32.707024 186 186 186 0.729032
-12.493357 -0.980400 31.427824 219 219 219 0.857809
-11.737193 -0.980400 32.701626 200 200 200 0.784075
-12.478192 0.980384 31.417839 151 151 151 0.591251
-11.791492 0.980384 32.737385 190 190 190 0.745068
-12.394452 2.941169 31.362694 145 145 145 0.569474
-11.689032 2.941169 32.669910 127 127 127 0.497903
-12.312658 4.901953 31.308830 218 218 218 0.855864
-11.599911 4.901953 32.611225 191 191 191 0.747072
-12.210762 6.862737 31.241730 218 218 218 0.855864
-11.515253 6.862737 32.555473 209 209 209 0.819600
3 15 16 13
3 13 14 11
3 11 12 9
3 9 8 7
3 7 6 5
3 5 4 3
3 3 2 1
3 12 10 9
3 9 10 8
3 7 8 6
3 5 6 4
3 3 4 2
3 1 2 0
3 16 14 13
3 14 12 11
