ply
format ascii 1.0
comment openVA ply exporter, (c) Peter Felfer, The University of Sydney 2013, Rhett MPIE modified 2019
comment 11.3 to 93.3 atom percentage
element vertex 12
property float x
property float y
property float z
property uchar red
property uchar green
property uchar blue
property float value
element face 10
property list uchar uint vertex_indices
end_header
-24.025518 -2.941184 -32.098217 251 251 251 0.984233
-21.438324 -6.862751 -33.577877 128 128 128 0.500000
-22.710796 -6.862751 -32.805874 0 0 0 0.000000
-21.471069 -4.901968 -33.627754 255 255 255 1.000000
-22.740986 -4.901968 -32.851856 247 247 247 0.969889
-21.507750 -2.941184 -33.683624 199 199 199 0.781535
-22.742222 -2.941184 -32.853741 239 239 239 0.938605
-21.507662 -0.980400 -33.683487 248 248 248 0.973132
-22.737047 -0.980400 -32.845856 251 251 251 0.984233
-21.490410 0.980384 -33.657211 197 197 197 0.771194
-22.753468 0.980384 -32.870869 216 216 216 0.845794
-21.485197 2.941169 -33.649273 69 69 69 0.268676
3 8 0 6
3 11 10 9
3 9 10 7
3 7 6 5
3 5 4 3
3 3 2 1
3 7 8 6
3 5 6 4
3 3 4 2
3 10 8 7
