ply
format ascii 1.0
comment openVA ply exporter, (c) Peter Felfer, The University of Sydney 2013, Rhett MPIE modified 2019
comment 11.6 to 84.1 atom percentage
element vertex 78
property float x
property float y
property float z
property uchar red
property uchar green
property uchar blue
property float value
element face 119
property list uchar uint vertex_indices
end_header
18.086031 14.705873 -29.197260 67 67 67 0.262986
18.241680 12.708618 -28.546373 164 164 164 0.644899
18.461481 10.784305 -28.423458 199 199 199 0.780537
18.747356 8.823521 -28.411005 181 181 181 0.710226
18.796019 6.862737 -28.408886 173 173 173 0.677399
18.786688 4.901953 -28.409292 128 128 128 0.500115
18.737633 2.941169 -28.411428 91 91 91 0.357411
18.588449 0.980384 -28.417927 84 84 84 0.328900
18.524860 -0.980400 -28.420698 60 60 60 0.235314
18.611929 -2.941184 -28.416904 47 47 47 0.184340
18.797926 -4.901968 -28.408802 92 92 92 0.362232
18.897211 -6.862751 -28.404478 164 164 164 0.644735
18.709293 -8.823536 -28.412663 187 187 187 0.733678
19.079376 -10.784320 -28.609032 209 209 209 0.818524
18.928261 -12.745104 -29.012779 229 229 229 0.899289
21.251270 4.901953 -17.655058 39 39 39 0.152456
21.397066 2.941169 -17.693567 48 48 48 0.187458
21.392591 0.980384 -17.692387 108 108 108 0.423002
21.347490 -0.980400 -17.680473 86 86 86 0.338486
21.230259 -2.941184 -17.649508 177 177 177 0.695871
21.073456 -4.901968 -17.608089 168 168 168 0.657373
20.072115 12.745089 -29.758999 60 60 60 0.236990
18.814289 12.745089 -26.461014 142 142 142 0.556812
19.141431 10.364225 -26.611111 216 216 216 0.845571
19.588486 10.784305 -24.775578 217 217 217 0.852636
19.806637 10.784305 -22.943268 98 98 98 0.384034
19.334426 8.270488 -26.636626 88 88 88 0.345385
19.699917 8.727236 -24.837852 97 97 97 0.379609
19.989173 8.820161 -23.009209 48 48 48 0.186472
20.246936 8.823565 -21.169679 22 22 22 0.086561
19.409641 6.678523 -26.646900 106 106 106 0.414816
19.788544 6.572443 -24.974658 31 31 31 0.122709
20.106073 6.828540 -23.088568 18 18 18 0.070360
20.425425 6.866112 -21.238579 84 84 84 0.330276
20.704165 6.862292 -19.400048 97 97 97 0.379778
19.331495 5.004005 -26.482578 137 137 137 0.536739
19.821957 4.820817 -24.820233 99 99 99 0.387616
20.114059 4.855386 -23.465544 35 35 35 0.137929
20.426551 4.726232 -21.520908 113 113 113 0.441772
20.735395 5.131210 -19.769291 162 162 162 0.636516
19.126950 3.246870 -26.808606 72 72 72 0.280458
19.775695 2.910339 -24.946536 59 59 59 0.232945
20.220368 2.907744 -22.757975 107 107 107 0.420548
20.544756 2.603866 -20.933710 201 201 201 0.788861
20.860452 3.442484 -19.448616 171 171 171 0.670520
19.240828 1.231848 -26.468772 130 130 130 0.511449
19.866708 0.733384 -24.578407 76 76 76 0.297195
20.238068 1.002503 -23.006680 137 137 137 0.536762
20.493532 0.888857 -21.161458 226 226 226 0.887597
20.977843 1.225118 -19.210469 227 227 227 0.890553
18.956324 -0.897629 -26.952272 29 29 29 0.112640
19.555904 -0.970184 -25.312625 138 138 138 0.540599
20.195639 -1.212458 -23.307255 161 161 161 0.629741
20.569154 -1.013693 -21.343672 159 159 159 0.624465
20.914669 -0.657065 -19.671489 223 223 223 0.873437
19.126156 -2.939673 -26.697776 38 38 38 0.147319
19.756951 -2.950181 -24.971008 180 180 180 0.705825
20.156660 -3.270142 -23.372937 218 218 218 0.855371
20.509903 -2.976116 -21.776094 177 177 177 0.693052
20.912323 -2.690781 -19.770195 203 203 203 0.796317
19.363786 -5.088240 -26.478645 158 158 158 0.621103
19.792720 -4.740624 -24.643700 229 229 229 0.897801
20.158449 -5.004797 -23.100326 255 255 255 1.000000
20.503665 -4.839446 -21.303773 204 204 204 0.801327
20.816376 -4.901968 -19.430117 170 170 170 0.667054
19.376408 -6.925195 -26.598168 161 161 161 0.631320
19.700630 -6.689564 -24.965813 227 227 227 0.892095
20.164004 -6.875923 -23.099516 182 182 182 0.714507
20.431740 -6.862751 -21.218452 108 108 108 0.423176
20.731342 -6.862751 -19.407656 163 163 163 0.637298
19.302792 -8.368464 -26.628580 97 97 97 0.379156
19.643177 -8.748695 -24.861606 53 53 53 0.208608
19.945122 -8.823536 -22.979847 19 19 19 0.073228
20.219606 -8.823536 -21.162418 7 7 7 0.026995
19.080793 -10.784320 -26.531408 49 49 49 0.192289
19.366722 -10.784320 -24.717001 14 14 14 0.055404
19.673193 -10.784320 -22.908020 0 0 0 0.000000
18.798937 -12.745104 -26.456959 160 160 160 0.626740
3 1 2 22
3 2 3 23
3 3 4 26
3 4 35 30
3 5 40 35
3 6 45 40
3 7 50 45
3 8 9 50
3 9 10 55
3 10 11 60
3 11 70 65
3 12 74 70
3 13 77 74
3 0 21 1
3 1 21 2
3 71 75 72
3 70 74 71
3 67 72 68
3 66 71 67
3 65 70 66
3 63 68 64
3 62 67 63
3 61 66 62
3 60 66 61
3 59 64 19
3 58 63 59
3 57 62 58
3 56 61 57
3 55 60 56
3 54 59 18
3 53 59 54
3 52 58 53
3 51 56 52
3 50 55 51
3 49 18 17
3 48 54 49
3 47 53 48
3 46 52 47
3 45 51 46
3 44 49 16
3 43 49 44
3 42 48 43
3 41 47 42
3 40 45 41
3 39 44 15
3 38 44 39
3 37 42 38
3 36 41 37
3 35 41 36
3 33 39 34
3 32 38 33
3 31 37 32
3 30 35 31
3 28 33 29
3 27 32 28
3 26 31 27
3 24 28 25
3 23 27 24
3 68 69 64
3 9 55 50
3 10 60 55
3 74 75 71
3 0 1 22
3 4 5 35
3 5 6 40
3 6 7 45
3 7 8 50
3 11 65 60
3 11 12 70
3 12 13 74
3 13 14 77
3 61 62 57
3 60 61 56
3 59 19 18
3 70 71 66
3 4 30 26
3 55 56 51
3 60 65 66
3 53 58 59
3 52 57 58
3 49 54 18
3 48 53 54
3 47 52 53
3 46 51 52
3 45 50 51
3 43 48 49
3 42 47 48
3 41 46 47
3 38 43 44
3 35 40 41
3 34 39 15
3 33 38 39
3 32 37 38
3 31 36 37
3 29 33 34
3 28 32 33
3 27 31 32
3 26 30 31
3 25 28 29
3 24 27 28
3 23 26 27
3 22 23 24
3 64 20 19
3 72 73 68
3 62 63 58
3 63 64 59
3 67 68 63
3 44 16 15
3 66 67 62
3 2 23 22
3 71 72 67
3 42 43 38
3 56 57 52
3 49 17 16
3 45 46 41
3 75 76 72
3 35 36 31
3 41 42 37
3 3 26 23
