ply
format ascii 1.0
comment openVA ply exporter, (c) Peter Felfer, The University of Sydney 2013, Rhett MPIE modified 2019
comment -73.4 to 123 atoms/nm2
element vertex 78
property float x
property float y
property float z
property uchar red
property uchar green
property uchar blue
property float value
element face 119
property list uchar uint vertex_indices
end_header
18.086031 14.705873 -29.197260 4 4 4 0.015713
18.241680 12.708618 -28.546373 11 11 11 0.043250
18.461481 10.784305 -28.423458 94 94 94 0.368402
18.747356 8.823521 -28.411005 157 157 157 0.616421
18.796019 6.862737 -28.408886 161 161 161 0.632329
18.786688 4.901953 -28.409292 146 146 146 0.571491
18.737633 2.941169 -28.411428 114 114 114 0.445809
18.588449 0.980384 -28.417927 116 116 116 0.453715
18.524860 -0.980400 -28.420698 144 144 144 0.563838
18.611929 -2.941184 -28.416904 164 164 164 0.643605
18.797926 -4.901968 -28.408802 183 183 183 0.719315
18.897211 -6.862751 -28.404478 173 173 173 0.678109
18.709293 -8.823536 -28.412663 137 137 137 0.538849
19.079376 -10.784320 -28.609032 134 134 134 0.526904
18.928261 -12.745104 -29.012779 137 137 137 0.538879
21.251270 4.901953 -17.655058 54 54 54 0.212239
21.397066 2.941169 -17.693567 70 70 70 0.273621
21.392591 0.980384 -17.692387 97 97 97 0.381014
21.347490 -0.980400 -17.680473 80 80 80 0.314578
21.230259 -2.941184 -17.649508 56 56 56 0.220762
21.073456 -4.901968 -17.608089 52 52 52 0.202464
20.072115 12.745089 -29.758999 0 0 0 0.000000
18.814289 12.745089 -26.461014 123 123 123 0.483628
19.141431 10.364225 -26.611111 202 202 202 0.790882
19.588486 10.784305 -24.775578 255 255 255 1.000000
19.806637 10.784305 -22.943268 182 182 182 0.715212
19.334426 8.270488 -26.636626 141 141 141 0.553368
19.699917 8.727236 -24.837852 143 143 143 0.559906
19.989173 8.820161 -23.009209 142 142 142 0.558435
20.246936 8.823565 -21.169679 89 89 89 0.348712
19.409641 6.678523 -26.646900 160 160 160 0.625714
19.788544 6.572443 -24.974658 79 79 79 0.310889
20.106073 6.828540 -23.088568 57 57 57 0.224533
20.425425 6.866112 -21.238579 118 118 118 0.461554
20.704165 6.862292 -19.400048 79 79 79 0.310836
19.331495 5.004005 -26.482578 160 160 160 0.626508
19.821957 4.820817 -24.820233 130 130 130 0.511627
20.114059 4.855386 -23.465544 106 106 106 0.413745
20.426551 4.726232 -21.520908 133 133 133 0.521694
20.735395 5.131210 -19.769291 101 101 101 0.395419
19.126950 3.246870 -26.808606 145 145 145 0.566965
19.775695 2.910339 -24.946536 139 139 139 0.543251
20.220368 2.907744 -22.757975 162 162 162 0.633414
20.544756 2.603866 -20.933710 169 169 169 0.663040
20.860452 3.442484 -19.448616 118 118 118 0.461787
19.240828 1.231848 -26.468772 157 157 157 0.615893
19.866708 0.733384 -24.578407 145 145 145 0.568035
20.238068 1.002503 -23.006680 184 184 184 0.719756
20.493532 0.888857 -21.161458 177 177 177 0.692665
20.977843 1.225118 -19.210469 173 173 173 0.677047
18.956324 -0.897629 -26.952272 157 157 157 0.616254
19.555904 -0.970184 -25.312625 162 162 162 0.633835
20.195639 -1.212458 -23.307255 181 181 181 0.709200
20.569154 -1.013693 -21.343672 172 172 172 0.675401
20.914669 -0.657065 -19.671489 180 180 180 0.705338
19.126156 -2.939673 -26.697776 145 145 145 0.567951
19.756951 -2.950181 -24.971008 192 192 192 0.753479
20.156660 -3.270142 -23.372937 207 207 207 0.812179
20.509903 -2.976116 -21.776094 186 186 186 0.728657
20.912323 -2.690781 -19.770195 136 136 136 0.532193
19.363786 -5.088240 -26.478645 182 182 182 0.715311
19.792720 -4.740624 -24.643700 208 208 208 0.817113
20.158449 -5.004797 -23.100326 218 218 218 0.856418
20.503665 -4.839446 -21.303773 181 181 181 0.708220
20.816376 -4.901968 -19.430117 116 116 116 0.455556
19.376408 -6.925195 -26.598168 177 177 177 0.694467
19.700630 -6.689564 -24.965813 204 204 204 0.799415
20.164004 -6.875923 -23.099516 195 195 195 0.765016
20.431740 -6.862751 -21.218452 129 129 129 0.507232
20.731342 -6.862751 -19.407656 148 148 148 0.580147
19.302792 -8.368464 -26.628580 141 141 141 0.551160
19.643177 -8.748695 -24.861606 127 127 127 0.496660
19.945122 -8.823536 -22.979847 53 53 53 0.206195
20.219606 -8.823536 -21.162418 37 37 37 0.145421
19.080793 -10.784320 -26.531408 112 112 112 0.437728
19.366722 -10.784320 -24.717001 82 82 82 0.323366
19.673193 -10.784320 -22.908020 78 78 78 0.307559
18.798937 -12.745104 -26.456959 127 127 127 0.498973
3 1 2 22
3 2 3 23
3 3 4 26
3 4 35 30
3 5 40 35
3 6 45 40
3 7 50 45
3 8 9 50
3 9 10 55
3 10 11 60
3 11 70 65
3 12 74 70
3 13 77 74
3 0 21 1
3 1 21 2
3 71 75 72
3 70 74 71
3 67 72 68
3 66 71 67
3 65 70 66
3 63 68 64
3 62 67 63
3 61 66 62
3 60 66 61
3 59 64 19
3 58 63 59
3 57 62 58
3 56 61 57
3 55 60 56
3 54 59 18
3 53 59 54
3 52 58 53
3 51 56 52
3 50 55 51
3 49 18 17
3 48 54 49
3 47 53 48
3 46 52 47
3 45 51 46
3 44 49 16
3 43 49 44
3 42 48 43
3 41 47 42
3 40 45 41
3 39 44 15
3 38 44 39
3 37 42 38
3 36 41 37
3 35 41 36
3 33 39 34
3 32 38 33
3 31 37 32
3 30 35 31
3 28 33 29
3 27 32 28
3 26 31 27
3 24 28 25
3 23 27 24
3 68 69 64
3 9 55 50
3 10 60 55
3 74 75 71
3 0 1 22
3 4 5 35
3 5 6 40
3 6 7 45
3 7 8 50
3 11 65 60
3 11 12 70
3 12 13 74
3 13 14 77
3 61 62 57
3 60 61 56
3 59 19 18
3 70 71 66
3 4 30 26
3 55 56 51
3 60 65 66
3 53 58 59
3 52 57 58
3 49 54 18
3 48 53 54
3 47 52 53
3 46 51 52
3 45 50 51
3 43 48 49
3 42 47 48
3 41 46 47
3 38 43 44
3 35 40 41
3 34 39 15
3 33 38 39
3 32 37 38
3 31 36 37
3 29 33 34
3 28 32 33
3 27 31 32
3 26 30 31
3 25 28 29
3 24 27 28
3 23 26 27
3 22 23 24
3 64 20 19
3 72 73 68
3 62 63 58
3 63 64 59
3 67 68 63
3 44 16 15
3 66 67 62
3 2 23 22
3 71 72 67
3 42 43 38
3 56 57 52
3 49 17 16
3 45 46 41
3 75 76 72
3 35 36 31
3 41 42 37
3 3 26 23
