ply
format ascii 1.0
comment openVA ply exporter, (c) Peter Felfer, The University of Sydney 2013, Rhett MPIE modified 2019
comment 19.4 to 93.3 atom percentage
element vertex 195
property float x
property float y
property float z
property uchar red
property uchar green
property uchar blue
property float value
element face 333
property list uchar uint vertex_indices
end_header
3.073044 16.666656 9.251796 225 225 225 0.881910
3.045675 14.705873 9.382265 198 198 198 0.775120
3.018653 12.745089 9.511081 118 118 118 0.461080
3.015320 10.784305 9.526971 141 141 141 0.554660
3.006387 8.823521 9.569551 172 172 172 0.673793
2.987174 6.862737 9.661143 159 159 159 0.623774
2.954237 4.901953 9.818158 191 191 191 0.749265
2.949502 2.941169 9.840726 230 230 230 0.901936
2.969954 0.980384 9.743232 166 166 166 0.649153
2.987711 -0.980400 9.658584 63 63 63 0.247019
3.018784 -2.941184 9.510458 151 151 151 0.592050
3.046168 -4.901968 9.379913 182 182 182 0.712372
3.047304 -6.862751 9.374500 170 170 170 0.665626
3.053491 -8.823536 9.345005 236 236 236 0.923719
3.055218 -10.784320 9.336775 245 245 245 0.959135
3.035725 -12.745104 9.429696 182 182 182 0.714143
3.030137 -14.705888 9.456338 223 223 223 0.875603
3.024617 -16.666672 9.482648 126 126 126 0.493944
14.412584 0.980384 33.089252 130 130 130 0.508005
14.439273 -0.980400 33.075768 231 231 231 0.904898
3.908847 16.666656 11.230482 134 134 134 0.523536
4.633296 16.666656 12.954130 31 31 31 0.121700
5.337802 16.666656 14.687855 83 83 83 0.326420
3.805334 14.446839 10.941709 81 81 81 0.319233
4.569672 14.702681 12.897091 20 20 20 0.080060
5.448013 14.448370 14.881064 71 71 71 0.278871
6.225113 14.705873 16.329216 166 166 166 0.649814
7.029236 14.705873 18.012609 181 181 181 0.711763
7.835334 14.705873 19.695005 189 189 189 0.743004
3.937719 12.513948 11.361907 16 16 16 0.063312
4.773621 12.447169 13.198067 49 49 49 0.192773
5.385233 12.692825 14.709783 30 30 30 0.117170
6.121963 12.935249 16.181887 74 74 74 0.289750
6.850125 12.747005 17.586630 153 153 153 0.599443
7.784570 12.571439 19.386574 191 191 191 0.748519
8.708624 12.745089 21.343452 186 186 186 0.731239
9.377743 12.745089 23.095055 226 226 226 0.885371
3.806036 10.450800 10.986505 98 98 98 0.384711
4.487568 10.673267 12.529404 159 159 159 0.625089
5.296401 10.518116 14.447683 64 64 64 0.250037
6.156024 11.172437 16.192734 34 34 34 0.131832
6.993256 10.792529 17.840159 57 57 57 0.225108
7.959570 10.312019 19.542726 197 197 197 0.771459
8.724028 10.759106 21.214485 154 154 154 0.605729
9.461901 10.782500 23.015799 219 219 219 0.860538
10.166820 10.784487 24.785856 204 204 204 0.798794
3.901054 8.703263 11.137688 180 180 180 0.705593
4.634975 8.581691 13.049844 201 201 201 0.790059
5.282316 8.700588 14.702004 184 184 184 0.722264
6.185419 8.896614 16.276853 197 197 197 0.774317
7.275017 8.765374 18.261184 215 215 215 0.842689
8.049160 8.657378 19.697822 251 251 251 0.983722
8.738208 8.559740 21.141003 239 239 239 0.935383
9.545147 8.811409 22.909614 131 131 131 0.515173
10.289317 8.828483 24.691465 160 160 160 0.628309
10.984891 8.823521 26.462395 120 120 120 0.470280
11.645442 8.823521 28.218325 202 202 202 0.791790
3.916154 6.825790 11.255405 61 61 61 0.238028
4.644685 6.351621 12.973470 188 188 188 0.735591
5.312641 7.188832 14.687399 238 238 238 0.933509
6.085998 6.657284 16.076829 255 255 255 1.000000
6.874408 6.901543 17.556752 245 245 245 0.959818
7.904797 6.748798 19.521318 241 241 241 0.946684
8.785562 6.755998 21.229066 239 239 239 0.938264
9.399047 6.825299 22.582043 196 196 196 0.768716
10.222938 6.694226 24.414841 56 56 56 0.219336
11.006712 6.853321 26.330710 108 108 108 0.424971
11.693731 6.857161 28.155658 185 185 185 0.724781
12.384120 6.861861 29.935716 87 87 87 0.342051
3.847042 4.828875 11.294500 141 141 141 0.551582
4.490915 4.468744 12.735861 200 200 200 0.785914
5.376819 4.858481 14.592150 252 252 252 0.988610
6.279819 5.088087 16.458497 240 240 240 0.940667
7.179988 4.747552 18.091802 224 224 224 0.877208
7.993955 4.840227 19.643218 198 198 198 0.777563
8.766886 4.837008 21.228960 161 161 161 0.631297
9.588640 5.124157 23.111251 138 138 138 0.540769
10.225862 4.598181 24.435730 154 154 154 0.602809
11.036808 4.715473 26.112911 143 143 143 0.561524
11.856321 4.896794 27.982263 160 160 160 0.625924
12.562521 4.903215 29.798355 110 110 110 0.430417
13.369803 4.901953 31.526442 54 54 54 0.212012
3.930680 2.814890 11.687632 236 236 236 0.924521
4.803976 2.832530 13.462554 241 241 241 0.943628
5.486575 2.911967 14.797992 253 253 253 0.990929
6.237415 2.983153 16.335558 254 254 254 0.997224
7.226780 2.635702 18.224100 230 230 230 0.901758
8.099144 3.055507 19.835112 169 169 169 0.663595
8.889777 2.936009 21.333637 200 200 200 0.782662
9.510194 2.934760 22.946307 229 229 229 0.899477
10.385653 3.081852 24.843276 231 231 231 0.904211
11.177984 2.449645 26.362292 154 154 154 0.604415
11.986010 2.902475 27.940388 122 122 122 0.477055
12.741144 2.950572 29.696386 98 98 98 0.384889
13.533664 2.941169 31.443653 53 53 53 0.206983
3.867316 0.974712 11.349213 233 233 233 0.914992
4.666633 0.940963 13.089650 195 195 195 0.764132
5.549819 1.105283 14.925834 195 195 195 0.763318
6.264006 1.013377 16.426603 243 243 243 0.951469
7.018740 0.751938 17.826002 229 229 229 0.897225
7.864713 1.177948 19.450830 122 122 122 0.477219
8.749627 0.982739 21.273201 196 196 196 0.767249
9.619479 0.979413 22.944836 218 218 218 0.853605
10.262527 1.154799 24.467620 218 218 218 0.855748
11.068971 0.595333 26.014825 214 214 214 0.840451
11.828925 0.871820 27.588394 190 190 190 0.744043
12.673688 0.805133 29.434836 217 217 217 0.850180
13.528121 0.974828 31.315687 210 210 210 0.822915
3.893181 -0.984321 11.280705 158 158 158 0.620654
4.629216 -0.987028 12.991854 163 163 163 0.640296
5.341125 -0.672138 14.490875 136 136 136 0.534753
6.205252 -1.018485 16.270464 185 185 185 0.725311
7.108972 -1.063028 17.918738 243 243 243 0.954767
7.919747 -0.944562 19.614782 216 216 216 0.846214
8.691392 -0.973132 21.330610 148 148 148 0.579799
9.485800 -0.764920 22.808544 85 85 85 0.335240
10.383956 -1.175562 24.681596 118 118 118 0.463201
11.332503 -1.129005 26.675842 168 168 168 0.659264
12.112034 -0.759780 28.250985 182 182 182 0.712119
12.693436 -1.295723 29.496141 151 151 151 0.591903
13.617994 -0.980400 31.401045 182 182 182 0.714320
3.946061 -2.941960 11.203100 184 184 184 0.722951
4.651805 -2.945232 12.950358 131 131 131 0.513409
5.459284 -2.689590 14.807296 33 33 33 0.128198
6.231089 -2.914696 16.375933 121 121 121 0.475727
7.064808 -2.939051 17.979435 224 224 224 0.877282
8.042555 -3.190085 19.857014 231 231 231 0.905901
8.748975 -2.455934 21.340158 102 102 102 0.399984
9.642949 -3.049110 23.077628 48 48 48 0.187069
10.487046 -3.284727 24.950829 93 93 93 0.365815
11.140105 -2.732597 26.206863 178 178 178 0.696121
11.915171 -2.813792 27.826932 168 168 168 0.658404
12.733014 -2.993934 29.660862 88 88 88 0.346084
13.581701 -2.941184 31.419382 193 193 193 0.757658
3.886051 -4.642809 10.897180 191 191 191 0.750383
4.534158 -4.896526 12.449753 170 170 170 0.666747
5.328972 -4.997844 14.371877 63 63 63 0.245366
6.279486 -4.678611 16.397955 112 112 112 0.439547
7.078871 -4.865191 18.017259 195 195 195 0.765385
7.742652 -4.940627 19.276657 154 154 154 0.605698
8.686257 -4.663520 21.121639 195 195 195 0.763473
9.605673 -5.327351 22.899674 139 139 139 0.545595
10.298602 -4.781120 24.410684 137 137 137 0.538801
11.117737 -4.741169 26.166710 151 151 151 0.593698
11.920422 -4.853394 27.964155 114 114 114 0.446356
12.619387 -4.901968 29.815916 93 93 93 0.365883
13.414585 -4.901968 31.503817 226 226 226 0.887347
3.946073 -6.401919 11.030547 133 133 133 0.522174
4.740540 -7.011660 12.927378 101 101 101 0.395503
5.466909 -7.171515 14.865442 208 208 208 0.814560
6.159885 -6.524430 16.079314 130 130 130 0.510889
7.038825 -6.857558 17.865988 52 52 52 0.204436
8.101474 -6.803462 19.930154 87 87 87 0.341895
8.913321 -6.570887 21.535434 194 194 194 0.760579
9.529633 -7.247488 22.749933 220 220 220 0.864497
10.378201 -6.694601 24.430917 171 171 171 0.671515
11.069572 -6.788316 26.299991 154 154 154 0.603185
11.835168 -6.862751 28.122465 145 145 145 0.568414
12.495989 -6.862751 29.878262 90 90 90 0.354629
4.030456 -8.523725 11.256762 97 97 97 0.379772
4.832153 -9.098065 13.173277 51 51 51 0.198689
5.327180 -8.662245 14.492727 210 210 210 0.822636
6.138786 -8.619566 16.161860 177 177 177 0.693238
7.000665 -9.224153 17.930283 25 25 25 0.098580
7.897554 -8.784290 19.589813 124 124 124 0.486996
8.781424 -8.396098 21.263576 178 178 178 0.697349
9.567912 -8.865728 22.914384 182 182 182 0.713630
10.352181 -8.756079 24.649281 103 103 103 0.405656
11.043563 -8.823536 26.432751 178 178 178 0.697932
11.688528 -8.823536 28.196556 195 195 195 0.765136
3.769268 -10.685774 10.760703 225 225 225 0.882676
4.614627 -10.939213 12.609347 133 133 133 0.523329
5.497278 -10.625721 14.763494 196 196 196 0.768224
6.263951 -10.497664 16.540190 34 34 34 0.133729
6.844325 -11.156451 17.821200 13 13 13 0.052119
7.711794 -11.018643 19.507684 171 171 171 0.671643
8.693385 -10.288093 21.222217 175 175 175 0.687109
9.518980 -10.784320 23.023695 142 142 142 0.555422
10.212968 -10.784320 24.762733 103 103 103 0.404103
10.923907 -10.784320 26.493206 154 154 154 0.602301
3.867120 -12.742444 11.074954 227 227 227 0.891417
4.614368 -13.048087 12.582896 117 117 117 0.459425
5.375480 -12.860783 14.351702 174 174 174 0.682679
6.205997 -12.554648 16.376146 27 27 27 0.104430
6.894549 -12.745104 18.080660 14 14 14 0.055511
7.645206 -12.745104 19.791067 138 138 138 0.541166
8.513609 -12.745104 21.441982 165 165 165 0.646387
9.372394 -12.745104 23.097757 94 94 94 0.370390
4.013476 -14.964310 11.241719 200 200 200 0.783511
4.691884 -14.705888 12.924529 56 56 56 0.219349
5.458294 -14.705888 14.626976 118 118 118 0.464698
6.257969 -14.705888 16.312616 55 55 55 0.217608
6.953228 -14.705888 18.051012 0 0 0 0.000000
3.994285 -16.666672 11.187314 125 125 125 0.491553
4.745852 -16.666672 12.897262 195 195 195 0.766539
3 0 1 20
3 1 2 23
3 2 3 29
3 3 4 37
3 4 5 46
3 5 6 57
3 6 7 69
3 7 95 82
3 8 108 95
3 9 121 108
3 10 134 121
3 11 147 134
3 12 159 147
3 13 170 159
3 14 15 170
3 15 16 180
3 16 17 188
3 188 194 189
3 183 192 184
3 182 191 183
3 181 189 182
3 180 188 181
3 176 186 177
3 175 186 176
3 174 184 175
3 173 183 174
3 172 183 173
3 171 182 172
3 170 180 171
3 167 178 168
3 166 177 167
3 165 176 166
3 164 176 165
3 163 175 164
3 162 173 163
3 161 172 162
3 160 172 161
3 159 171 160
3 156 168 157
3 155 167 156
3 154 166 155
3 153 165 154
3 152 165 153
3 151 164 152
3 150 162 151
3 149 162 150
3 148 161 149
3 147 159 148
3 144 157 145
3 143 156 144
3 142 155 143
3 141 155 142
3 140 153 141
3 139 152 140
3 138 151 139
3 137 151 138
3 136 150 137
3 135 148 136
3 134 147 135
3 132 145 133
3 131 144 132
3 130 143 131
3 129 143 130
3 128 142 129
3 127 140 128
3 126 140 127
3 125 139 126
3 124 137 125
3 123 137 124
3 122 136 123
3 121 135 122
3 119 132 120
3 118 131 119
3 117 131 118
3 116 130 117
3 115 128 116
3 114 127 115
3 113 127 114
3 112 125 113
3 111 125 112
3 110 123 111
3 109 123 110
3 108 122 109
3 107 19 18
3 106 120 107
3 105 118 106
3 104 117 105
3 103 116 104
3 102 115 103
3 101 115 102
3 100 113 101
3 99 113 100
3 98 111 99
3 97 111 98
3 96 110 97
3 95 109 96
3 93 107 94
3 92 106 93
3 91 105 92
3 90 103 91
3 89 103 90
3 88 101 89
3 87 101 88
3 86 100 87
3 85 99 86
3 84 97 85
3 83 97 84
3 82 96 83
3 80 94 81
3 79 93 80
3 78 92 79
3 77 90 78
3 76 89 77
3 75 89 76
3 74 87 75
3 73 87 74
3 72 85 73
3 71 85 72
3 70 83 71
3 69 82 70
3 67 80 68
3 66 79 67
3 65 78 66
3 64 76 65
3 63 75 64
3 62 75 63
3 61 73 62
3 60 72 61
3 59 71 60
3 58 71 59
3 57 69 58
3 55 67 56
3 54 66 55
3 53 65 54
3 52 64 53
3 51 62 52
3 50 62 51
3 49 61 50
3 48 59 49
3 47 59 48
3 46 57 47
3 44 54 45
3 43 53 44
3 42 52 43
3 41 50 42
3 40 49 41
3 39 49 40
3 38 47 39
3 37 46 38
3 35 44 36
3 34 43 35
3 33 41 34
3 32 40 33
3 31 40 32
3 30 39 31
3 29 38 30
3 27 34 28
3 26 33 27
3 25 32 26
3 24 31 25
3 23 29 24
3 21 24 22
3 20 24 21
3 1 23 20
3 144 145 132
3 2 29 23
3 7 8 95
3 8 9 108
3 9 10 121
3 10 11 134
3 11 12 147
3 12 13 159
3 13 14 170
3 5 57 46
3 157 158 145
3 4 46 37
3 167 168 156
3 57 58 47
3 156 157 144
3 69 70 58
3 177 178 167
3 47 48 39
3 168 169 157
3 73 74 62
3 184 185 175
3 115 116 103
3 162 163 151
3 40 41 33
3 183 184 174
3 113 114 101
3 128 129 116
3 152 153 140
3 155 156 143
3 117 118 105
3 173 174 163
3 97 98 85
3 82 83 70
3 90 91 78
3 166 167 155
3 147 148 135
3 159 160 148
3 50 51 42
3 145 146 133
3 85 86 73
3 24 25 22
3 143 144 131
3 75 76 64
3 71 72 60
3 3 37 29
3 148 149 136
3 189 190 182
3 89 90 77
3 49 50 41
3 125 126 113
3 188 189 181
3 137 138 125
3 72 73 61
3 186 187 177
3 132 133 120
3 131 132 119
3 16 188 180
3 151 152 139
3 101 102 89
3 15 180 170
3 188 193 194
3 183 191 192
3 182 190 191
3 175 185 186
3 172 182 183
3 171 181 182
3 164 175 176
3 163 174 175
3 160 171 172
3 159 170 171
3 17 193 188
3 152 164 165
3 151 163 164
3 149 161 162
3 148 160 161
3 141 154 155
3 137 150 151
3 136 149 150
3 129 142 143
3 128 141 142
3 126 139 140
3 125 138 139
3 123 136 137
3 122 135 136
3 121 134 135
3 117 130 131
3 116 129 130
3 103 104 91
3 113 126 127
3 111 124 125
3 109 122 123
3 108 121 122
3 107 120 19
3 106 119 120
3 101 114 115
3 99 112 113
3 97 110 111
3 96 109 110
3 95 108 109
3 94 107 18
3 93 106 107
3 92 105 106
3 91 104 105
3 89 102 103
3 87 100 101
3 86 99 100
3 85 98 99
3 165 166 154
3 83 96 97
3 82 95 96
3 80 93 94
3 79 92 93
3 78 91 92
3 75 88 89
3 73 86 87
3 71 84 85
3 68 80 81
3 67 79 80
3 66 78 79
3 65 77 78
3 62 74 75
3 58 70 71
3 56 67 68
3 55 66 67
3 54 65 66
3 53 64 65
3 52 63 64
3 116 117 104
3 50 61 62
3 49 60 61
3 123 124 111
3 47 58 59
3 45 54 55
3 44 53 54
3 43 52 53
3 42 51 52
3 83 84 71
3 39 48 49
3 36 44 45
3 35 43 44
3 34 42 43
3 31 39 40
3 30 38 39
3 29 37 38
3 28 34 35
3 27 33 34
3 26 32 33
3 25 31 32
3 24 30 31
3 22 25 26
3 20 23 24
3 7 82 69
3 180 181 171
3 6 69 57
3 153 154 141
3 29 30 24
3 176 177 166
3 140 141 128
3 59 60 49
3 76 77 65
3 46 47 38
3 118 119 106
3 41 42 34
3 87 88 75
3 62 63 52
3 127 128 115
3 111 112 99
3 178 179 168
3 172 173 162
