ply
format ascii 1.0
comment openVA ply exporter, (c) Peter Felfer, The University of Sydney 2013, Rhett MPIE modified 2019
comment 19.4 to 148 atoms/nm2
element vertex 195
property float x
property float y
property float z
property uchar red
property uchar green
property uchar blue
property float value
element face 333
property list uchar uint vertex_indices
end_header
3.073044 16.666656 9.251796 207 207 207 0.813487
3.045675 14.705873 9.382265 160 160 160 0.625667
3.018653 12.745089 9.511081 142 142 142 0.556679
3.015320 10.784305 9.526971 136 136 136 0.533054
3.006387 8.823521 9.569551 228 228 228 0.893599
2.987174 6.862737 9.661143 161 161 161 0.630950
2.954237 4.901953 9.818158 88 88 88 0.343305
2.949502 2.941169 9.840726 132 132 132 0.518158
2.969954 0.980384 9.743232 124 124 124 0.486403
2.987711 -0.980400 9.658584 110 110 110 0.431910
3.018784 -2.941184 9.510458 136 136 136 0.531446
3.046168 -4.901968 9.379913 147 147 147 0.576521
3.047304 -6.862751 9.374500 83 83 83 0.324375
3.053491 -8.823536 9.345005 107 107 107 0.418118
3.055218 -10.784320 9.336775 161 161 161 0.630678
3.035725 -12.745104 9.429696 255 255 255 1.000000
3.030137 -14.705888 9.456338 197 197 197 0.772878
3.024617 -16.666672 9.482648 171 171 171 0.672352
14.412584 0.980384 33.089252 201 201 201 0.787452
14.439273 -0.980400 33.075768 211 211 211 0.827728
3.908847 16.666656 11.230482 87 87 87 0.341536
4.633296 16.666656 12.954130 15 15 15 0.058034
5.337802 16.666656 14.687855 44 44 44 0.171037
3.805334 14.446839 10.941709 45 45 45 0.178161
4.569672 14.702681 12.897091 7 7 7 0.026995
5.448013 14.448370 14.881064 38 38 38 0.150265
6.225113 14.705873 16.329216 125 125 125 0.489233
7.029236 14.705873 18.012609 130 130 130 0.509107
7.835334 14.705873 19.695005 136 136 136 0.531949
3.937719 12.513948 11.361907 13 13 13 0.051550
4.773621 12.447169 13.198067 51 51 51 0.201513
5.385233 12.692825 14.709783 57 57 57 0.223558
6.121963 12.935249 16.181887 50 50 50 0.198016
6.850125 12.747005 17.586630 98 98 98 0.384595
7.784570 12.571439 19.386574 126 126 126 0.494915
8.708624 12.745089 21.343452 134 134 134 0.525504
9.377743 12.745089 23.095055 150 150 150 0.590149
3.806036 10.450800 10.986505 67 67 67 0.262888
4.487568 10.673267 12.529404 101 101 101 0.397494
5.296401 10.518116 14.447683 145 145 145 0.567284
6.156024 11.172437 16.192734 83 83 83 0.325080
6.993256 10.792529 17.840159 0 0 0 0.000000
7.959570 10.312019 19.542726 120 120 120 0.470994
8.724028 10.759106 21.214485 101 101 101 0.394703
9.461901 10.782500 23.015799 150 150 150 0.588389
10.166820 10.784487 24.785856 138 138 138 0.539392
3.901054 8.703263 11.137688 112 112 112 0.438159
4.634975 8.581691 13.049844 133 133 133 0.522220
5.282316 8.700588 14.702004 158 158 158 0.621312
6.185419 8.896614 16.276853 141 141 141 0.551954
7.275017 8.765374 18.261184 118 118 118 0.463455
8.049160 8.657378 19.697822 157 157 157 0.615792
8.738208 8.559740 21.141003 135 135 135 0.531064
9.545147 8.811409 22.909614 81 81 81 0.318655
10.289317 8.828483 24.691465 128 128 128 0.500880
10.984891 8.823521 26.462395 117 117 117 0.458128
11.645442 8.823521 28.218325 149 149 149 0.585634
3.916154 6.825790 11.255405 27 27 27 0.104389
4.644685 6.351621 12.973470 90 90 90 0.354619
5.312641 7.188832 14.687399 143 143 143 0.561535
6.085998 6.657284 16.076829 159 159 159 0.623453
6.874408 6.901543 17.556752 150 150 150 0.587676
7.904797 6.748798 19.521318 131 131 131 0.512573
8.785562 6.755998 21.229066 136 136 136 0.534174
9.399047 6.825299 22.582043 100 100 100 0.393449
10.222938 6.694226 24.414841 55 55 55 0.216618
11.006712 6.853321 26.330710 72 72 72 0.280893
11.693731 6.857161 28.155658 107 107 107 0.421322
12.384120 6.861861 29.935716 111 111 111 0.433458
3.847042 4.828875 11.294500 71 71 71 0.277511
4.490915 4.468744 12.735861 107 107 107 0.419603
5.376819 4.858481 14.592150 146 146 146 0.571800
6.279819 5.088087 16.458497 150 150 150 0.588393
7.179988 4.747552 18.091802 135 135 135 0.528139
7.993955 4.840227 19.643218 97 97 97 0.379493
8.766886 4.837008 21.228960 71 71 71 0.280271
9.588640 5.124157 23.111251 70 70 70 0.274938
10.225862 4.598181 24.435730 91 91 91 0.357312
11.036808 4.715473 26.112911 99 99 99 0.386631
11.856321 4.896794 27.982263 92 92 92 0.362026
12.562521 4.903215 29.798355 73 73 73 0.286897
13.369803 4.901953 31.526442 89 89 89 0.349464
3.930680 2.814890 11.687632 151 151 151 0.590409
4.803976 2.832530 13.462554 151 151 151 0.590843
5.486575 2.911967 14.797992 165 165 165 0.646307
6.237415 2.983153 16.335558 159 159 159 0.621633
7.226780 2.635702 18.224100 138 138 138 0.542883
8.099144 3.055507 19.835112 81 81 81 0.318791
8.889777 2.936009 21.333637 104 104 104 0.407179
9.510194 2.934760 22.946307 124 124 124 0.485419
10.385653 3.081852 24.843276 127 127 127 0.498405
11.177984 2.449645 26.362292 90 90 90 0.354353
11.986010 2.902475 27.940388 88 88 88 0.346418
12.741144 2.950572 29.696386 74 74 74 0.289696
13.533664 2.941169 31.443653 118 118 118 0.463041
3.867316 0.974712 11.349213 144 144 144 0.563348
4.666633 0.940963 13.089650 116 116 116 0.455297
5.549819 1.105283 14.925834 109 109 109 0.426436
6.264006 1.013377 16.426603 150 150 150 0.588800
7.018740 0.751938 17.826002 135 135 135 0.529216
7.864713 1.177948 19.450830 59 59 59 0.230430
8.749627 0.982739 21.273201 115 115 115 0.452575
9.619479 0.979413 22.944836 121 121 121 0.472790
10.262527 1.154799 24.467620 129 129 129 0.506188
11.068971 0.595333 26.014825 145 145 145 0.567699
11.828925 0.871820 27.588394 126 126 126 0.495890
12.673688 0.805133 29.434836 153 153 153 0.599102
13.528121 0.974828 31.315687 180 180 180 0.706400
3.893181 -0.984321 11.280705 89 89 89 0.349906
4.629216 -0.987028 12.991854 71 71 71 0.278804
5.341125 -0.672138 14.490875 50 50 50 0.196685
6.205252 -1.018485 16.270464 99 99 99 0.388247
7.108972 -1.063028 17.918738 138 138 138 0.542320
7.919747 -0.944562 19.614782 125 125 125 0.491631
8.691392 -0.973132 21.330610 76 76 76 0.296225
9.485800 -0.764920 22.808544 35 35 35 0.137739
10.383956 -1.175562 24.681596 61 61 61 0.239960
11.332503 -1.129005 26.675842 96 96 96 0.375709
12.112034 -0.759780 28.250985 113 113 113 0.442309
12.693436 -1.295723 29.496141 93 93 93 0.364146
13.617994 -0.980400 31.401045 151 151 151 0.592078
3.946061 -2.941960 11.203100 113 113 113 0.441823
4.651805 -2.945232 12.950358 67 67 67 0.262649
5.459284 -2.689590 14.807296 15 15 15 0.060409
6.231089 -2.914696 16.375933 63 63 63 0.247916
7.064808 -2.939051 17.979435 134 134 134 0.527276
8.042555 -3.190085 19.857014 141 141 141 0.551016
8.748975 -2.455934 21.340158 49 49 49 0.191965
9.642949 -3.049110 23.077628 18 18 18 0.071512
10.487046 -3.284727 24.950829 40 40 40 0.155570
11.140105 -2.732597 26.206863 102 102 102 0.401372
11.915171 -2.813792 27.826932 105 105 105 0.410769
12.733014 -2.993934 29.660862 57 57 57 0.224050
13.581701 -2.941184 31.419382 175 175 175 0.687789
3.886051 -4.642809 10.897180 113 113 113 0.444255
4.534158 -4.896526 12.449753 79 79 79 0.310477
5.328972 -4.997844 14.371877 22 22 22 0.085493
6.279486 -4.678611 16.397955 57 57 57 0.224360
7.078871 -4.865191 18.017259 115 115 115 0.451495
7.742652 -4.940627 19.276657 90 90 90 0.353263
8.686257 -4.663520 21.121639 119 119 119 0.466679
9.605673 -5.327351 22.899674 77 77 77 0.300746
10.298602 -4.781120 24.410684 81 81 81 0.318101
11.117737 -4.741169 26.166710 92 92 92 0.360154
11.920422 -4.853394 27.964155 65 65 65 0.256114
12.619387 -4.901968 29.815916 50 50 50 0.194701
13.414585 -4.901968 31.503817 189 189 189 0.742978
3.946073 -6.401919 11.030547 50 50 50 0.197195
4.740540 -7.011660 12.927378 33 33 33 0.129791
5.466909 -7.171515 14.865442 110 110 110 0.429797
6.159885 -6.524430 16.079314 65 65 65 0.255206
7.038825 -6.857558 17.865988 84 84 84 0.329312
8.101474 -6.803462 19.930154 53 53 53 0.208122
8.913321 -6.570887 21.535434 117 117 117 0.457345
9.529633 -7.247488 22.749933 143 143 143 0.561686
10.378201 -6.694601 24.430917 111 111 111 0.436971
11.069572 -6.788316 26.299991 79 79 79 0.308498
11.835168 -6.862751 28.122465 83 83 83 0.325223
12.495989 -6.862751 29.878262 47 47 47 0.182781
4.030456 -8.523725 11.256762 31 31 31 0.119837
4.832153 -9.098065 13.173277 22 22 22 0.088192
5.327180 -8.662245 14.492727 131 131 131 0.513690
6.138786 -8.619566 16.161860 124 124 124 0.486538
7.000665 -9.224153 17.930283 89 89 89 0.348813
7.897554 -8.784290 19.589813 68 68 68 0.266000
8.781424 -8.396098 21.263576 111 111 111 0.434576
9.567912 -8.865728 22.914384 120 120 120 0.468841
10.352181 -8.756079 24.649281 59 59 59 0.230170
11.043563 -8.823536 26.432751 112 112 112 0.437340
11.688528 -8.823536 28.196556 113 113 113 0.443690
3.769268 -10.685774 10.760703 146 146 146 0.572972
4.614627 -10.939213 12.609347 71 71 71 0.279198
5.497278 -10.625721 14.763494 140 140 140 0.549993
6.263951 -10.497664 16.540190 157 157 157 0.614109
6.844325 -11.156451 17.821200 166 166 166 0.651293
7.711794 -11.018643 19.507684 126 126 126 0.494320
8.693385 -10.288093 21.222217 117 117 117 0.457893
9.518980 -10.784320 23.023695 87 87 87 0.342543
10.212968 -10.784320 24.762733 61 61 61 0.239505
10.923907 -10.784320 26.493206 92 92 92 0.360197
3.867120 -12.742444 11.074954 155 155 155 0.606658
4.614368 -13.048087 12.582896 58 58 58 0.226810
5.375480 -12.860783 14.351702 116 116 116 0.454674
6.205997 -12.554648 16.376146 136 136 136 0.534498
6.894549 -12.745104 18.080660 83 83 83 0.323905
7.645206 -12.745104 19.791067 103 103 103 0.404013
8.513609 -12.745104 21.441982 107 107 107 0.418880
9.372394 -12.745104 23.097757 63 63 63 0.245862
4.013476 -14.964310 11.241719 136 136 136 0.533588
4.691884 -14.705888 12.924529 16 16 16 0.060918
5.458294 -14.705888 14.626976 57 57 57 0.222963
6.257969 -14.705888 16.312616 94 94 94 0.368321
6.953228 -14.705888 18.051012 52 52 52 0.205814
3.994285 -16.666672 11.187314 156 156 156 0.612857
4.745852 -16.666672 12.897262 122 122 122 0.477964
3 0 1 20
3 1 2 23
3 2 3 29
3 3 4 37
3 4 5 46
3 5 6 57
3 6 7 69
3 7 95 82
3 8 108 95
3 9 121 108
3 10 134 121
3 11 147 134
3 12 159 147
3 13 170 159
3 14 15 170
3 15 16 180
3 16 17 188
3 188 194 189
3 183 192 184
3 182 191 183
3 181 189 182
3 180 188 181
3 176 186 177
3 175 186 176
3 174 184 175
3 173 183 174
3 172 183 173
3 171 182 172
3 170 180 171
3 167 178 168
3 166 177 167
3 165 176 166
3 164 176 165
3 163 175 164
3 162 173 163
3 161 172 162
3 160 172 161
3 159 171 160
3 156 168 157
3 155 167 156
3 154 166 155
3 153 165 154
3 152 165 153
3 151 164 152
3 150 162 151
3 149 162 150
3 148 161 149
3 147 159 148
3 144 157 145
3 143 156 144
3 142 155 143
3 141 155 142
3 140 153 141
3 139 152 140
3 138 151 139
3 137 151 138
3 136 150 137
3 135 148 136
3 134 147 135
3 132 145 133
3 131 144 132
3 130 143 131
3 129 143 130
3 128 142 129
3 127 140 128
3 126 140 127
3 125 139 126
3 124 137 125
3 123 137 124
3 122 136 123
3 121 135 122
3 119 132 120
3 118 131 119
3 117 131 118
3 116 130 117
3 115 128 116
3 114 127 115
3 113 127 114
3 112 125 113
3 111 125 112
3 110 123 111
3 109 123 110
3 108 122 109
3 107 19 18
3 106 120 107
3 105 118 106
3 104 117 105
3 103 116 104
3 102 115 103
3 101 115 102
3 100 113 101
3 99 113 100
3 98 111 99
3 97 111 98
3 96 110 97
3 95 109 96
3 93 107 94
3 92 106 93
3 91 105 92
3 90 103 91
3 89 103 90
3 88 101 89
3 87 101 88
3 86 100 87
3 85 99 86
3 84 97 85
3 83 97 84
3 82 96 83
3 80 94 81
3 79 93 80
3 78 92 79
3 77 90 78
3 76 89 77
3 75 89 76
3 74 87 75
3 73 87 74
3 72 85 73
3 71 85 72
3 70 83 71
3 69 82 70
3 67 80 68
3 66 79 67
3 65 78 66
3 64 76 65
3 63 75 64
3 62 75 63
3 61 73 62
3 60 72 61
3 59 71 60
3 58 71 59
3 57 69 58
3 55 67 56
3 54 66 55
3 53 65 54
3 52 64 53
3 51 62 52
3 50 62 51
3 49 61 50
3 48 59 49
3 47 59 48
3 46 57 47
3 44 54 45
3 43 53 44
3 42 52 43
3 41 50 42
3 40 49 41
3 39 49 40
3 38 47 39
3 37 46 38
3 35 44 36
3 34 43 35
3 33 41 34
3 32 40 33
3 31 40 32
3 30 39 31
3 29 38 30
3 27 34 28
3 26 33 27
3 25 32 26
3 24 31 25
3 23 29 24
3 21 24 22
3 20 24 21
3 1 23 20
3 144 145 132
3 2 29 23
3 7 8 95
3 8 9 108
3 9 10 121
3 10 11 134
3 11 12 147
3 12 13 159
3 13 14 170
3 5 57 46
3 157 158 145
3 4 46 37
3 167 168 156
3 57 58 47
3 156 157 144
3 69 70 58
3 177 178 167
3 47 48 39
3 168 169 157
3 73 74 62
3 184 185 175
3 115 116 103
3 162 163 151
3 40 41 33
3 183 184 174
3 113 114 101
3 128 129 116
3 152 153 140
3 155 156 143
3 117 118 105
3 173 174 163
3 97 98 85
3 82 83 70
3 90 91 78
3 166 167 155
3 147 148 135
3 159 160 148
3 50 51 42
3 145 146 133
3 85 86 73
3 24 25 22
3 143 144 131
3 75 76 64
3 71 72 60
3 3 37 29
3 148 149 136
3 189 190 182
3 89 90 77
3 49 50 41
3 125 126 113
3 188 189 181
3 137 138 125
3 72 73 61
3 186 187 177
3 132 133 120
3 131 132 119
3 16 188 180
3 151 152 139
3 101 102 89
3 15 180 170
3 188 193 194
3 183 191 192
3 182 190 191
3 175 185 186
3 172 182 183
3 171 181 182
3 164 175 176
3 163 174 175
3 160 171 172
3 159 170 171
3 17 193 188
3 152 164 165
3 151 163 164
3 149 161 162
3 148 160 161
3 141 154 155
3 137 150 151
3 136 149 150
3 129 142 143
3 128 141 142
3 126 139 140
3 125 138 139
3 123 136 137
3 122 135 136
3 121 134 135
3 117 130 131
3 116 129 130
3 103 104 91
3 113 126 127
3 111 124 125
3 109 122 123
3 108 121 122
3 107 120 19
3 106 119 120
3 101 114 115
3 99 112 113
3 97 110 111
3 96 109 110
3 95 108 109
3 94 107 18
3 93 106 107
3 92 105 106
3 91 104 105
3 89 102 103
3 87 100 101
3 86 99 100
3 85 98 99
3 165 166 154
3 83 96 97
3 82 95 96
3 80 93 94
3 79 92 93
3 78 91 92
3 75 88 89
3 73 86 87
3 71 84 85
3 68 80 81
3 67 79 80
3 66 78 79
3 65 77 78
3 62 74 75
3 58 70 71
3 56 67 68
3 55 66 67
3 54 65 66
3 53 64 65
3 52 63 64
3 116 117 104
3 50 61 62
3 49 60 61
3 123 124 111
3 47 58 59
3 45 54 55
3 44 53 54
3 43 52 53
3 42 51 52
3 83 84 71
3 39 48 49
3 36 44 45
3 35 43 44
3 34 42 43
3 31 39 40
3 30 38 39
3 29 37 38
3 28 34 35
3 27 33 34
3 26 32 33
3 25 31 32
3 24 30 31
3 22 25 26
3 20 23 24
3 7 82 69
3 180 181 171
3 6 69 57
3 153 154 141
3 29 30 24
3 176 177 166
3 140 141 128
3 59 60 49
3 76 77 65
3 46 47 38
3 118 119 106
3 41 42 34
3 87 88 75
3 62 63 52
3 127 128 115
3 111 112 99
3 178 179 168
3 172 173 162
