ply
format ascii 1.0
comment openVA ply exporter, (c) Peter Felfer, The University of Sydney 2013, Rhett MPIE modified 2019
comment 8.88 to 92 atom percentage
element vertex 145
property float x
property float y
property float z
property uchar red
property uchar green
property uchar blue
property float value
element face 241
property list uchar uint vertex_indices
end_header
18.382530 4.901953 0.031249 0 0 0 0.000000
18.418415 2.941169 0.092095 23 23 23 0.089294
18.414824 0.980384 0.086006 50 50 50 0.197039
18.428848 -0.980400 0.109787 94 94 94 0.368669
18.418180 -2.941184 0.091697 89 89 89 0.348638
18.427530 -4.901968 0.107553 76 76 76 0.297267
18.439144 -6.862751 0.127244 13 13 13 0.049359
4.391768 16.666656 8.394739 219 219 219 0.860315
5.958877 16.666656 7.486793 190 190 190 0.744411
7.490001 16.666656 6.517829 78 78 78 0.306164
4.456612 14.705873 8.504691 165 165 165 0.646554
6.235713 14.446052 7.481854 108 108 108 0.422669
7.601159 14.695616 6.628126 115 115 115 0.450646
9.098845 14.705873 5.680654 160 160 160 0.628990
10.645857 14.705873 4.738627 180 180 180 0.707747
12.178408 14.705873 3.772083 196 196 196 0.767823
4.573727 12.745089 8.703277 230 230 230 0.902108
5.942854 12.520476 7.782140 160 160 160 0.626940
7.371515 12.900845 6.785141 121 121 121 0.474192
8.949087 12.561348 5.877326 204 204 204 0.798522
10.619791 12.732307 4.855887 221 221 221 0.865062
12.000196 13.000751 3.993128 237 237 237 0.928251
13.802187 12.746067 2.962008 192 192 192 0.751653
4.554409 10.784305 8.670519 230 230 230 0.901691
6.037002 10.709766 7.672132 118 118 118 0.461360
7.394246 10.951141 6.854340 93 93 93 0.365447
8.851175 10.494409 5.980466 151 151 151 0.590499
10.482485 10.586780 5.033165 102 102 102 0.398497
12.314579 11.016801 3.891275 227 227 227 0.890182
14.062932 10.551363 2.889105 194 194 194 0.760813
15.342958 10.781259 2.002086 105 105 105 0.411753
4.583817 8.823521 8.720385 251 251 251 0.984574
6.182811 9.030379 7.576817 176 176 176 0.689085
7.729168 9.096546 6.597511 123 123 123 0.480560
9.140806 8.732444 5.881488 103 103 103 0.405809
10.535669 8.497112 5.139305 195 195 195 0.763798
12.117055 8.713034 4.188699 233 233 233 0.914157
13.782678 8.824820 3.104342 228 228 228 0.894877
15.386309 8.752825 1.993700 159 159 159 0.621678
16.783144 8.823521 0.884463 57 57 57 0.224355
4.621449 6.862737 8.784196 215 215 215 0.843619
6.081185 6.938181 7.681744 214 214 214 0.838983
7.749868 7.123266 6.634133 126 126 126 0.494290
9.554094 6.781178 5.677780 140 140 140 0.547892
11.049284 7.037556 4.833224 222 222 222 0.869531
12.416889 6.383088 4.100785 235 235 235 0.922801
13.811300 6.836137 3.142829 156 156 156 0.611939
15.351785 6.855910 2.099513 51 51 51 0.199776
16.876886 6.862737 1.043415 26 26 26 0.100039
4.627131 4.901953 8.793830 81 81 81 0.316112
6.075441 4.922203 7.695903 85 85 85 0.331596
7.425125 5.268304 6.835304 116 116 116 0.455917
8.826752 4.966116 6.063307 131 131 131 0.512850
10.551883 5.026787 5.088688 208 208 208 0.814997
12.100945 4.516697 4.329011 208 208 208 0.814048
13.769537 4.625153 3.337169 128 128 128 0.503897
15.378377 4.882649 2.261539 78 78 78 0.307516
16.885133 4.901928 1.127884 13 13 13 0.052498
4.664709 2.941169 8.857550 42 42 42 0.166387
6.144414 2.946818 7.802670 95 95 95 0.372781
7.731433 3.190431 6.718247 85 85 85 0.334181
9.416691 3.300073 5.828398 82 82 82 0.322369
10.733479 2.910464 5.066645 130 130 130 0.509666
12.329425 2.802074 4.233350 178 178 178 0.698244
13.972545 2.420866 3.321865 226 226 226 0.885779
15.462483 2.875147 2.364868 152 152 152 0.597704
16.957993 2.942983 1.256329 110 110 110 0.429880
4.691449 0.980384 8.902890 32 32 32 0.124029
5.861525 0.981763 8.101626 161 161 161 0.630966
7.256056 1.057985 7.060513 214 214 214 0.838781
8.978677 1.259823 6.082220 185 185 185 0.726621
10.723440 0.969414 5.165261 182 182 182 0.713781
12.331253 0.862502 4.247131 174 174 174 0.683934
14.018789 0.389884 3.367943 225 225 225 0.883247
15.537668 0.837612 2.375973 236 236 236 0.925570
16.986871 0.965602 1.275586 178 178 178 0.699893
4.643770 -0.980400 8.822044 94 94 94 0.367245
6.063602 -0.978487 7.843627 195 195 195 0.764895
7.725235 -1.074018 6.729774 238 238 238 0.932695
9.442388 -0.633362 5.879971 237 237 237 0.930674
10.880744 -0.981511 5.179433 174 174 174 0.681232
12.404021 -1.100228 4.315989 207 207 207 0.811478
14.037689 -1.594622 3.379021 235 235 235 0.920975
15.562297 -1.153984 2.388446 237 237 237 0.929339
16.811428 -0.765358 1.423265 181 181 181 0.710777
4.574604 -2.941184 8.704763 226 226 226 0.885693
6.027340 -2.929195 7.612165 245 245 245 0.961408
7.595889 -3.400398 6.668550 205 205 205 0.802303
9.406652 -2.724065 5.910830 187 187 187 0.734895
11.283947 -2.947153 4.988530 213 213 213 0.835311
12.756678 -2.791882 4.145961 189 189 189 0.741477
14.110940 -3.565258 3.356295 203 203 203 0.794546
15.593720 -3.124887 2.396798 214 214 214 0.840765
17.145380 -2.730522 1.166145 124 124 124 0.485680
4.486575 -4.901968 8.555498 255 255 255 1.000000
5.967107 -4.970124 7.593249 195 195 195 0.765467
7.531802 -5.471314 6.584493 96 96 96 0.377355
9.219146 -4.940279 5.878341 227 227 227 0.888424
10.899581 -4.832929 5.125962 242 242 242 0.949890
12.675410 -4.775360 4.180245 227 227 227 0.889967
14.128224 -5.090272 3.352360 167 167 167 0.655419
15.320700 -5.058716 2.643651 149 149 149 0.583050
16.720283 -4.864286 1.615177 134 134 134 0.524812
4.462387 -6.862751 8.514483 233 233 233 0.915565
6.279784 -6.968152 7.322626 93 93 93 0.365923
7.639961 -7.068181 6.531856 94 94 94 0.369323
9.052043 -7.142858 5.849767 232 232 232 0.909672
10.767341 -6.867240 5.060796 243 243 243 0.952643
12.422308 -6.792917 4.197228 194 194 194 0.762049
13.984861 -6.477020 3.355291 138 138 138 0.542701
15.453810 -6.886376 2.433525 159 159 159 0.624552
17.029093 -6.862751 1.301504 86 86 86 0.338764
4.466737 -8.823536 8.521860 216 216 216 0.847784
6.016837 -8.811382 7.543514 187 187 187 0.732452
7.567273 -8.524502 6.595232 189 189 189 0.740701
9.155284 -9.314411 5.851734 236 236 236 0.924236
10.722007 -8.892627 4.984551 217 217 217 0.851135
12.145063 -8.547532 4.251749 118 118 118 0.463725
13.735171 -8.550327 3.356347 98 98 98 0.385104
15.472007 -8.823536 2.226445 130 130 130 0.508874
16.929655 -8.823536 1.132892 113 113 113 0.441463
4.501389 -10.784320 8.580617 206 206 206 0.809247
6.054267 -10.777778 7.645238 195 195 195 0.766598
7.695015 -10.580015 6.614980 190 190 190 0.745592
9.219746 -10.916184 5.813958 137 137 137 0.537259
10.606379 -11.064194 4.964419 192 192 192 0.752868
12.267749 -10.309218 4.100783 103 103 103 0.404143
13.868367 -10.784320 3.072449 75 75 75 0.293225
15.392588 -10.784320 2.091779 85 85 85 0.334418
4.553267 -12.745104 8.668583 212 212 212 0.830464
5.757140 -12.742971 7.931983 223 223 223 0.872566
7.203669 -12.677489 6.975531 170 170 170 0.665523
9.011239 -12.778973 5.861529 147 147 147 0.574683
10.635874 -12.844015 4.876699 242 242 242 0.949903
12.236930 -12.745104 3.871316 220 220 220 0.863312
13.791691 -12.745104 2.942433 118 118 118 0.464553
4.580165 -14.705888 8.714194 91 91 91 0.355796
6.172700 -14.439708 7.597953 150 150 150 0.589488
7.562933 -14.705888 6.641497 68 68 68 0.266819
9.094985 -14.705888 5.674107 53 53 53 0.208628
10.682361 -14.705888 4.800525 214 214 214 0.838195
12.199896 -14.705888 3.808519 255 255 255 0.998460
4.588970 -16.666672 8.729123 187 187 187 0.733624
6.064935 -16.666672 7.666629 195 195 195 0.764361
7.539349 -16.666672 6.601506 182 182 182 0.713479
3 137 143 138
3 136 143 137
3 133 140 134
3 132 140 133
3 131 138 132
3 130 137 131
3 129 136 130
3 126 134 127
3 125 134 126
3 124 132 125
3 123 132 124
3 122 131 123
3 121 130 122
3 118 127 119
3 117 126 118
3 116 126 117
3 115 125 116
3 114 123 115
3 113 123 114
3 112 122 113
3 110 119 111
3 109 118 110
3 108 118 109
3 107 117 108
3 106 116 107
3 105 114 106
3 104 114 105
3 103 113 104
3 102 111 5
3 101 110 102
3 100 109 101
3 99 109 100
3 98 108 99
3 97 107 98
3 96 106 97
3 95 104 96
3 94 103 95
3 93 5 4
3 92 102 93
3 91 101 92
3 90 99 91
3 89 99 90
3 88 98 89
3 87 97 88
3 86 95 87
3 85 94 86
3 84 93 3
3 83 93 84
3 82 92 83
3 81 90 82
3 80 89 81
3 79 88 80
3 78 88 79
3 77 86 78
3 76 85 77
3 75 3 2
3 74 84 75
3 73 83 74
3 72 81 73
3 71 80 72
3 70 79 71
3 69 78 70
3 68 77 69
3 67 76 68
3 66 2 1
3 65 75 66
3 64 74 65
3 63 72 64
3 62 71 63
3 61 70 62
3 60 70 61
3 59 69 60
3 58 68 59
3 57 1 0
3 56 66 57
3 55 65 56
3 54 63 55
3 53 62 54
3 52 61 53
3 51 60 52
3 50 60 51
3 49 59 50
3 47 57 48
3 46 56 47
3 45 55 46
3 44 53 45
3 43 53 44
3 42 52 43
3 41 51 42
3 40 50 41
3 38 48 39
3 37 47 38
3 36 46 37
3 35 44 36
3 34 43 35
3 33 42 34
3 32 42 33
3 31 41 32
3 29 38 30
3 28 37 29
3 27 36 28
3 26 34 27
3 25 33 26
3 24 32 25
3 23 32 24
3 21 28 22
3 20 28 21
3 19 27 20
3 18 25 19
3 17 25 18
3 16 23 17
3 14 21 15
3 13 20 14
3 12 19 13
3 11 18 12
3 10 17 11
3 8 12 9
3 7 10 8
3 86 87 78
3 10 11 8
3 123 124 115
3 132 133 125
3 85 86 77
3 94 95 86
3 77 78 69
3 127 128 119
3 44 45 36
3 95 96 87
3 134 135 127
3 119 120 111
3 88 89 80
3 61 62 53
3 25 26 19
3 53 54 45
3 103 104 95
3 138 139 132
3 110 111 102
3 136 142 143
3 132 139 140
3 125 133 134
3 104 105 96
3 123 131 132
3 122 130 131
3 121 129 130
3 116 125 126
3 115 124 125
3 113 122 123
3 112 121 122
3 108 117 118
3 107 116 117
3 106 115 116
3 104 113 114
3 103 112 113
3 99 108 109
3 98 107 108
3 97 106 107
3 96 105 106
3 93 102 5
3 92 101 102
3 91 100 101
3 89 98 99
3 88 97 98
3 87 96 97
3 83 92 93
3 82 91 92
3 78 87 88
3 75 84 3
3 74 83 84
3 73 82 83
3 137 138 131
3 66 75 2
3 65 74 75
3 64 73 74
3 60 69 70
3 59 68 69
3 58 67 68
3 57 66 1
3 56 65 66
3 55 64 65
3 50 59 60
3 49 58 59
3 48 57 0
3 47 56 57
3 46 55 56
3 45 54 55
3 43 52 53
3 42 51 52
3 41 50 51
3 40 49 50
3 38 47 48
3 37 46 47
3 36 45 46
3 32 41 42
3 31 40 41
3 30 38 39
3 29 37 38
3 28 36 37
3 27 35 36
3 23 31 32
3 22 29 30
3 20 27 28
3 19 26 27
3 17 24 25
3 15 21 22
3 14 20 21
3 13 19 20
3 12 18 19
3 11 17 18
3 10 16 17
3 9 12 13
3 8 11 12
3 114 115 106
3 70 71 62
3 34 35 27
3 76 77 68
3 72 73 64
3 111 6 5
3 143 144 138
3 89 90 81
3 109 110 101
3 126 127 118
3 118 119 110
3 78 79 70
3 62 63 54
3 23 24 17
3 79 80 71
3 42 43 34
3 71 72 63
3 60 61 52
3 140 141 134
3 43 44 35
3 136 137 130
3 90 91 82
3 33 34 26
3 99 100 91
3 93 4 3
3 28 29 22
3 63 64 55
3 80 81 72
3 81 82 73
3 32 33 25
