ply
format ascii 1.0
comment openVA ply exporter, (c) Peter Felfer, The University of Sydney 2013, Rhett MPIE modified 2019
comment -17.3 to 108 atoms/nm2
element vertex 145
property float x
property float y
property float z
property uchar red
property uchar green
property uchar blue
property float value
element face 241
property list uchar uint vertex_indices
end_header
18.382530 4.901953 0.031249 54 54 54 0.213198
18.418415 2.941169 0.092095 54 54 54 0.212320
18.414824 0.980384 0.086006 28 28 28 0.108132
18.428848 -0.980400 0.109787 108 108 108 0.423882
18.418180 -2.941184 0.091697 82 82 82 0.321644
18.427530 -4.901968 0.107553 75 75 75 0.296053
18.439144 -6.862751 0.127244 0 0 0 0.000000
4.391768 16.666656 8.394739 202 202 202 0.793495
5.958877 16.666656 7.486793 193 193 193 0.756024
7.490001 16.666656 6.517829 119 119 119 0.465887
4.456612 14.705873 8.504691 156 156 156 0.612843
6.235713 14.446052 7.481854 120 120 120 0.471876
7.601159 14.695616 6.628126 127 127 127 0.498022
9.098845 14.705873 5.680654 160 160 160 0.628190
10.645857 14.705873 4.738627 195 195 195 0.762815
12.178408 14.705873 3.772083 216 216 216 0.847343
4.573727 12.745089 8.703277 204 204 204 0.799029
5.942854 12.520476 7.782140 162 162 162 0.636285
7.371515 12.900845 6.785141 142 142 142 0.557811
8.949087 12.561348 5.877326 221 221 221 0.865644
10.619791 12.732307 4.855887 228 228 228 0.893718
12.000196 13.000751 3.993128 236 236 236 0.923967
13.802187 12.746067 2.962008 212 212 212 0.833172
4.554409 10.784305 8.670519 218 218 218 0.855427
6.037002 10.709766 7.672132 136 136 136 0.533180
7.394246 10.951141 6.854340 129 129 129 0.505954
8.851175 10.494409 5.980466 151 151 151 0.593355
10.482485 10.586780 5.033165 204 204 204 0.801024
12.314579 11.016801 3.891275 228 228 228 0.892609
14.062932 10.551363 2.889105 228 228 228 0.895575
15.342958 10.781259 2.002086 154 154 154 0.603243
4.583817 8.823521 8.720385 224 224 224 0.879760
6.182811 9.030379 7.576817 169 169 169 0.663836
7.729168 9.096546 6.597511 116 116 116 0.453012
9.140806 8.732444 5.881488 111 111 111 0.436229
10.535669 8.497112 5.139305 187 187 187 0.734622
12.117055 8.713034 4.188699 245 245 245 0.959930
13.782678 8.824820 3.104342 255 255 255 1.000000
15.386309 8.752825 1.993700 195 195 195 0.765341
16.783144 8.823521 0.884463 81 81 81 0.315920
4.621449 6.862737 8.784196 200 200 200 0.785275
6.081185 6.938181 7.681744 195 195 195 0.763064
7.749868 7.123266 6.634133 115 115 115 0.452166
9.554094 6.781178 5.677780 135 135 135 0.528221
11.049284 7.037556 4.833224 200 200 200 0.785499
12.416889 6.383088 4.100785 229 229 229 0.899016
13.811300 6.836137 3.142829 170 170 170 0.666339
15.351785 6.855910 2.099513 181 181 181 0.710898
16.876886 6.862737 1.043415 114 114 114 0.448364
4.627131 4.901953 8.793830 92 92 92 0.361769
6.075441 4.922203 7.695903 98 98 98 0.386133
7.425125 5.268304 6.835304 122 122 122 0.479240
8.826752 4.966116 6.063307 134 134 134 0.524530
10.551883 5.026787 5.088688 197 197 197 0.771807
12.100945 4.516697 4.329011 191 191 191 0.749271
13.769537 4.625153 3.337169 132 132 132 0.516374
15.378377 4.882649 2.261539 109 109 109 0.425752
16.885133 4.901928 1.127884 94 94 94 0.368287
4.664709 2.941169 8.857550 76 76 76 0.297423
6.144414 2.946818 7.802670 112 112 112 0.438412
7.731433 3.190431 6.718247 135 135 135 0.529935
9.416691 3.300073 5.828398 155 155 155 0.609550
10.733479 2.910464 5.066645 137 137 137 0.537135
12.329425 2.802074 4.233350 166 166 166 0.649616
13.972545 2.420866 3.321865 234 234 234 0.917813
15.462483 2.875147 2.364868 164 164 164 0.642058
16.957993 2.942983 1.256329 120 120 120 0.470943
4.691449 0.980384 8.902890 66 66 66 0.256955
5.861525 0.981763 8.101626 157 157 157 0.616969
7.256056 1.057985 7.060513 221 221 221 0.864901
8.978677 1.259823 6.082220 192 192 192 0.753464
10.723440 0.969414 5.165261 159 159 159 0.624938
12.331253 0.862502 4.247131 165 165 165 0.648956
14.018789 0.389884 3.367943 228 228 228 0.892737
15.537668 0.837612 2.375973 251 251 251 0.982614
16.986871 0.965602 1.275586 193 193 193 0.755250
4.643770 -0.980400 8.822044 147 147 147 0.576043
6.063602 -0.978487 7.843627 190 190 190 0.744548
7.725235 -1.074018 6.729774 221 221 221 0.867335
9.442388 -0.633362 5.879971 214 214 214 0.841121
10.880744 -0.981511 5.179433 148 148 148 0.579021
12.404021 -1.100228 4.315989 187 187 187 0.733944
14.037689 -1.594622 3.379021 216 216 216 0.845133
15.562297 -1.153984 2.388446 243 243 243 0.951595
16.811428 -0.765358 1.423265 182 182 182 0.715204
4.574604 -2.941184 8.704763 200 200 200 0.786043
6.027340 -2.929195 7.612165 213 213 213 0.833549
7.595889 -3.400398 6.668550 187 187 187 0.731845
9.406652 -2.724065 5.910830 170 170 170 0.667793
11.283947 -2.947153 4.988530 175 175 175 0.684879
12.756678 -2.791882 4.145961 167 167 167 0.655860
14.110940 -3.565258 3.356295 175 175 175 0.685373
15.593720 -3.124887 2.396798 218 218 218 0.854362
17.145380 -2.730522 1.166145 125 125 125 0.490944
4.486575 -4.901968 8.555498 228 228 228 0.893815
5.967107 -4.970124 7.593249 211 211 211 0.829058
7.531802 -5.471314 6.584493 199 199 199 0.778883
9.219146 -4.940279 5.878341 207 207 207 0.812966
10.899581 -4.832929 5.125962 212 212 212 0.831357
12.675410 -4.775360 4.180245 184 184 184 0.722218
14.128224 -5.090272 3.352360 143 143 143 0.561506
15.320700 -5.058716 2.643651 165 165 165 0.648749
16.720283 -4.864286 1.615177 146 146 146 0.574249
4.462387 -6.862751 8.514483 232 232 232 0.908930
6.279784 -6.968152 7.322626 240 240 240 0.941445
7.639961 -7.068181 6.531856 225 225 225 0.881570
9.052043 -7.142858 5.849767 236 236 236 0.924932
10.767341 -6.867240 5.060796 225 225 225 0.883303
12.422308 -6.792917 4.197228 175 175 175 0.685887
13.984861 -6.477020 3.355291 144 144 144 0.565561
15.453810 -6.886376 2.433525 163 163 163 0.637281
17.029093 -6.862751 1.301504 106 106 106 0.416013
4.466737 -8.823536 8.521860 199 199 199 0.780897
6.016837 -8.811382 7.543514 208 208 208 0.814813
7.567273 -8.524502 6.595232 212 212 212 0.831531
9.155284 -9.314411 5.851734 214 214 214 0.841013
10.722007 -8.892627 4.984551 214 214 214 0.840906
12.145063 -8.547532 4.251749 125 125 125 0.488834
13.735171 -8.550327 3.356347 117 117 117 0.458417
15.472007 -8.823536 2.226445 167 167 167 0.653097
16.929655 -8.823536 1.132892 149 149 149 0.582829
4.501389 -10.784320 8.580617 184 184 184 0.723272
6.054267 -10.777778 7.645238 175 175 175 0.688020
7.695015 -10.580015 6.614980 171 171 171 0.670651
9.219746 -10.916184 5.813958 134 134 134 0.523796
10.606379 -11.064194 4.964419 185 185 185 0.724444
12.267749 -10.309218 4.100783 125 125 125 0.489284
13.868367 -10.784320 3.072449 104 104 104 0.406435
15.392588 -10.784320 2.091779 135 135 135 0.529090
4.553267 -12.745104 8.668583 192 192 192 0.753604
5.757140 -12.742971 7.931983 191 191 191 0.750719
7.203669 -12.677489 6.975531 140 140 140 0.547332
9.011239 -12.778973 5.861529 150 150 150 0.587727
10.635874 -12.844015 4.876699 230 230 230 0.903006
12.236930 -12.745104 3.871316 202 202 202 0.793982
13.791691 -12.745104 2.942433 135 135 135 0.528871
4.580165 -14.705888 8.714194 65 65 65 0.255823
6.172700 -14.439708 7.597953 127 127 127 0.498511
7.562933 -14.705888 6.641497 129 129 129 0.506412
9.094985 -14.705888 5.674107 164 164 164 0.644556
10.682361 -14.705888 4.800525 245 245 245 0.960832
12.199896 -14.705888 3.808519 229 229 229 0.896589
4.588970 -16.666672 8.729123 91 91 91 0.354919
6.064935 -16.666672 7.666629 153 153 153 0.601513
7.539349 -16.666672 6.601506 163 163 163 0.640934
3 137 143 138
3 136 143 137
3 133 140 134
3 132 140 133
3 131 138 132
3 130 137 131
3 129 136 130
3 126 134 127
3 125 134 126
3 124 132 125
3 123 132 124
3 122 131 123
3 121 130 122
3 118 127 119
3 117 126 118
3 116 126 117
3 115 125 116
3 114 123 115
3 113 123 114
3 112 122 113
3 110 119 111
3 109 118 110
3 108 118 109
3 107 117 108
3 106 116 107
3 105 114 106
3 104 114 105
3 103 113 104
3 102 111 5
3 101 110 102
3 100 109 101
3 99 109 100
3 98 108 99
3 97 107 98
3 96 106 97
3 95 104 96
3 94 103 95
3 93 5 4
3 92 102 93
3 91 101 92
3 90 99 91
3 89 99 90
3 88 98 89
3 87 97 88
3 86 95 87
3 85 94 86
3 84 93 3
3 83 93 84
3 82 92 83
3 81 90 82
3 80 89 81
3 79 88 80
3 78 88 79
3 77 86 78
3 76 85 77
3 75 3 2
3 74 84 75
3 73 83 74
3 72 81 73
3 71 80 72
3 70 79 71
3 69 78 70
3 68 77 69
3 67 76 68
3 66 2 1
3 65 75 66
3 64 74 65
3 63 72 64
3 62 71 63
3 61 70 62
3 60 70 61
3 59 69 60
3 58 68 59
3 57 1 0
3 56 66 57
3 55 65 56
3 54 63 55
3 53 62 54
3 52 61 53
3 51 60 52
3 50 60 51
3 49 59 50
3 47 57 48
3 46 56 47
3 45 55 46
3 44 53 45
3 43 53 44
3 42 52 43
3 41 51 42
3 40 50 41
3 38 48 39
3 37 47 38
3 36 46 37
3 35 44 36
3 34 43 35
3 33 42 34
3 32 42 33
3 31 41 32
3 29 38 30
3 28 37 29
3 27 36 28
3 26 34 27
3 25 33 26
3 24 32 25
3 23 32 24
3 21 28 22
3 20 28 21
3 19 27 20
3 18 25 19
3 17 25 18
3 16 23 17
3 14 21 15
3 13 20 14
3 12 19 13
3 11 18 12
3 10 17 11
3 8 12 9
3 7 10 8
3 86 87 78
3 10 11 8
3 123 124 115
3 132 133 125
3 85 86 77
3 94 95 86
3 77 78 69
3 127 128 119
3 44 45 36
3 95 96 87
3 134 135 127
3 119 120 111
3 88 89 80
3 61 62 53
3 25 26 19
3 53 54 45
3 103 104 95
3 138 139 132
3 110 111 102
3 136 142 143
3 132 139 140
3 125 133 134
3 104 105 96
3 123 131 132
3 122 130 131
3 121 129 130
3 116 125 126
3 115 124 125
3 113 122 123
3 112 121 122
3 108 117 118
3 107 116 117
3 106 115 116
3 104 113 114
3 103 112 113
3 99 108 109
3 98 107 108
3 97 106 107
3 96 105 106
3 93 102 5
3 92 101 102
3 91 100 101
3 89 98 99
3 88 97 98
3 87 96 97
3 83 92 93
3 82 91 92
3 78 87 88
3 75 84 3
3 74 83 84
3 73 82 83
3 137 138 131
3 66 75 2
3 65 74 75
3 64 73 74
3 60 69 70
3 59 68 69
3 58 67 68
3 57 66 1
3 56 65 66
3 55 64 65
3 50 59 60
3 49 58 59
3 48 57 0
3 47 56 57
3 46 55 56
3 45 54 55
3 43 52 53
3 42 51 52
3 41 50 51
3 40 49 50
3 38 47 48
3 37 46 47
3 36 45 46
3 32 41 42
3 31 40 41
3 30 38 39
3 29 37 38
3 28 36 37
3 27 35 36
3 23 31 32
3 22 29 30
3 20 27 28
3 19 26 27
3 17 24 25
3 15 21 22
3 14 20 21
3 13 19 20
3 12 18 19
3 11 17 18
3 10 16 17
3 9 12 13
3 8 11 12
3 114 115 106
3 70 71 62
3 34 35 27
3 76 77 68
3 72 73 64
3 111 6 5
3 143 144 138
3 89 90 81
3 109 110 101
3 126 127 118
3 118 119 110
3 78 79 70
3 62 63 54
3 23 24 17
3 79 80 71
3 42 43 34
3 71 72 63
3 60 61 52
3 140 141 134
3 43 44 35
3 136 137 130
3 90 91 82
3 33 34 26
3 99 100 91
3 93 4 3
3 28 29 22
3 63 64 55
3 80 81 72
3 81 82 73
3 32 33 25
