ply
format ascii 1.0
comment openVA ply exporter, (c) Peter Felfer, The University of Sydney 2013, Rhett MPIE modified 2019
comment 25.4 to 93.2 atom percentage
element vertex 90
property float x
property float y
property float z
property uchar red
property uchar green
property uchar blue
property float value
element face 136
property list uchar uint vertex_indices
end_header
-5.013485 16.666656 8.604342 197 197 197 0.773939
-5.011189 14.705873 8.637652 131 131 131 0.513659
-5.011209 12.745089 8.637373 215 215 215 0.843936
-5.010171 10.784305 8.652430 209 209 209 0.821196
-5.013418 8.823521 8.605315 145 145 145 0.570280
-5.006847 6.862737 8.700651 52 52 52 0.202726
-5.002038 4.901953 8.770434 27 27 27 0.104312
-5.006749 2.941169 8.702079 27 27 27 0.107649
-5.000230 0.980384 8.796668 58 58 58 0.226090
-4.986497 -0.980400 8.995914 46 46 46 0.180736
-4.980085 -2.941184 9.088941 147 147 147 0.577219
-4.971642 -4.901968 9.211446 145 145 145 0.567689
-4.986315 -6.861062 8.998548 103 103 103 0.404482
-4.998670 -8.823536 8.819300 93 93 93 0.364525
-4.998967 -10.784320 8.814985 206 206 206 0.809397
-4.990463 -12.745104 8.938367 226 226 226 0.887550
-4.983758 -14.705888 9.035651 214 214 214 0.837554
-4.989449 -16.666672 8.953091 112 112 112 0.440625
-3.394090 16.666656 8.900893 78 78 78 0.305160
-1.793403 16.666656 9.054021 40 40 40 0.157812
-0.188382 16.666656 9.163805 130 130 130 0.508986
1.430764 16.666656 9.132321 219 219 219 0.859206
-3.055055 14.705739 8.987997 112 112 112 0.438668
-1.685705 14.706381 9.152438 78 78 78 0.306513
-0.544137 14.704565 9.158918 148 148 148 0.578744
1.421644 14.705873 9.223534 202 202 202 0.792701
-3.726709 12.790271 8.844217 190 190 190 0.745986
-1.882293 12.674478 9.072767 159 159 159 0.623329
0.109435 12.784439 9.121604 199 199 199 0.779431
1.421350 12.745089 9.226469 179 179 179 0.702661
-3.103236 10.815398 8.958549 221 221 221 0.866765
-1.493631 10.482909 9.090218 112 112 112 0.438121
-0.123792 10.822473 9.110481 180 180 180 0.707334
1.418496 10.784305 9.255020 135 135 135 0.529655
-3.532818 8.686549 8.836453 199 199 199 0.780966
-2.006479 8.992518 9.086749 199 199 199 0.781138
-0.538483 8.753223 9.127275 92 92 92 0.359943
1.418813 8.823521 9.251852 123 123 123 0.482495
-3.413519 6.387691 8.885502 132 132 132 0.517159
-1.758210 7.011183 9.078216 127 127 127 0.499974
0.010465 7.166731 9.125549 179 179 179 0.702763
1.412344 6.862737 9.316546 160 160 160 0.627227
-3.161982 4.488814 8.922715 106 106 106 0.416130
-1.936676 5.118339 9.021663 113 113 113 0.441195
-0.379873 5.181368 9.208336 185 185 185 0.723995
1.404058 4.901953 9.399415 196 196 196 0.769910
-3.558151 2.680351 8.972589 159 159 159 0.625329
-1.642893 3.106352 9.096118 167 167 167 0.652961
0.160550 3.059435 9.367831 233 233 233 0.913454
1.384573 2.941169 9.594285 179 179 179 0.701402
-3.423317 0.471931 9.088548 78 78 78 0.307501
-1.845753 0.988445 9.125209 71 71 71 0.277577
-0.171613 1.071895 9.270715 192 192 192 0.752880
1.384821 0.980384 9.591812 212 212 212 0.832677
-3.407987 -1.561136 9.226916 154 154 154 0.604290
-1.816124 -1.098684 9.248361 52 52 52 0.205395
-0.214893 -0.950389 9.245599 103 103 103 0.403791
1.389203 -0.980400 9.547981 181 181 181 0.708040
-3.647142 -3.379127 9.303712 147 147 147 0.578302
-2.188832 -3.079779 9.314939 129 129 129 0.505528
-0.440873 -3.131878 9.209050 0 0 0 0.000000
1.401460 -2.941184 9.425402 165 165 165 0.647953
-3.257319 -4.795979 9.301471 154 154 154 0.603575
-1.852130 -4.953284 9.220140 72 72 72 0.282647
-0.456486 -5.226967 9.188072 35 35 35 0.136607
1.414287 -4.901968 9.297117 24 24 24 0.095370
-3.412014 -6.424034 9.235962 13 13 13 0.051007
-1.909238 -6.926658 9.174603 14 14 14 0.053343
-0.065149 -7.098893 9.112804 151 151 151 0.593738
1.424310 -6.862751 9.196870 211 211 211 0.825858
-3.268947 -8.540246 8.958854 164 164 164 0.644517
-1.547747 -8.551583 9.114515 209 209 209 0.820885
-0.134002 -9.323906 9.145227 247 247 247 0.968534
1.425386 -8.823536 9.186105 243 243 243 0.954354
-3.534559 -10.877224 8.974611 182 182 182 0.715626
-1.707404 -10.554802 9.068113 246 246 246 0.963717
-0.148962 -10.913101 9.114351 255 255 255 1.000000
1.416599 -10.784320 9.273993 248 248 248 0.971801
-3.408585 -13.205927 9.064580 163 163 163 0.640618
-1.846510 -12.697519 9.051743 172 172 172 0.673193
-0.203521 -12.257140 9.140891 219 219 219 0.859812
1.413317 -12.745104 9.306812 230 230 230 0.900649
-3.396847 -14.859592 9.074813 186 186 186 0.729789
-2.128037 -14.770804 9.089012 42 42 42 0.163492
-0.277748 -14.576069 9.133007 184 184 184 0.722146
1.416972 -14.705888 9.270259 242 242 242 0.949142
-3.407632 -16.666672 9.036328 174 174 174 0.681521
-1.796359 -16.666672 9.083589 152 152 152 0.594923
-0.178231 -16.666672 9.062283 158 158 158 0.618290
1.416009 -16.666672 9.279894 210 210 210 0.824066
3 0 1 18
3 1 26 22
3 2 3 26
3 3 34 30
3 4 5 34
3 5 6 38
3 6 46 42
3 7 8 46
3 8 9 50
3 9 10 54
3 10 11 58
3 11 66 62
3 12 70 66
3 13 74 70
3 14 15 74
3 15 16 78
3 16 86 82
3 84 89 85
3 83 87 84
3 82 86 83
3 80 84 81
3 79 84 80
3 78 83 79
3 76 80 77
3 75 80 76
3 74 79 75
3 72 77 73
3 71 75 72
3 70 75 71
3 68 73 69
3 67 71 68
3 66 70 67
3 64 68 65
3 63 67 64
3 62 66 63
3 60 65 61
3 59 63 60
3 58 62 59
3 56 61 57
3 55 60 56
3 54 59 55
3 52 57 53
3 51 56 52
3 50 55 51
3 48 53 49
3 47 52 48
3 46 51 47
3 44 48 45
3 43 47 44
3 42 47 43
3 40 44 41
3 39 44 40
3 38 43 39
3 36 40 37
3 35 39 36
3 34 39 35
3 32 37 33
3 31 36 32
3 30 35 31
3 28 33 29
3 27 32 28
3 26 30 27
3 24 28 25
3 23 27 24
3 22 27 23
3 20 25 21
3 19 24 20
3 18 22 19
3 15 78 74
3 1 2 26
3 3 4 34
3 6 7 46
3 11 12 66
3 12 13 70
3 13 14 74
3 16 17 86
3 10 58 54
3 67 68 64
3 86 87 83
3 84 88 89
3 79 83 84
3 78 82 83
3 75 79 80
3 74 78 79
3 72 76 77
3 70 74 75
3 68 72 73
3 60 64 65
3 56 60 61
3 55 59 60
3 54 58 59
3 52 56 57
3 51 55 56
3 50 54 55
3 48 52 53
3 47 51 52
3 46 50 51
3 42 46 47
3 39 43 44
3 38 42 43
3 34 38 39
3 32 36 37
3 31 35 36
3 30 34 35
3 28 32 33
3 27 31 32
3 44 45 41
3 22 26 27
3 20 24 25
3 19 23 24
3 6 42 38
3 8 50 46
3 28 29 25
3 27 28 24
3 47 48 44
3 87 88 84
3 62 63 59
3 1 22 18
3 80 81 77
3 11 62 58
3 75 76 72
3 40 41 37
3 30 31 27
3 48 49 45
3 9 54 50
3 16 82 78
3 5 38 34
3 3 30 26
3 66 67 63
3 22 23 19
3 63 64 60
3 84 85 81
3 71 72 68
3 68 69 65
3 70 71 67
3 39 40 36
