ply
format ascii 1.0
comment openVA ply exporter, (c) Peter Felfer, The University of Sydney 2013, Rhett MPIE modified 2019
comment 36.5 to 229 atoms/nm2
element vertex 90
property float x
property float y
property float z
property uchar red
property uchar green
property uchar blue
property float value
element face 136
property list uchar uint vertex_indices
end_header
-5.013485 16.666656 8.604342 255 255 255 1.000000
-5.011189 14.705873 8.637652 185 185 185 0.725021
-5.011209 12.745089 8.637373 239 239 239 0.938676
-5.010171 10.784305 8.652430 193 193 193 0.756629
-5.013418 8.823521 8.605315 203 203 203 0.795093
-5.006847 6.862737 8.700651 194 194 194 0.762025
-5.002038 4.901953 8.770434 87 87 87 0.342142
-5.006749 2.941169 8.702079 91 91 91 0.358171
-5.000230 0.980384 8.796668 105 105 105 0.413230
-4.986497 -0.980400 8.995914 156 156 156 0.611337
-4.980085 -2.941184 9.088941 136 136 136 0.531826
-4.971642 -4.901968 9.211446 237 237 237 0.927498
-4.986315 -6.861062 8.998548 240 240 240 0.939904
-4.998670 -8.823536 8.819300 142 142 142 0.555502
-4.998967 -10.784320 8.814985 161 161 161 0.630002
-4.990463 -12.745104 8.938367 212 212 212 0.831294
-4.983758 -14.705888 9.035651 218 218 218 0.853290
-4.989449 -16.666672 8.953091 106 106 106 0.416488
-3.394090 16.666656 8.900893 73 73 73 0.287023
-1.793403 16.666656 9.054021 1 1 1 0.002780
-0.188382 16.666656 9.163805 38 38 38 0.149741
1.430764 16.666656 9.132321 92 92 92 0.361794
-3.055055 14.705739 8.987997 40 40 40 0.158309
-1.685705 14.706381 9.152438 0 0 0 0.000000
-0.544137 14.704565 9.158918 33 33 33 0.129474
1.421644 14.705873 9.223534 68 68 68 0.267653
-3.726709 12.790271 8.844217 96 96 96 0.376759
-1.882293 12.674478 9.072767 40 40 40 0.157233
0.109435 12.784439 9.121604 56 56 56 0.220040
1.421350 12.745089 9.226469 50 50 50 0.195463
-3.103236 10.815398 8.958549 74 74 74 0.290007
-1.493631 10.482909 9.090218 32 32 32 0.126296
-0.123792 10.822473 9.110481 52 52 52 0.204846
1.418496 10.784305 9.255020 33 33 33 0.131279
-3.532818 8.686549 8.836453 131 131 131 0.511865
-2.006479 8.992518 9.086749 63 63 63 0.247431
-0.538483 8.753223 9.127275 31 31 31 0.121978
1.418813 8.823521 9.251852 29 29 29 0.112282
-3.413519 6.387691 8.885502 58 58 58 0.226498
-1.758210 7.011183 9.078216 29 29 29 0.111993
0.010465 7.166731 9.125549 42 42 42 0.165808
1.412344 6.862737 9.316546 42 42 42 0.166267
-3.161982 4.488814 8.922715 28 28 28 0.110688
-1.936676 5.118339 9.021663 17 17 17 0.065828
-0.379873 5.181368 9.208336 42 42 42 0.164057
1.404058 4.901953 9.399415 54 54 54 0.210733
-3.558151 2.680351 8.972589 73 73 73 0.286201
-1.642893 3.106352 9.096118 53 53 53 0.208660
0.160550 3.059435 9.367831 71 71 71 0.277610
1.384573 2.941169 9.594285 45 45 45 0.175824
-3.423317 0.471931 9.088548 49 49 49 0.193246
-1.845753 0.988445 9.125209 54 54 54 0.210399
-0.171613 1.071895 9.270715 63 63 63 0.246387
1.384821 0.980384 9.591812 61 61 61 0.240513
-3.407987 -1.561136 9.226916 70 70 70 0.273412
-1.816124 -1.098684 9.248361 35 35 35 0.137905
-0.214893 -0.950389 9.245599 45 45 45 0.175532
1.389203 -0.980400 9.547981 42 42 42 0.164163
-3.647142 -3.379127 9.303712 92 92 92 0.362555
-2.188832 -3.079779 9.314939 36 36 36 0.141154
-0.440873 -3.131878 9.209050 17 17 17 0.068297
1.401460 -2.941184 9.425402 58 58 58 0.227975
-3.257319 -4.795979 9.301471 67 67 67 0.260865
-1.852130 -4.953284 9.220140 19 19 19 0.074873
-0.456486 -5.226967 9.188072 8 8 8 0.032484
1.414287 -4.901968 9.297117 36 36 36 0.141928
-3.412014 -6.424034 9.235962 56 56 56 0.219171
-1.909238 -6.926658 9.174603 40 40 40 0.157532
-0.065149 -7.098893 9.112804 46 46 46 0.180165
1.424310 -6.862751 9.196870 71 71 71 0.277403
-3.268947 -8.540246 8.958854 78 78 78 0.307142
-1.547747 -8.551583 9.114515 65 65 65 0.256662
-0.134002 -9.323906 9.145227 81 81 81 0.316867
1.425386 -8.823536 9.186105 74 74 74 0.289939
-3.534559 -10.877224 8.974611 85 85 85 0.332044
-1.707404 -10.554802 9.068113 81 81 81 0.318923
-0.148962 -10.913101 9.114351 80 80 80 0.314784
1.416599 -10.784320 9.273993 77 77 77 0.300768
-3.408585 -13.205927 9.064580 87 87 87 0.340755
-1.846510 -12.697519 9.051743 49 49 49 0.190227
-0.203521 -12.257140 9.140891 66 66 66 0.258012
1.413317 -12.745104 9.306812 65 65 65 0.253704
-3.396847 -14.859592 9.074813 113 113 113 0.442611
-2.128037 -14.770804 9.089012 26 26 26 0.103780
-0.277748 -14.576069 9.133007 41 41 41 0.160082
1.416972 -14.705888 9.270259 68 68 68 0.267160
-3.407632 -16.666672 9.036328 99 99 99 0.388499
-1.796359 -16.666672 9.083589 34 34 34 0.134848
-0.178231 -16.666672 9.062283 27 27 27 0.105644
1.416009 -16.666672 9.279894 51 51 51 0.200168
3 0 1 18
3 1 26 22
3 2 3 26
3 3 34 30
3 4 5 34
3 5 6 38
3 6 46 42
3 7 8 46
3 8 9 50
3 9 10 54
3 10 11 58
3 11 66 62
3 12 70 66
3 13 74 70
3 14 15 74
3 15 16 78
3 16 86 82
3 84 89 85
3 83 87 84
3 82 86 83
3 80 84 81
3 79 84 80
3 78 83 79
3 76 80 77
3 75 80 76
3 74 79 75
3 72 77 73
3 71 75 72
3 70 75 71
3 68 73 69
3 67 71 68
3 66 70 67
3 64 68 65
3 63 67 64
3 62 66 63
3 60 65 61
3 59 63 60
3 58 62 59
3 56 61 57
3 55 60 56
3 54 59 55
3 52 57 53
3 51 56 52
3 50 55 51
3 48 53 49
3 47 52 48
3 46 51 47
3 44 48 45
3 43 47 44
3 42 47 43
3 40 44 41
3 39 44 40
3 38 43 39
3 36 40 37
3 35 39 36
3 34 39 35
3 32 37 33
3 31 36 32
3 30 35 31
3 28 33 29
3 27 32 28
3 26 30 27
3 24 28 25
3 23 27 24
3 22 27 23
3 20 25 21
3 19 24 20
3 18 22 19
3 15 78 74
3 1 2 26
3 3 4 34
3 6 7 46
3 11 12 66
3 12 13 70
3 13 14 74
3 16 17 86
3 10 58 54
3 67 68 64
3 86 87 83
3 84 88 89
3 79 83 84
3 78 82 83
3 75 79 80
3 74 78 79
3 72 76 77
3 70 74 75
3 68 72 73
3 60 64 65
3 56 60 61
3 55 59 60
3 54 58 59
3 52 56 57
3 51 55 56
3 50 54 55
3 48 52 53
3 47 51 52
3 46 50 51
3 42 46 47
3 39 43 44
3 38 42 43
3 34 38 39
3 32 36 37
3 31 35 36
3 30 34 35
3 28 32 33
3 27 31 32
3 44 45 41
3 22 26 27
3 20 24 25
3 19 23 24
3 6 42 38
3 8 50 46
3 28 29 25
3 27 28 24
3 47 48 44
3 87 88 84
3 62 63 59
3 1 22 18
3 80 81 77
3 11 62 58
3 75 76 72
3 40 41 37
3 30 31 27
3 48 49 45
3 9 54 50
3 16 82 78
3 5 38 34
3 3 30 26
3 66 67 63
3 22 23 19
3 63 64 60
3 84 85 81
3 71 72 68
3 68 69 65
3 70 71 67
3 39 40 36
