ply
format ascii 1.0
comment openVA ply exporter, (c) Peter Felfer, The University of Sydney 2013, Rhett MPIE modified 2019
comment 14.2 to 93.1 atom percentage
element vertex 157
property float x
property float y
property float z
property uchar red
property uchar green
property uchar blue
property float value
element face 256
property list uchar uint vertex_indices
end_header
-10.188074 8.823521 -34.341820 77 77 77 0.302233
-10.063646 6.862737 -34.457294 116 116 116 0.453027
-9.966142 4.901953 -34.547783 51 51 51 0.199658
-9.966961 2.941169 -34.547024 95 95 95 0.374372
-9.951629 0.980384 -34.561253 164 164 164 0.643899
-9.917093 -0.980400 -34.593304 145 145 145 0.568858
-9.942080 -2.941184 -34.570114 167 167 167 0.654829
-9.921417 -4.901968 -34.589291 132 132 132 0.519252
-10.065672 -6.862751 -34.455414 88 88 88 0.346831
-10.090530 -8.823536 -34.432343 52 52 52 0.205232
-10.107059 -10.784320 -34.417004 26 26 26 0.103549
-10.115007 -12.745104 -34.409630 69 69 69 0.270342
-10.055248 -14.705888 -34.465088 141 141 141 0.552812
-10.054656 -16.666672 -34.465637 70 70 70 0.276089
-8.537819 22.549011 -33.351276 21 21 21 0.083105
-7.187952 22.549011 -32.081959 84 84 84 0.330733
-5.670361 22.549011 -30.968300 142 142 142 0.556606
-4.423647 22.549011 -29.603252 64 64 64 0.250458
-3.224274 22.549011 -28.194271 164 164 164 0.642940
-1.986401 22.549011 -26.821020 212 212 212 0.830816
-8.576792 20.588226 -33.315109 18 18 18 0.071579
-7.244400 20.588801 -32.023866 137 137 137 0.535869
-5.846244 20.593647 -30.807421 191 191 191 0.748809
-4.496567 21.023314 -29.537946 87 87 87 0.339271
-3.281887 20.614605 -28.199592 78 78 78 0.304704
-2.078929 20.588226 -26.735149 208 208 208 0.816029
-8.621315 18.627441 -33.273788 52 52 52 0.205421
-7.375210 18.441526 -32.147875 87 87 87 0.340890
-5.917083 18.615132 -30.836595 134 134 134 0.525405
-4.592319 19.170599 -29.481362 155 155 155 0.606521
-3.270247 18.492257 -27.997202 198 198 198 0.774764
-2.087229 18.627441 -26.727448 247 247 247 0.970263
-8.596175 16.666656 -33.297119 119 119 119 0.468511
-7.051672 16.346329 -31.893101 185 185 185 0.725285
-5.919359 16.632947 -30.725711 180 180 180 0.707716
-4.519759 16.993551 -29.282100 172 172 172 0.674613
-3.336441 16.675782 -27.990041 104 104 104 0.407305
-2.103766 16.666656 -26.712099 194 194 194 0.762522
-8.618576 14.705873 -33.276329 31 31 31 0.120650
-7.416740 14.905868 -32.204348 89 89 89 0.349338
-6.218822 14.620903 -31.042704 93 93 93 0.364336
-4.830819 14.621240 -29.578415 197 197 197 0.771215
-3.448454 15.186522 -28.102383 138 138 138 0.541438
-2.176502 14.705873 -26.644596 160 160 160 0.626379
-8.692097 12.745089 -33.208099 123 123 123 0.483422
-7.143961 12.927703 -31.983069 62 62 62 0.244710
-5.723397 13.014363 -30.660208 114 114 114 0.445495
-4.581081 12.292612 -29.455453 170 170 170 0.665192
-3.377800 13.040409 -27.947895 69 69 69 0.269753
-2.168470 12.745089 -26.652050 50 50 50 0.197848
-8.697001 10.784305 -33.203548 105 105 105 0.412340
-7.263467 10.848952 -32.002279 80 80 80 0.314022
-5.867424 11.265396 -30.839649 109 109 109 0.428715
-4.834220 10.436331 -29.674283 125 125 125 0.490512
-3.656017 10.790425 -28.375772 80 80 80 0.315238
-2.222426 10.784305 -26.601976 63 63 63 0.246886
-8.733962 8.823521 -33.169247 150 150 150 0.586897
-7.586031 8.842992 -32.267937 187 187 187 0.734885
-6.013127 8.876118 -30.892167 137 137 137 0.538779
-4.434399 8.731778 -29.172264 136 136 136 0.531765
-3.223908 9.144366 -27.791744 159 159 159 0.622304
-2.219051 8.823521 -26.605110 130 130 130 0.509184
-8.695930 6.818223 -33.291948 217 217 217 0.850712
-7.310201 6.902396 -32.053845 226 226 226 0.884445
-5.904428 6.451353 -30.812501 156 156 156 0.610996
-4.658796 6.875531 -29.486222 192 192 192 0.754224
-3.364270 7.336317 -27.996172 192 192 192 0.751427
-2.253317 6.862737 -26.573309 83 83 83 0.324032
-8.616283 4.896891 -33.290884 217 217 217 0.851303
-7.275567 4.848038 -32.080700 248 248 248 0.973155
-5.882034 4.344558 -30.794838 243 243 243 0.951651
-4.806841 5.038121 -29.631299 236 236 236 0.927081
-3.425311 5.029226 -28.104911 217 217 217 0.849510
-2.299300 4.901953 -26.530634 147 147 147 0.575351
-8.594049 2.925074 -33.322905 234 234 234 0.918013
-7.137565 2.659351 -31.960244 244 244 244 0.958111
-5.653757 2.461232 -30.556448 196 196 196 0.767322
-4.452540 3.108723 -29.248474 220 220 220 0.863763
-3.198681 2.726190 -27.797753 173 173 173 0.679681
-2.224863 2.941169 -26.599716 108 108 108 0.422215
-8.579940 0.945146 -33.328528 235 235 235 0.923292
-7.403200 0.626295 -32.217044 227 227 227 0.891743
-6.209305 0.818080 -31.081802 178 178 178 0.698271
-4.737307 0.749721 -29.562995 167 167 167 0.654097
-3.415114 0.949566 -28.070494 186 186 186 0.730639
-2.162013 0.980384 -26.658043 107 107 107 0.418044
-8.275271 -1.073965 -33.112787 236 236 236 0.924754
-6.891489 -1.133442 -31.736737 217 217 217 0.852149
-5.685915 -0.766833 -30.555561 176 176 176 0.690162
-4.571958 -1.490352 -29.412328 65 65 65 0.256658
-3.577105 -0.799508 -28.285178 214 214 214 0.840416
-2.100913 -0.980400 -26.714748 212 212 212 0.830700
-8.517209 -2.926431 -33.348586 210 210 210 0.822051
-7.176305 -2.985454 -31.956877 176 176 176 0.689851
-5.714140 -2.818005 -30.577716 136 136 136 0.531642
-4.336647 -3.364671 -29.193816 133 133 133 0.522335
-3.270047 -2.513038 -28.025117 203 203 203 0.795941
-2.046273 -2.941184 -26.765455 224 224 224 0.879749
-8.572005 -4.894961 -33.319847 210 210 210 0.824104
-7.227753 -4.902225 -32.036211 188 188 188 0.737824
-5.891649 -4.858076 -30.708497 125 125 125 0.490271
-4.754327 -4.706385 -29.564176 138 138 138 0.539601
-3.302960 -4.882440 -28.079211 140 140 140 0.550437
-2.038654 -4.901968 -26.772528 199 199 199 0.779435
-8.591093 -6.862127 -33.311478 161 161 161 0.629856
-7.281693 -6.859919 -31.996889 236 236 236 0.923637
-5.937577 -6.847165 -30.716679 184 184 184 0.720309
-4.493552 -6.617952 -29.288725 77 77 77 0.303494
-3.262715 -6.817282 -28.069581 32 32 32 0.123650
-2.074305 -6.862751 -26.739441 22 22 22 0.085279
-8.638589 -8.822009 -33.263500 100 100 100 0.391868
-7.426827 -8.560740 -32.203120 191 191 191 0.750587
-6.314811 -8.814868 -31.016090 217 217 217 0.852825
-4.845664 -8.914723 -29.591082 85 85 85 0.332284
-3.389002 -8.371054 -28.150508 20 20 20 0.076901
-2.191811 -8.823536 -26.630390 0 0 0 0.000000
-8.633081 -10.783059 -33.273408 101 101 101 0.395280
-7.316506 -10.321804 -32.080175 159 159 159 0.623673
-6.032697 -10.752664 -30.833313 138 138 138 0.541582
-4.694451 -11.233591 -29.453049 26 26 26 0.102454
-3.464901 -10.270149 -28.122394 15 15 15 0.060079
-2.132166 -10.784320 -26.685743 16 16 16 0.062697
-8.966090 -12.745898 -33.518010 165 165 165 0.645623
-7.468315 -12.464592 -32.221259 167 167 167 0.654530
-5.853796 -12.951838 -30.783479 63 63 63 0.247641
-4.360836 -13.172681 -29.300808 103 103 103 0.402062
-3.311357 -12.227907 -28.056126 76 76 76 0.299828
-2.028299 -12.745104 -26.782137 109 109 109 0.429161
-8.625983 -14.637695 -33.340696 174 174 174 0.683920
-7.277805 -14.626742 -32.082810 101 101 101 0.394439
-6.062288 -15.022256 -30.989566 41 41 41 0.160299
-4.883969 -14.833572 -29.830728 136 136 136 0.534718
-3.310145 -14.665052 -28.168484 192 192 192 0.753410
-2.026495 -14.705888 -26.783812 161 161 161 0.630578
-8.272246 -16.635568 -33.063066 204 204 204 0.799123
-6.836587 -16.726498 -31.784848 97 97 97 0.381429
-5.486786 -16.798934 -30.492107 53 53 53 0.206830
-4.196681 -16.646498 -29.130599 135 135 135 0.528733
-3.131346 -16.650686 -28.062650 221 221 221 0.867173
-2.011549 -16.666672 -26.797682 116 116 116 0.453930
-8.554860 -18.627457 -33.335461 188 188 188 0.736514
-7.428131 -18.628739 -32.300478 237 237 237 0.929764
-6.131856 -18.669747 -31.089698 190 190 190 0.746687
-4.650620 -18.822923 -29.632885 124 124 124 0.487729
-3.282355 -18.260662 -28.123426 202 202 202 0.792108
-2.054036 -18.627457 -26.758251 109 109 109 0.427527
-8.508015 -20.588242 -33.378937 218 218 218 0.854950
-7.050786 -20.348150 -32.010239 217 217 217 0.851219
-5.673283 -20.787217 -30.791998 105 105 105 0.413312
-4.311980 -20.943064 -29.333631 168 168 168 0.658298
-3.149905 -20.320679 -28.014678 230 230 230 0.901907
-1.988623 -20.588242 -26.818958 221 221 221 0.864890
-7.002998 -22.549026 -32.253605 119 119 119 0.468516
-5.683404 -22.549026 -30.956196 45 45 45 0.177628
-4.437010 -22.549026 -29.590851 140 140 140 0.548870
-3.210713 -22.549026 -28.206858 241 241 241 0.944090
-1.987608 -22.549026 -26.819901 255 255 255 1.000000
3 0 1 56
3 1 2 62
3 2 3 68
3 3 4 74
3 4 5 80
3 5 92 86
3 6 98 92
3 7 104 98
3 8 110 104
3 9 116 110
3 10 122 116
3 11 12 122
3 12 13 128
3 13 140 134
3 150 156 151
3 149 155 150
3 148 154 149
3 147 152 148
3 146 152 147
3 144 150 145
3 143 150 144
3 142 148 143
3 141 147 142
3 140 146 141
3 138 144 139
3 137 144 138
3 136 143 137
3 135 142 136
3 134 141 135
3 132 139 133
3 131 137 132
3 130 136 131
3 129 135 130
3 128 134 129
3 126 132 127
3 125 132 126
3 124 131 125
3 123 129 124
3 122 128 123
3 120 126 121
3 119 126 120
3 118 124 119
3 117 123 118
3 116 123 117
3 114 120 115
3 113 120 114
3 112 118 113
3 111 117 112
3 110 117 111
3 108 114 109
3 107 114 108
3 106 113 107
3 105 112 106
3 104 111 105
3 102 109 103
3 101 107 102
3 100 107 101
3 99 106 100
3 98 105 99
3 96 102 97
3 95 102 96
3 94 101 95
3 93 100 94
3 92 99 93
3 90 96 91
3 89 96 90
3 88 94 89
3 87 94 88
3 86 93 87
3 84 91 85
3 83 90 84
3 82 88 83
3 81 87 82
3 80 86 81
3 78 85 79
3 77 84 78
3 76 83 77
3 75 82 76
3 74 80 75
3 72 79 73
3 71 77 72
3 70 77 71
3 69 75 70
3 68 74 69
3 66 72 67
3 65 72 66
3 64 71 65
3 63 69 64
3 62 68 63
3 60 66 61
3 59 66 60
3 58 65 59
3 57 63 58
3 56 62 57
3 54 60 55
3 53 59 54
3 52 58 53
3 51 58 52
3 50 57 51
3 48 55 49
3 47 54 48
3 46 52 47
3 45 52 46
3 44 51 45
3 42 48 43
3 41 48 42
3 40 46 41
3 39 45 40
3 38 45 39
3 36 42 37
3 35 42 36
3 34 41 35
3 33 40 34
3 32 39 33
3 30 37 31
3 29 35 30
3 28 35 29
3 27 34 28
3 26 32 27
3 24 30 25
3 23 29 24
3 22 29 23
3 21 28 22
3 20 27 21
3 18 24 19
3 17 23 18
3 16 23 17
3 15 22 16
3 14 21 15
3 5 6 92
3 6 7 98
3 7 8 104
3 8 9 110
3 9 10 116
3 10 11 122
3 60 61 55
3 152 153 148
3 74 75 69
3 72 73 67
3 128 129 123
3 12 128 122
3 62 63 57
3 114 115 109
3 69 70 64
3 147 148 142
3 150 155 156
3 149 154 155
3 148 153 154
3 143 149 150
3 137 143 144
3 136 142 143
3 135 141 142
3 134 140 141
3 132 138 139
3 125 131 132
3 124 130 131
3 119 125 126
3 116 122 123
3 113 119 120
3 110 116 117
3 107 113 114
3 106 112 113
3 105 111 112
3 104 110 111
3 102 108 109
3 100 106 107
3 99 105 106
3 98 104 105
3 95 101 102
3 94 100 101
3 93 99 100
3 92 98 99
3 89 95 96
3 87 93 94
3 86 92 93
3 84 90 91
3 83 89 90
3 78 84 85
3 77 83 84
3 76 82 83
3 75 81 82
3 35 36 30
3 72 78 79
3 70 76 77
3 65 71 72
3 64 70 71
3 134 135 129
3 59 65 66
3 58 64 65
3 51 57 58
3 50 56 57
3 48 54 55
3 47 53 54
3 45 51 52
3 44 50 51
3 41 47 48
3 38 44 45
3 35 41 42
3 34 40 41
3 33 39 40
3 32 38 39
3 30 36 37
3 28 34 35
3 27 33 34
3 22 28 29
3 21 27 28
3 20 26 27
3 16 22 23
3 15 21 22
3 14 20 21
3 32 33 27
3 4 80 74
3 123 124 118
3 59 60 54
3 46 47 41
3 5 86 80
3 3 74 68
3 24 25 19
3 129 130 124
3 1 62 56
3 148 149 143
3 136 137 131
3 80 81 75
3 146 147 141
3 102 103 97
3 75 76 70
3 118 119 113
3 45 46 40
3 124 125 119
3 66 67 61
3 88 89 83
3 23 24 18
3 94 95 89
3 126 127 121
3 52 53 47
3 77 78 72
3 68 69 63
3 150 151 145
3 2 68 62
3 30 31 25
3 29 30 24
3 63 64 58
3 120 121 115
3 58 59 53
3 144 145 139
3 117 118 112
3 42 43 37
3 86 87 81
3 135 136 130
3 13 134 128
3 48 49 43
3 107 108 102
3 132 133 127
3 96 97 91
3 137 138 132
3 87 88 82
