ply
format ascii 1.0
comment openVA ply exporter, (c) Peter Felfer, The University of Sydney 2013, Rhett MPIE modified 2019
comment 22.1 to 90.4 atom percentage
element vertex 294
property float x
property float y
property float z
property uchar red
property uchar green
property uchar blue
property float value
element face 517
property list uchar uint vertex_indices
end_header
-14.812491 12.745089 -0.638040 32 32 32 0.125215
-14.797329 10.784305 -0.565151 123 123 123 0.482285
-14.800510 8.823521 -0.368473 103 103 103 0.403791
-14.802990 6.862737 -0.215165 170 170 170 0.665477
-14.802442 4.901953 -0.249072 131 131 131 0.512546
-14.802029 2.941169 -0.274581 86 86 86 0.338242
-14.800845 0.980384 -0.347768 191 191 191 0.750654
-14.798562 -0.980400 -0.488878 238 238 238 0.934246
-14.797232 -2.941184 -0.571141 164 164 164 0.644354
-14.796596 -4.901968 -0.610453 205 205 205 0.802942
-14.797051 -6.862751 -0.582249 237 237 237 0.928152
-14.799292 -8.823536 -0.443784 123 123 123 0.483061
-14.792505 -10.784320 -0.232419 126 126 126 0.495697
-14.750834 -12.745104 -0.081639 150 150 150 0.588163
-2.641749 22.549011 -22.052711 151 151 151 0.590743
-1.892202 22.549011 -23.822302 117 117 117 0.460280
-6.281374 20.588226 -15.333570 26 26 26 0.100803
-5.454515 20.588226 -17.059862 16 16 16 0.061103
-4.544065 20.588226 -18.739344 150 150 150 0.588993
-3.525322 20.588226 -20.358179 217 217 217 0.852699
-2.642118 20.588226 -22.052917 181 181 181 0.707876
-1.839170 20.588226 -23.792603 44 44 44 0.170710
-9.266506 18.627441 -10.437244 221 221 221 0.865530
-8.283482 18.627441 -12.076084 161 161 161 0.631468
-7.328605 18.627441 -13.730686 220 220 220 0.864231
-6.306736 18.627441 -15.347773 109 109 109 0.429130
-5.432407 18.626700 -17.048534 91 91 91 0.357988
-4.594492 18.192700 -18.768677 108 108 108 0.423026
-3.573156 19.018968 -20.331932 221 221 221 0.865539
-2.600373 18.469935 -22.179166 182 182 182 0.714280
-1.827184 18.627441 -23.785891 134 134 134 0.523716
-11.660102 16.666656 -5.209655 108 108 108 0.422851
-10.941299 16.666656 -6.996460 148 148 148 0.578447
-10.179891 16.666656 -8.759406 59 59 59 0.231478
-9.364880 16.666656 -10.492334 218 218 218 0.856770
-8.393692 16.668293 -12.138482 112 112 112 0.439201
-7.395174 16.667280 -13.769195 138 138 138 0.541142
-6.356786 17.100834 -15.375308 187 187 187 0.734033
-5.440703 16.448241 -17.167907 120 120 120 0.469724
-4.586596 16.485433 -18.803763 111 111 111 0.436006
-3.529273 16.709885 -20.422243 207 207 207 0.810355
-2.544259 16.358162 -22.336988 194 194 194 0.761654
-1.781957 16.666656 -23.760563 235 235 235 0.922835
-12.647659 14.705873 -3.573354 202 202 202 0.791126
-11.842539 14.705873 -5.311821 212 212 212 0.831381
-11.053967 14.705010 -7.059186 209 209 209 0.820238
-10.236639 14.706582 -8.792652 212 212 212 0.831325
-9.557193 14.446165 -10.307071 218 218 218 0.854908
-8.689985 14.702829 -11.741265 235 235 235 0.923105
-7.730853 14.705966 -13.321498 161 161 161 0.632893
-6.509401 14.793841 -15.316668 138 138 138 0.542058
-5.387450 14.393740 -17.295829 127 127 127 0.499492
-4.397507 14.832454 -18.966048 178 178 178 0.699112
-3.402654 14.457761 -20.684981 115 115 115 0.449570
-2.741369 14.914652 -21.915370 41 41 41 0.158869
-1.723340 14.705873 -23.727737 174 174 174 0.682267
-13.389156 12.745089 -1.799258 78 78 78 0.307723
-12.825343 12.745089 -3.672858 183 183 183 0.717601
-12.004541 12.746569 -5.402236 186 186 186 0.728979
-11.190428 12.747946 -7.133457 221 221 221 0.868050
-10.199209 12.490733 -8.918851 238 238 238 0.934032
-9.317962 12.887793 -10.700701 254 254 254 0.995507
-8.461109 12.740678 -12.091492 230 230 230 0.903843
-7.416270 12.809434 -13.700577 223 223 223 0.876452
-6.605835 12.521336 -15.179236 200 200 200 0.783764
-5.670230 12.538963 -16.857789 178 178 178 0.698513
-4.557391 12.707921 -18.745255 124 124 124 0.485688
-3.740463 12.972614 -20.237853 96 96 96 0.374712
-2.652411 12.740096 -22.064393 153 153 153 0.598421
-1.655648 12.745089 -23.689829 178 178 178 0.696162
-13.580496 11.204436 -1.980920 45 45 45 0.176511
-12.938177 10.811615 -3.701146 35 35 35 0.138755
-12.126862 10.788583 -5.454960 61 61 61 0.240050
-11.093358 10.575507 -7.300376 167 167 167 0.656726
-10.219810 10.665035 -8.879135 173 173 173 0.678577
-9.396498 10.955681 -10.357185 185 185 185 0.725988
-8.383229 10.805233 -12.059329 166 166 166 0.652185
-7.353233 10.557450 -13.861614 180 180 180 0.706720
-6.304319 10.666892 -15.795839 248 248 248 0.974412
-5.547426 10.700038 -17.209067 247 247 247 0.969823
-4.842200 10.769493 -18.349748 188 188 188 0.739028
-3.776805 11.008899 -20.156425 167 167 167 0.654288
-2.832299 10.561728 -21.745886 219 219 219 0.859144
-1.687165 10.784305 -23.707479 243 243 243 0.953689
-13.709147 9.104976 -2.195561 146 146 146 0.573219
-12.798533 8.864188 -4.196894 83 83 83 0.327390
-11.922157 9.102239 -5.832703 171 171 171 0.671314
-11.199740 8.498141 -6.955088 100 100 100 0.392206
-10.210052 8.781238 -8.777587 89 89 89 0.347925
-9.031089 8.879205 -10.753519 107 107 107 0.421005
-8.141958 9.097277 -12.416841 136 136 136 0.531395
-7.470800 8.494473 -13.598001 228 228 228 0.892338
-6.571851 8.597118 -15.298546 216 216 216 0.845113
-5.570732 9.118347 -17.043661 245 245 245 0.960502
-4.631071 8.897352 -18.676617 233 233 233 0.914637
-3.562178 8.657014 -20.444070 200 200 200 0.782364
-2.553989 9.046323 -22.287403 194 194 194 0.759421
-1.785599 8.823521 -23.762602 246 246 246 0.964864
-13.900314 6.765829 -1.834498 198 198 198 0.776803
-13.100791 7.199653 -3.513975 142 142 142 0.555777
-12.061290 6.854892 -5.363398 75 75 75 0.294992
-10.826630 6.784661 -7.405742 95 95 95 0.373304
-10.002612 6.838897 -8.819513 180 180 180 0.707075
-9.291844 6.725323 -10.281134 176 176 176 0.690277
-8.336242 7.268387 -12.048496 181 181 181 0.711602
-7.421636 6.762739 -13.649616 133 133 133 0.519941
-6.396048 6.361615 -15.352170 185 185 185 0.724076
-5.441642 7.077978 -17.161945 179 179 179 0.702457
-4.418689 7.165028 -18.973265 226 226 226 0.884566
-3.672619 6.562116 -20.192160 149 149 149 0.586000
-2.748814 7.067459 -21.879295 136 136 136 0.531908
-1.835036 6.862737 -23.790287 191 191 191 0.748246
-13.883076 4.606879 -1.688133 30 30 30 0.115884
-13.108679 5.161700 -3.484818 39 39 39 0.152389
-12.088654 4.512951 -5.314592 11 11 11 0.043162
-11.126611 4.903975 -7.034333 148 148 148 0.578941
-10.056342 5.005688 -8.929143 167 167 167 0.656651
-9.155858 4.871903 -10.427942 221 221 221 0.866547
-8.259803 4.979133 -12.003506 133 133 133 0.521836
-7.126289 4.808372 -14.032848 203 203 203 0.795578
-6.157719 4.450669 -15.715491 142 142 142 0.555036
-5.419685 4.885079 -17.151282 208 208 208 0.815436
-4.568566 5.398460 -18.704376 242 242 242 0.948908
-3.492566 4.709479 -20.467922 218 218 218 0.854950
-2.490813 4.962360 -22.449369 74 74 74 0.291477
-1.826645 4.901953 -23.785589 113 113 113 0.442721
-13.829939 2.913537 -1.967169 38 38 38 0.148156
-12.990091 2.964637 -3.646584 16 16 16 0.064068
-12.156909 2.563764 -5.119814 52 52 52 0.202747
-11.351761 2.877933 -6.654641 88 88 88 0.346566
-10.438860 2.993095 -8.293862 128 128 128 0.501396
-9.249823 2.965206 -10.289242 143 143 143 0.561429
-8.303407 2.971197 -12.030968 169 169 169 0.663877
-7.416874 2.790156 -13.566423 214 214 214 0.840377
-6.346217 2.804668 -15.384060 190 190 190 0.744410
-5.501646 3.075266 -16.924725 237 237 237 0.930361
-4.518102 3.041679 -18.717231 250 250 250 0.981844
-3.482568 2.894495 -20.351225 195 195 195 0.763573
-2.794972 2.956068 -21.744174 213 213 213 0.834106
-1.735487 2.941169 -23.734539 140 140 140 0.547990
-13.887798 0.982516 -2.057331 177 177 177 0.695168
-12.896934 0.716892 -3.826931 159 159 159 0.624128
-11.813988 0.829776 -5.742124 213 213 213 0.835927
-11.027453 1.239045 -7.322244 172 172 172 0.674008
-10.094247 1.054740 -8.697350 193 193 193 0.755971
-9.147793 0.559848 -10.343048 120 120 120 0.469936
-8.221097 1.124080 -12.122671 158 158 158 0.619799
-7.324153 0.952247 -13.722642 145 145 145 0.570569
-6.623716 0.938361 -14.985581 80 80 80 0.313386
-5.568927 1.181083 -16.806266 162 162 162 0.633929
-4.654637 0.787298 -18.401912 185 185 185 0.727040
-3.708677 1.154682 -20.080786 231 231 231 0.905552
-2.689819 1.029428 -21.933879 67 67 67 0.261585
-1.829292 0.980384 -23.787071 107 107 107 0.421058
-13.785709 -1.184148 -2.284556 166 166 166 0.650301
-12.785104 -1.364774 -4.057378 156 156 156 0.610580
-12.053330 -0.791088 -5.288896 215 215 215 0.845044
-11.052429 -0.964245 -7.096672 211 211 211 0.828128
-9.884366 -1.026893 -9.044541 27 27 27 0.105939
-9.067031 -1.127525 -10.471819 53 53 53 0.209596
-8.420952 -0.997766 -11.715082 139 139 139 0.545802
-7.406994 -1.002045 -13.590248 182 182 182 0.713499
-6.247823 -0.933631 -15.673876 85 85 85 0.333192
-5.301060 -0.688241 -17.243120 83 83 83 0.323972
-4.518404 -0.981154 -18.707695 214 214 214 0.838845
-3.629850 -0.901091 -20.367050 212 212 212 0.832138
-2.731367 -0.947969 -22.073900 201 201 201 0.789158
-1.935984 -0.980400 -23.846819 171 171 171 0.669871
-13.954863 -3.432007 -2.227047 159 159 159 0.622959
-12.993265 -3.096923 -3.830700 94 94 94 0.366809
-11.864726 -2.782881 -5.644745 138 138 138 0.541401
-11.037020 -2.911230 -7.163225 106 106 106 0.417248
-10.183115 -3.098900 -8.589773 92 92 92 0.358824
-9.187239 -2.612299 -10.334604 0 0 0 0.000000
-8.221819 -3.093185 -12.147650 61 61 61 0.240751
-7.353860 -2.971910 -13.748321 204 204 204 0.800276
-6.503756 -3.066838 -15.230351 177 177 177 0.693764
-5.465210 -2.480381 -17.047034 37 37 37 0.145381
-4.470829 -3.086584 -18.847926 105 105 105 0.413479
-3.427958 -2.927141 -20.821834 42 42 42 0.166467
-2.549661 -2.926537 -22.633285 212 212 212 0.831117
-1.997747 -2.941184 -23.881407 239 239 239 0.937407
-13.970760 -5.065706 -2.211343 206 206 206 0.806911
-13.219114 -5.030199 -3.472965 185 185 185 0.726172
-12.252321 -4.869019 -5.015278 159 159 159 0.625402
-11.231585 -4.748834 -6.790255 67 67 67 0.262490
-10.378642 -5.180210 -8.426278 121 121 121 0.475587
-9.361390 -4.664206 -10.168670 93 93 93 0.363465
-8.510470 -5.168680 -11.797378 136 136 136 0.533458
-7.422361 -4.973268 -13.671001 89 89 89 0.350459
-6.495401 -4.955130 -15.378753 174 174 174 0.681587
-5.503718 -4.787250 -17.065054 43 43 43 0.167206
-4.579741 -4.930698 -18.775361 155 155 155 0.608808
-3.666595 -5.076647 -20.304417 94 94 94 0.368669
-2.764653 -4.900431 -22.188537 109 109 109 0.426789
-1.899085 -4.901968 -23.826157 194 194 194 0.759402
-13.880548 -6.756545 -2.304143 224 224 224 0.879498
-12.794982 -6.888989 -4.121702 131 131 131 0.512036
-11.878093 -6.522771 -5.665100 208 208 208 0.816764
-11.049905 -7.061387 -7.206604 181 181 181 0.708991
-10.054704 -6.625944 -8.976585 226 226 226 0.887465
-9.173501 -7.041265 -10.539087 195 195 195 0.766500
-8.242356 -6.674535 -12.342590 14 14 14 0.056290
-7.288553 -7.321868 -13.750612 8 8 8 0.031785
-6.445286 -6.452815 -15.378649 125 125 125 0.490729
-5.590477 -7.043039 -16.788788 204 204 204 0.801581
-4.675850 -6.705728 -18.456446 205 205 205 0.802497
-3.593305 -7.311516 -20.264430 104 104 104 0.406551
-2.688708 -6.902013 -21.991155 185 185 185 0.724617
-1.801665 -6.862751 -23.771599 154 154 154 0.604700
-13.816829 -8.793808 -2.098369 166 166 166 0.649973
-12.965355 -8.785528 -3.822878 101 101 101 0.397028
-11.909285 -8.598645 -5.676235 204 204 204 0.799710
-11.105374 -8.853799 -7.219457 205 205 205 0.802474
-10.135706 -8.809431 -8.818858 241 241 241 0.945300
-9.166748 -8.880372 -10.433375 220 220 220 0.861824
-8.365635 -8.669793 -11.927898 116 116 116 0.455736
-7.355037 -9.365553 -13.675823 72 72 72 0.280855
-6.419610 -8.451919 -15.311109 180 180 180 0.706138
-5.414047 -9.003522 -17.137343 197 197 197 0.772149
-4.390291 -8.597472 -18.846387 173 173 173 0.679261
-3.629613 -9.215358 -20.105345 75 75 75 0.295707
-2.666831 -9.081444 -21.798718 120 120 120 0.469451
-1.693418 -8.823536 -23.710981 148 148 148 0.581466
-13.548380 -10.755573 -1.870328 170 170 170 0.667971
-12.956459 -10.767696 -3.741137 103 103 103 0.405119
-12.160977 -10.428849 -5.255074 193 193 193 0.756372
-11.118441 -10.735192 -7.071196 193 193 193 0.757631
-10.152046 -10.771180 -8.749495 208 208 208 0.817119
-9.314600 -10.574887 -10.256965 123 123 123 0.481123
-8.356679 -10.801902 -11.940698 90 90 90 0.353629
-7.312928 -11.369682 -13.669485 206 206 206 0.806470
-6.410911 -10.387753 -15.366594 235 235 235 0.922054
-5.608922 -11.057199 -16.797711 251 251 251 0.984785
-4.547547 -10.832828 -18.618011 190 190 190 0.746319
-3.273675 -10.935200 -20.620464 99 99 99 0.387299
-2.294099 -11.162290 -22.259677 69 69 69 0.269260
-1.602476 -10.784320 -23.660053 208 208 208 0.815540
-13.417531 -12.745104 -1.815149 78 78 78 0.306458
-12.894035 -12.732681 -3.681557 96 96 96 0.376545
-11.966998 -12.458714 -5.567270 227 227 227 0.890910
-11.117950 -12.683575 -7.153756 241 241 241 0.946234
-10.167626 -12.694089 -8.734383 144 144 144 0.565401
-9.046336 -12.682832 -10.732983 38 38 38 0.149677
-8.011769 -12.836215 -12.462089 125 125 125 0.491409
-7.076811 -13.228995 -14.084465 65 65 65 0.253333
-6.363443 -12.333470 -15.396277 236 236 236 0.923934
-5.452050 -12.782477 -16.974476 185 185 185 0.727213
-4.496210 -13.192994 -18.680645 11 11 11 0.043357
-3.502289 -12.774587 -20.288491 7 7 7 0.028542
-2.552280 -12.616479 -21.782297 10 10 10 0.038571
-1.522048 -12.745104 -23.615013 131 131 131 0.513903
-12.819490 -14.705888 -3.669581 97 97 97 0.379297
-12.029436 -14.705888 -5.416485 174 174 174 0.682723
-11.011676 -14.447545 -7.238033 218 218 218 0.853770
-10.039844 -14.929736 -9.031925 223 223 223 0.873162
-9.194531 -14.645377 -10.482011 175 175 175 0.685002
-8.365599 -14.433976 -11.970330 227 227 227 0.891249
-7.409240 -15.013322 -13.594493 211 211 211 0.827336
-6.239064 -14.554062 -15.557292 202 202 202 0.790664
-5.185750 -14.772099 -17.422940 19 19 19 0.074171
-4.390200 -14.864597 -18.819554 73 73 73 0.285583
-3.603942 -14.968552 -20.223786 116 116 116 0.454681
-2.536530 -14.276977 -21.905704 48 48 48 0.189625
-1.640239 -14.705888 -23.681200 39 39 39 0.153381
-11.037913 -16.666672 -7.050565 91 91 91 0.357870
-10.084771 -16.666672 -8.706139 145 145 145 0.567280
-9.153688 -16.715264 -10.464126 143 143 143 0.561510
-8.209189 -16.464513 -12.206121 251 251 251 0.986152
-7.318198 -16.738517 -13.756409 255 255 255 1.000000
-6.454519 -16.821098 -15.225842 186 186 186 0.727548
-5.430232 -16.639403 -17.023655 146 146 146 0.571044
-4.371070 -16.610059 -18.889580 58 58 58 0.228466
-3.474645 -16.745785 -20.384696 205 205 205 0.804216
-2.675876 -16.387330 -21.851528 188 188 188 0.736718
-1.771457 -16.666672 -23.754683 168 168 168 0.658600
-9.111444 -18.627457 -10.350409 166 166 166 0.649287
-8.220593 -18.627457 -12.040867 233 233 233 0.912451
-7.342837 -18.203933 -13.690315 242 242 242 0.948177
-6.364803 -19.064994 -15.296793 202 202 202 0.791467
-5.490263 -18.657653 -16.982250 172 172 172 0.674416
-4.614157 -18.328312 -18.477317 83 83 83 0.323794
-3.551827 -18.577444 -20.315971 143 143 143 0.562183
-2.540623 -18.263745 -22.233452 195 195 195 0.763735
-1.868394 -18.627457 -23.808968 127 127 127 0.496571
-7.296246 -20.588242 -13.712564 225 225 225 0.882971
-6.313353 -20.588242 -15.351478 240 240 240 0.942319
-5.329799 -20.588242 -16.990021 249 249 249 0.974928
-4.450202 -20.588242 -18.686779 188 188 188 0.736458
-3.485608 -20.588242 -20.335939 68 68 68 0.268554
-2.660744 -20.046389 -22.056354 46 46 46 0.179622
-1.928542 -20.588242 -23.842651 88 88 88 0.343284
-2.665637 -22.549026 -22.066090 136 136 136 0.533513
-1.975707 -22.549026 -23.869064 133 133 133 0.521128
3 0 70 56
3 1 84 70
3 2 98 84
3 3 4 98
3 4 5 112
3 5 6 126
3 6 7 140
3 7 8 154
3 8 9 168
3 9 196 182
3 10 210 196
3 11 224 210
3 12 238 224
3 290 292 291
3 289 292 290
3 283 290 284
3 282 290 283
3 281 288 282
3 280 288 281
3 279 287 280
3 278 285 279
3 277 285 278
3 274 283 275
3 273 282 274
3 272 282 273
3 271 281 272
3 270 280 271
3 269 278 270
3 268 278 269
3 267 277 268
3 266 276 267
3 263 274 264
3 262 274 263
3 261 272 262
3 260 272 261
3 259 271 260
3 258 270 259
3 257 268 258
3 256 268 257
3 255 267 256
3 254 266 255
3 253 265 254
3 250 263 251
3 249 263 250
3 248 262 249
3 247 260 248
3 246 259 247
3 245 259 246
3 244 258 245
3 243 257 244
3 242 256 243
3 241 254 242
3 240 254 241
3 239 253 240
3 238 252 239
3 236 251 237
3 235 250 236
3 234 249 235
3 233 247 234
3 232 246 233
3 231 246 232
3 230 244 231
3 229 243 230
3 228 242 229
3 227 242 228
3 226 240 227
3 225 240 226
3 224 239 225
3 222 237 223
3 221 235 222
3 220 234 221
3 219 234 220
3 218 232 219
3 217 232 218
3 216 230 217
3 215 229 216
3 214 229 215
3 213 227 214
3 212 227 213
3 211 226 212
3 210 225 211
3 208 223 209
3 207 222 208
3 206 220 207
3 205 219 206
3 204 218 205
3 203 218 204
3 202 216 203
3 201 216 202
3 200 214 201
3 199 214 200
3 198 212 199
3 197 212 198
3 196 211 197
3 194 209 195
3 193 208 194
3 192 206 193
3 191 206 192
3 190 204 191
3 189 204 190
3 188 202 189
3 187 201 188
3 186 200 187
3 185 199 186
3 184 198 185
3 183 197 184
3 182 196 183
3 180 195 181
3 179 194 180
3 178 193 179
3 177 191 178
3 176 191 177
3 175 189 176
3 174 189 175
3 173 187 174
3 172 187 173
3 171 185 172
3 170 185 171
3 169 184 170
3 168 183 169
3 166 180 167
3 165 179 166
3 164 178 165
3 163 177 164
3 162 177 163
3 161 176 162
3 160 174 161
3 159 173 160
3 158 173 159
3 157 172 158
3 156 170 157
3 155 170 156
3 154 169 155
3 152 166 153
3 151 165 152
3 150 164 151
3 149 163 150
3 148 162 149
3 147 161 148
3 146 161 147
3 145 160 146
3 144 158 145
3 143 157 144
3 142 157 143
3 141 156 142
3 140 154 141
3 138 152 139
3 137 151 138
3 136 151 137
3 135 149 136
3 134 149 135
3 133 148 134
3 132 146 133
3 131 146 132
3 130 144 131
3 129 143 130
3 128 142 129
3 127 141 128
3 126 140 127
3 124 139 125
3 123 138 124
3 122 136 123
3 121 136 122
3 120 135 121
3 119 134 120
3 118 133 119
3 117 131 118
3 116 131 117
3 115 130 116
3 114 129 115
3 113 127 114
3 112 126 113
3 110 124 111
3 109 123 110
3 108 122 109
3 107 122 108
3 106 121 107
3 105 119 106
3 104 118 105
3 103 118 104
3 102 116 103
3 101 116 102
3 100 115 101
3 99 113 100
3 98 113 99
3 96 110 97
3 95 110 96
3 94 108 95
3 93 107 94
3 92 107 93
3 91 105 92
3 90 104 91
3 89 104 90
3 88 103 89
3 87 101 88
3 86 100 87
3 85 100 86
3 84 99 85
3 82 96 83
3 81 95 82
3 80 94 81
3 79 93 80
3 78 93 79
3 77 92 78
3 76 90 77
3 75 89 76
3 74 88 75
3 73 88 74
3 72 86 73
3 71 85 72
3 70 84 71
3 68 83 69
3 67 81 68
3 66 81 67
3 65 80 66
3 64 78 65
3 63 77 64
3 62 76 63
3 61 75 62
3 60 75 61
3 59 73 60
3 58 72 59
3 57 71 58
3 56 70 57
3 54 68 55
3 53 68 54
3 52 67 53
3 51 66 52
3 50 65 51
3 49 63 50
3 48 62 49
3 47 61 48
3 46 60 47
3 45 59 46
3 44 58 45
3 43 57 44
3 41 55 42
3 40 54 41
3 39 52 40
3 38 52 39
3 37 50 38
3 36 50 37
3 35 49 36
3 34 48 35
3 33 46 34
3 32 45 33
3 31 44 32
3 29 42 30
3 28 40 29
3 27 40 28
3 26 38 27
3 25 37 26
3 24 37 25
3 23 36 24
3 22 35 23
3 20 29 21
3 19 28 20
3 18 28 19
3 17 26 18
3 16 25 17
3 14 21 15
3 263 264 251
3 7 154 140
3 0 1 70
3 1 2 84
3 2 3 98
3 70 71 57
3 4 112 98
3 9 10 196
3 10 11 210
3 11 12 224
3 12 13 238
3 44 45 32
3 136 137 123
3 71 72 58
3 45 46 33
3 6 140 126
3 37 38 26
3 88 89 75
3 274 275 264
3 59 60 46
3 38 39 27
3 8 168 154
3 78 79 65
3 72 73 59
3 5 126 112
3 40 41 29
3 202 203 189
3 187 188 174
3 283 284 275
3 46 47 34
3 163 164 150
3 260 261 248
3 151 152 138
3 219 220 206
3 243 244 230
3 165 166 152
3 68 69 55
3 116 117 103
3 113 114 100
3 191 192 178
3 216 217 203
3 144 145 131
3 212 213 199
3 146 147 133
3 247 248 234
3 127 128 114
3 285 286 279
3 292 293 291
3 244 245 231
3 152 153 139
3 89 90 76
3 131 132 118
3 234 235 221
3 126 127 113
3 105 106 92
3 110 111 97
3 75 76 62
3 100 101 87
3 93 94 80
3 157 158 144
3 96 97 83
3 206 207 193
3 204 205 191
3 61 62 48
3 85 86 72
3 214 215 201
3 218 219 205
3 90 91 77
3 52 53 40
3 26 27 18
3 179 180 166
3 290 291 284
3 232 233 219
3 77 78 64
3 119 120 106
3 60 61 47
3 272 273 262
3 230 231 217
3 95 96 82
3 158 159 145
3 124 125 111
3 229 230 216
3 154 155 141
3 235 236 222
3 162 163 149
3 101 102 88
3 118 119 105
3 246 247 233
3 170 171 157
3 177 178 164
3 25 26 17
3 242 243 229
3 201 202 188
3 81 82 68
3 108 109 95
3 282 283 274
3 166 167 153
3 58 59 45
3 9 182 168
3 107 108 94
3 240 241 227
3 142 143 129
3 197 198 184
3 73 74 60
3 86 87 73
3 198 199 185
3 122 123 109
3 28 29 20
3 220 221 207
3 199 200 186
3 185 186 172
3 104 105 91
3 282 289 290
3 280 287 288
3 279 286 287
3 196 197 183
3 272 281 282
3 271 280 281
3 270 279 280
3 268 277 278
3 267 276 277
3 262 273 274
3 260 271 272
3 259 270 271
3 258 269 270
3 256 267 268
3 255 266 267
3 254 265 266
3 249 262 263
3 248 261 262
3 245 258 259
3 244 257 258
3 243 256 257
3 242 255 256
3 240 253 254
3 239 252 253
3 236 250 251
3 235 249 250
3 234 248 249
3 231 245 246
3 141 142 128
3 227 241 242
3 225 239 240
3 224 238 239
3 84 85 71
3 222 236 237
3 219 233 234
3 217 231 232
3 164 165 151
3 259 260 247
3 214 228 229
3 212 226 227
3 211 225 226
3 210 224 225
3 208 222 223
3 207 221 222
3 203 217 218
3 201 215 216
3 199 213 214
3 197 211 212
3 196 210 211
3 194 208 209
3 193 207 208
3 191 205 206
3 143 144 130
3 189 203 204
3 94 95 81
3 268 269 258
3 180 194 195
3 179 193 194
3 178 192 193
3 176 190 191
3 174 188 189
3 172 186 187
3 161 162 148
3 170 184 185
3 169 183 184
3 168 182 183
3 162 176 177
3 161 175 176
3 158 172 173
3 157 171 172
3 155 169 170
3 154 168 169
3 174 175 161
3 254 255 242
3 146 160 161
3 145 159 160
3 189 190 176
3 142 156 157
3 141 155 156
3 288 289 282
3 136 150 151
3 134 148 149
3 133 147 148
3 131 145 146
3 149 150 136
3 124 138 139
3 123 137 138
3 121 135 136
3 120 134 135
3 119 133 134
3 118 132 133
3 116 130 131
3 115 129 130
3 114 128 129
3 29 30 21
3 107 121 122
3 106 120 121
3 103 117 118
3 63 64 50
3 101 115 116
3 100 114 115
3 98 112 113
3 95 109 110
3 140 141 127
3 123 124 110
3 92 106 107
3 200 201 187
3 89 103 104
3 88 102 103
3 85 99 100
3 84 98 99
3 76 77 63
3 227 228 214
3 78 92 93
3 77 91 92
3 73 87 88
3 57 58 44
3 68 82 83
3 66 80 81
3 65 79 80
3 60 74 75
3 62 63 49
3 173 174 160
3 53 67 68
3 52 66 67
3 51 65 66
3 50 64 65
3 41 54 55
3 40 53 54
3 38 51 52
3 278 279 270
3 36 49 50
3 35 48 49
3 34 47 48
3 180 181 167
3 29 41 42
3 27 39 40
3 24 36 37
3 23 35 36
3 22 34 35
3 50 51 38
3 18 27 28
3 178 179 165
3 14 20 21
