ply
format ascii 1.0
comment openVA ply exporter, (c) Peter Felfer, The University of Sydney 2013, Rhett MPIE modified 2019
comment 18.9 to 148 atoms/nm2
element vertex 294
property float x
property float y
property float z
property uchar red
property uchar green
property uchar blue
property float value
element face 517
property list uchar uint vertex_indices
end_header
-14.812491 12.745089 -0.638040 112 112 112 0.440641
-14.797329 10.784305 -0.565151 102 102 102 0.399376
-14.800510 8.823521 -0.368473 102 102 102 0.398299
-14.802990 6.862737 -0.215165 182 182 182 0.713295
-14.802442 4.901953 -0.249072 160 160 160 0.627130
-14.802029 2.941169 -0.274581 187 187 187 0.733061
-14.800845 0.980384 -0.347768 219 219 219 0.860378
-14.798562 -0.980400 -0.488878 212 212 212 0.833193
-14.797232 -2.941184 -0.571141 240 240 240 0.940691
-14.796596 -4.901968 -0.610453 146 146 146 0.571839
-14.797051 -6.862751 -0.582249 158 158 158 0.618317
-14.799292 -8.823536 -0.443784 177 177 177 0.693721
-14.792505 -10.784320 -0.232419 231 231 231 0.906942
-14.750834 -12.745104 -0.081639 255 255 255 1.000000
-2.641749 22.549011 -22.052711 127 127 127 0.496753
-1.892202 22.549011 -23.822302 78 78 78 0.306813
-6.281374 20.588226 -15.333570 19 19 19 0.075258
-5.454515 20.588226 -17.059862 50 50 50 0.194231
-4.544065 20.588226 -18.739344 103 103 103 0.405146
-3.525322 20.588226 -20.358179 129 129 129 0.505896
-2.642118 20.588226 -22.052917 113 113 113 0.442967
-1.839170 20.588226 -23.792603 37 37 37 0.144253
-9.266506 18.627441 -10.437244 160 160 160 0.628751
-8.283482 18.627441 -12.076084 109 109 109 0.429380
-7.328605 18.627441 -13.730686 160 160 160 0.625625
-6.306736 18.627441 -15.347773 57 57 57 0.225359
-5.432407 18.626700 -17.048534 54 54 54 0.212093
-4.594492 18.192700 -18.768677 85 85 85 0.334043
-3.573156 19.018968 -20.331932 106 106 106 0.416013
-2.600373 18.469935 -22.179166 87 87 87 0.343030
-1.827184 18.627441 -23.785891 80 80 80 0.314951
-11.660102 16.666656 -5.209655 126 126 126 0.494292
-10.941299 16.666656 -6.996460 109 109 109 0.426921
-10.179891 16.666656 -8.759406 54 54 54 0.212193
-9.364880 16.666656 -10.492334 116 116 116 0.453242
-8.393692 16.668293 -12.138482 54 54 54 0.209838
-7.395174 16.667280 -13.769195 74 74 74 0.290086
-6.356786 17.100834 -15.375308 83 83 83 0.325138
-5.440703 16.448241 -17.167907 67 67 67 0.262991
-4.586596 16.485433 -18.803763 59 59 59 0.233047
-3.529273 16.709885 -20.422243 113 113 113 0.444280
-2.544259 16.358162 -22.336988 103 103 103 0.405542
-1.781957 16.666656 -23.760563 145 145 145 0.566701
-12.647659 14.705873 -3.573354 188 188 188 0.738961
-11.842539 14.705873 -5.311821 146 146 146 0.572832
-11.053967 14.705010 -7.059186 127 127 127 0.498028
-10.236639 14.706582 -8.792652 122 122 122 0.479015
-9.557193 14.446165 -10.307071 117 117 117 0.457371
-8.689985 14.702829 -11.741265 126 126 126 0.495194
-7.730853 14.705966 -13.321498 82 82 82 0.322247
-6.509401 14.793841 -15.316668 63 63 63 0.247826
-5.387450 14.393740 -17.295829 64 64 64 0.252426
-4.397507 14.832454 -18.966048 98 98 98 0.386009
-3.402654 14.457761 -20.684981 60 60 60 0.233374
-2.741369 14.914652 -21.915370 19 19 19 0.073795
-1.723340 14.705873 -23.727737 86 86 86 0.335981
-13.389156 12.745089 -1.799258 165 165 165 0.647620
-12.825343 12.745089 -3.672858 199 199 199 0.781654
-12.004541 12.746569 -5.402236 133 133 133 0.521454
-11.190428 12.747946 -7.133457 136 136 136 0.533909
-10.199209 12.490733 -8.918851 124 124 124 0.486595
-9.317962 12.887793 -10.700701 145 145 145 0.568132
-8.461109 12.740678 -12.091492 133 133 133 0.520743
-7.416270 12.809434 -13.700577 122 122 122 0.479165
-6.605835 12.521336 -15.179236 101 101 101 0.397027
-5.670230 12.538963 -16.857789 76 76 76 0.299398
-4.557391 12.707921 -18.745255 67 67 67 0.262621
-3.740463 12.972614 -20.237853 43 43 43 0.168030
-2.652411 12.740096 -22.064393 63 63 63 0.245748
-1.655648 12.745089 -23.689829 91 91 91 0.357510
-13.580496 11.204436 -1.980920 142 142 142 0.555634
-12.938177 10.811615 -3.701146 108 108 108 0.425327
-12.126862 10.788583 -5.454960 43 43 43 0.168398
-11.093358 10.575507 -7.300376 76 76 76 0.296524
-10.219810 10.665035 -8.879135 80 80 80 0.313847
-9.396498 10.955681 -10.357185 97 97 97 0.379291
-8.383229 10.805233 -12.059329 83 83 83 0.325235
-7.353233 10.557450 -13.861614 84 84 84 0.328026
-6.304319 10.666892 -15.795839 129 129 129 0.506859
-5.547426 10.700038 -17.209067 123 123 123 0.480555
-4.842200 10.769493 -18.349748 96 96 96 0.377181
-3.776805 11.008899 -20.156425 87 87 87 0.339849
-2.832299 10.561728 -21.745886 118 118 118 0.460786
-1.687165 10.784305 -23.707479 138 138 138 0.541221
-13.709147 9.104976 -2.195561 110 110 110 0.433150
-12.798533 8.864188 -4.196894 42 42 42 0.164925
-11.922157 9.102239 -5.832703 84 84 84 0.328123
-11.199740 8.498141 -6.955088 41 41 41 0.160232
-10.210052 8.781238 -8.777587 63 63 63 0.246271
-9.031089 8.879205 -10.753519 45 45 45 0.178429
-8.141958 9.097277 -12.416841 51 51 51 0.198529
-7.470800 8.494473 -13.598001 112 112 112 0.439264
-6.571851 8.597118 -15.298546 116 116 116 0.454463
-5.570732 9.118347 -17.043661 136 136 136 0.534191
-4.631071 8.897352 -18.676617 125 125 125 0.488975
-3.562178 8.657014 -20.444070 102 102 102 0.398789
-2.553989 9.046323 -22.287403 138 138 138 0.541350
-1.785599 8.823521 -23.762602 168 168 168 0.659281
-13.900314 6.765829 -1.834498 135 135 135 0.529726
-13.100791 7.199653 -3.513975 83 83 83 0.325590
-12.061290 6.854892 -5.363398 29 29 29 0.111989
-10.826630 6.784661 -7.405742 42 42 42 0.164631
-10.002612 6.838897 -8.819513 78 78 78 0.306536
-9.291844 6.725323 -10.281134 89 89 89 0.349868
-8.336242 7.268387 -12.048496 75 75 75 0.293728
-7.421636 6.762739 -13.649616 55 55 55 0.217489
-6.396048 6.361615 -15.352170 81 81 81 0.316722
-5.441642 7.077978 -17.161945 94 94 94 0.366993
-4.418689 7.165028 -18.973265 113 113 113 0.442984
-3.672619 6.562116 -20.192160 83 83 83 0.326270
-2.748814 7.067459 -21.879295 136 136 136 0.531953
-1.835036 6.862737 -23.790287 150 150 150 0.589504
-13.883076 4.606879 -1.688133 73 73 73 0.284362
-13.108679 5.161700 -3.484818 28 28 28 0.110672
-12.088654 4.512951 -5.314592 11 11 11 0.042847
-11.126611 4.903975 -7.034333 74 74 74 0.291813
-10.056342 5.005688 -8.929143 81 81 81 0.315957
-9.155858 4.871903 -10.427942 120 120 120 0.469983
-8.259803 4.979133 -12.003506 72 72 72 0.283032
-7.126289 4.808372 -14.032848 98 98 98 0.385354
-6.157719 4.450669 -15.715491 61 61 61 0.237447
-5.419685 4.885079 -17.151282 108 108 108 0.423440
-4.568566 5.398460 -18.704376 132 132 132 0.518554
-3.492566 4.709479 -20.467922 146 146 146 0.571920
-2.490813 4.962360 -22.449369 153 153 153 0.598514
-1.826645 4.901953 -23.785589 92 92 92 0.359670
-13.829939 2.913537 -1.967169 72 72 72 0.283789
-12.990091 2.964637 -3.646584 23 23 23 0.088694
-12.156909 2.563764 -5.119814 31 31 31 0.119715
-11.351761 2.877933 -6.654641 58 58 58 0.226901
-10.438860 2.993095 -8.293862 58 58 58 0.228899
-9.249823 2.965206 -10.289242 84 84 84 0.330452
-8.303407 2.971197 -12.030968 104 104 104 0.408662
-7.416874 2.790156 -13.566423 108 108 108 0.422042
-6.346217 2.804668 -15.384060 97 97 97 0.381760
-5.501646 3.075266 -16.924725 125 125 125 0.490543
-4.518102 3.041679 -18.717231 143 143 143 0.562266
-3.482568 2.894495 -20.351225 100 100 100 0.390451
-2.794972 2.956068 -21.744174 138 138 138 0.541193
-1.735487 2.941169 -23.734539 93 93 93 0.364199
-13.887798 0.982516 -2.057331 121 121 121 0.476183
-12.896934 0.716892 -3.826931 85 85 85 0.333767
-11.813988 0.829776 -5.742124 110 110 110 0.430685
-11.027453 1.239045 -7.322244 78 78 78 0.304575
-10.094247 1.054740 -8.697350 90 90 90 0.351741
-9.147793 0.559848 -10.343048 60 60 60 0.235827
-8.221097 1.124080 -12.122671 79 79 79 0.311386
-7.324153 0.952247 -13.722642 69 69 69 0.270675
-6.623716 0.938361 -14.985581 80 80 80 0.315242
-5.568927 1.181083 -16.806266 80 80 80 0.315470
-4.654637 0.787298 -18.401912 100 100 100 0.393108
-3.708677 1.154682 -20.080786 124 124 124 0.485574
-2.689819 1.029428 -21.933879 36 36 36 0.141608
-1.829292 0.980384 -23.787071 56 56 56 0.218301
-13.785709 -1.184148 -2.284556 109 109 109 0.427555
-12.785104 -1.364774 -4.057378 69 69 69 0.271019
-12.053330 -0.791088 -5.288896 114 114 114 0.446260
-11.052429 -0.964245 -7.096672 114 114 114 0.446775
-9.884366 -1.026893 -9.044541 70 70 70 0.274843
-9.067031 -1.127525 -10.471819 58 58 58 0.226085
-8.420952 -0.997766 -11.715082 80 80 80 0.313424
-7.406994 -1.002045 -13.590248 94 94 94 0.369805
-6.247823 -0.933631 -15.673876 46 46 46 0.179510
-5.301060 -0.688241 -17.243120 41 41 41 0.159733
-4.518404 -0.981154 -18.707695 121 121 121 0.475897
-3.629850 -0.901091 -20.367050 119 119 119 0.467617
-2.731367 -0.947969 -22.073900 113 113 113 0.441935
-1.935984 -0.980400 -23.846819 118 118 118 0.460901
-13.954863 -3.432007 -2.227047 111 111 111 0.434318
-12.993265 -3.096923 -3.830700 45 45 45 0.177286
-11.864726 -2.782881 -5.644745 64 64 64 0.249054
-11.037020 -2.911230 -7.163225 41 41 41 0.161688
-10.183115 -3.098900 -8.589773 48 48 48 0.187312
-9.187239 -2.612299 -10.334604 78 78 78 0.304820
-8.221819 -3.093185 -12.147650 34 34 34 0.134920
-7.353860 -2.971910 -13.748321 102 102 102 0.401151
-6.503756 -3.066838 -15.230351 105 105 105 0.410937
-5.465210 -2.480381 -17.047034 75 75 75 0.292720
-4.470829 -3.086584 -18.847926 66 66 66 0.257964
-3.427958 -2.927141 -20.821834 72 72 72 0.282443
-2.549661 -2.926537 -22.633285 128 128 128 0.500732
-1.997747 -2.941184 -23.881407 145 145 145 0.566705
-13.970760 -5.065706 -2.211343 128 128 128 0.501543
-13.219114 -5.030199 -3.472965 93 93 93 0.365021
-12.252321 -4.869019 -5.015278 68 68 68 0.265825
-11.231585 -4.748834 -6.790255 24 24 24 0.094152
-10.378642 -5.180210 -8.426278 58 58 58 0.227985
-9.361390 -4.664206 -10.168670 56 56 56 0.218601
-8.510470 -5.168680 -11.797378 82 82 82 0.320704
-7.422361 -4.973268 -13.671001 48 48 48 0.187339
-6.495401 -4.955130 -15.378753 102 102 102 0.398125
-5.503718 -4.787250 -17.065054 75 75 75 0.295154
-4.579741 -4.930698 -18.775361 81 81 81 0.315833
-3.666595 -5.076647 -20.304417 59 59 59 0.233137
-2.764653 -4.900431 -22.188537 92 92 92 0.361173
-1.899085 -4.901968 -23.826157 122 122 122 0.477565
-13.880548 -6.756545 -2.304143 147 147 147 0.577792
-12.794982 -6.888989 -4.121702 59 59 59 0.233306
-11.878093 -6.522771 -5.665100 107 107 107 0.418005
-11.049905 -7.061387 -7.206604 95 95 95 0.374204
-10.054704 -6.625944 -8.976585 128 128 128 0.501057
-9.173501 -7.041265 -10.539087 116 116 116 0.454492
-8.242356 -6.674535 -12.342590 52 52 52 0.204306
-7.288553 -7.321868 -13.750612 10 10 10 0.037719
-6.445286 -6.452815 -15.378649 69 69 69 0.270503
-5.590477 -7.043039 -16.788788 116 116 116 0.454639
-4.675850 -6.705728 -18.456446 118 118 118 0.461664
-3.593305 -7.311516 -20.264430 57 57 57 0.222309
-2.688708 -6.902013 -21.991155 96 96 96 0.376964
-1.801665 -6.862751 -23.771599 83 83 83 0.327390
-13.816829 -8.793808 -2.098369 110 110 110 0.430192
-12.965355 -8.785528 -3.822878 55 55 55 0.217562
-11.909285 -8.598645 -5.676235 103 103 103 0.404941
-11.105374 -8.853799 -7.219457 117 117 117 0.459388
-10.135706 -8.809431 -8.818858 146 146 146 0.573780
-9.166748 -8.880372 -10.433375 124 124 124 0.484609
-8.365635 -8.669793 -11.927898 64 64 64 0.249297
-7.355037 -9.365553 -13.675823 70 70 70 0.276154
-6.419610 -8.451919 -15.311109 90 90 90 0.352325
-5.414047 -9.003522 -17.137343 105 105 105 0.411764
-4.390291 -8.597472 -18.846387 93 93 93 0.364055
-3.629613 -9.215358 -20.105345 77 77 77 0.302507
-2.666831 -9.081444 -21.798718 68 68 68 0.268329
-1.693418 -8.823536 -23.710981 79 79 79 0.308006
-13.548380 -10.755573 -1.870328 89 89 89 0.348129
-12.956459 -10.767696 -3.741137 79 79 79 0.310368
-12.160977 -10.428849 -5.255074 110 110 110 0.430101
-11.118441 -10.735192 -7.071196 105 105 105 0.411625
-10.152046 -10.771180 -8.749495 104 104 104 0.405907
-9.314600 -10.574887 -10.256965 58 58 58 0.228583
-8.356679 -10.801902 -11.940698 37 37 37 0.143606
-7.312928 -11.369682 -13.669485 109 109 109 0.427347
-6.410911 -10.387753 -15.366594 130 130 130 0.509231
-5.608922 -11.057199 -16.797711 136 136 136 0.532159
-4.547547 -10.832828 -18.618011 91 91 91 0.357917
-3.273675 -10.935200 -20.620464 89 89 89 0.347771
-2.294099 -11.162290 -22.259677 110 110 110 0.432019
-1.602476 -10.784320 -23.660053 133 133 133 0.522472
-13.417531 -12.745104 -1.815149 169 169 169 0.662094
-12.894035 -12.732681 -3.681557 111 111 111 0.436868
-11.966998 -12.458714 -5.567270 151 151 151 0.593458
-11.117950 -12.683575 -7.153756 150 150 150 0.587624
-10.167626 -12.694089 -8.734383 80 80 80 0.314126
-9.046336 -12.682832 -10.732983 0 0 0 0.000000
-8.011769 -12.836215 -12.462089 75 75 75 0.293464
-7.076811 -13.228995 -14.084465 107 107 107 0.419727
-6.363443 -12.333470 -15.396277 136 136 136 0.534652
-5.452050 -12.782477 -16.974476 103 103 103 0.404991
-4.496210 -13.192994 -18.680645 16 16 16 0.063955
-3.502289 -12.774587 -20.288491 14 14 14 0.055792
-2.552280 -12.616479 -21.782297 28 28 28 0.109841
-1.522048 -12.745104 -23.615013 90 90 90 0.354759
-12.819490 -14.705888 -3.669581 147 147 147 0.576924
-12.029436 -14.705888 -5.416485 150 150 150 0.587247
-11.011676 -14.447545 -7.238033 148 148 148 0.579966
-10.039844 -14.929736 -9.031925 156 156 156 0.613244
-9.194531 -14.645377 -10.482011 105 105 105 0.413123
-8.365599 -14.433976 -11.970330 127 127 127 0.498791
-7.409240 -15.013322 -13.594493 132 132 132 0.516658
-6.239064 -14.554062 -15.557292 108 108 108 0.422782
-5.185750 -14.772099 -17.422940 43 43 43 0.170571
-4.390200 -14.864597 -18.819554 44 44 44 0.171653
-3.603942 -14.968552 -20.223786 63 63 63 0.246937
-2.536530 -14.276977 -21.905704 30 30 30 0.118249
-1.640239 -14.705888 -23.681200 100 100 100 0.392187
-11.037913 -16.666672 -7.050565 57 57 57 0.223120
-10.084771 -16.666672 -8.706139 84 84 84 0.329229
-9.153688 -16.715264 -10.464126 95 95 95 0.373337
-8.209189 -16.464513 -12.206121 165 165 165 0.648021
-7.318198 -16.738517 -13.756409 158 158 158 0.620198
-6.454519 -16.821098 -15.225842 97 97 97 0.379961
-5.430232 -16.639403 -17.023655 85 85 85 0.334754
-4.371070 -16.610059 -18.889580 89 89 89 0.350219
-3.474645 -16.745785 -20.384696 115 115 115 0.449185
-2.675876 -16.387330 -21.851528 101 101 101 0.394479
-1.771457 -16.666672 -23.754683 111 111 111 0.434836
-9.111444 -18.627457 -10.350409 83 83 83 0.325560
-8.220593 -18.627457 -12.040867 151 151 151 0.593913
-7.342837 -18.203933 -13.690315 167 167 167 0.654080
-6.364803 -19.064994 -15.296793 123 123 123 0.482816
-5.490263 -18.657653 -16.982250 110 110 110 0.431224
-4.614157 -18.328312 -18.477317 129 129 129 0.507245
-3.551827 -18.577444 -20.315971 94 94 94 0.367641
-2.540623 -18.263745 -22.233452 102 102 102 0.400419
-1.868394 -18.627457 -23.808968 75 75 75 0.295364
-7.296246 -20.588242 -13.712564 150 150 150 0.590073
-6.313353 -20.588242 -15.351478 157 157 157 0.616874
-5.329799 -20.588242 -16.990021 145 145 145 0.569653
-4.450202 -20.588242 -18.686779 138 138 138 0.539950
-3.485608 -20.588242 -20.335939 47 47 47 0.185761
-2.660744 -20.046389 -22.056354 26 26 26 0.103781
-1.928542 -20.588242 -23.842651 53 53 53 0.206059
-2.665637 -22.549026 -22.066090 88 88 88 0.345190
-1.975707 -22.549026 -23.869064 83 83 83 0.326803
3 0 70 56
3 1 84 70
3 2 98 84
3 3 4 98
3 4 5 112
3 5 6 126
3 6 7 140
3 7 8 154
3 8 9 168
3 9 196 182
3 10 210 196
3 11 224 210
3 12 238 224
3 290 292 291
3 289 292 290
3 283 290 284
3 282 290 283
3 281 288 282
3 280 288 281
3 279 287 280
3 278 285 279
3 277 285 278
3 274 283 275
3 273 282 274
3 272 282 273
3 271 281 272
3 270 280 271
3 269 278 270
3 268 278 269
3 267 277 268
3 266 276 267
3 263 274 264
3 262 274 263
3 261 272 262
3 260 272 261
3 259 271 260
3 258 270 259
3 257 268 258
3 256 268 257
3 255 267 256
3 254 266 255
3 253 265 254
3 250 263 251
3 249 263 250
3 248 262 249
3 247 260 248
3 246 259 247
3 245 259 246
3 244 258 245
3 243 257 244
3 242 256 243
3 241 254 242
3 240 254 241
3 239 253 240
3 238 252 239
3 236 251 237
3 235 250 236
3 234 249 235
3 233 247 234
3 232 246 233
3 231 246 232
3 230 244 231
3 229 243 230
3 228 242 229
3 227 242 228
3 226 240 227
3 225 240 226
3 224 239 225
3 222 237 223
3 221 235 222
3 220 234 221
3 219 234 220
3 218 232 219
3 217 232 218
3 216 230 217
3 215 229 216
3 214 229 215
3 213 227 214
3 212 227 213
3 211 226 212
3 210 225 211
3 208 223 209
3 207 222 208
3 206 220 207
3 205 219 206
3 204 218 205
3 203 218 204
3 202 216 203
3 201 216 202
3 200 214 201
3 199 214 200
3 198 212 199
3 197 212 198
3 196 211 197
3 194 209 195
3 193 208 194
3 192 206 193
3 191 206 192
3 190 204 191
3 189 204 190
3 188 202 189
3 187 201 188
3 186 200 187
3 185 199 186
3 184 198 185
3 183 197 184
3 182 196 183
3 180 195 181
3 179 194 180
3 178 193 179
3 177 191 178
3 176 191 177
3 175 189 176
3 174 189 175
3 173 187 174
3 172 187 173
3 171 185 172
3 170 185 171
3 169 184 170
3 168 183 169
3 166 180 167
3 165 179 166
3 164 178 165
3 163 177 164
3 162 177 163
3 161 176 162
3 160 174 161
3 159 173 160
3 158 173 159
3 157 172 158
3 156 170 157
3 155 170 156
3 154 169 155
3 152 166 153
3 151 165 152
3 150 164 151
3 149 163 150
3 148 162 149
3 147 161 148
3 146 161 147
3 145 160 146
3 144 158 145
3 143 157 144
3 142 157 143
3 141 156 142
3 140 154 141
3 138 152 139
3 137 151 138
3 136 151 137
3 135 149 136
3 134 149 135
3 133 148 134
3 132 146 133
3 131 146 132
3 130 144 131
3 129 143 130
3 128 142 129
3 127 141 128
3 126 140 127
3 124 139 125
3 123 138 124
3 122 136 123
3 121 136 122
3 120 135 121
3 119 134 120
3 118 133 119
3 117 131 118
3 116 131 117
3 115 130 116
3 114 129 115
3 113 127 114
3 112 126 113
3 110 124 111
3 109 123 110
3 108 122 109
3 107 122 108
3 106 121 107
3 105 119 106
3 104 118 105
3 103 118 104
3 102 116 103
3 101 116 102
3 100 115 101
3 99 113 100
3 98 113 99
3 96 110 97
3 95 110 96
3 94 108 95
3 93 107 94
3 92 107 93
3 91 105 92
3 90 104 91
3 89 104 90
3 88 103 89
3 87 101 88
3 86 100 87
3 85 100 86
3 84 99 85
3 82 96 83
3 81 95 82
3 80 94 81
3 79 93 80
3 78 93 79
3 77 92 78
3 76 90 77
3 75 89 76
3 74 88 75
3 73 88 74
3 72 86 73
3 71 85 72
3 70 84 71
3 68 83 69
3 67 81 68
3 66 81 67
3 65 80 66
3 64 78 65
3 63 77 64
3 62 76 63
3 61 75 62
3 60 75 61
3 59 73 60
3 58 72 59
3 57 71 58
3 56 70 57
3 54 68 55
3 53 68 54
3 52 67 53
3 51 66 52
3 50 65 51
3 49 63 50
3 48 62 49
3 47 61 48
3 46 60 47
3 45 59 46
3 44 58 45
3 43 57 44
3 41 55 42
3 40 54 41
3 39 52 40
3 38 52 39
3 37 50 38
3 36 50 37
3 35 49 36
3 34 48 35
3 33 46 34
3 32 45 33
3 31 44 32
3 29 42 30
3 28 40 29
3 27 40 28
3 26 38 27
3 25 37 26
3 24 37 25
3 23 36 24
3 22 35 23
3 20 29 21
3 19 28 20
3 18 28 19
3 17 26 18
3 16 25 17
3 14 21 15
3 263 264 251
3 7 154 140
3 0 1 70
3 1 2 84
3 2 3 98
3 70 71 57
3 4 112 98
3 9 10 196
3 10 11 210
3 11 12 224
3 12 13 238
3 44 45 32
3 136 137 123
3 71 72 58
3 45 46 33
3 6 140 126
3 37 38 26
3 88 89 75
3 274 275 264
3 59 60 46
3 38 39 27
3 8 168 154
3 78 79 65
3 72 73 59
3 5 126 112
3 40 41 29
3 202 203 189
3 187 188 174
3 283 284 275
3 46 47 34
3 163 164 150
3 260 261 248
3 151 152 138
3 219 220 206
3 243 244 230
3 165 166 152
3 68 69 55
3 116 117 103
3 113 114 100
3 191 192 178
3 216 217 203
3 144 145 131
3 212 213 199
3 146 147 133
3 247 248 234
3 127 128 114
3 285 286 279
3 292 293 291
3 244 245 231
3 152 153 139
3 89 90 76
3 131 132 118
3 234 235 221
3 126 127 113
3 105 106 92
3 110 111 97
3 75 76 62
3 100 101 87
3 93 94 80
3 157 158 144
3 96 97 83
3 206 207 193
3 204 205 191
3 61 62 48
3 85 86 72
3 214 215 201
3 218 219 205
3 90 91 77
3 52 53 40
3 26 27 18
3 179 180 166
3 290 291 284
3 232 233 219
3 77 78 64
3 119 120 106
3 60 61 47
3 272 273 262
3 230 231 217
3 95 96 82
3 158 159 145
3 124 125 111
3 229 230 216
3 154 155 141
3 235 236 222
3 162 163 149
3 101 102 88
3 118 119 105
3 246 247 233
3 170 171 157
3 177 178 164
3 25 26 17
3 242 243 229
3 201 202 188
3 81 82 68
3 108 109 95
3 282 283 274
3 166 167 153
3 58 59 45
3 9 182 168
3 107 108 94
3 240 241 227
3 142 143 129
3 197 198 184
3 73 74 60
3 86 87 73
3 198 199 185
3 122 123 109
3 28 29 20
3 220 221 207
3 199 200 186
3 185 186 172
3 104 105 91
3 282 289 290
3 280 287 288
3 279 286 287
3 196 197 183
3 272 281 282
3 271 280 281
3 270 279 280
3 268 277 278
3 267 276 277
3 262 273 274
3 260 271 272
3 259 270 271
3 258 269 270
3 256 267 268
3 255 266 267
3 254 265 266
3 249 262 263
3 248 261 262
3 245 258 259
3 244 257 258
3 243 256 257
3 242 255 256
3 240 253 254
3 239 252 253
3 236 250 251
3 235 249 250
3 234 248 249
3 231 245 246
3 141 142 128
3 227 241 242
3 225 239 240
3 224 238 239
3 84 85 71
3 222 236 237
3 219 233 234
3 217 231 232
3 164 165 151
3 259 260 247
3 214 228 229
3 212 226 227
3 211 225 226
3 210 224 225
3 208 222 223
3 207 221 222
3 203 217 218
3 201 215 216
3 199 213 214
3 197 211 212
3 196 210 211
3 194 208 209
3 193 207 208
3 191 205 206
3 143 144 130
3 189 203 204
3 94 95 81
3 268 269 258
3 180 194 195
3 179 193 194
3 178 192 193
3 176 190 191
3 174 188 189
3 172 186 187
3 161 162 148
3 170 184 185
3 169 183 184
3 168 182 183
3 162 176 177
3 161 175 176
3 158 172 173
3 157 171 172
3 155 169 170
3 154 168 169
3 174 175 161
3 254 255 242
3 146 160 161
3 145 159 160
3 189 190 176
3 142 156 157
3 141 155 156
3 288 289 282
3 136 150 151
3 134 148 149
3 133 147 148
3 131 145 146
3 149 150 136
3 124 138 139
3 123 137 138
3 121 135 136
3 120 134 135
3 119 133 134
3 118 132 133
3 116 130 131
3 115 129 130
3 114 128 129
3 29 30 21
3 107 121 122
3 106 120 121
3 103 117 118
3 63 64 50
3 101 115 116
3 100 114 115
3 98 112 113
3 95 109 110
3 140 141 127
3 123 124 110
3 92 106 107
3 200 201 187
3 89 103 104
3 88 102 103
3 85 99 100
3 84 98 99
3 76 77 63
3 227 228 214
3 78 92 93
3 77 91 92
3 73 87 88
3 57 58 44
3 68 82 83
3 66 80 81
3 65 79 80
3 60 74 75
3 62 63 49
3 173 174 160
3 53 67 68
3 52 66 67
3 51 65 66
3 50 64 65
3 41 54 55
3 40 53 54
3 38 51 52
3 278 279 270
3 36 49 50
3 35 48 49
3 34 47 48
3 180 181 167
3 29 41 42
3 27 39 40
3 24 36 37
3 23 35 36
3 22 34 35
3 50 51 38
3 18 27 28
3 178 179 165
3 14 20 21
