ply
format ascii 1.0
comment openVA ply exporter, (c) Peter Felfer, The University of Sydney 2013, Rhett MPIE modified 2019
comment 21.5 to 91.6 atom percentage
element vertex 100
property float x
property float y
property float z
property uchar red
property uchar green
property uchar blue
property float value
element face 156
property list uchar uint vertex_indices
end_header
-9.000389 16.666656 4.644509 199 199 199 0.780279
-7.589984 16.666656 5.947711 255 255 255 1.000000
-6.308308 16.666656 7.388041 231 231 231 0.906715
-11.754478 14.705873 1.967031 182 182 182 0.715605
-10.434387 14.705873 3.366440 151 151 151 0.590299
-9.085756 14.705873 4.735446 125 125 125 0.488497
-7.649874 15.138601 6.015728 232 232 232 0.908141
-6.377488 14.705873 7.461733 149 149 149 0.585576
-12.964653 12.745089 0.450538 85 85 85 0.334045
-11.856445 12.745089 2.075652 132 132 132 0.517001
-10.552802 12.745334 3.490395 43 43 43 0.169273
-9.208946 12.313397 4.865064 176 176 176 0.691795
-7.663853 13.015137 6.215961 229 229 229 0.899680
-6.412714 12.745089 7.499258 197 197 197 0.773814
-13.221221 10.784305 0.723844 157 157 157 0.615246
-12.045652 10.793187 2.258411 183 183 183 0.717684
-10.558120 10.536152 3.706200 175 175 175 0.686863
-8.973656 10.347116 5.091627 141 141 141 0.552424
-7.879506 11.049738 6.036352 229 229 229 0.896606
-6.394187 10.784305 7.479522 236 236 236 0.924031
-13.302546 8.823521 0.810474 164 164 164 0.644971
-11.893402 8.618971 2.400546 224 224 224 0.878771
-10.615921 8.707217 3.689618 231 231 231 0.906495
-9.503562 8.680223 4.628240 129 129 129 0.505696
-7.949353 8.981577 6.052583 214 214 214 0.840137
-6.338801 8.823521 7.420523 171 171 171 0.670658
-13.341167 6.862737 0.851615 202 202 202 0.791164
-12.180308 6.535725 2.065265 217 217 217 0.851931
-10.853867 6.916009 3.411148 209 209 209 0.819204
-9.274872 6.877190 4.770134 107 107 107 0.421511
-7.750122 6.929913 6.048633 153 153 153 0.601376
-6.269037 6.862737 7.346208 142 142 142 0.555362
-13.330919 4.901953 0.840699 211 211 211 0.828774
-12.060724 4.823984 2.222726 235 235 235 0.920232
-10.683174 4.932295 3.574098 236 236 236 0.927278
-9.199412 4.926043 4.828742 167 167 167 0.654361
-7.552703 4.741156 6.153183 166 166 166 0.652032
-6.249036 4.901953 7.324902 132 132 132 0.517220
-13.366254 2.941169 0.878339 166 166 166 0.649275
-12.034935 2.925942 2.256813 240 240 240 0.939831
-10.460395 2.768583 3.655491 213 213 213 0.836764
-8.763844 2.924281 5.133895 137 137 137 0.538727
-7.373879 2.595560 6.369021 129 129 129 0.506017
-6.283917 2.941169 7.362059 101 101 101 0.394459
-13.397821 0.980384 0.911966 189 189 189 0.739868
-11.823899 1.227408 2.434277 200 200 200 0.785124
-10.548080 0.497921 3.578385 179 179 179 0.701583
-9.119536 0.946809 4.848140 112 112 112 0.440344
-7.847715 1.144838 6.015231 188 188 188 0.738032
-6.349331 0.980384 7.431740 147 147 147 0.575340
-13.396140 -0.980400 0.910174 142 142 142 0.555915
-12.030454 -0.961141 2.235781 184 184 184 0.720804
-10.391317 -1.392087 3.737392 188 188 188 0.738535
-9.122753 -1.086299 4.913013 207 207 207 0.812370
-7.747150 -0.512207 6.153368 181 181 181 0.711212
-6.437751 -0.980400 7.525928 17 17 17 0.068128
-13.417070 -2.941184 0.932470 179 179 179 0.701632
-12.052013 -3.371003 2.281362 178 178 178 0.699265
-10.645399 -3.042392 3.530247 194 194 194 0.762388
-9.345401 -2.812901 4.746956 187 187 187 0.731721
-7.802305 -2.846560 6.145212 107 107 107 0.419054
-6.499388 -2.941184 7.591587 4 4 4 0.015283
-13.414188 -4.901968 0.929400 54 54 54 0.212945
-12.094724 -5.044568 2.326759 101 101 101 0.394803
-10.981699 -5.002542 3.359898 27 27 27 0.106037
-9.408629 -4.694330 4.678480 43 43 43 0.167291
-7.835012 -5.267230 6.066702 89 89 89 0.347449
-6.496947 -4.901968 7.588986 118 118 118 0.461933
-13.383005 -6.862751 0.896183 32 32 32 0.125309
-12.119668 -6.487523 2.244575 0 0 0 0.000000
-10.711468 -6.816150 3.520829 76 76 76 0.296701
-9.257414 -6.845973 4.759646 63 63 63 0.246231
-7.722775 -7.392552 6.032219 182 182 182 0.714562
-6.432275 -6.862751 7.520095 199 199 199 0.780541
-13.350883 -8.823536 0.861966 199 199 199 0.780567
-12.019614 -8.291451 2.228903 73 73 73 0.287943
-10.521019 -8.960070 3.615689 24 24 24 0.093383
-8.848025 -8.914728 5.068055 58 58 58 0.227569
-7.396260 -9.285889 6.338146 33 33 33 0.131181
-6.285696 -8.823536 7.363954 145 145 145 0.570326
-13.277488 -10.784320 0.783781 223 223 223 0.872688
-11.846368 -10.467300 2.334077 182 182 182 0.714846
-10.582838 -10.781872 3.637274 167 167 167 0.655447
-9.427691 -10.802538 4.582969 114 114 114 0.449003
-8.063866 -10.911134 5.760544 110 110 110 0.430122
-6.295432 -10.784320 7.374324 119 119 119 0.464920
-13.215993 -12.745104 0.718275 185 185 185 0.726832
-12.077651 -12.378460 1.987085 186 186 186 0.727909
-10.587006 -12.715194 3.371388 159 159 159 0.621708
-8.891790 -12.784933 4.960594 75 75 75 0.294240
-7.355818 -12.728213 6.389165 122 122 122 0.476602
-6.333724 -12.745104 7.415115 169 169 169 0.663035
-11.803023 -14.705888 2.018744 148 148 148 0.581507
-10.399867 -14.705888 3.329668 116 116 116 0.456530
-9.001212 -14.664465 4.641038 95 95 95 0.370632
-7.583627 -14.686379 6.069665 180 180 180 0.707300
-6.339928 -14.705888 7.421724 227 227 227 0.891736
-8.915278 -16.666672 4.553846 175 175 175 0.687646
-7.608433 -16.666672 5.967364 217 217 217 0.849303
-6.319095 -16.666672 7.399531 252 252 252 0.988352
3 95 99 96
3 94 98 95
3 93 97 94
3 90 96 91
3 89 95 90
3 88 94 89
3 87 92 88
3 86 92 87
3 84 90 85
3 83 89 84
3 82 88 83
3 81 88 82
3 80 87 81
3 78 85 79
3 77 84 78
3 76 83 77
3 75 81 76
3 74 81 75
3 72 79 73
3 71 77 72
3 70 76 71
3 69 75 70
3 68 75 69
3 66 73 67
3 65 71 66
3 64 70 65
3 63 69 64
3 62 69 63
3 60 67 61
3 59 65 60
3 58 65 59
3 57 64 58
3 56 62 57
3 54 60 55
3 53 60 54
3 52 59 53
3 51 58 52
3 50 56 51
3 48 54 49
3 47 54 48
3 46 53 47
3 45 51 46
3 44 51 45
3 42 49 43
3 41 48 42
3 40 47 41
3 39 45 40
3 38 44 39
3 36 43 37
3 35 41 36
3 34 40 35
3 33 39 34
3 32 38 33
3 30 36 31
3 29 35 30
3 28 34 29
3 27 33 28
3 26 32 27
3 24 30 25
3 23 29 24
3 22 28 23
3 21 28 22
3 20 26 21
3 18 24 19
3 17 24 18
3 16 23 17
3 15 21 16
3 14 20 15
3 12 19 13
3 11 18 12
3 10 16 11
3 9 15 10
3 8 14 9
3 6 12 7
3 5 12 6
3 4 10 5
3 3 9 4
3 1 6 2
3 0 6 1
3 6 7 2
3 14 15 9
3 62 63 57
3 15 16 10
3 90 91 85
3 30 31 25
3 20 21 15
3 28 29 23
3 40 41 35
3 12 13 7
3 75 76 70
3 60 61 55
3 34 35 29
3 88 89 83
3 95 98 99
3 94 97 98
3 90 95 96
3 89 94 95
3 88 93 94
3 69 70 64
3 81 87 88
3 80 86 87
3 78 84 85
3 77 83 84
3 76 82 83
3 74 80 81
3 72 78 79
3 68 74 75
3 66 72 73
3 29 30 24
3 62 68 69
3 60 66 67
3 21 22 16
3 58 64 65
3 57 63 64
3 53 59 60
3 52 58 59
3 51 57 58
3 47 53 54
3 46 52 53
3 44 50 51
3 42 48 49
3 41 47 48
3 40 46 47
3 36 42 43
3 21 27 28
3 17 23 24
3 16 22 23
3 12 18 19
3 11 17 18
3 5 11 12
3 0 5 6
3 41 42 36
3 10 11 5
3 71 72 66
3 32 33 27
3 26 27 21
3 44 45 39
3 24 25 19
3 38 39 33
3 56 57 51
3 54 55 49
3 9 10 4
3 65 66 60
3 76 77 71
3 77 78 72
3 16 17 11
3 33 34 28
3 81 82 76
3 45 46 40
3 39 40 34
3 36 37 31
3 51 52 46
3 92 93 88
3 89 90 84
3 70 71 65
3 35 36 30
