ply
format ascii 1.0
comment openVA ply exporter, (c) Peter Felfer, The University of Sydney 2013, Rhett MPIE modified 2019
comment 7.57 to 106 atoms/nm2
element vertex 100
property float x
property float y
property float z
property uchar red
property uchar green
property uchar blue
property float value
element face 156
property list uchar uint vertex_indices
end_header
-9.000389 16.666656 4.644509 180 180 180 0.704183
-7.589984 16.666656 5.947711 208 208 208 0.814661
-6.308308 16.666656 7.388041 186 186 186 0.728097
-11.754478 14.705873 1.967031 209 209 209 0.819020
-10.434387 14.705873 3.366440 145 145 145 0.568891
-9.085756 14.705873 4.735446 133 133 133 0.519922
-7.649874 15.138601 6.015728 196 196 196 0.769380
-6.377488 14.705873 7.461733 143 143 143 0.562031
-12.964653 12.745089 0.450538 236 236 236 0.923611
-11.856445 12.745089 2.075652 196 196 196 0.769322
-10.552802 12.745334 3.490395 48 48 48 0.190109
-9.208946 12.313397 4.865064 166 166 166 0.651749
-7.663853 13.015137 6.215961 229 229 229 0.896219
-6.412714 12.745089 7.499258 180 180 180 0.704634
-13.221221 10.784305 0.723844 255 255 255 1.000000
-12.045652 10.793187 2.258411 250 250 250 0.979700
-10.558120 10.536152 3.706200 167 167 167 0.654704
-8.973656 10.347116 5.091627 163 163 163 0.637792
-7.879506 11.049738 6.036352 211 211 211 0.828501
-6.394187 10.784305 7.479522 208 208 208 0.816103
-13.302546 8.823521 0.810474 201 201 201 0.787283
-11.893402 8.618971 2.400546 214 214 214 0.837424
-10.615921 8.707217 3.689618 225 225 225 0.881719
-9.503562 8.680223 4.628240 133 133 133 0.520587
-7.949353 8.981577 6.052583 193 193 193 0.757523
-6.338801 8.823521 7.420523 156 156 156 0.611941
-13.341167 6.862737 0.851615 203 203 203 0.797480
-12.180308 6.535725 2.065265 209 209 209 0.818782
-10.853867 6.916009 3.411148 197 197 197 0.773313
-9.274872 6.877190 4.770134 105 105 105 0.412333
-7.750122 6.929913 6.048633 134 134 134 0.527000
-6.269037 6.862737 7.346208 125 125 125 0.490367
-13.330919 4.901953 0.840699 216 216 216 0.847608
-12.060724 4.823984 2.222726 219 219 219 0.857522
-10.683174 4.932295 3.574098 204 204 204 0.799306
-9.199412 4.926043 4.828742 136 136 136 0.531390
-7.552703 4.741156 6.153183 145 145 145 0.569062
-6.249036 4.901953 7.324902 118 118 118 0.463276
-13.366254 2.941169 0.878339 173 173 173 0.677608
-12.034935 2.925942 2.256813 224 224 224 0.878606
-10.460395 2.768583 3.655491 180 180 180 0.707169
-8.763844 2.924281 5.133895 121 121 121 0.474712
-7.373879 2.595560 6.369021 108 108 108 0.422899
-6.283917 2.941169 7.362059 90 90 90 0.351974
-13.397821 0.980384 0.911966 207 207 207 0.812393
-11.823899 1.227408 2.434277 197 197 197 0.772118
-10.548080 0.497921 3.578385 165 165 165 0.645728
-9.119536 0.946809 4.848140 142 142 142 0.556190
-7.847715 1.144838 6.015231 164 164 164 0.641813
-6.349331 0.980384 7.431740 108 108 108 0.424399
-13.396140 -0.980400 0.910174 134 134 134 0.527095
-12.030454 -0.961141 2.235781 146 146 146 0.574365
-10.391317 -1.392087 3.737392 145 145 145 0.569622
-9.122753 -1.086299 4.913013 196 196 196 0.767438
-7.747150 -0.512207 6.153368 161 161 161 0.632580
-6.437751 -0.980400 7.525928 0 0 0 0.000000
-13.417070 -2.941184 0.932470 165 165 165 0.648576
-12.052013 -3.371003 2.281362 143 143 143 0.562029
-10.645399 -3.042392 3.530247 143 143 143 0.561013
-9.345401 -2.812901 4.746956 160 160 160 0.625615
-7.802305 -2.846560 6.145212 105 105 105 0.412183
-6.499388 -2.941184 7.591587 51 51 51 0.200735
-13.414188 -4.901968 0.929400 60 60 60 0.234407
-12.094724 -5.044568 2.326759 97 97 97 0.380568
-10.981699 -5.002542 3.359898 104 104 104 0.406546
-9.408629 -4.694330 4.678480 57 57 57 0.222246
-7.835012 -5.267230 6.066702 100 100 100 0.392029
-6.496947 -4.901968 7.588986 119 119 119 0.467501
-13.383005 -6.862751 0.896183 63 63 63 0.246082
-12.119668 -6.487523 2.244575 72 72 72 0.280836
-10.711468 -6.816150 3.520829 77 77 77 0.302481
-9.257414 -6.845973 4.759646 58 58 58 0.226974
-7.722775 -7.392552 6.032219 175 175 175 0.686516
-6.432275 -6.862751 7.520095 177 177 177 0.693697
-13.350883 -8.823536 0.861966 197 197 197 0.771452
-12.019614 -8.291451 2.228903 93 93 93 0.362819
-10.521019 -8.960070 3.615689 42 42 42 0.165270
-8.848025 -8.914728 5.068055 71 71 71 0.279277
-7.396260 -9.285889 6.338146 132 132 132 0.519375
-6.285696 -8.823536 7.363954 135 135 135 0.528406
-13.277488 -10.784320 0.783781 224 224 224 0.876575
-11.846368 -10.467300 2.334077 189 189 189 0.740897
-10.582838 -10.781872 3.637274 185 185 185 0.725286
-9.427691 -10.802538 4.582969 119 119 119 0.466518
-8.063866 -10.911134 5.760544 109 109 109 0.426821
-6.295432 -10.784320 7.374324 114 114 114 0.446867
-13.215993 -12.745104 0.718275 179 179 179 0.701468
-12.077651 -12.378460 1.987085 196 196 196 0.769694
-10.587006 -12.715194 3.371388 127 127 127 0.498535
-8.891790 -12.784933 4.960594 85 85 85 0.333909
-7.355818 -12.728213 6.389165 111 111 111 0.435730
-6.333724 -12.745104 7.415115 145 145 145 0.567349
-11.803023 -14.705888 2.018744 112 112 112 0.438550
-10.399867 -14.705888 3.329668 89 89 89 0.349094
-9.001212 -14.664465 4.641038 88 88 88 0.343857
-7.583627 -14.686379 6.069665 166 166 166 0.649173
-6.339928 -14.705888 7.421724 177 177 177 0.694778
-8.915278 -16.666672 4.553846 153 153 153 0.598727
-7.608433 -16.666672 5.967364 210 210 210 0.825251
-6.319095 -16.666672 7.399531 230 230 230 0.903014
3 95 99 96
3 94 98 95
3 93 97 94
3 90 96 91
3 89 95 90
3 88 94 89
3 87 92 88
3 86 92 87
3 84 90 85
3 83 89 84
3 82 88 83
3 81 88 82
3 80 87 81
3 78 85 79
3 77 84 78
3 76 83 77
3 75 81 76
3 74 81 75
3 72 79 73
3 71 77 72
3 70 76 71
3 69 75 70
3 68 75 69
3 66 73 67
3 65 71 66
3 64 70 65
3 63 69 64
3 62 69 63
3 60 67 61
3 59 65 60
3 58 65 59
3 57 64 58
3 56 62 57
3 54 60 55
3 53 60 54
3 52 59 53
3 51 58 52
3 50 56 51
3 48 54 49
3 47 54 48
3 46 53 47
3 45 51 46
3 44 51 45
3 42 49 43
3 41 48 42
3 40 47 41
3 39 45 40
3 38 44 39
3 36 43 37
3 35 41 36
3 34 40 35
3 33 39 34
3 32 38 33
3 30 36 31
3 29 35 30
3 28 34 29
3 27 33 28
3 26 32 27
3 24 30 25
3 23 29 24
3 22 28 23
3 21 28 22
3 20 26 21
3 18 24 19
3 17 24 18
3 16 23 17
3 15 21 16
3 14 20 15
3 12 19 13
3 11 18 12
3 10 16 11
3 9 15 10
3 8 14 9
3 6 12 7
3 5 12 6
3 4 10 5
3 3 9 4
3 1 6 2
3 0 6 1
3 6 7 2
3 14 15 9
3 62 63 57
3 15 16 10
3 90 91 85
3 30 31 25
3 20 21 15
3 28 29 23
3 40 41 35
3 12 13 7
3 75 76 70
3 60 61 55
3 34 35 29
3 88 89 83
3 95 98 99
3 94 97 98
3 90 95 96
3 89 94 95
3 88 93 94
3 69 70 64
3 81 87 88
3 80 86 87
3 78 84 85
3 77 83 84
3 76 82 83
3 74 80 81
3 72 78 79
3 68 74 75
3 66 72 73
3 29 30 24
3 62 68 69
3 60 66 67
3 21 22 16
3 58 64 65
3 57 63 64
3 53 59 60
3 52 58 59
3 51 57 58
3 47 53 54
3 46 52 53
3 44 50 51
3 42 48 49
3 41 47 48
3 40 46 47
3 36 42 43
3 21 27 28
3 17 23 24
3 16 22 23
3 12 18 19
3 11 17 18
3 5 11 12
3 0 5 6
3 41 42 36
3 10 11 5
3 71 72 66
3 32 33 27
3 26 27 21
3 44 45 39
3 24 25 19
3 38 39 33
3 56 57 51
3 54 55 49
3 9 10 4
3 65 66 60
3 76 77 71
3 77 78 72
3 16 17 11
3 33 34 28
3 81 82 76
3 45 46 40
3 39 40 34
3 36 37 31
3 51 52 46
3 92 93 88
3 89 90 84
3 70 71 65
3 35 36 30
