ply
format ascii 1.0
comment openVA ply exporter, (c) Peter Felfer, The University of Sydney 2013, Rhett MPIE modified 2019
comment 20.4 to 94.8 atom percentage
element vertex 164
property float x
property float y
property float z
property uchar red
property uchar green
property uchar blue
property float value
element face 275
property list uchar uint vertex_indices
end_header
-12.775486 6.862737 30.330462 166 166 166 0.651546
-12.901806 4.901953 30.343241 224 224 224 0.878717
-12.925214 2.941169 30.345608 178 178 178 0.698685
-12.948562 0.980384 30.347971 94 94 94 0.366709
-12.965578 -0.980400 30.349691 48 48 48 0.187657
-12.910851 -2.941184 30.344156 158 158 158 0.620913
-12.803401 -4.901968 30.333284 98 98 98 0.385567
-12.669306 -6.862751 30.422897 47 47 47 0.184593
-6.133339 16.666656 12.526720 178 178 178 0.697937
-5.690029 16.666656 10.613993 207 207 207 0.810219
-8.023591 14.705873 18.040670 100 100 100 0.391057
-7.332369 14.705873 16.227154 159 159 159 0.622249
-6.742297 14.705873 14.373158 34 34 34 0.133206
-6.243337 14.705873 12.482701 89 89 89 0.347445
-5.751948 14.705873 10.589214 137 137 137 0.538301
-9.410989 12.745089 21.665720 79 79 79 0.310537
-8.828886 12.745089 19.808537 141 141 141 0.552469
-8.112929 12.745089 18.004917 176 176 176 0.690208
-7.484903 12.747229 16.163648 46 46 46 0.180236
-6.951118 12.750119 14.295364 44 44 44 0.173898
-6.343536 12.484181 12.719185 12 12 12 0.047131
-5.710784 12.745089 10.605687 145 145 145 0.569631
-10.807268 10.784305 25.287218 127 127 127 0.498923
-10.300071 10.784305 23.400057 205 205 205 0.803977
-9.666917 10.784305 21.563303 199 199 199 0.781196
-9.043499 10.352968 19.723500 192 192 192 0.752955
-8.229912 11.176623 18.007687 47 47 47 0.184646
-7.566779 10.811263 16.188970 124 124 124 0.488033
-6.940398 10.535456 14.173374 94 94 94 0.370465
-6.164914 10.719211 12.021531 65 65 65 0.252976
-5.697001 10.784305 10.611203 71 71 71 0.277495
-12.257320 8.823521 28.887196 81 81 81 0.319569
-11.723731 8.823521 27.010597 87 87 87 0.341859
-11.060740 8.823521 25.185781 127 127 127 0.497661
-10.470771 8.820487 23.333214 194 194 194 0.761236
-9.858816 8.756265 21.541145 167 167 167 0.653580
-9.158663 8.260709 19.681200 171 171 171 0.671275
-8.240749 9.019115 17.789739 117 117 117 0.457761
-7.433783 8.827246 15.668355 198 198 198 0.777215
-6.825401 8.454645 13.869601 156 156 156 0.610303
-6.212271 8.784342 12.330999 164 164 164 0.642237
-5.632835 8.823521 10.636881 184 184 184 0.720020
-12.518266 6.862737 28.782770 139 139 139 0.545771
-11.974561 6.871262 26.914460 157 157 157 0.614022
-11.349811 6.871805 25.073827 106 106 106 0.416138
-10.634391 6.665941 23.083519 82 82 82 0.323140
-9.821955 6.996171 21.235400 37 37 37 0.144256
-9.283683 6.422018 19.885393 77 77 77 0.300800
-8.454900 6.655175 18.059322 91 91 91 0.357429
-7.704014 7.166643 16.372859 148 148 148 0.578528
-6.989631 6.607071 14.489893 161 161 161 0.631004
-6.242105 6.736895 12.436942 107 107 107 0.417866
-5.579672 6.862737 10.658156 129 129 129 0.506172
-12.573514 5.105110 28.768025 218 218 218 0.854225
-12.018396 4.735007 26.724763 183 183 183 0.717915
-11.231998 4.873149 24.573595 107 107 107 0.420700
-10.635444 4.831668 23.055480 21 21 21 0.081937
-10.048082 5.010682 21.624477 86 86 86 0.335631
-9.087703 4.588546 19.616643 151 151 151 0.593396
-8.295496 4.532279 17.639292 110 110 110 0.431761
-7.642748 5.347599 16.162773 26 26 26 0.101344
-6.992340 4.438448 14.360868 64 64 64 0.249966
-6.332372 5.056005 12.818303 62 62 62 0.244244
-5.508086 4.901953 10.686804 7 7 7 0.027153
-12.517221 2.989069 28.214485 172 172 172 0.676137
-12.013038 2.892698 26.680363 210 210 210 0.821715
-11.411414 2.752485 25.148999 215 215 215 0.843097
-10.573642 3.069187 23.068807 140 140 140 0.550874
-9.681058 2.960383 21.060303 60 60 60 0.235674
-9.012994 2.839745 19.556167 170 170 170 0.665212
-8.445383 2.624521 18.013980 85 85 85 0.333670
-7.662202 3.316456 16.139792 60 60 60 0.235246
-7.079225 2.574751 14.611043 177 177 177 0.692197
-6.329417 3.108691 12.709781 150 150 150 0.589132
-5.605262 2.941169 10.647916 40 40 40 0.155573
-12.583828 1.017742 28.574226 177 177 177 0.695193
-11.979978 1.090369 26.607540 180 180 180 0.706475
-11.363327 0.933038 24.980695 224 224 224 0.878681
-10.817597 1.013872 23.634577 145 145 145 0.569953
-9.970440 0.860579 21.706241 43 43 43 0.170178
-9.068464 1.044537 19.569511 144 144 144 0.563233
-8.381071 0.884721 17.871043 110 110 110 0.433108
-7.708627 0.971707 16.166587 175 175 175 0.685587
-6.929067 1.184676 14.079643 192 192 192 0.754303
-6.217499 0.866325 12.280969 165 165 165 0.647101
-5.629959 0.980384 10.638032 98 98 98 0.384897
-12.580034 -1.154344 28.768737 111 111 111 0.434712
-12.103559 -0.689715 27.096034 130 130 130 0.510218
-11.410469 -0.816908 25.345614 197 197 197 0.772718
-10.531520 -1.142855 23.280010 59 59 59 0.231993
-9.746343 -1.300712 21.273014 17 17 17 0.065404
-9.248325 -0.694745 19.908768 81 81 81 0.316343
-8.497553 -0.799380 18.124391 154 154 154 0.605418
-7.761121 -1.212730 16.443212 30 30 30 0.119232
-6.998155 -0.744899 14.550146 127 127 127 0.497212
-6.166673 -1.402283 12.597409 118 118 118 0.463750
-5.440958 -0.980400 10.713667 147 147 147 0.575673
-12.505757 -3.232261 28.897648 171 171 171 0.670112
-12.047368 -2.707008 27.123969 98 98 98 0.385598
-11.303142 -2.876848 25.215844 199 199 199 0.780168
-10.620378 -3.241772 23.599464 197 197 197 0.773608
-9.989782 -3.037870 21.972365 32 32 32 0.125004
-9.228438 -2.756003 19.937330 41 41 41 0.159113
-8.361351 -3.109669 17.896372 85 85 85 0.331824
-7.479532 -2.700881 15.931059 97 97 97 0.381766
-6.764262 -3.110917 14.202837 180 180 180 0.707499
-6.046333 -3.106901 12.518472 40 40 40 0.156039
-5.473510 -2.941184 10.700641 124 124 124 0.486650
-12.346444 -4.946795 28.269631 62 62 62 0.243897
-11.785415 -4.820064 26.413790 137 137 137 0.536701
-11.118828 -4.661977 24.806776 215 215 215 0.844744
-10.498282 -5.196794 23.135545 199 199 199 0.778546
-9.765488 -4.624851 21.271455 138 138 138 0.539866
-9.008931 -5.032028 19.537713 119 119 119 0.468223
-8.349501 -4.979571 17.841577 119 119 119 0.467570
-7.557433 -4.870097 16.089288 214 214 214 0.838272
-6.881937 -4.953852 14.275134 253 253 253 0.990955
-6.082593 -4.956960 12.500669 225 225 225 0.880932
-5.440161 -4.901968 10.713986 210 210 210 0.822182
-12.354218 -6.855790 28.645755 113 113 113 0.442858
-11.813878 -6.850471 26.783635 193 193 193 0.757327
-11.191867 -6.402988 24.987435 218 218 218 0.853524
-10.462757 -7.342596 23.335347 123 123 123 0.483732
-9.814344 -6.457624 21.461821 83 83 83 0.325426
-9.029239 -7.294523 19.746664 0 0 0 0.000000
-8.228003 -6.744817 17.747571 79 79 79 0.308662
-7.420491 -7.110139 15.841525 226 226 226 0.885155
-6.693539 -6.686533 14.118570 238 238 238 0.933913
-5.998851 -6.853072 12.479520 207 207 207 0.811948
-5.448370 -6.862751 10.710701 191 191 191 0.747350
-12.363810 -8.823536 28.844580 116 116 116 0.453594
-11.818335 -8.823536 26.972738 207 207 207 0.812040
-11.080332 -8.584818 24.997083 216 216 216 0.847823
-10.293056 -9.217722 23.036615 168 168 168 0.658461
-9.662546 -8.650536 21.324467 19 19 19 0.075254
-8.954951 -8.940145 19.680578 74 74 74 0.289112
-8.428552 -8.841075 18.281175 16 16 16 0.061225
-7.687399 -9.023339 16.364924 125 125 125 0.490787
-6.879801 -8.605547 14.565320 216 216 216 0.847901
-6.161833 -8.614023 12.759091 72 72 72 0.280915
-5.472684 -8.823536 10.700972 106 106 106 0.417478
-11.075341 -10.784320 25.179939 221 221 221 0.864963
-10.356109 -10.784320 23.377632 112 112 112 0.437744
-9.589033 -10.817844 21.468570 132 132 132 0.519199
-8.930803 -10.611802 19.573729 97 97 97 0.381166
-8.274845 -10.526811 17.709489 48 48 48 0.187149
-7.706148 -11.104629 16.362991 177 177 177 0.694850
-6.826944 -10.726368 14.448084 219 219 219 0.860773
-5.988450 -10.695828 12.191831 132 132 132 0.516650
-5.514551 -10.784320 10.684216 78 78 78 0.307425
-9.536551 -12.745104 21.615473 55 55 55 0.217348
-8.906934 -12.745104 19.777302 142 142 142 0.558435
-8.252577 -12.290432 18.013730 164 164 164 0.644340
-7.349705 -12.955524 16.101032 243 243 243 0.953801
-6.596928 -13.021396 14.133325 250 250 250 0.978532
-6.049772 -12.672043 12.508925 209 209 209 0.819017
-5.516395 -12.745104 10.683478 159 159 159 0.623219
-8.030200 -14.705888 18.038025 228 228 228 0.896002
-7.182087 -14.705888 16.287292 255 255 255 1.000000
-6.546760 -14.705888 14.451408 255 255 255 0.998113
-5.936099 -14.758534 12.510722 243 243 243 0.951472
-5.534230 -14.705888 10.676342 231 231 231 0.907821
-5.836657 -16.666672 12.645448 246 246 246 0.965628
-5.471537 -16.666672 10.701430 202 202 202 0.790888
3 0 53 42
3 1 2 53
3 2 75 64
3 3 86 75
3 4 5 86
3 5 6 97
3 6 119 108
3 7 130 119
3 160 163 161
3 159 162 160
3 155 161 156
3 154 160 155
3 153 159 154
3 152 157 153
3 151 157 152
3 148 156 149
3 147 155 148
3 146 153 147
3 145 152 146
3 144 152 145
3 143 151 144
3 142 150 143
3 139 148 140
3 138 147 139
3 137 147 138
3 136 145 137
3 135 144 136
3 134 144 135
3 133 143 134
3 132 142 133
3 131 141 132
3 128 139 129
3 127 139 128
3 126 138 127
3 125 137 126
3 124 136 125
3 123 134 124
3 122 134 123
3 121 132 122
3 120 132 121
3 119 131 120
3 117 129 118
3 116 127 117
3 115 127 116
3 114 125 115
3 113 125 114
3 112 123 113
3 111 123 112
3 110 121 111
3 109 121 110
3 108 120 109
3 106 117 107
3 105 117 106
3 104 115 105
3 103 115 104
3 102 113 103
3 101 112 102
3 100 111 101
3 99 110 100
3 98 109 99
3 97 108 98
3 95 107 96
3 94 105 95
3 93 104 94
3 92 103 93
3 91 102 92
3 90 102 91
3 89 101 90
3 88 99 89
3 87 98 88
3 86 98 87
3 84 96 85
3 83 94 84
3 82 94 83
3 81 92 82
3 80 92 81
3 79 91 80
3 78 89 79
3 77 88 78
3 76 88 77
3 75 87 76
3 73 84 74
3 72 83 73
3 71 82 72
3 70 82 71
3 69 80 70
3 68 80 69
3 67 79 68
3 66 78 67
3 65 76 66
3 64 76 65
3 62 73 63
3 61 73 62
3 60 71 61
3 59 71 60
3 58 70 59
3 57 68 58
3 56 67 57
3 55 67 56
3 54 66 55
3 53 64 54
3 51 63 52
3 50 62 51
3 49 60 50
3 48 60 49
3 47 58 48
3 46 57 47
3 45 57 46
3 44 55 45
3 43 54 44
3 42 53 43
3 40 52 41
3 39 51 40
3 38 50 39
3 37 49 38
3 36 48 37
3 35 46 36
3 34 45 35
3 33 44 34
3 32 43 33
3 31 42 32
3 29 41 30
3 28 40 29
3 27 38 28
3 26 37 27
3 25 37 26
3 24 35 25
3 23 34 24
3 22 33 23
3 20 29 21
3 19 28 20
3 18 27 19
3 17 26 18
3 16 26 17
3 15 24 16
3 13 21 14
3 12 19 13
3 11 18 12
3 10 17 11
3 8 13 9
3 0 1 53
3 2 3 75
3 3 4 86
3 6 7 119
3 153 154 147
3 145 146 137
3 6 108 97
3 43 44 33
3 34 35 24
3 42 43 32
3 139 140 129
3 18 19 12
3 71 72 61
3 88 89 78
3 157 158 153
3 38 39 28
3 19 20 13
3 102 103 92
3 26 27 18
3 144 145 136
3 55 56 45
3 53 54 43
3 2 64 53
3 54 55 44
3 17 18 11
3 132 133 122
3 44 45 34
3 108 109 98
3 110 111 100
3 29 30 21
3 80 81 70
3 57 58 47
3 84 85 74
3 24 25 16
3 83 84 73
3 45 46 35
3 105 106 95
3 46 47 36
3 67 68 57
3 160 162 163
3 155 160 161
3 154 159 160
3 153 158 159
3 148 155 156
3 147 154 155
3 64 65 54
3 144 151 152
3 143 150 151
3 27 28 19
3 98 99 88
3 137 146 147
3 134 143 144
3 133 142 143
3 132 141 142
3 127 138 139
3 126 137 138
3 125 136 137
3 124 135 136
3 122 133 134
3 120 131 132
3 119 130 131
3 117 128 129
3 115 126 127
3 113 124 125
3 111 122 123
3 109 120 121
3 108 119 120
3 105 116 117
3 111 112 101
3 103 114 115
3 76 77 66
3 95 106 107
3 90 101 102
3 89 100 101
3 86 97 98
3 84 95 96
3 82 93 94
3 80 91 92
3 79 90 91
3 76 87 88
3 75 86 87
3 70 81 82
3 94 95 84
3 68 79 80
3 67 78 79
3 66 77 78
3 64 75 76
3 134 135 124
3 61 72 73
3 59 70 71
3 58 69 70
3 148 149 140
3 55 66 67
3 54 65 66
3 68 69 58
3 51 62 63
3 50 61 62
3 48 59 60
3 37 38 27
3 45 56 57
3 28 29 20
3 40 51 52
3 39 50 51
3 38 49 50
3 37 48 49
3 36 47 48
3 29 40 41
3 28 39 40
3 25 36 37
3 73 74 63
3 60 61 50
3 16 25 26
3 13 20 21
3 152 153 146
3 13 14 9
3 103 104 93
3 123 124 113
3 92 93 82
3 82 83 72
3 115 116 105
3 147 148 139
3 5 97 86
3 99 100 89
3 58 59 48
3 33 34 23
3 117 118 107
3 125 126 115
3 109 110 99
3 113 114 103
3 89 90 79
3 112 113 102
3 35 36 25
3 121 122 111
3 104 105 94
3 127 128 117
