ply
format ascii 1.0
comment openVA ply exporter, (c) Peter Felfer, The University of Sydney 2013, Rhett MPIE modified 2019
comment 7.61 to 109 atoms/nm2
element vertex 164
property float x
property float y
property float z
property uchar red
property uchar green
property uchar blue
property float value
element face 275
property list uchar uint vertex_indices
end_header
-12.775486 6.862737 30.330462 249 249 249 0.977493
-12.901806 4.901953 30.343241 252 252 252 0.987832
-12.925214 2.941169 30.345608 169 169 169 0.661013
-12.948562 0.980384 30.347971 111 111 111 0.435834
-12.965578 -0.980400 30.349691 127 127 127 0.498288
-12.910851 -2.941184 30.344156 159 159 159 0.623096
-12.803401 -4.901968 30.333284 143 143 143 0.561411
-12.669306 -6.862751 30.422897 145 145 145 0.568784
-6.133339 16.666656 12.526720 210 210 210 0.822801
-5.690029 16.666656 10.613993 246 246 246 0.965901
-8.023591 14.705873 18.040670 93 93 93 0.363893
-7.332369 14.705873 16.227154 163 163 163 0.640505
-6.742297 14.705873 14.373158 151 151 151 0.592767
-6.243337 14.705873 12.482701 106 106 106 0.413897
-5.751948 14.705873 10.589214 141 141 141 0.553323
-9.410989 12.745089 21.665720 210 210 210 0.823522
-8.828886 12.745089 19.808537 164 164 164 0.642832
-8.112929 12.745089 18.004917 167 167 167 0.655807
-7.484903 12.747229 16.163648 183 183 183 0.718906
-6.951118 12.750119 14.295364 103 103 103 0.403587
-6.343536 12.484181 12.719185 0 0 0 0.000000
-5.710784 12.745089 10.605687 129 129 129 0.507430
-10.807268 10.784305 25.287218 195 195 195 0.766570
-10.300071 10.784305 23.400057 254 254 254 0.997542
-9.666917 10.784305 21.563303 215 215 215 0.841970
-9.043499 10.352968 19.723500 170 170 170 0.665698
-8.229912 11.176623 18.007687 69 69 69 0.271524
-7.566779 10.811263 16.188970 133 133 133 0.520934
-6.940398 10.535456 14.173374 99 99 99 0.387103
-6.164914 10.719211 12.021531 102 102 102 0.398572
-5.697001 10.784305 10.611203 185 185 185 0.725074
-12.257320 8.823521 28.887196 82 82 82 0.322640
-11.723731 8.823521 27.010597 94 94 94 0.367221
-11.060740 8.823521 25.185781 128 128 128 0.503902
-10.470771 8.820487 23.333214 191 191 191 0.747982
-9.858816 8.756265 21.541145 173 173 173 0.676597
-9.158663 8.260709 19.681200 204 204 204 0.800026
-8.240749 9.019115 17.789739 111 111 111 0.434036
-7.433783 8.827246 15.668355 185 185 185 0.725989
-6.825401 8.454645 13.869601 144 144 144 0.563315
-6.212271 8.784342 12.330999 131 131 131 0.513013
-5.632835 8.823521 10.636881 192 192 192 0.751726
-12.518266 6.862737 28.782770 173 173 173 0.678595
-11.974561 6.871262 26.914460 194 194 194 0.761914
-11.349811 6.871805 25.073827 127 127 127 0.498317
-10.634391 6.665941 23.083519 101 101 101 0.397417
-9.821955 6.996171 21.235400 118 118 118 0.462321
-9.283683 6.422018 19.885393 96 96 96 0.376938
-8.454900 6.655175 18.059322 91 91 91 0.357883
-7.704014 7.166643 16.372859 136 136 136 0.534821
-6.989631 6.607071 14.489893 154 154 154 0.603973
-6.242105 6.736895 12.436942 108 108 108 0.422853
-5.579672 6.862737 10.658156 105 105 105 0.410199
-12.573514 5.105110 28.768025 230 230 230 0.903626
-12.018396 4.735007 26.724763 203 203 203 0.796975
-11.231998 4.873149 24.573595 126 126 126 0.493402
-10.635444 4.831668 23.055480 91 91 91 0.356030
-10.048082 5.010682 21.624477 99 99 99 0.388276
-9.087703 4.588546 19.616643 141 141 141 0.553737
-8.295496 4.532279 17.639292 101 101 101 0.395293
-7.642748 5.347599 16.162773 119 119 119 0.468354
-6.992340 4.438448 14.360868 82 82 82 0.322829
-6.332372 5.056005 12.818303 71 71 71 0.279884
-5.508086 4.901953 10.686804 43 43 43 0.170531
-12.517221 2.989069 28.214485 178 178 178 0.697497
-12.013038 2.892698 26.680363 215 215 215 0.843847
-11.411414 2.752485 25.148999 208 208 208 0.817050
-10.573642 3.069187 23.068807 146 146 146 0.572405
-9.681058 2.960383 21.060303 141 141 141 0.553002
-9.012994 2.839745 19.556167 149 149 149 0.586264
-8.445383 2.624521 18.013980 119 119 119 0.467498
-7.662202 3.316456 16.139792 69 69 69 0.271671
-7.079225 2.574751 14.611043 145 145 145 0.570476
-6.329417 3.108691 12.709781 118 118 118 0.461431
-5.605262 2.941169 10.647916 47 47 47 0.185927
-12.583828 1.017742 28.574226 194 194 194 0.760142
-11.979978 1.090369 26.607540 171 171 171 0.672313
-11.363327 0.933038 24.980695 223 223 223 0.872736
-10.817597 1.013872 23.634577 147 147 147 0.575805
-9.970440 0.860579 21.706241 148 148 148 0.580476
-9.068464 1.044537 19.569511 135 135 135 0.527779
-8.381071 0.884721 17.871043 107 107 107 0.419503
-7.708627 0.971707 16.166587 131 131 131 0.513385
-6.929067 1.184676 14.079643 143 143 143 0.560477
-6.217499 0.866325 12.280969 139 139 139 0.544812
-5.629959 0.980384 10.638032 79 79 79 0.309071
-12.580034 -1.154344 28.768737 134 134 134 0.523772
-12.103559 -0.689715 27.096034 136 136 136 0.535012
-11.410469 -0.816908 25.345614 186 186 186 0.727609
-10.531520 -1.142855 23.280010 84 84 84 0.331292
-9.746343 -1.300712 21.273014 52 52 52 0.202519
-9.248325 -0.694745 19.908768 91 91 91 0.356600
-8.497553 -0.799380 18.124391 119 119 119 0.468570
-7.761121 -1.212730 16.443212 10 10 10 0.037841
-6.998155 -0.744899 14.550146 99 99 99 0.389095
-6.166673 -1.402283 12.597409 108 108 108 0.422440
-5.440958 -0.980400 10.713667 128 128 128 0.502007
-12.505757 -3.232261 28.897648 128 128 128 0.501621
-12.047368 -2.707008 27.123969 104 104 104 0.407650
-11.303142 -2.876848 25.215844 191 191 191 0.749718
-10.620378 -3.241772 23.599464 178 178 178 0.696600
-9.989782 -3.037870 21.972365 80 80 80 0.312495
-9.228438 -2.756003 19.937330 47 47 47 0.184406
-8.361351 -3.109669 17.896372 69 69 69 0.272110
-7.479532 -2.700881 15.931059 81 81 81 0.316163
-6.764262 -3.110917 14.202837 161 161 161 0.631986
-6.046333 -3.106901 12.518472 95 95 95 0.371905
-5.473510 -2.941184 10.700641 130 130 130 0.508061
-12.346444 -4.946795 28.269631 78 78 78 0.307673
-11.785415 -4.820064 26.413790 169 169 169 0.662210
-11.118828 -4.661977 24.806776 214 214 214 0.839720
-10.498282 -5.196794 23.135545 193 193 193 0.755522
-9.765488 -4.624851 21.271455 106 106 106 0.413857
-9.008931 -5.032028 19.537713 119 119 119 0.466818
-8.349501 -4.979571 17.841577 113 113 113 0.442373
-7.557433 -4.870097 16.089288 201 201 201 0.788280
-6.881937 -4.953852 14.275134 223 223 223 0.875394
-6.082593 -4.956960 12.500669 214 214 214 0.837927
-5.440161 -4.901968 10.713986 187 187 187 0.733032
-12.354218 -6.855790 28.645755 141 141 141 0.553950
-11.813878 -6.850471 26.783635 212 212 212 0.830715
-11.191867 -6.402988 24.987435 228 228 228 0.893618
-10.462757 -7.342596 23.335347 125 125 125 0.491729
-9.814344 -6.457624 21.461821 97 97 97 0.382015
-9.029239 -7.294523 19.746664 137 137 137 0.535563
-8.228003 -6.744817 17.747571 103 103 103 0.403358
-7.420491 -7.110139 15.841525 218 218 218 0.855440
-6.693539 -6.686533 14.118570 227 227 227 0.890696
-5.998851 -6.853072 12.479520 179 179 179 0.700309
-5.448370 -6.862751 10.710701 189 189 189 0.740275
-12.363810 -8.823536 28.844580 177 177 177 0.696064
-11.818335 -8.823536 26.972738 246 246 246 0.966495
-11.080332 -8.584818 24.997083 219 219 219 0.857664
-10.293056 -9.217722 23.036615 166 166 166 0.652663
-9.662546 -8.650536 21.324467 109 109 109 0.428235
-8.954951 -8.940145 19.680578 99 99 99 0.389274
-8.428552 -8.841075 18.281175 53 53 53 0.206209
-7.687399 -9.023339 16.364924 123 123 123 0.483305
-6.879801 -8.605547 14.565320 209 209 209 0.818489
-6.161833 -8.614023 12.759091 125 125 125 0.491753
-5.472684 -8.823536 10.700972 127 127 127 0.498086
-11.075341 -10.784320 25.179939 255 255 255 1.000000
-10.356109 -10.784320 23.377632 120 120 120 0.469678
-9.589033 -10.817844 21.468570 122 122 122 0.478496
-8.930803 -10.611802 19.573729 108 108 108 0.424860
-8.274845 -10.526811 17.709489 70 70 70 0.276333
-7.706148 -11.104629 16.362991 182 182 182 0.715345
-6.826944 -10.726368 14.448084 219 219 219 0.860387
-5.988450 -10.695828 12.191831 127 127 127 0.496627
-5.514551 -10.784320 10.684216 76 76 76 0.298633
-9.536551 -12.745104 21.615473 59 59 59 0.230368
-8.906934 -12.745104 19.777302 151 151 151 0.590774
-8.252577 -12.290432 18.013730 157 157 157 0.617459
-7.349705 -12.955524 16.101032 224 224 224 0.879369
-6.596928 -13.021396 14.133325 242 242 242 0.948725
-6.049772 -12.672043 12.508925 198 198 198 0.774758
-5.516395 -12.745104 10.683478 145 145 145 0.569781
-8.030200 -14.705888 18.038025 245 245 245 0.960396
-7.182087 -14.705888 16.287292 224 224 224 0.880132
-6.546760 -14.705888 14.451408 226 226 226 0.884323
-5.936099 -14.758534 12.510722 234 234 234 0.918266
-5.534230 -14.705888 10.676342 231 231 231 0.906594
-5.836657 -16.666672 12.645448 224 224 224 0.880144
-5.471537 -16.666672 10.701430 221 221 221 0.866297
3 0 53 42
3 1 2 53
3 2 75 64
3 3 86 75
3 4 5 86
3 5 6 97
3 6 119 108
3 7 130 119
3 160 163 161
3 159 162 160
3 155 161 156
3 154 160 155
3 153 159 154
3 152 157 153
3 151 157 152
3 148 156 149
3 147 155 148
3 146 153 147
3 145 152 146
3 144 152 145
3 143 151 144
3 142 150 143
3 139 148 140
3 138 147 139
3 137 147 138
3 136 145 137
3 135 144 136
3 134 144 135
3 133 143 134
3 132 142 133
3 131 141 132
3 128 139 129
3 127 139 128
3 126 138 127
3 125 137 126
3 124 136 125
3 123 134 124
3 122 134 123
3 121 132 122
3 120 132 121
3 119 131 120
3 117 129 118
3 116 127 117
3 115 127 116
3 114 125 115
3 113 125 114
3 112 123 113
3 111 123 112
3 110 121 111
3 109 121 110
3 108 120 109
3 106 117 107
3 105 117 106
3 104 115 105
3 103 115 104
3 102 113 103
3 101 112 102
3 100 111 101
3 99 110 100
3 98 109 99
3 97 108 98
3 95 107 96
3 94 105 95
3 93 104 94
3 92 103 93
3 91 102 92
3 90 102 91
3 89 101 90
3 88 99 89
3 87 98 88
3 86 98 87
3 84 96 85
3 83 94 84
3 82 94 83
3 81 92 82
3 80 92 81
3 79 91 80
3 78 89 79
3 77 88 78
3 76 88 77
3 75 87 76
3 73 84 74
3 72 83 73
3 71 82 72
3 70 82 71
3 69 80 70
3 68 80 69
3 67 79 68
3 66 78 67
3 65 76 66
3 64 76 65
3 62 73 63
3 61 73 62
3 60 71 61
3 59 71 60
3 58 70 59
3 57 68 58
3 56 67 57
3 55 67 56
3 54 66 55
3 53 64 54
3 51 63 52
3 50 62 51
3 49 60 50
3 48 60 49
3 47 58 48
3 46 57 47
3 45 57 46
3 44 55 45
3 43 54 44
3 42 53 43
3 40 52 41
3 39 51 40
3 38 50 39
3 37 49 38
3 36 48 37
3 35 46 36
3 34 45 35
3 33 44 34
3 32 43 33
3 31 42 32
3 29 41 30
3 28 40 29
3 27 38 28
3 26 37 27
3 25 37 26
3 24 35 25
3 23 34 24
3 22 33 23
3 20 29 21
3 19 28 20
3 18 27 19
3 17 26 18
3 16 26 17
3 15 24 16
3 13 21 14
3 12 19 13
3 11 18 12
3 10 17 11
3 8 13 9
3 0 1 53
3 2 3 75
3 3 4 86
3 6 7 119
3 153 154 147
3 145 146 137
3 6 108 97
3 43 44 33
3 34 35 24
3 42 43 32
3 139 140 129
3 18 19 12
3 71 72 61
3 88 89 78
3 157 158 153
3 38 39 28
3 19 20 13
3 102 103 92
3 26 27 18
3 144 145 136
3 55 56 45
3 53 54 43
3 2 64 53
3 54 55 44
3 17 18 11
3 132 133 122
3 44 45 34
3 108 109 98
3 110 111 100
3 29 30 21
3 80 81 70
3 57 58 47
3 84 85 74
3 24 25 16
3 83 84 73
3 45 46 35
3 105 106 95
3 46 47 36
3 67 68 57
3 160 162 163
3 155 160 161
3 154 159 160
3 153 158 159
3 148 155 156
3 147 154 155
3 64 65 54
3 144 151 152
3 143 150 151
3 27 28 19
3 98 99 88
3 137 146 147
3 134 143 144
3 133 142 143
3 132 141 142
3 127 138 139
3 126 137 138
3 125 136 137
3 124 135 136
3 122 133 134
3 120 131 132
3 119 130 131
3 117 128 129
3 115 126 127
3 113 124 125
3 111 122 123
3 109 120 121
3 108 119 120
3 105 116 117
3 111 112 101
3 103 114 115
3 76 77 66
3 95 106 107
3 90 101 102
3 89 100 101
3 86 97 98
3 84 95 96
3 82 93 94
3 80 91 92
3 79 90 91
3 76 87 88
3 75 86 87
3 70 81 82
3 94 95 84
3 68 79 80
3 67 78 79
3 66 77 78
3 64 75 76
3 134 135 124
3 61 72 73
3 59 70 71
3 58 69 70
3 148 149 140
3 55 66 67
3 54 65 66
3 68 69 58
3 51 62 63
3 50 61 62
3 48 59 60
3 37 38 27
3 45 56 57
3 28 29 20
3 40 51 52
3 39 50 51
3 38 49 50
3 37 48 49
3 36 47 48
3 29 40 41
3 28 39 40
3 25 36 37
3 73 74 63
3 60 61 50
3 16 25 26
3 13 20 21
3 152 153 146
3 13 14 9
3 103 104 93
3 123 124 113
3 92 93 82
3 82 83 72
3 115 116 105
3 147 148 139
3 5 97 86
3 99 100 89
3 58 59 48
3 33 34 23
3 117 118 107
3 125 126 115
3 109 110 99
3 113 114 103
3 89 90 79
3 112 113 102
3 35 36 25
3 121 122 111
3 104 105 94
3 127 128 117
