ply
format ascii 1.0
comment openVA ply exporter, (c) Peter Felfer, The University of Sydney 2013, Rhett MPIE modified 2019
comment 9.34 to 91.2 atom percentage
element vertex 59
property float x
property float y
property float z
property uchar red
property uchar green
property uchar blue
property float value
element face 79
property list uchar uint vertex_indices
end_header
15.578113 2.941169 -34.574909 0 0 0 0.000000
15.669930 0.980384 -34.615219 30 30 30 0.118320
15.794858 -0.980400 -34.670063 205 205 205 0.804659
15.770308 -2.941184 -34.659283 227 227 227 0.891377
15.691550 -4.901968 -34.624710 54 54 54 0.213441
15.782169 -6.862751 -34.664490 31 31 31 0.122635
15.769652 -8.823536 -34.658997 41 41 41 0.161940
16.023081 -10.784320 -34.770252 116 116 116 0.454360
16.054033 -12.745104 -34.783840 180 180 180 0.706647
17.489286 14.705873 -29.656046 70 70 70 0.276443
16.911585 14.705873 -31.321720 213 213 213 0.834556
16.360115 14.705873 -32.998913 255 255 255 1.000000
17.687620 12.745089 -29.743122 222 222 222 0.870900
17.035430 12.737425 -31.377682 246 246 246 0.964040
16.437601 12.745089 -33.032932 248 248 248 0.971251
17.958074 10.790393 -29.861862 226 226 226 0.887108
17.209179 10.598121 -31.632742 193 193 193 0.756847
16.470383 10.784305 -33.047325 213 213 213 0.835070
18.139441 8.829350 -29.941488 221 221 221 0.866311
17.337121 8.509558 -31.803777 195 195 195 0.763629
16.516998 8.823521 -33.067791 126 126 126 0.494875
18.260033 6.862737 -29.994432 230 230 230 0.901078
17.585101 6.810647 -31.192446 212 212 212 0.830670
16.647314 6.862737 -33.125004 123 123 123 0.481332
18.168579 4.901953 -29.954281 159 159 159 0.623750
17.369271 4.932122 -31.495086 63 63 63 0.248542
16.603447 4.901953 -33.105743 91 91 91 0.356864
18.025272 2.941169 -29.891363 133 133 133 0.522623
17.136359 2.769220 -31.597303 53 53 53 0.205927
16.503866 2.941169 -33.062023 25 25 25 0.098338
17.970896 0.980384 -29.867491 150 150 150 0.588013
17.108695 0.496182 -31.425221 59 59 59 0.230438
16.500985 0.899247 -33.067240 54 54 54 0.210552
17.868135 -0.980400 -29.822374 119 119 119 0.467138
17.086455 -1.144109 -31.403984 105 105 105 0.411355
16.652850 -1.081947 -32.735312 184 184 184 0.721238
17.968365 -2.941184 -29.866379 78 78 78 0.305993
17.239970 -2.564302 -31.392392 198 198 198 0.777111
16.583299 -2.906998 -33.019816 228 228 228 0.893700
18.173327 -4.901573 -29.956367 97 97 97 0.379144
17.240098 -4.622790 -31.626211 65 65 65 0.255242
16.378116 -4.857099 -33.472508 152 152 152 0.596470
18.371862 -6.862751 -30.043530 139 139 139 0.543926
17.520253 -6.955317 -31.423660 99 99 99 0.390192
16.772448 -6.519088 -32.923643 98 98 98 0.382664
18.216108 -8.823536 -29.975149 171 171 171 0.671880
17.552967 -8.855097 -31.580558 140 140 140 0.547566
16.702331 -8.729207 -33.115139 71 71 71 0.279829
18.101023 -10.784320 -29.924622 197 197 197 0.771805
17.351543 -10.578053 -31.698075 63 63 63 0.245555
16.682445 -10.720564 -33.196036 59 59 59 0.230909
17.870752 -12.755346 -29.823524 170 170 170 0.668096
17.273708 -12.674482 -31.491958 143 143 143 0.560723
16.685659 -12.263669 -33.158892 144 144 144 0.564945
17.523699 -14.705888 -29.671154 155 155 155 0.608805
16.976820 -14.705888 -31.350361 153 153 153 0.600843
16.576149 -14.705888 -33.093761 205 205 205 0.804900
16.783611 -16.666672 -31.265535 162 162 162 0.636588
16.331387 -16.666672 -32.986298 180 180 180 0.706390
3 32 1 29
3 35 2 32
3 38 2 35
3 41 3 38
3 44 5 41
3 47 5 44
3 50 7 47
3 53 7 50
3 56 8 53
3 57 58 55
3 54 55 51
3 55 56 52
3 51 52 48
3 52 53 49
3 48 49 45
3 49 47 46
3 45 43 42
3 46 47 43
3 42 43 39
3 43 44 40
3 39 40 36
3 40 38 37
3 36 37 33
3 37 35 34
3 33 31 30
3 34 35 31
3 30 28 27
3 31 32 28
3 27 25 24
3 28 26 25
3 24 22 21
3 25 23 22
3 21 22 18
3 22 23 19
3 18 16 15
3 19 20 16
3 15 13 12
3 16 14 13
3 12 10 9
3 13 11 10
3 38 3 2
3 41 4 3
3 47 6 5
3 53 8 7
3 37 34 33
3 2 1 32
3 32 29 28
3 56 53 52
3 49 50 47
3 45 46 43
3 40 41 38
3 37 38 35
3 33 34 31
3 30 31 28
3 27 28 25
3 28 29 26
3 24 25 22
3 25 26 23
3 18 19 16
3 15 16 13
3 16 17 14
3 12 13 10
3 13 14 11
3 1 0 29
3 44 41 40
3 58 56 55
3 23 20 19
3 52 49 48
3 40 37 36
3 7 6 47
3 22 19 18
3 53 50 49
3 35 32 31
3 5 4 41
3 55 52 51
3 43 40 39
3 20 17 16
3 49 46 45
3 47 44 43
