ply
format ascii 1.0
comment openVA ply exporter, (c) Peter Felfer, The University of Sydney 2013, Rhett MPIE modified 2019
comment 26.1 to 92.9 atom percentage
element vertex 30
property float x
property float y
property float z
property uchar red
property uchar green
property uchar blue
property float value
element face 35
property list uchar uint vertex_indices
end_header
20.128149 -8.823536 -29.664537 214 214 214 0.840591
21.454628 -8.823536 -30.594738 250 250 250 0.980855
20.188826 -6.862751 -29.562252 92 92 92 0.360525
21.556236 -6.862751 -30.423450 216 216 216 0.846599
22.992922 -6.862751 -31.167871 249 249 249 0.977522
20.214048 -4.901968 -29.519735 68 68 68 0.267778
21.585514 -4.902326 -30.374714 100 100 100 0.390258
22.948000 -4.901968 -31.243597 231 231 231 0.905139
20.252777 -2.941184 -29.454445 56 56 56 0.218173
21.592823 -2.939770 -30.359467 31 31 31 0.119850
22.962481 -2.941184 -31.219187 170 170 170 0.665555
20.242012 -0.980400 -29.472593 61 61 61 0.238237
21.518374 -0.793884 -30.186237 65 65 65 0.256232
23.018988 -0.980400 -31.123930 103 103 103 0.402842
20.279696 0.980384 -29.409067 0 0 0 0.000000
21.472833 1.300651 -30.092648 59 59 59 0.230232
22.999746 0.980384 -31.156366 135 135 135 0.530437
20.283920 2.941169 -29.401947 75 75 75 0.293096
21.645320 2.999196 -30.255481 166 166 166 0.651070
22.987154 2.941169 -31.177595 190 190 190 0.745392
20.207960 4.901953 -29.529997 29 29 29 0.113875
21.702486 5.100720 -30.478706 102 102 102 0.398711
22.989971 4.901953 -31.172846 223 223 223 0.874057
20.180130 6.862737 -29.576912 85 85 85 0.331492
21.375438 7.187463 -30.325748 160 160 160 0.627145
22.949764 6.862737 -31.240623 197 197 197 0.770940
20.175081 8.823521 -29.585423 222 222 222 0.869182
21.536625 8.823521 -30.456511 223 223 223 0.875003
20.134842 10.784305 -29.653257 255 255 255 1.000000
21.591305 10.784305 -30.364334 243 243 243 0.953489
3 28 27 26
3 26 24 23
3 27 25 24
3 23 21 20
3 24 25 21
3 20 18 17
3 21 19 18
3 17 15 14
3 18 16 15
3 14 12 11
3 15 16 12
3 11 12 8
3 12 13 9
3 8 9 5
3 9 10 6
3 5 6 2
3 6 7 3
3 2 3 0
3 28 29 27
3 26 27 24
3 23 24 21
3 20 21 18
3 21 22 19
3 17 18 15
3 18 19 16
3 14 15 12
3 7 4 3
3 16 13 12
3 25 22 21
3 12 9 8
3 3 1 0
3 6 3 2
3 10 7 6
3 9 6 5
3 13 10 9
