ply
format ascii 1.0
comment openVA ply exporter, (c) Peter Felfer, The University of Sydney 2013, Rhett MPIE modified 2019
comment 27.3 to 109 atoms/nm2
element vertex 30
property float x
property float y
property float z
property uchar red
property uchar green
property uchar blue
property float value
element face 35
property list uchar uint vertex_indices
end_header
20.128149 -8.823536 -29.664537 213 213 213 0.834405
21.454628 -8.823536 -30.594738 245 245 245 0.959684
20.188826 -6.862751 -29.562252 69 69 69 0.272499
21.556236 -6.862751 -30.423450 202 202 202 0.790489
22.992922 -6.862751 -31.167871 255 255 255 1.000000
20.214048 -4.901968 -29.519735 31 31 31 0.123469
21.585514 -4.902326 -30.374714 74 74 74 0.288704
22.948000 -4.901968 -31.243597 213 213 213 0.835125
20.252777 -2.941184 -29.454445 16 16 16 0.063772
21.592823 -2.939770 -30.359467 0 0 0 0.000000
22.962481 -2.941184 -31.219187 118 118 118 0.463556
20.242012 -0.980400 -29.472593 31 31 31 0.120377
21.518374 -0.793884 -30.186237 41 41 41 0.159732
23.018988 -0.980400 -31.123930 67 67 67 0.261537
20.279696 0.980384 -29.409067 16 16 16 0.062508
21.472833 1.300651 -30.092648 41 41 41 0.160186
22.999746 0.980384 -31.156366 112 112 112 0.440733
20.283920 2.941169 -29.401947 79 79 79 0.311234
21.645320 2.999196 -30.255481 171 171 171 0.671204
22.987154 2.941169 -31.177595 170 170 170 0.665794
20.207960 4.901953 -29.529997 72 72 72 0.280821
21.702486 5.100720 -30.478706 77 77 77 0.302578
22.989971 4.901953 -31.172846 220 220 220 0.863982
20.180130 6.862737 -29.576912 78 78 78 0.307319
21.375438 7.187463 -30.325748 139 139 139 0.544353
22.949764 6.862737 -31.240623 145 145 145 0.568026
20.175081 8.823521 -29.585423 209 209 209 0.819767
21.536625 8.823521 -30.456511 186 186 186 0.730339
20.134842 10.784305 -29.653257 210 210 210 0.822955
21.591305 10.784305 -30.364334 197 197 197 0.773767
3 28 27 26
3 26 24 23
3 27 25 24
3 23 21 20
3 24 25 21
3 20 18 17
3 21 19 18
3 17 15 14
3 18 16 15
3 14 12 11
3 15 16 12
3 11 12 8
3 12 13 9
3 8 9 5
3 9 10 6
3 5 6 2
3 6 7 3
3 2 3 0
3 28 29 27
3 26 27 24
3 23 24 21
3 20 21 18
3 21 22 19
3 17 18 15
3 18 19 16
3 14 15 12
3 7 4 3
3 16 13 12
3 25 22 21
3 12 9 8
3 3 1 0
3 6 3 2
3 10 7 6
3 9 6 5
3 13 10 9
