ply
format ascii 1.0
comment openVA ply exporter, (c) Peter Felfer, The University of Sydney 2013, Rhett MPIE modified 2019
comment 29.2 to 84.5 atom percentage
element vertex 21
property float x
property float y
property float z
property uchar red
property uchar green
property uchar blue
property float value
element face 22
property list uchar uint vertex_indices
end_header
-19.698456 2.941169 -1.660133 145 145 145 0.568398
-19.718855 0.980384 -1.571192 208 208 208 0.817487
-19.733740 -0.980400 -1.506292 208 208 208 0.814018
-19.708302 -2.941184 -1.617204 244 244 244 0.955627
-16.380852 -6.862751 -1.046621 171 171 171 0.671378
-18.006395 -6.862751 -1.498385 166 166 166 0.651912
-16.392941 -4.901968 -0.993918 226 226 226 0.885266
-18.033785 -4.901968 -1.378967 136 136 136 0.532377
-16.412958 -2.941184 -0.906642 255 255 255 1.000000
-18.059616 -2.941184 -1.266339 230 230 230 0.900526
-16.428400 -0.980400 -0.839311 252 252 252 0.987276
-18.231269 -0.794151 -1.236131 208 208 208 0.815838
-16.431732 0.980384 -0.824784 252 252 252 0.988405
-17.873775 1.301327 -1.122251 249 249 249 0.976760
-16.440744 2.941169 -0.785487 76 76 76 0.298127
-18.059267 3.002156 -1.224434 179 179 179 0.702982
-16.420206 4.901953 -0.875040 0 0 0 0.000000
-18.042105 4.901953 -1.342691 40 40 40 0.158684
-16.404884 6.862737 -0.941840 38 38 38 0.149793
-18.006329 6.862737 -1.498673 115 115 115 0.449465
-16.350067 8.823521 -1.180840 21 21 21 0.081121
3 11 3 9
3 13 1 11
3 15 1 13
3 17 0 15
3 20 19 18
3 18 17 16
3 16 15 14
3 14 13 12
3 12 11 10
3 10 9 8
3 8 7 6
3 6 7 4
3 11 2 3
3 15 0 1
3 18 19 17
3 16 17 15
3 14 15 13
3 12 13 11
3 10 11 9
3 8 9 7
3 7 5 4
3 1 2 11
