ply
format ascii 1.0
comment openVA ply exporter, (c) Peter Felfer, The University of Sydney 2013, Rhett MPIE modified 2019
comment 18.7 to 105 atoms/nm2
element vertex 21
property float x
property float y
property float z
property uchar red
property uchar green
property uchar blue
property float value
element face 22
property list uchar uint vertex_indices
end_header
-19.698456 2.941169 -1.660133 124 124 124 0.487381
-19.718855 0.980384 -1.571192 196 196 196 0.767180
-19.733740 -0.980400 -1.506292 173 173 173 0.677993
-19.708302 -2.941184 -1.617204 152 152 152 0.595465
-16.380852 -6.862751 -1.046621 161 161 161 0.630768
-18.006395 -6.862751 -1.498385 155 155 155 0.608357
-16.392941 -4.901968 -0.993918 194 194 194 0.760205
-18.033785 -4.901968 -1.378967 151 151 151 0.591499
-16.412958 -2.941184 -0.906642 228 228 228 0.894456
-18.059616 -2.941184 -1.266339 205 205 205 0.802730
-16.428400 -0.980400 -0.839311 216 216 216 0.847902
-18.231269 -0.794151 -1.236131 190 190 190 0.743324
-16.431732 0.980384 -0.824784 222 222 222 0.872046
-17.873775 1.301327 -1.122251 255 255 255 1.000000
-16.440744 2.941169 -0.785487 83 83 83 0.326138
-18.059267 3.002156 -1.224434 154 154 154 0.604898
-16.420206 4.901953 -0.875040 0 0 0 0.000000
-18.042105 4.901953 -1.342691 26 26 26 0.103128
-16.404884 6.862737 -0.941840 37 37 37 0.145189
-18.006329 6.862737 -1.498673 83 83 83 0.325280
-16.350067 8.823521 -1.180840 76 76 76 0.298862
3 11 3 9
3 13 1 11
3 15 1 13
3 17 0 15
3 20 19 18
3 18 17 16
3 16 15 14
3 14 13 12
3 12 11 10
3 10 9 8
3 8 7 6
3 6 7 4
3 11 2 3
3 15 0 1
3 18 19 17
3 16 17 15
3 14 15 13
3 12 13 11
3 10 11 9
3 8 9 7
3 7 5 4
3 1 2 11
