ply
format ascii 1.0
comment openVA ply exporter, (c) Peter Felfer, The University of Sydney 2013, Rhett MPIE modified 2019
comment 15 to 93.9 atom percentage
element vertex 17
property float x
property float y
property float z
property uchar red
property uchar green
property uchar blue
property float value
element face 15
property list uchar uint vertex_indices
end_header
-11.380418 -8.823536 32.466682 0 0 0 0.000000
-12.247073 -6.862751 31.265642 65 65 65 0.254297
-11.563379 -6.862751 32.587166 94 94 94 0.367648
-12.425364 -4.901968 31.383049 161 161 161 0.630451
-11.707632 -4.901968 32.682159 216 216 216 0.846453
-12.483675 -2.941184 31.421448 225 225 225 0.882020
-11.745387 -2.941184 32.707024 191 191 191 0.749388
-12.493357 -0.980400 31.427824 194 194 194 0.760082
-11.737193 -0.980400 32.701626 205 205 205 0.805040
-12.478192 0.980384 31.417839 121 121 121 0.474399
-11.791492 0.980384 32.737385 128 128 128 0.501313
-12.394452 2.941169 31.362694 102 102 102 0.398124
-11.689032 2.941169 32.669910 114 114 114 0.447847
-12.312658 4.901953 31.308830 234 234 234 0.916033
-11.599911 4.901953 32.611225 212 212 212 0.833291
-12.210762 6.862737 31.241730 255 255 255 1.000000
-11.515253 6.862737 32.555473 252 252 252 0.986914
3 15 16 13
3 13 14 11
3 11 12 9
3 9 8 7
3 7 6 5
3 5 4 3
3 3 2 1
3 12 10 9
3 9 10 8
3 7 8 6
3 5 6 4
3 3 4 2
3 1 2 0
3 16 14 13
3 14 12 11
