ply
format ascii 1.0
comment openVA ply exporter, (c) Peter Felfer, The University of Sydney 2013, Rhett MPIE modified 2019
comment 36.6 to 91.4 atom percentage
element vertex 12
property float x
property float y
property float z
property uchar red
property uchar green
property uchar blue
property float value
element face 10
property list uchar uint vertex_indices
end_header
-24.025518 -2.941184 -32.098217 255 255 255 1.000000
-21.438324 -6.862751 -33.577877 73 73 73 0.286369
-22.710796 -6.862751 -32.805874 0 0 0 0.000000
-21.471069 -4.901968 -33.627754 197 197 197 0.773188
-22.740986 -4.901968 -32.851856 208 208 208 0.816316
-21.507750 -2.941184 -33.683624 209 209 209 0.821012
-22.742222 -2.941184 -32.853741 240 240 240 0.943069
-21.507662 -0.980400 -33.683487 236 236 236 0.926853
-22.737047 -0.980400 -32.845856 250 250 250 0.982165
-21.490410 0.980384 -33.657211 166 166 166 0.650120
-22.753468 0.980384 -32.870869 190 190 190 0.746324
-21.485197 2.941169 -33.649273 53 53 53 0.209434
3 8 0 6
3 11 10 9
3 9 10 7
3 7 6 5
3 5 4 3
3 3 2 1
3 7 8 6
3 5 6 4
3 3 4 2
3 10 8 7
