ply
format ascii 1.0
comment openVA ply exporter, (c) Peter Felfer, The University of Sydney 2013, Rhett MPIE modified 2019
comment 63.8 to 96.3 atoms/nm2
element vertex 12
property float x
property float y
property float z
property uchar red
property uchar green
property uchar blue
property float value
element face 10
property list uchar uint vertex_indices
end_header
-24.025518 -2.941184 -32.098217 169 169 169 0.663229
-21.438324 -6.862751 -33.577877 250 250 250 0.981589
-22.710796 -6.862751 -32.805874 255 255 255 1.000000
-21.471069 -4.901968 -33.627754 249 249 249 0.977085
-22.740986 -4.901968 -32.851856 250 250 250 0.980243
-21.507750 -2.941184 -33.683624 207 207 207 0.813249
-22.742222 -2.941184 -32.853741 173 173 173 0.678085
-21.507662 -0.980400 -33.683487 76 76 76 0.297092
-22.737047 -0.980400 -32.845856 151 151 151 0.594049
-21.490410 0.980384 -33.657211 0 0 0 0.000000
-22.753468 0.980384 -32.870869 97 97 97 0.378757
-21.485197 2.941169 -33.649273 43 43 43 0.167307
3 8 0 6
3 11 10 9
3 9 10 7
3 7 6 5
3 5 4 3
3 3 2 1
3 7 8 6
3 5 6 4
3 3 4 2
3 10 8 7
