ply
format ascii 1.0
comment openVA ply exporter, (c) Peter Felfer, The University of Sydney 2013, Rhett MPIE modified 2019
comment 21 to 93.2 atom percentage
element vertex 528
property float x
property float y
property float z
property uchar red
property uchar green
property uchar blue
property float value
element face 967
property list uchar uint vertex_indices
end_header
-0.822672 22.549011 -25.569107 37 155 232 0.146029
-0.818621 20.588226 -25.538895 36 193 174 0.140771
-0.801834 18.627441 -25.413681 1 184 202 0.003571
-0.802429 16.666656 -25.418121 25 191 182 0.096395
-0.785387 14.705873 -25.291004 37 155 232 0.146029
-0.759460 12.745089 -25.097620 39 151 235 0.154000
-0.753506 10.784305 -25.053207 1 184 202 0.003571
-0.769472 8.823521 -25.172293 44 196 167 0.171700
-0.773054 6.862737 -25.199015 37 155 232 0.146029
-0.760358 4.901953 -25.104317 64 42 180 0.250390
-0.780934 2.941169 -25.257790 71 71 235 0.280333
-0.802330 0.980384 -25.417381 46 135 247 0.178643
-0.820594 -0.980400 -25.553604 1 184 202 0.003571
-0.837982 -2.941184 -25.683300 43 145 239 0.168743
-0.833460 -4.901968 -25.649572 39 151 235 0.154000
-0.797756 -6.857434 -25.383260 56 117 254 0.220643
-0.774564 -8.823536 -25.210278 72 77 240 0.281338
-0.779463 -10.784320 -25.246815 39 151 235 0.154000
-0.787591 -12.745104 -25.307440 37 155 232 0.146029
-0.803039 -14.705888 -25.422668 28 169 223 0.111252
-0.810327 -16.666672 -25.477026 24 173 219 0.095210
-0.824589 -18.627457 -25.583408 2 186 195 0.006657
-0.833715 -20.588242 -25.651478 39 151 235 0.154000
-0.862365 -22.549026 -25.865177 35 160 229 0.138024
0.968820 22.549011 -25.878542 71 71 235 0.280333
2.780548 22.549011 -26.073858 37 155 232 0.146029
4.598582 22.549011 -26.227545 56 117 254 0.220643
0.976754 21.021904 -25.845419 24 173 219 0.095210
2.750095 20.617127 -25.986403 50 124 252 0.196333
4.588541 20.158827 -26.192710 56 117 254 0.220643
6.411211 20.588226 -26.416901 32 165 227 0.124814
8.222173 20.588226 -26.617275 43 145 239 0.168743
0.824578 18.926569 -25.720216 24 173 219 0.095210
2.861627 18.416327 -25.938495 37 155 232 0.146029
4.883593 18.199068 -26.237852 8 181 208 0.029667
6.477236 18.543215 -26.431405 8 181 208 0.029667
7.982546 18.885322 -26.648971 1 184 202 0.003571
10.013250 18.627441 -26.948904 24 173 219 0.095210
11.803825 18.627441 -27.283840 37 155 232 0.146029
1.155684 16.553610 -25.657750 11 189 189 0.043329
2.870909 16.578104 -25.883592 18 177 214 0.068871
4.464007 16.357554 -26.197915 28 169 223 0.111252
6.435514 16.524899 -26.457239 43 145 239 0.168743
8.220909 17.143604 -26.697633 45 140 243 0.176438
9.958705 16.698347 -27.012096 71 88 248 0.279467
11.553572 16.411029 -27.212894 50 124 252 0.196333
13.600274 16.666656 -27.580008 8 181 208 0.029667
15.321787 16.666656 -28.370821 36 193 174 0.140771
1.281525 14.408849 -25.604078 8 181 208 0.029667
3.011912 14.780045 -25.962093 50 124 252 0.196333
4.649130 14.613768 -26.228829 2 186 195 0.006657
6.216266 14.453243 -26.457893 2 186 195 0.006657
8.309524 14.968875 -26.765928 69 55 213 0.270648
10.209124 14.947667 -27.009512 68 50 203 0.264729
11.825331 14.677978 -27.269444 71 71 235 0.280333
13.623499 14.268512 -27.605513 8 181 208 0.029667
15.269960 14.678421 -28.294870 11 189 189 0.043329
17.102732 14.705873 -28.769331 24 173 219 0.095210
0.796754 12.955667 -25.446838 25 191 182 0.096395
2.427090 12.708167 -25.810683 18 177 214 0.068871
4.482007 12.671342 -26.169174 2 186 195 0.006657
6.597515 12.400759 -26.476626 2 186 195 0.006657
8.206437 12.799483 -26.787115 47 129 250 0.183405
10.174083 13.023876 -27.029223 62 111 255 0.244033
12.060004 12.971659 -27.332653 45 140 243 0.176438
13.384747 12.351562 -27.589222 24 173 219 0.095210
15.166331 12.479493 -28.090144 18 177 214 0.068871
17.134302 12.745089 -28.560942 47 129 250 0.183405
0.797404 10.981996 -25.432688 36 193 174 0.140771
2.669373 10.801698 -25.890966 28 169 223 0.111252
4.546980 10.338944 -26.212459 39 151 235 0.154000
6.090762 10.921693 -26.397095 37 155 232 0.146029
7.767791 10.722135 -26.712315 47 129 250 0.183405
9.521045 10.882482 -26.975982 50 124 252 0.196333
11.443460 10.989712 -27.249882 8 181 208 0.029667
13.404879 10.651752 -27.633444 44 196 167 0.171700
15.048552 10.435136 -28.033271 36 193 174 0.140771
17.145559 10.784305 -28.486628 18 177 214 0.068871
0.986948 8.891199 -25.511113 24 173 219 0.095210
2.903089 8.586673 -25.954650 69 99 253 0.269914
4.882896 8.385664 -26.303801 43 145 239 0.168743
6.369029 9.192346 -26.531589 18 177 214 0.068871
8.069830 8.839674 -26.771623 25 191 182 0.096395
10.069070 8.716547 -27.053724 44 196 167 0.171700
11.962774 9.126138 -27.361593 11 189 189 0.043329
13.507243 8.726204 -27.670354 11 189 189 0.043329
15.325386 8.760393 -28.143546 50 124 252 0.196333
17.142408 8.823521 -28.507433 46 135 247 0.178643
1.411872 6.858556 -25.651889 56 117 254 0.220643
3.197713 6.500508 -25.961630 43 145 239 0.168743
4.726392 6.704475 -26.237086 35 160 229 0.138024
6.647131 7.048908 -26.558173 8 181 208 0.029667
8.507907 7.168945 -26.821911 36 193 174 0.140771
9.819709 6.576319 -26.991833 49 198 159 0.193767
11.758829 6.894566 -27.321206 44 196 167 0.171700
13.949517 6.834323 -27.846264 18 177 214 0.068871
15.842964 6.848137 -28.346037 70 94 251 0.275971
17.130781 6.862737 -28.584183 72 77 240 0.281338
0.669990 4.948229 -25.420398 66 46 192 0.257771
2.368780 4.817883 -25.780773 43 145 239 0.168743
4.403204 4.596518 -26.112630 8 181 208 0.029667
6.159496 5.152444 -26.397203 71 88 248 0.279467
7.940635 5.121779 -26.699045 47 129 250 0.183405
10.072113 4.684148 -27.080494 11 189 189 0.043329
11.820250 4.876825 -27.315843 36 193 174 0.140771
13.424488 4.763716 -27.686579 28 169 223 0.111252
15.382816 4.891665 -28.209184 1 184 202 0.003571
17.138693 4.901953 -28.531960 45 140 243 0.176438
1.101465 2.739259 -25.567197 71 88 248 0.279467
2.965509 3.127160 -25.888877 25 191 182 0.096395
4.358402 2.589170 -26.082757 44 196 167 0.171700
6.152734 3.169915 -26.367185 45 140 243 0.176438
8.077804 3.019152 -26.749025 35 160 229 0.138024
9.704576 2.625903 -27.069744 36 193 174 0.140771
11.535698 3.041675 -27.334507 25 191 182 0.096395
13.237412 2.659581 -27.627577 24 173 219 0.095210
15.107790 2.757995 -27.964814 25 191 182 0.096395
17.166790 2.941169 -28.346498 1 184 202 0.003571
1.259622 0.656648 -25.726072 39 151 235 0.154000
2.991840 1.103530 -25.884432 11 189 189 0.043329
5.053336 0.947121 -26.195887 36 193 174 0.140771
6.880184 1.071405 -26.526365 1 184 202 0.003571
8.661286 0.928481 -26.875699 32 165 227 0.124814
10.331111 1.212202 -27.169165 32 165 227 0.124814
11.948002 0.756118 -27.391847 1 184 202 0.003571
13.787282 1.123049 -27.731259 2 186 195 0.006657
15.153292 0.659664 -27.874081 2 186 195 0.006657
17.179344 0.980384 -28.263628 11 189 189 0.043329
1.002229 -1.036909 -25.753685 11 189 189 0.043329
2.890929 -1.015966 -25.928753 36 193 174 0.140771
4.672510 -0.935890 -26.178490 36 193 174 0.140771
6.326929 -0.690278 -26.390272 36 193 174 0.140771
7.867656 -0.968885 -26.682264 37 155 232 0.146029
9.813400 -0.806161 -27.045133 37 155 232 0.146029
11.746623 -1.448755 -27.307024 18 177 214 0.068871
13.517227 -0.663960 -27.625180 45 140 243 0.176438
15.315223 -1.022898 -27.998845 18 177 214 0.068871
17.158516 -0.980400 -28.401114 45 140 243 0.176438
0.981907 -2.955524 -25.807955 2 186 195 0.006657
2.810598 -2.954992 -25.939467 44 196 167 0.171700
4.627252 -2.939250 -26.194130 8 181 208 0.029667
6.538304 -2.712301 -26.476071 45 140 243 0.176438
8.595465 -2.864128 -26.829481 66 105 254 0.260243
10.281043 -2.669303 -27.096481 47 129 250 0.183405
11.851244 -3.510281 -27.248283 69 55 213 0.270648
13.583594 -2.539358 -27.563357 71 71 235 0.280333
15.467935 -3.101089 -28.169738 28 169 223 0.111252
17.164312 -2.941184 -28.362846 56 117 254 0.220643
0.731196 -4.645002 -25.843789 39 151 235 0.154000
2.550585 -5.082172 -26.030441 11 189 189 0.043329
4.512038 -4.914264 -26.274009 36 193 174 0.140771
6.163606 -4.570107 -26.476717 18 177 214 0.068871
7.784906 -4.801053 -26.688893 32 165 227 0.124814
9.908536 -4.912059 -27.030531 66 105 254 0.260243
11.790990 -5.094769 -27.206333 72 82 244 0.281014
13.492868 -4.687771 -27.578485 69 99 253 0.269914
15.297019 -5.352115 -28.180266 8 181 208 0.029667
17.151320 -4.901968 -28.448610 18 177 214 0.068871
1.101840 -6.660654 -25.792124 8 181 208 0.029667
2.783161 -6.893784 -26.086745 8 181 208 0.029667
4.128993 -6.877853 -26.258114 36 193 174 0.140771
6.226745 -6.806627 -26.493463 28 169 223 0.111252
8.324657 -6.542837 -26.764732 2 186 195 0.006657
9.746249 -7.105648 -27.032129 56 117 254 0.220643
11.725664 -6.815884 -27.319457 66 46 192 0.257771
13.907912 -6.863293 -27.721351 70 94 251 0.275971
15.435882 -7.013450 -28.224858 1 184 202 0.003571
17.151205 -6.862751 -28.449368 25 191 182 0.096395
0.861889 -8.937215 -25.533689 66 105 254 0.260243
2.849937 -8.656587 -25.999571 45 140 243 0.176438
4.948521 -8.767231 -26.331604 1 184 202 0.003571
6.484053 -8.796922 -26.551427 11 189 189 0.043329
8.100655 -8.768869 -26.777023 32 165 227 0.124814
10.185731 -8.598197 -27.125306 70 94 251 0.275971
11.826078 -9.242071 -27.295187 46 135 247 0.178643
13.565170 -8.796946 -27.630612 72 77 240 0.281338
15.564935 -8.666855 -28.179705 66 105 254 0.260243
17.138186 -8.823536 -28.535305 1 184 202 0.003571
1.258060 -11.079998 -25.503006 37 155 232 0.146029
2.813700 -10.742963 -25.924804 62 111 255 0.244033
4.618446 -10.699923 -26.245252 71 65 229 0.278300
6.618197 -10.605334 -26.560829 70 94 251 0.275971
8.260313 -10.738968 -26.763540 62 111 255 0.244033
9.773420 -10.564710 -26.994792 18 177 214 0.068871
11.723769 -11.301826 -27.249932 49 198 159 0.193767
13.572973 -10.885744 -27.599562 24 173 219 0.095210
15.132248 -10.458962 -28.027414 50 124 252 0.196333
17.144361 -10.784320 -28.494539 35 160 229 0.138024
1.029399 -12.797690 -25.543899 8 181 208 0.029667
2.887185 -12.810370 -25.822169 18 177 214 0.068871
4.620428 -12.716131 -26.161604 56 117 254 0.220643
6.187629 -12.392868 -26.495450 72 77 240 0.281338
7.974596 -12.500435 -26.735391 46 135 247 0.178643
10.021788 -12.912722 -26.996804 2 186 195 0.006657
11.805469 -12.944464 -27.228004 55 200 151 0.216086
13.209793 -12.849593 -27.516925 49 198 159 0.193767
15.120633 -12.503336 -27.979388 37 155 232 0.146029
17.126844 -12.745104 -28.610168 8 181 208 0.029667
1.014723 -14.719415 -25.568755 71 88 248 0.279467
2.828510 -14.726781 -25.818223 45 140 243 0.176438
4.635090 -14.716554 -26.119365 43 145 239 0.168743
6.385342 -14.161619 -26.481719 37 155 232 0.146029
8.119108 -14.607126 -26.750689 46 135 247 0.178643
9.730871 -15.005929 -26.927239 46 135 247 0.178643
11.508353 -14.635074 -27.208745 2 186 195 0.006657
13.485402 -14.671863 -27.561642 11 189 189 0.043329
15.355118 -14.705888 -28.150812 50 124 252 0.196333
17.122719 -14.705888 -28.637398 50 124 252 0.196333
1.007450 -16.671008 -25.613153 1 184 202 0.003571
2.817824 -16.673862 -25.831659 72 77 240 0.281338
4.625387 -16.672045 -26.082924 70 94 251 0.275971
6.562441 -16.337582 -26.482368 62 111 255 0.244033
8.412101 -16.402280 -26.724838 46 135 247 0.178643
9.989162 -16.720268 -26.961658 39 151 235 0.154000
11.771864 -16.625267 -27.273097 32 165 227 0.124814
13.577693 -16.666672 -27.729063 2 186 195 0.006657
15.326446 -16.666672 -28.340073 35 160 229 0.138024
0.997220 -18.629480 -25.685274 25 191 182 0.096395
2.812106 -18.630248 -25.856886 1 184 202 0.003571
4.613713 -18.629459 -26.132385 50 124 252 0.196333
6.213539 -18.257018 -26.333186 70 60 222 0.275114
7.980904 -18.351234 -26.652925 70 94 251 0.275971
9.912981 -18.618927 -26.998068 24 173 219 0.095210
11.780360 -18.627457 -27.438732 37 155 232 0.146029
13.576283 -18.627457 -27.738379 18 177 214 0.068871
0.986664 -20.588860 -25.773577 43 145 239 0.168743
2.807129 -20.588242 -25.898399 35 160 229 0.138024
4.615233 -20.588242 -26.117628 71 71 235 0.280333
6.413844 -20.588242 -26.399527 70 60 222 0.275114
8.185577 -20.588242 -26.858837 1 184 202 0.003571
9.986881 -20.588242 -27.122963 25 191 182 0.096395
11.780324 -20.588242 -27.438971 46 135 247 0.178643
0.975162 -22.549026 -25.836678 70 94 251 0.275971
2.800067 -22.549026 -25.945015 71 71 235 0.280333
-14.812491 12.745089 -0.638040 71 65 229 0.278300
-14.797329 10.784305 -0.565151 46 135 247 0.178643
-14.800510 8.823521 -0.368473 56 117 254 0.220643
-14.802990 6.862737 -0.215165 32 165 227 0.124814
-14.802442 4.901953 -0.249072 45 140 243 0.176438
-14.802029 2.941169 -0.274581 66 105 254 0.260243
-14.800845 0.980384 -0.347768 18 177 214 0.068871
-14.798562 -0.980400 -0.488878 36 193 174 0.140771
-14.797232 -2.941184 -0.571141 35 160 229 0.138024
-14.796596 -4.901968 -0.610453 8 181 208 0.029667
-14.797051 -6.862751 -0.582249 36 193 174 0.140771
-14.799292 -8.823536 -0.443784 46 135 247 0.178643
-14.792505 -10.784320 -0.232419 46 135 247 0.178643
-14.750834 -12.745104 -0.081639 39 151 235 0.154000
-2.641749 22.549011 -22.052711 39 151 235 0.154000
-1.892202 22.549011 -23.822302 47 129 250 0.183405
-6.281374 20.588226 -15.333570 70 60 222 0.275114
-5.454515 20.588226 -17.059862 69 55 213 0.270648
-4.544065 20.588226 -18.739344 39 151 235 0.154000
-3.525322 20.588226 -20.358179 2 186 195 0.006657
-2.642118 20.588226 -22.052917 28 169 223 0.111252
-1.839170 20.588226 -23.792603 71 71 235 0.280333
-9.266506 18.627441 -10.437244 2 186 195 0.006657
-8.283482 18.627441 -12.076084 35 160 229 0.138024
-7.328605 18.627441 -13.730686 2 186 195 0.006657
-6.306736 18.627441 -15.347773 50 124 252 0.196333
-5.432407 18.626700 -17.048534 62 111 255 0.244033
-4.594492 18.192700 -18.768677 50 124 252 0.196333
-3.573156 19.018968 -20.331932 2 186 195 0.006657
-2.600373 18.469935 -22.179166 28 169 223 0.111252
-1.827184 18.627441 -23.785891 45 140 243 0.176438
-11.660102 16.666656 -5.209655 50 124 252 0.196333
-10.941299 16.666656 -6.996460 39 151 235 0.154000
-10.179891 16.666656 -8.759406 72 82 244 0.281014
-9.364880 16.666656 -10.492334 2 186 195 0.006657
-8.393692 16.668293 -12.138482 50 124 252 0.196333
-7.395174 16.667280 -13.769195 43 145 239 0.168743
-6.356786 17.100834 -15.375308 24 173 219 0.095210
-5.440703 16.448241 -17.167907 47 129 250 0.183405
-4.586596 16.485433 -18.803763 50 124 252 0.196333
-3.529273 16.709885 -20.422243 1 184 202 0.003571
-2.544259 16.358162 -22.336988 18 177 214 0.068871
-1.781957 16.666656 -23.760563 25 191 182 0.096395
-12.647659 14.705873 -3.573354 8 181 208 0.029667
-11.842539 14.705873 -5.311821 1 184 202 0.003571
-11.053967 14.705010 -7.059186 1 184 202 0.003571
-10.236639 14.706582 -8.792652 1 184 202 0.003571
-9.557193 14.446165 -10.307071 2 186 195 0.006657
-8.689985 14.702829 -11.741265 25 191 182 0.096395
-7.730853 14.705966 -13.321498 35 160 229 0.138024
-6.509401 14.793841 -15.316668 43 145 239 0.168743
-5.387450 14.393740 -17.295829 46 135 247 0.178643
-4.397507 14.832454 -18.966048 28 169 223 0.111252
-3.402654 14.457761 -20.684981 47 129 250 0.183405
-2.741369 14.914652 -21.915370 71 71 235 0.280333
-1.723340 14.705873 -23.727737 32 165 227 0.124814
-13.389156 12.745089 -1.799258 69 99 253 0.269914
-12.825343 12.745089 -3.672858 24 173 219 0.095210
-12.004541 12.746569 -5.402236 24 173 219 0.095210
-11.190428 12.747946 -7.133457 11 189 189 0.043329
-10.199209 12.490733 -8.918851 36 193 174 0.140771
-9.317962 12.887793 -10.700701 49 198 159 0.193767
-8.461109 12.740678 -12.091492 25 191 182 0.096395
-7.416270 12.809434 -13.700577 11 189 189 0.043329
-6.605835 12.521336 -15.179236 8 181 208 0.029667
-5.670230 12.538963 -16.857789 28 169 223 0.111252
-4.557391 12.707921 -18.745255 46 135 247 0.178643
-3.740463 12.972614 -20.237853 62 111 255 0.244033
-2.652411 12.740096 -22.064393 37 155 232 0.146029
-1.655648 12.745089 -23.689829 28 169 223 0.111252
-13.580496 11.204436 -1.980920 72 77 240 0.281338
-12.938177 10.811615 -3.701146 71 65 229 0.278300
-12.126862 10.788583 -5.454960 71 88 248 0.279467
-11.093358 10.575507 -7.300376 32 165 227 0.124814
-10.219810 10.665035 -8.879135 32 165 227 0.124814
-9.396498 10.955681 -10.357185 24 173 219 0.095210
-8.383229 10.805233 -12.059329 35 160 229 0.138024
-7.353233 10.557450 -13.861614 28 169 223 0.111252
-6.304319 10.666892 -15.795839 44 196 167 0.171700
-5.547426 10.700038 -17.209067 44 196 167 0.171700
-4.842200 10.769493 -18.349748 24 173 219 0.095210
-3.776805 11.008899 -20.156425 35 160 229 0.138024
-2.832299 10.561728 -21.745886 2 186 195 0.006657
-1.687165 10.784305 -23.707479 36 193 174 0.140771
-13.709147 9.104976 -2.195561 39 151 235 0.154000
-12.798533 8.864188 -4.196894 66 105 254 0.260243
-11.922157 9.102239 -5.832703 32 165 227 0.124814
-11.199740 8.498141 -6.955088 56 117 254 0.220643
-10.210052 8.781238 -8.777587 66 105 254 0.260243
-9.031089 8.879205 -10.753519 50 124 252 0.196333
-8.141958 9.097277 -12.416841 45 140 243 0.176438
-7.470800 8.494473 -13.598001 11 189 189 0.043329
-6.571851 8.597118 -15.298546 2 186 195 0.006657
-5.570732 9.118347 -17.043661 44 196 167 0.171700
-4.631071 8.897352 -18.676617 25 191 182 0.096395
-3.562178 8.657014 -20.444070 8 181 208 0.029667
-2.553989 9.046323 -22.287403 18 177 214 0.068871
-1.785599 8.823521 -23.762602 44 196 167 0.171700
-13.900314 6.765829 -1.834498 8 181 208 0.029667
-13.100791 7.199653 -3.513975 43 145 239 0.168743
-12.061290 6.854892 -5.363398 70 94 251 0.275971
-10.826630 6.784661 -7.405742 62 111 255 0.244033
-10.002612 6.838897 -8.819513 28 169 223 0.111252
-9.291844 6.725323 -10.281134 28 169 223 0.111252
-8.336242 7.268387 -12.048496 28 169 223 0.111252
-7.421636 6.762739 -13.649616 45 140 243 0.176438
-6.396048 6.361615 -15.352170 24 173 219 0.095210
-5.441642 7.077978 -17.161945 28 169 223 0.111252
-4.418689 7.165028 -18.973265 11 189 189 0.043329
-3.672619 6.562116 -20.192160 39 151 235 0.154000
-2.748814 7.067459 -21.879295 45 140 243 0.176438
-1.835036 6.862737 -23.790287 18 177 214 0.068871
-13.883076 4.606879 -1.688133 71 65 229 0.278300
-13.108679 5.161700 -3.484818 71 71 235 0.280333
-12.088654 4.512951 -5.314592 68 50 203 0.264729
-11.126611 4.903975 -7.034333 39 151 235 0.154000
-10.056342 5.005688 -8.929143 32 165 227 0.124814
-9.155858 4.871903 -10.427942 2 186 195 0.006657
-8.259803 4.979133 -12.003506 45 140 243 0.176438
-7.126289 4.808372 -14.032848 8 181 208 0.029667
-6.157719 4.450669 -15.715491 43 145 239 0.168743
-5.419685 4.885079 -17.151282 1 184 202 0.003571
-4.568566 5.398460 -18.704376 36 193 174 0.140771
-3.492566 4.709479 -20.467922 2 186 195 0.006657
-2.490813 4.962360 -22.449369 70 94 251 0.275971
-1.826645 4.901953 -23.785589 50 124 252 0.196333
-13.829939 2.913537 -1.967169 71 71 235 0.280333
-12.990091 2.964637 -3.646584 69 55 213 0.270648
-12.156909 2.563764 -5.119814 72 77 240 0.281338
-11.351761 2.877933 -6.654641 66 105 254 0.260243
-10.438860 2.993095 -8.293862 46 135 247 0.178643
-9.249823 2.965206 -10.289242 43 145 239 0.168743
-8.303407 2.971197 -12.030968 32 165 227 0.124814
-7.416874 2.790156 -13.566423 2 186 195 0.006657
-6.346217 2.804668 -15.384060 24 173 219 0.095210
-5.501646 3.075266 -16.924725 36 193 174 0.140771
-4.518102 3.041679 -18.717231 44 196 167 0.171700
-3.482568 2.894495 -20.351225 18 177 214 0.068871
-2.794972 2.956068 -21.744174 1 184 202 0.003571
-1.735487 2.941169 -23.734539 43 145 239 0.168743
-13.887798 0.982516 -2.057331 28 169 223 0.111252
-12.896934 0.716892 -3.826931 37 155 232 0.146029
-11.813988 0.829776 -5.742124 1 184 202 0.003571
-11.027453 1.239045 -7.322244 32 165 227 0.124814
-10.094247 1.054740 -8.697350 18 177 214 0.068871
-9.147793 0.559848 -10.343048 47 129 250 0.183405
-8.221097 1.124080 -12.122671 37 155 232 0.146029
-7.324153 0.952247 -13.722642 39 151 235 0.154000
-6.623716 0.938361 -14.985581 69 99 253 0.269914
-5.568927 1.181083 -16.806266 35 160 229 0.138024
-4.654637 0.787298 -18.401912 24 173 219 0.095210
-3.708677 1.154682 -20.080786 25 191 182 0.096395
-2.689819 1.029428 -21.933879 71 88 248 0.279467
-1.829292 0.980384 -23.787071 50 124 252 0.196333
-13.785709 -1.184148 -2.284556 35 160 229 0.138024
-12.785104 -1.364774 -4.057378 37 155 232 0.146029
-12.053330 -0.791088 -5.288896 2 186 195 0.006657
-11.052429 -0.964245 -7.096672 1 184 202 0.003571
-9.884366 -1.026893 -9.044541 70 60 222 0.275114
-9.067031 -1.127525 -10.471819 72 82 244 0.281014
-8.420952 -0.997766 -11.715082 43 145 239 0.168743
-7.406994 -1.002045 -13.590248 28 169 223 0.111252
-6.247823 -0.933631 -15.673876 66 105 254 0.260243
-5.301060 -0.688241 -17.243120 69 99 253 0.269914
-4.518404 -0.981154 -18.707695 2 186 195 0.006657
-3.629850 -0.901091 -20.367050 1 184 202 0.003571
-2.731367 -0.947969 -22.073900 8 181 208 0.029667
-1.935984 -0.980400 -23.846819 32 165 227 0.124814
-13.954863 -3.432007 -2.227047 37 155 232 0.146029
-12.993265 -3.096923 -3.830700 62 111 255 0.244033
-11.864726 -2.782881 -5.644745 43 145 239 0.168743
-11.037020 -2.911230 -7.163225 50 124 252 0.196333
-10.183115 -3.098900 -8.589773 62 111 255 0.244033
-9.187239 -2.612299 -10.334604 66 46 192 0.257771
-8.221819 -3.093185 -12.147650 71 88 248 0.279467
-7.353860 -2.971910 -13.748321 8 181 208 0.029667
-6.503756 -3.066838 -15.230351 28 169 223 0.111252
-5.465210 -2.480381 -17.047034 71 65 229 0.278300
-4.470829 -3.086584 -18.847926 56 117 254 0.220643
-3.427958 -2.927141 -20.821834 71 71 235 0.280333
-2.549661 -2.926537 -22.633285 1 184 202 0.003571
-1.997747 -2.941184 -23.881407 36 193 174 0.140771
-13.970760 -5.065706 -2.211343 1 184 202 0.003571
-13.219114 -5.030199 -3.472965 24 173 219 0.095210
-12.252321 -4.869019 -5.015278 37 155 232 0.146029
-11.231585 -4.748834 -6.790255 71 88 248 0.279467
-10.378642 -5.180210 -8.426278 47 129 250 0.183405
-9.361390 -4.664206 -10.168670 62 111 255 0.244033
-8.510470 -5.168680 -11.797378 45 140 243 0.176438
-7.422361 -4.973268 -13.671001 66 105 254 0.260243
-6.495401 -4.955130 -15.378753 32 165 227 0.124814
-5.503718 -4.787250 -17.065054 71 71 235 0.280333
-4.579741 -4.930698 -18.775361 37 155 232 0.146029
-3.666595 -5.076647 -20.304417 62 111 255 0.244033
-2.764653 -4.900431 -22.188537 50 124 252 0.196333
-1.899085 -4.901968 -23.826157 18 177 214 0.068871
-13.880548 -6.756545 -2.304143 11 189 189 0.043329
-12.794982 -6.888989 -4.121702 45 140 243 0.176438
-11.878093 -6.522771 -5.665100 1 184 202 0.003571
-11.049905 -7.061387 -7.206604 28 169 223 0.111252
-10.054704 -6.625944 -8.976585 11 189 189 0.043329
-9.173501 -7.041265 -10.539087 18 177 214 0.068871
-8.242356 -6.674535 -12.342590 69 55 213 0.270648
-7.288553 -7.321868 -13.750612 68 50 203 0.264729
-6.445286 -6.452815 -15.378649 46 135 247 0.178643
-5.590477 -7.043039 -16.788788 8 181 208 0.029667
-4.675850 -6.705728 -18.456446 8 181 208 0.029667
-3.593305 -7.311516 -20.264430 56 117 254 0.220643
-2.688708 -6.902013 -21.991155 24 173 219 0.095210
-1.801665 -6.862751 -23.771599 37 155 232 0.146029
-13.816829 -8.793808 -2.098369 35 160 229 0.138024
-12.965355 -8.785528 -3.822878 56 117 254 0.220643
-11.909285 -8.598645 -5.676235 8 181 208 0.029667
-11.105374 -8.853799 -7.219457 8 181 208 0.029667
-10.135706 -8.809431 -8.818858 36 193 174 0.140771
-9.166748 -8.880372 -10.433375 2 186 195 0.006657
-8.365635 -8.669793 -11.927898 47 129 250 0.183405
-7.355037 -9.365553 -13.675823 70 94 251 0.275971
-6.419610 -8.451919 -15.311109 28 169 223 0.111252
-5.414047 -9.003522 -17.137343 18 177 214 0.068871
-4.390291 -8.597472 -18.846387 32 165 227 0.124814
-3.629613 -9.215358 -20.105345 70 94 251 0.275971
-2.666831 -9.081444 -21.798718 47 129 250 0.183405
-1.693418 -8.823536 -23.710981 39 151 235 0.154000
-13.548380 -10.755573 -1.870328 32 165 227 0.124814
-12.956459 -10.767696 -3.741137 56 117 254 0.220643
-12.160977 -10.428849 -5.255074 18 177 214 0.068871
-11.118441 -10.735192 -7.071196 18 177 214 0.068871
-10.152046 -10.771180 -8.749495 1 184 202 0.003571
-9.314600 -10.574887 -10.256965 46 135 247 0.178643
-8.356679 -10.801902 -11.940698 66 105 254 0.260243
-7.312928 -11.369682 -13.669485 8 181 208 0.029667
-6.410911 -10.387753 -15.366594 25 191 182 0.096395
-5.608922 -11.057199 -16.797711 44 196 167 0.171700
-4.547547 -10.832828 -18.618011 24 173 219 0.095210
-3.273675 -10.935200 -20.620464 56 117 254 0.220643
-2.294099 -11.162290 -22.259677 70 94 251 0.275971
-1.602476 -10.784320 -23.660053 1 184 202 0.003571
-13.417531 -12.745104 -1.815149 69 99 253 0.269914
-12.894035 -12.732681 -3.681557 62 111 255 0.244033
-11.966998 -12.458714 -5.567270 11 189 189 0.043329
-11.117950 -12.683575 -7.153756 36 193 174 0.140771
-10.167626 -12.694089 -8.734383 43 145 239 0.168743
-9.046336 -12.682832 -10.732983 71 71 235 0.280333
-8.011769 -12.836215 -12.462089 46 135 247 0.178643
-7.076811 -13.228995 -14.084465 71 88 248 0.279467
-6.363443 -12.333470 -15.396277 25 191 182 0.096395
-5.452050 -12.782477 -16.974476 24 173 219 0.095210
-4.496210 -13.192994 -18.680645 68 50 203 0.264729
-3.502289 -12.774587 -20.288491 68 50 203 0.264729
-2.552280 -12.616479 -21.782297 68 50 203 0.264729
-1.522048 -12.745104 -23.615013 45 140 243 0.176438
-12.819490 -14.705888 -3.669581 62 111 255 0.244033
-12.029436 -14.705888 -5.416485 32 165 227 0.124814
-11.011676 -14.447545 -7.238033 2 186 195 0.006657
-10.039844 -14.929736 -9.031925 11 189 189 0.043329
-9.194531 -14.645377 -10.482011 32 165 227 0.124814
-8.365599 -14.433976 -11.970330 11 189 189 0.043329
-7.409240 -15.013322 -13.594493 1 184 202 0.003571
-6.239064 -14.554062 -15.557292 8 181 208 0.029667
-5.185750 -14.772099 -17.422940 69 55 213 0.270648
-4.390200 -14.864597 -18.819554 70 94 251 0.275971
-3.603942 -14.968552 -20.223786 47 129 250 0.183405
-2.536530 -14.276977 -21.905704 72 77 240 0.281338
-1.640239 -14.705888 -23.681200 71 71 235 0.280333
-11.037913 -16.666672 -7.050565 62 111 255 0.244033
-10.084771 -16.666672 -8.706139 39 151 235 0.154000
-9.153688 -16.715264 -10.464126 43 145 239 0.168743
-8.209189 -16.464513 -12.206121 44 196 167 0.171700
-7.318198 -16.738517 -13.756409 49 198 159 0.193767
-6.454519 -16.821098 -15.225842 24 173 219 0.095210
-5.430232 -16.639403 -17.023655 39 151 235 0.154000
-4.371070 -16.610059 -18.889580 72 82 244 0.281014
-3.474645 -16.745785 -20.384696 8 181 208 0.029667
-2.675876 -16.387330 -21.851528 24 173 219 0.095210
-1.771457 -16.666672 -23.754683 32 165 227 0.124814
-9.111444 -18.627457 -10.350409 35 160 229 0.138024
-8.220593 -18.627457 -12.040867 25 191 182 0.096395
-7.342837 -18.203933 -13.690315 36 193 174 0.140771
-6.364803 -19.064994 -15.296793 8 181 208 0.029667
-5.490263 -18.657653 -16.982250 32 165 227 0.124814
-4.614157 -18.328312 -18.477317 69 99 253 0.269914
-3.551827 -18.577444 -20.315971 43 145 239 0.168743
-2.540623 -18.263745 -22.233452 18 177 214 0.068871
-1.868394 -18.627457 -23.808968 46 135 247 0.178643
-7.296246 -20.588242 -13.712564 11 189 189 0.043329
-6.313353 -20.588242 -15.351478 36 193 174 0.140771
-5.329799 -20.588242 -16.990021 44 196 167 0.171700
-4.450202 -20.588242 -18.686779 24 173 219 0.095210
-3.485608 -20.588242 -20.335939 70 94 251 0.275971
-2.660744 -20.046389 -22.056354 72 77 240 0.281338
-1.928542 -20.588242 -23.842651 66 105 254 0.260243
-2.665637 -22.549026 -22.066090 45 140 243 0.176438
-1.975707 -22.549026 -23.869064 45 140 243 0.176438
3 234 304 290
3 235 318 304
3 236 332 318
3 237 238 332
3 238 239 346
3 239 240 360
3 240 241 374
3 241 242 388
3 242 243 402
3 243 430 416
3 244 444 430
3 245 458 444
3 246 472 458
3 0 27 24
3 1 32 27
3 2 3 32
3 3 4 39
3 4 58 48
3 5 68 58
3 6 7 68
3 7 8 78
3 8 98 88
3 9 10 98
3 10 11 108
3 11 128 118
3 12 138 128
3 13 148 138
3 14 158 148
3 15 168 158
3 16 17 168
3 17 188 178
3 18 198 188
3 19 208 198
3 20 217 208
3 21 225 217
3 22 232 225
3 225 233 226
3 222 230 223
3 221 229 222
3 220 228 221
3 219 228 220
3 218 227 219
3 217 226 218
3 214 223 215
3 213 222 214
3 212 221 213
3 211 221 212
3 210 220 211
3 209 219 210
3 208 218 209
3 205 215 206
3 204 214 205
3 203 213 204
3 202 212 203
3 201 211 202
3 200 211 201
3 199 210 200
3 198 209 199
3 196 206 197
3 195 205 196
3 194 204 195
3 193 204 194
3 192 202 193
3 191 201 192
3 190 201 191
3 189 200 190
3 188 199 189
3 186 196 187
3 185 196 186
3 184 195 185
3 183 193 184
3 182 192 183
3 181 192 182
3 180 191 181
3 179 190 180
3 178 189 179
3 176 187 177
3 175 186 176
3 174 185 175
3 173 183 174
3 172 183 173
3 171 181 172
3 170 181 171
3 169 180 170
3 168 179 169
3 166 176 167
3 165 176 166
3 164 175 165
3 163 173 164
3 162 172 163
3 161 172 162
3 160 170 161
3 159 169 160
3 158 169 159
3 156 167 157
3 155 165 156
3 154 164 155
3 153 164 154
3 152 162 153
3 151 161 152
3 150 161 151
3 149 160 150
3 148 158 149
3 146 157 147
3 145 155 146
3 144 155 145
3 143 153 144
3 142 153 143
3 141 152 142
3 140 151 141
3 139 150 140
3 138 149 139
3 136 146 137
3 135 145 136
3 134 145 135
3 133 143 134
3 132 142 133
3 131 141 132
3 130 141 131
3 129 140 130
3 128 139 129
3 126 136 127
3 125 135 126
3 124 135 125
3 123 133 124
3 122 133 123
3 121 132 122
3 120 131 121
3 119 130 120
3 118 129 119
3 116 127 117
3 115 125 116
3 114 124 115
3 113 123 114
3 112 122 113
3 111 121 112
3 110 120 111
3 109 119 110
3 108 119 109
3 106 117 107
3 105 116 106
3 104 114 105
3 103 114 104
3 102 112 103
3 101 111 102
3 100 111 101
3 99 109 100
3 98 108 99
3 96 107 97
3 95 106 96
3 94 105 95
3 93 103 94
3 92 102 93
3 91 102 92
3 90 101 91
3 89 100 90
3 88 99 89
3 86 96 87
3 85 95 86
3 84 94 85
3 83 94 84
3 82 92 83
3 81 91 82
3 80 91 81
3 79 90 80
3 78 88 79
3 76 86 77
3 75 85 76
3 74 84 75
3 73 83 74
3 72 82 73
3 71 81 72
3 70 81 71
3 69 79 70
3 68 78 69
3 66 77 67
3 65 75 66
3 64 74 65
3 63 74 64
3 62 73 63
3 61 72 62
3 60 71 61
3 59 69 60
3 58 68 59
3 56 67 57
3 55 66 56
3 54 64 55
3 53 63 54
3 52 63 53
3 51 62 52
3 50 60 51
3 49 60 50
3 48 59 49
3 46 56 47
3 45 54 46
3 44 53 45
3 43 52 44
3 42 52 43
3 41 51 42
3 40 49 41
3 39 49 40
3 37 44 38
3 36 43 37
3 35 43 36
3 34 42 35
3 33 41 34
3 32 39 33
3 30 36 31
3 29 35 30
3 28 33 29
3 27 32 28
3 25 28 26
3 24 27 25
3 525 527 22
3 524 526 525
3 523 526 524
3 518 525 21
3 517 524 518
3 516 524 517
3 515 522 516
3 514 522 515
3 513 521 514
3 512 519 513
3 511 519 512
3 509 518 20
3 508 517 509
3 507 516 508
3 506 516 507
3 505 515 506
3 504 514 505
3 503 512 504
3 502 512 503
3 501 511 502
3 500 510 501
3 498 509 19
3 497 508 498
3 496 508 497
3 495 506 496
3 494 506 495
3 493 505 494
3 492 504 493
3 491 502 492
3 490 502 491
3 489 501 490
3 488 500 489
3 487 499 488
3 485 498 18
3 484 497 485
3 483 497 484
3 482 496 483
3 481 494 482
3 480 493 481
3 479 493 480
3 478 492 479
3 477 491 478
3 476 490 477
3 475 488 476
3 474 488 475
3 473 487 474
3 472 486 473
3 471 485 17
3 470 485 471
3 469 484 470
3 468 483 469
3 467 481 468
3 466 480 467
3 465 480 466
3 464 478 465
3 463 477 464
3 462 476 463
3 461 476 462
3 460 474 461
3 459 474 460
3 458 473 459
3 457 471 16
3 456 471 457
3 455 469 456
3 454 468 455
3 453 468 454
3 452 466 453
3 451 466 452
3 450 464 451
3 449 463 450
3 448 463 449
3 447 461 448
3 446 461 447
3 445 460 446
3 444 459 445
3 443 16 15
3 442 457 443
3 441 456 442
3 440 454 441
3 439 453 440
3 438 452 439
3 437 452 438
3 436 450 437
3 435 450 436
3 434 448 435
3 433 448 434
3 432 446 433
3 431 446 432
3 430 445 431
3 429 15 14
3 428 443 429
3 427 442 428
3 426 440 427
3 425 440 426
3 424 438 425
3 423 438 424
3 422 436 423
3 421 435 422
3 420 434 421
3 419 433 420
3 418 432 419
3 417 431 418
3 416 430 417
3 415 14 13
3 414 429 415
3 413 428 414
3 412 427 413
3 411 425 412
3 410 425 411
3 409 423 410
3 408 423 409
3 407 421 408
3 406 421 407
3 405 419 406
3 404 419 405
3 403 418 404
3 402 417 403
3 401 415 12
3 400 414 401
3 399 413 400
3 398 412 399
3 397 411 398
3 396 411 397
3 395 410 396
3 394 408 395
3 393 407 394
3 392 407 393
3 391 406 392
3 390 404 391
3 389 404 390
3 388 403 389
3 387 401 11
3 386 400 387
3 385 399 386
3 384 398 385
3 383 397 384
3 382 396 383
3 381 395 382
3 380 395 381
3 379 394 380
3 378 392 379
3 377 391 378
3 376 391 377
3 375 390 376
3 374 388 375
3 373 387 10
3 372 386 373
3 371 385 372
3 370 385 371
3 369 383 370
3 368 383 369
3 367 382 368
3 366 380 367
3 365 380 366
3 364 378 365
3 363 377 364
3 362 376 363
3 361 375 362
3 360 374 361
3 359 373 9
3 358 373 359
3 357 372 358
3 356 370 357
3 355 370 356
3 354 369 355
3 353 368 354
3 352 367 353
3 351 365 352
3 350 365 351
3 349 364 350
3 348 363 349
3 347 361 348
3 346 360 347
3 345 9 8
3 344 358 345
3 343 357 344
3 342 356 343
3 341 356 342
3 340 355 341
3 339 353 340
3 338 352 339
3 337 352 338
3 336 350 337
3 335 350 336
3 334 349 335
3 333 347 334
3 332 347 333
3 331 345 7
3 330 344 331
3 329 344 330
3 328 342 329
3 327 341 328
3 326 341 327
3 325 339 326
3 324 338 325
3 323 338 324
3 322 337 323
3 321 335 322
3 320 334 321
3 319 334 320
3 318 333 319
3 317 331 6
3 316 330 317
3 315 329 316
3 314 328 315
3 313 327 314
3 312 327 313
3 311 326 312
3 310 324 311
3 309 323 310
3 308 322 309
3 307 322 308
3 306 320 307
3 305 319 306
3 304 318 305
3 303 6 5
3 302 317 303
3 301 315 302
3 300 315 301
3 299 314 300
3 298 312 299
3 297 311 298
3 296 310 297
3 295 309 296
3 294 309 295
3 293 307 294
3 292 306 293
3 291 305 292
3 290 304 291
3 289 5 4
3 288 302 289
3 287 302 288
3 286 301 287
3 285 300 286
3 284 299 285
3 283 297 284
3 282 296 283
3 281 295 282
3 280 294 281
3 279 293 280
3 278 292 279
3 277 291 278
3 276 4 3
3 275 289 276
3 274 288 275
3 273 286 274
3 272 286 273
3 271 284 272
3 270 284 271
3 269 283 270
3 268 282 269
3 267 280 268
3 266 279 267
3 265 278 266
3 264 276 2
3 263 276 264
3 262 274 263
3 261 274 262
3 260 272 261
3 259 271 260
3 258 271 259
3 257 270 258
3 256 269 257
3 255 2 1
3 254 263 255
3 253 262 254
3 252 262 253
3 251 260 252
3 250 259 251
3 249 1 0
3 248 255 249
3 135 136 126
3 10 108 98
3 205 206 196
3 497 498 485
3 43 44 37
3 241 388 374
3 234 235 304
3 235 236 318
3 236 237 332
3 304 305 291
3 238 346 332
3 243 244 430
3 244 245 444
3 245 246 458
3 246 247 472
3 278 279 266
3 112 113 103
3 214 215 205
3 370 371 357
3 305 306 292
3 279 280 267
3 223 224 215
3 240 374 360
3 95 96 86
3 0 1 27
3 1 2 32
3 4 5 58
3 5 6 68
3 271 272 260
3 8 9 98
3 322 323 309
3 11 12 128
3 12 13 138
3 13 14 148
3 14 15 158
3 15 16 168
3 17 18 188
3 18 19 198
3 19 20 208
3 20 21 217
3 21 22 225
3 22 23 232
3 498 19 18
3 508 509 498
3 215 216 206
3 527 23 22
3 52 53 44
3 202 203 193
3 293 294 280
3 272 273 261
3 79 80 70
3 242 402 388
3 88 89 79
3 312 313 299
3 525 22 21
3 155 156 146
3 28 29 26
3 306 307 293
3 239 360 346
3 274 275 263
3 141 142 132
3 143 144 134
3 436 437 423
3 164 165 155
3 518 21 20
3 421 422 408
3 276 3 2
3 517 518 509
3 280 281 268
3 397 398 384
3 494 495 482
3 385 386 372
3 485 18 17
3 509 20 19
3 169 170 160
3 222 223 214
3 86 87 77
3 453 454 440
3 477 478 464
3 121 122 112
3 399 400 386
3 302 303 289
3 221 222 213
3 32 33 28
3 33 34 29
3 345 8 7
3 196 197 187
3 204 205 195
3 172 173 163
3 230 231 223
3 145 146 136
3 64 65 55
3 350 351 337
3 347 348 334
3 425 426 412
3 11 118 108
3 60 61 51
3 331 7 6
3 450 451 437
3 378 379 365
3 228 229 221
3 446 447 433
3 380 381 367
3 481 482 468
3 361 362 348
3 206 207 197
3 401 12 11
3 63 64 54
3 165 166 156
3 133 134 124
3 114 115 105
3 229 230 222
3 519 520 513
3 415 13 12
3 526 527 525
3 478 479 465
3 386 387 373
3 142 143 133
3 323 324 310
3 74 75 65
3 365 366 352
3 468 469 455
3 360 361 347
3 91 92 82
3 339 340 326
3 373 10 9
3 344 345 331
3 136 137 127
3 309 310 296
3 334 335 321
3 327 328 314
3 391 392 378
3 123 124 114
3 330 331 317
3 440 441 427
3 438 439 425
3 295 296 282
3 319 320 306
3 448 449 435
3 452 453 439
3 324 325 311
3 153 154 144
3 286 287 274
3 260 261 252
3 413 414 400
3 225 232 233
3 219 227 228
3 218 226 227
3 217 225 226
3 158 159 149
3 211 220 221
3 210 219 220
3 209 218 219
3 208 217 218
3 524 525 518
3 466 467 453
3 200 210 211
3 199 209 210
3 198 208 209
3 181 182 172
3 193 203 204
3 311 312 298
3 190 200 201
3 189 199 200
3 188 198 199
3 185 195 196
3 184 194 195
3 212 213 203
3 181 191 192
3 180 190 191
3 179 189 190
3 178 188 189
3 176 186 187
3 175 185 186
3 174 184 185
3 353 354 340
3 172 182 183
3 170 171 161
3 170 180 181
3 169 179 180
3 168 178 179
3 294 295 281
3 165 175 176
3 164 174 175
3 506 507 496
3 161 171 172
3 464 465 451
3 329 330 316
3 158 168 169
3 156 166 167
3 153 163 164
3 392 393 379
3 150 160 161
3 149 159 160
3 122 123 113
3 146 156 157
3 144 154 155
3 142 152 153
3 141 151 152
3 140 150 151
3 139 149 150
3 138 148 149
3 358 359 345
3 134 144 145
3 102 103 93
3 130 140 141
3 129 139 140
3 128 138 139
3 124 134 135
3 122 132 133
3 121 131 132
3 120 130 131
3 119 129 130
3 118 128 129
3 116 126 127
3 463 464 450
3 388 389 375
3 469 470 456
3 396 397 383
3 108 118 119
3 106 116 117
3 105 115 116
3 335 336 322
3 103 113 114
3 100 110 111
3 173 174 164
3 49 50 41
3 94 95 85
3 96 106 107
3 95 105 106
3 94 104 105
3 91 101 102
3 90 100 101
3 89 99 100
3 88 98 99
3 83 93 94
3 80 90 91
3 79 89 90
3 146 147 137
3 68 69 59
3 352 353 339
3 70 80 81
3 66 76 77
3 63 73 74
3 62 72 73
3 61 71 72
3 60 70 71
3 480 481 467
3 56 66 67
3 55 65 66
3 4 48 39
3 404 405 391
3 52 62 63
3 51 61 62
3 111 112 102
3 49 59 60
3 48 58 59
3 47 56 57
3 46 55 56
3 411 412 398
3 259 260 251
3 83 84 74
3 42 51 52
3 41 50 51
3 39 48 49
3 38 45 46
3 53 54 45
3 35 42 43
3 34 41 42
3 33 40 41
3 31 36 37
3 30 35 36
3 29 34 35
3 26 29 30
3 8 88 78
3 125 126 116
3 78 79 69
3 183 184 174
3 476 477 463
3 162 163 153
3 435 436 422
3 315 316 302
3 342 343 329
3 516 517 508
3 69 70 60
3 400 401 387
3 96 97 87
3 292 293 279
3 243 416 402
3 108 109 99
3 193 194 184
3 341 342 328
3 211 212 202
3 471 17 16
3 474 475 461
3 27 28 25
3 376 377 363
3 431 432 418
3 307 308 294
3 320 321 307
3 432 433 419
3 356 357 343
3 262 263 254
3 81 82 72
3 17 178 168
3 454 455 441
3 176 177 167
3 201 202 192
3 103 104 94
3 433 434 420
3 213 214 204
3 419 420 406
3 338 339 325
3 516 523 524
3 514 521 522
3 513 520 521
3 430 431 417
3 506 515 516
3 505 514 515
3 504 513 514
3 502 511 512
3 501 510 511
3 496 507 508
3 494 505 506
3 493 504 505
3 492 503 504
3 3 39 32
3 490 501 502
3 489 500 501
3 488 499 500
3 483 496 497
3 482 495 496
3 192 193 183
3 479 492 493
3 478 491 492
3 477 490 491
3 476 489 490
3 474 487 488
3 473 486 487
3 470 484 485
3 469 483 484
3 468 482 483
3 465 479 480
3 375 376 362
3 461 475 476
3 459 473 474
3 458 472 473
3 318 319 305
3 456 470 471
3 453 467 468
3 451 465 466
3 398 399 385
3 493 494 481
3 448 462 463
3 446 460 461
3 445 459 460
3 444 458 459
3 443 457 16
3 442 456 457
3 441 455 456
3 437 451 452
3 435 449 450
3 75 76 66
3 433 447 448
3 84 85 75
3 431 445 446
3 430 444 445
3 429 443 15
3 428 442 443
3 427 441 442
3 425 439 440
3 377 378 364
3 423 437 438
3 328 329 315
3 502 503 492
3 415 429 14
3 414 428 429
3 413 427 428
3 412 426 427
3 54 55 46
3 410 424 425
3 408 422 423
3 406 420 421
3 395 396 382
3 404 418 419
3 403 417 418
3 402 416 417
3 396 410 411
3 395 409 410
3 392 406 407
3 391 405 406
3 389 403 404
3 388 402 403
3 408 409 395
3 488 489 476
3 380 394 395
3 379 393 394
3 423 424 410
3 376 390 391
3 375 389 390
3 119 120 110
3 522 523 516
3 370 384 385
3 368 382 383
3 367 381 382
3 44 45 38
3 365 379 380
3 383 384 370
3 387 11 10
3 358 372 373
3 357 371 372
3 355 369 370
3 354 368 369
3 353 367 368
3 352 366 367
3 161 162 152
3 350 364 365
3 349 363 364
3 348 362 363
3 263 264 255
3 345 359 9
3 341 355 356
3 340 354 355
3 337 351 352
3 297 298 284
3 335 349 350
3 334 348 349
3 332 346 347
3 7 78 68
3 329 343 344
3 374 375 361
3 357 358 344
3 326 340 341
3 434 435 421
3 323 337 338
3 322 336 337
3 319 333 334
3 318 332 333
3 310 311 297
3 461 462 448
3 312 326 327
3 311 325 326
3 120 121 111
3 307 321 322
3 85 86 76
3 291 292 278
3 303 317 6
3 302 316 317
3 92 93 83
3 300 314 315
3 299 313 314
3 294 308 309
3 82 83 73
3 296 297 283
3 289 303 5
3 407 408 394
3 287 301 302
3 286 300 301
3 285 299 300
3 284 298 299
3 39 40 33
3 109 110 100
3 276 289 4
3 275 288 289
3 274 287 288
3 272 285 286
3 512 513 504
3 270 283 284
3 269 282 283
3 268 281 282
3 414 415 401
3 263 275 276
3 261 273 274
3 258 270 271
3 257 269 270
3 256 268 269
3 255 264 2
3 284 285 272
3 252 261 262
3 412 413 399
3 124 125 115
3 249 255 1
3 248 254 255
